<?xml version="1.0" encoding="utf-8"?>
<!-- Generator: Adobe Illustrator 26.5.0, SVG Export Plug-In . SVG Version: 6.00 Build 0)  -->
<svg version="1.1" id="Layer_1" xmlns="http://www.w3.org/2000/svg" xmlns:xlink="http://www.w3.org/1999/xlink" x="0px" y="0px"
	 viewBox="0 0 100 55" style="enable-background:new 0 0 100 55;" xml:space="preserve">
<style type="text/css">
	.st0{fill-rule:evenodd;clip-rule:evenodd;fill:#FFFFFF;stroke:#FFFFFF;stroke-width:0.216;}
	.st1{fill-rule:evenodd;clip-rule:evenodd;fill:#0C2948;}
	.st2{fill:#0C2948;}
</style>
<g id="Layer_1_00000024700075431995010670000007378230624406277270_">
	<g id="Apex">
		<g>
			<rect x="6.6" y="15.9" class="st0" width="21.8" height="21.8"/>
			<path class="st1" d="M25.1,15.4h3.6v22.6h-3.6v-6l1.1,0.8l-0.4-1.3l1-0.7h-1.3l-0.4-1.3v-2.8l0.6,0.4l-0.4,1.2l1-0.7l1.1,0.7
				l-0.4-1.2l1-0.8h-1.3l-0.4-1.2l-0.4,1.2h-0.8v-3.2l1.1,0.8l-0.4-1.3l1-0.7h-1.3l-0.4-1.3L25.1,15.4L25.1,15.4z M21.9,15.4h3.2
				v5.2l-0.4,1.3h-1.3l1,0.7l-0.4,1.3l1-0.8v3.2h-0.5l0.5,0.4v2.8l-0.4,1.3h-1.3l1,0.7l-0.4,1.3l1-0.8v6h-3.2v-2.8l1.1,0.8l-0.4-1.3
				l1.1-0.7h-1.3l-0.4-1.2v-13l1.1,0.7l-0.4-1.2l1.1-0.7h-1.3l-0.4-1.3L21.9,15.4L21.9,15.4z M17.5,15.4h4.4v2l-0.4,1.3h-1.3
				l1.1,0.7l-0.4,1.2l1-0.7v13l-0.4,1.2h-1.3l1.1,0.7l-0.4,1.3l1-0.8v2.8h-4.4v-1.5l1,0.7l-0.4-1.2l1.1-0.8h-1.3l-0.4-1.2V23.6
				l1.2-0.9h-1.2v-4l1,0.7l-0.4-1.2l1.1-0.8h-1.3l-0.4-1.2C17.5,16.2,17.5,15.4,17.5,15.4z M13.1,15.4h4.4v0.8l-0.4,1.2h-1.3
				l1.1,0.8l-0.4,1.2l1.1-0.7v4h-1.9l-0.9-2.9l-0.9,2.9h-0.6v-2.9l1,0.7l-0.4-1.2l1-0.7h-1.3l-0.4-1.3L13.1,15.4L13.1,15.4z
				 M17.5,38.1h-4.4v-2.8l1,0.8l-0.4-1.3l1-0.7h-1.3l-0.4-1.2v-6l1.6-1.2l2.5,1.8l-0.9-2.9l1.3-1v10.5l0,0l-0.4,1.2h-1.3l1.1,0.8
				l-0.4,1.2l1.1-0.7l0,0L17.5,38.1L17.5,38.1z M13.1,24.7l0-0.1l0,0V24.7z M11.1,15.4h2v2l-0.4,1.3h-1.3l1,0.7L12,20.6l1.1-0.7v2.9
				h-2v-0.5l0.4-0.3h-0.4V15.4L11.1,15.4z M13.1,38.1h-2v-6.9l0.4-0.3h-0.4v-7.8l2,1.5v0.2l-0.9,2.8l0.9-0.7v6l-0.4,1.2h-1.3l1,0.7
				L12,36.1l1.1-0.8V38.1z M9.8,15.4h1.3v6.5h-0.9l-0.4-1.3L9.8,15.4L9.8,15.4z M11.1,38.1H9.8v-6l1.1,0.8l-0.4-1.3l0.6-0.4
				L11.1,38.1L11.1,38.1z M11.1,22.2v0.5h-0.5l0.5,0.3v7.8h-0.9l-0.4-1.3v-2.8l0.5-0.4H9.8v-3.2l1.1,0.8l-0.4-1.3L11.1,22.2z
				 M6.3,15.4h3.5v5.2l-0.4,1.3H8.1l1,0.7l-0.4,1.3l1-0.8v3.2H9l-0.4-1.2l-0.4,1.2H7l1,0.8l-0.4,1.2l1-0.7l1.1,0.7l-0.4-1.2l0.5-0.4
				v2.8l-0.4,1.3H8.1l1,0.7l-0.4,1.3l1-0.8v6H6.3V15.4z"/>
		</g>
		<g>
			<path class="st2" d="M40.4,24.7h-1.9l-0.8-2.1h-3.5l-0.7,2.1h-1.9l3.4-9.2h1.9L40.4,24.7z M37.2,21.1L36,17.7l-1.2,3.4
				C34.8,21.1,37.2,21.1,37.2,21.1z"/>
			<path class="st2" d="M41.2,24.7v-9.2H44c1.1,0,1.8,0,2.1,0.1c0.5,0.1,0.9,0.4,1.3,0.9c0.3,0.5,0.5,1.1,0.5,1.8
				c0,0.6-0.1,1-0.3,1.4c-0.2,0.4-0.4,0.7-0.7,0.9c-0.3,0.2-0.6,0.4-0.9,0.4c-0.4,0.1-1,0.1-1.8,0.1h-1.1v3.5H41.2z M42.9,17.1v2.6
				h1c0.7,0,1.2,0,1.4-0.1c0.2-0.1,0.4-0.2,0.5-0.5c0.1-0.2,0.2-0.4,0.2-0.7c0-0.3-0.1-0.6-0.3-0.8c-0.2-0.2-0.4-0.4-0.7-0.4
				c-0.2,0-0.6-0.1-1.3-0.1H42.9z"/>
			<path class="st2" d="M49.3,24.7v-9.2h6.4v1.6H51v2h4.4v1.5H51v2.5h4.9v1.5H49.3z"/>
			<path class="st2" d="M56.5,24.7l3-4.8l-2.7-4.4h2.1l1.7,2.9l1.7-2.9h2L61.6,20l3,4.7h-2.1l-1.9-3.2l-1.9,3.2H56.5z"/>
			<path class="st2" d="M31.7,28.9h3.2c0.7,0,1.3,0.1,1.7,0.2c0.5,0.2,0.9,0.4,1.3,0.8c0.4,0.4,0.6,0.9,0.8,1.5
				c0.2,0.6,0.3,1.3,0.3,2.2c0,0.8-0.1,1.4-0.3,2c-0.2,0.7-0.5,1.2-0.9,1.6c-0.3,0.3-0.7,0.6-1.2,0.7c-0.4,0.1-0.9,0.2-1.6,0.2h-3.3
				V28.9z M33.5,30.4v6.1h1.3c0.5,0,0.8,0,1.1-0.1c0.3-0.1,0.5-0.2,0.7-0.4c0.2-0.2,0.3-0.5,0.5-0.9c0.1-0.4,0.2-1,0.2-1.7
				c0-0.7-0.1-1.3-0.2-1.6c-0.1-0.4-0.3-0.7-0.5-0.9c-0.2-0.2-0.5-0.4-0.8-0.4c-0.2-0.1-0.7-0.1-1.4-0.1H33.5z"/>
			<path class="st2" d="M42.8,38.1v-3.9l-3.2-5.3h2.1l2,3.6l2-3.6h2l-3.2,5.3v3.8L42.8,38.1L42.8,38.1z"/>
			<path class="st2" d="M48.6,38.1v-9.2h1.7l3.6,6.1v-6.1h1.6v9.2h-1.8l-3.5-6v6L48.6,38.1L48.6,38.1z"/>
			<path class="st2" d="M65.2,38.1h-1.9L62.5,36H59l-0.7,2.1h-1.9l3.4-9.2h1.9L65.2,38.1z M62,34.4L60.8,31l-1.2,3.4H62z"/>
			<path class="st2" d="M66.1,38.1v-9.2h2.6l1.6,6.3l1.6-6.3h2.6v9.2h-1.6v-7.2l-1.7,7.2h-1.7l-1.7-7.2v7.2
				C67.7,38.1,66.1,38.1,66.1,38.1z"/>
			<path class="st2" d="M76.2,38.1v-9.2h1.8v9.2L76.2,38.1L76.2,38.1z"/>
			<path class="st2" d="M85.2,34.7l1.7,0.6c-0.3,1-0.7,1.7-1.3,2.2c-0.6,0.5-1.4,0.7-2.3,0.7c-1.2,0-2.1-0.4-2.8-1.2
				c-0.7-0.8-1.1-2-1.1-3.4c0-1.5,0.4-2.7,1.1-3.6c0.7-0.8,1.7-1.3,2.9-1.3c1.1,0,1.9,0.3,2.6,1c0.4,0.4,0.7,1,0.9,1.7l-1.7,0.4
				c-0.1-0.5-0.3-0.9-0.6-1.1c-0.3-0.3-0.7-0.4-1.2-0.4c-0.6,0-1.2,0.2-1.6,0.7c-0.4,0.5-0.6,1.3-0.6,2.4c0,1.2,0.2,2,0.6,2.5
				c0.4,0.5,0.9,0.7,1.5,0.7c0.5,0,0.9-0.2,1.2-0.5C84.8,35.9,85,35.4,85.2,34.7z"/>
			<path class="st2" d="M87.9,35.1l1.7-0.2c0.1,0.6,0.3,1,0.6,1.3c0.3,0.3,0.7,0.4,1.3,0.4c0.6,0,1-0.1,1.3-0.4
				c0.3-0.3,0.4-0.5,0.4-0.9c0-0.2-0.1-0.4-0.2-0.6c-0.1-0.2-0.3-0.3-0.6-0.4c-0.2-0.1-0.7-0.2-1.4-0.4c-0.9-0.2-1.6-0.5-2-0.9
				c-0.5-0.5-0.8-1.1-0.8-1.8c0-0.5,0.1-0.9,0.4-1.3c0.2-0.4,0.6-0.7,1.1-0.9c0.5-0.2,1-0.3,1.7-0.3c1.1,0,1.9,0.3,2.5,0.8
				c0.6,0.5,0.8,1.2,0.9,2L93,31.6c-0.1-0.5-0.2-0.8-0.5-1c-0.2-0.2-0.6-0.3-1.1-0.3c-0.5,0-0.9,0.1-1.2,0.3
				c-0.2,0.1-0.3,0.3-0.3,0.6c0,0.2,0.1,0.4,0.3,0.6c0.2,0.2,0.8,0.4,1.6,0.6c0.9,0.2,1.5,0.4,1.9,0.7c0.4,0.2,0.7,0.5,1,0.9
				c0.2,0.4,0.3,0.9,0.3,1.5c0,0.5-0.1,1-0.4,1.5c-0.3,0.5-0.7,0.8-1.2,1c-0.5,0.2-1.1,0.3-1.9,0.3c-1.1,0-1.9-0.3-2.5-0.8
				C88.4,36.9,88,36.1,87.9,35.1z"/>
		</g>
	</g>
</g>
</svg>
