<?xml version="1.0" encoding="utf-8"?>
<!-- Generator: Adobe Illustrator 26.5.0, SVG Export Plug-In . SVG Version: 6.00 Build 0)  -->
<svg version="1.1" id="Layer_1" xmlns="http://www.w3.org/2000/svg" xmlns:xlink="http://www.w3.org/1999/xlink" x="0px" y="0px"
	 viewBox="0 0 100 55" style="enable-background:new 0 0 100 55;" xml:space="preserve">
<style type="text/css">
	.st0{fill:#2A1C1A;}
	.st1{fill:#281D1A;}
	.st2{fill:#D6023B;}
	.st3{fill:#D5023A;}
	.st4{enable-background:new    ;}
	.st5{fill:#2B201E;}
</style>
<g>
	<path class="st0" d="M28.5,32.8c-6.3,0-6.4-0.2-6.4-6.3c0-6.7,0-6.7,6.8-6.7c6,0,6.2,0.2,6.2,6.1c0,1.1,0,2.2,0,3.4
		c-0.1,2.5-1.1,3.6-3.6,3.6C30.5,32.8,29.5,32.8,28.5,32.8z M32.5,22.3c-1.7,0.6-2.8,1.4-3.2,2.9c0,0.1,0.2,0.4,0.3,0.4
		c1.5-0.3,2.4-1.4,2.9-2.8C32.5,22.8,32.5,22.7,32.5,22.3z M32.5,30.2c-0.3-1.6-1.2-2.5-2.4-3.1c-0.2-0.1-0.6-0.1-0.7,0
		s-0.1,0.5,0,0.7C30,29,30.9,30,32.5,30.2z M27.9,24.9c-0.5-0.9-1.1-1.9-2.4-2.2C25,22.6,24.8,23,25,23.3c0.4,1.1,1.2,1.8,2.3,2.2
		C27.7,25.7,27.9,25.5,27.9,24.9z M27.9,27.8c0.1-0.6-0.1-0.9-0.5-0.8c-1.1,0.4-2,1.1-2.4,2.2c-0.1,0.3-0.1,0.8,0.4,0.7
		C26.7,29.7,27.4,28.7,27.9,27.8z"/>
	<path class="st1" d="M15.9,20.1c0.6,0,1.1,0,1.7,0c1,0,1.9-0.2,1.8,1.4c0,1.5-0.8,1.3-1.8,1.3c-1.1,0-2.3-0.1-3.4,0
		c-2.2,0.2-3.5,1.4-3.5,3.4s1.3,3.3,3.5,3.4c1.2,0.1,2.4,0.1,3.6,0s1.5,0.3,1.6,1.5c0,1.3-0.6,1.3-1.6,1.3c-1.3-0.1-2.5,0-3.8,0
		c-3.6-0.1-6.2-2.7-6.2-6.1s2.6-6.1,6.1-6.2C14.6,20.1,15.3,20.1,15.9,20.1z"/>
	<path class="st2" d="M32.5,22.3c0,0.4,0,0.5,0,0.6c-0.5,1.4-1.3,2.4-2.9,2.8c-0.1,0-0.4-0.3-0.3-0.4C29.7,23.6,30.8,22.8,32.5,22.3
		z"/>
	<path class="st2" d="M32.5,30.2C30.9,30,30,29,29.4,27.8c-0.1-0.2-0.1-0.6,0-0.7s0.5-0.1,0.7,0C31.3,27.7,32.2,28.6,32.5,30.2z"/>
	<path class="st3" d="M27.9,24.9c0,0.6-0.2,0.8-0.6,0.7c-1.1-0.4-1.9-1.1-2.3-2.2c-0.1-0.4,0.1-0.7,0.5-0.6
		C26.8,22.9,27.4,23.9,27.9,24.9z"/>
	<path class="st3" d="M27.9,27.8c-0.5,1-1.1,2-2.5,2.1c-0.5,0.1-0.5-0.4-0.4-0.7c0.4-1.1,1.3-1.8,2.4-2.2
		C27.8,26.9,28,27.2,27.9,27.8z"/>
</g>
<g class="st4">
	<path class="st5" d="M38.1,32.4c-0.1-0.1-0.2-0.3-0.2-0.6V21c0-0.3,0.1-0.5,0.2-0.6c0.1-0.1,0.4-0.2,0.7-0.2H40
		c0.2,0,0.4,0,0.5,0.1s0.2,0.2,0.4,0.3l5.4,7.2V21c0-0.3,0.1-0.5,0.2-0.6c0.1-0.1,0.4-0.2,0.7-0.2h1.4c0.3,0,0.5,0.1,0.7,0.2
		c0.1,0.1,0.2,0.3,0.2,0.6v10.8c0,0.3-0.1,0.5-0.2,0.6c-0.1,0.1-0.4,0.2-0.7,0.2h-1.2c-0.2,0-0.4,0-0.5-0.1s-0.2-0.2-0.4-0.3
		L41.1,25v6.8c0,0.3-0.1,0.5-0.2,0.6c-0.1,0.1-0.4,0.2-0.7,0.2h-1.4C38.4,32.6,38.2,32.6,38.1,32.4z"/>
	<path class="st5" d="M56.1,32.5c-0.1-0.1-0.2-0.2-0.3-0.4L51,20.8c0-0.1-0.1-0.2-0.1-0.3c0-0.2,0.1-0.3,0.3-0.3h2.3
		c0.2,0,0.3,0,0.4,0.1s0.2,0.2,0.2,0.3l3.1,7.8l3.1-7.8c0.1-0.3,0.3-0.4,0.7-0.4h2.3c0.2,0,0.3,0.1,0.3,0.3c0,0.1,0,0.2-0.1,0.3
		l-4.8,11.3c-0.1,0.2-0.2,0.3-0.3,0.4s-0.3,0.1-0.5,0.1h-1.4C56.4,32.6,56.2,32.6,56.1,32.5z"/>
	<path class="st5" d="M68,32.3c-0.9-0.4-1.6-0.9-2.1-1.6c-0.5-0.7-0.7-1.5-0.7-2.5V21c0-0.3,0.1-0.5,0.2-0.6
		c0.1-0.1,0.4-0.2,0.7-0.2h1.4c0.3,0,0.5,0.1,0.7,0.2c0.1,0.1,0.2,0.3,0.2,0.6v7.2c0,0.8,0.2,1.4,0.7,1.8c0.5,0.4,1.2,0.6,2.1,0.6
		c0.9,0,1.6-0.2,2.1-0.6c0.5-0.4,0.7-1,0.7-1.8V21c0-0.3,0.1-0.5,0.2-0.6c0.1-0.1,0.4-0.2,0.7-0.2h1.4c0.3,0,0.5,0.1,0.7,0.2
		c0.1,0.1,0.2,0.3,0.2,0.6v7.2c0,1-0.3,1.8-0.8,2.5s-1.2,1.3-2.1,1.6c-0.9,0.4-1.9,0.6-3.1,0.6S68.9,32.7,68,32.3z"/>
	<path class="st5" d="M79.1,32.4c-0.1-0.1-0.2-0.3-0.2-0.6V21c0-0.3,0.1-0.5,0.2-0.6c0.1-0.1,0.4-0.2,0.7-0.2h1.4
		c0.2,0,0.4,0,0.5,0.1s0.2,0.2,0.3,0.3l3.3,7.4l3.3-7.4c0.1-0.2,0.2-0.3,0.3-0.3s0.3-0.1,0.5-0.1H91c0.3,0,0.5,0.1,0.7,0.2
		c0.1,0.1,0.2,0.3,0.2,0.6v10.8c0,0.3-0.1,0.5-0.2,0.6c-0.1,0.1-0.4,0.2-0.7,0.2h-1.2c-0.3,0-0.5-0.1-0.7-0.2
		C89,32.3,89,32.1,89,31.8v-6.9l-2.6,5.4c-0.1,0.3-0.3,0.4-0.4,0.5c-0.1,0.1-0.3,0.2-0.6,0.2c-0.3,0-0.5-0.1-0.6-0.2
		c-0.1-0.1-0.3-0.3-0.4-0.5l-2.5-5.4v6.9c0,0.3-0.1,0.5-0.2,0.6c-0.1,0.1-0.4,0.2-0.7,0.2h-1.2C79.5,32.6,79.3,32.6,79.1,32.4z"/>
</g>
</svg>
