<?xml version="1.0" encoding="utf-8"?>
<!-- Generator: Adobe Illustrator 26.5.0, SVG Export Plug-In . SVG Version: 6.00 Build 0)  -->
<svg version="1.1" id="Layer_1" xmlns="http://www.w3.org/2000/svg" xmlns:xlink="http://www.w3.org/1999/xlink" x="0px" y="0px"
	 viewBox="0 0 100 55" style="enable-background:new 0 0 100 55;" xml:space="preserve">
<style type="text/css">
	.st0{fill:#E50013;}
	.st1{fill:#009844;}
</style>
<g id="Layer_1_00000086680562013694091590000011462231082554689980_">
	<g id="Hiwin">
		<g>
			<path class="st0" d="M10,38.1H9.5V36l-0.7,1.5H8.4L7.7,36v2.1H7.2V35h0.5l0.9,1.9L9.5,35H10L10,38.1L10,38.1z"/>
			<path class="st0" d="M12.5,37c0,0.2,0,0.4-0.1,0.5c0,0.1-0.1,0.3-0.2,0.4c-0.2,0.2-0.4,0.3-0.7,0.3c-0.3,0-0.5-0.1-0.7-0.3
				c-0.1-0.1-0.2-0.2-0.2-0.4c0-0.1-0.1-0.3-0.1-0.5c0-0.2,0-0.4,0.1-0.5c0-0.1,0.1-0.3,0.2-0.4c0-0.1,0.1-0.1,0.2-0.1
				c0.1,0,0.1-0.1,0.2-0.1c0.1,0,0.2,0,0.3,0c0.1,0,0.3,0,0.4,0.1c0.1,0,0.2,0.1,0.3,0.2c0.1,0.1,0.2,0.2,0.2,0.4
				C12.5,36.6,12.5,36.8,12.5,37z M12,37c0-0.1,0-0.3,0-0.4c0-0.1-0.1-0.2-0.1-0.2c-0.1-0.1-0.2-0.1-0.3-0.1c-0.1,0-0.2,0-0.3,0.1
				c-0.1,0.1-0.1,0.1-0.1,0.2c0,0.1,0,0.2,0,0.4c0,0.1,0,0.3,0,0.4c0,0.1,0.1,0.2,0.1,0.2c0.1,0.1,0.2,0.1,0.3,0.1
				c0.1,0,0.2,0,0.3-0.1c0.1-0.1,0.1-0.1,0.1-0.2C12,37.2,12,37.1,12,37z"/>
			<path class="st0" d="M14,38.1h-0.3c-0.1,0-0.2,0-0.3-0.1c-0.1-0.1-0.2-0.1-0.2-0.2c0-0.1-0.1-0.2-0.1-0.3v-1.2h-0.3v-0.3h0.3
				v-0.7h0.4v0.7H14v0.3h-0.4v1.2c0,0.2,0.1,0.3,0.2,0.3H14V38.1z"/>
			<path class="st0" d="M15,35.4h-0.5v-0.5H15V35.4z M15,38.1h-0.4v-2.2H15V38.1z"/>
			<path class="st0" d="M17.5,37c0,0.2,0,0.4-0.1,0.5c0,0.1-0.1,0.3-0.2,0.4c-0.2,0.2-0.4,0.3-0.7,0.3c-0.3,0-0.5-0.1-0.7-0.3
				c-0.1-0.1-0.2-0.2-0.2-0.4c0-0.1-0.1-0.3-0.1-0.5c0-0.2,0-0.4,0.1-0.5c0-0.1,0.1-0.3,0.2-0.4c0-0.1,0.1-0.1,0.2-0.1
				c0.1,0,0.1-0.1,0.2-0.1c0.1,0,0.2,0,0.3,0c0.1,0,0.3,0,0.4,0.1c0.1,0,0.2,0.1,0.3,0.2c0.1,0.1,0.2,0.2,0.2,0.4
				C17.5,36.6,17.5,36.8,17.5,37z M17,37c0-0.1,0-0.3,0-0.4c0-0.1-0.1-0.2-0.1-0.2c-0.1-0.1-0.2-0.1-0.3-0.1c-0.1,0-0.2,0-0.3,0.1
				c-0.1,0.1-0.1,0.1-0.1,0.2c0,0.1,0,0.2,0,0.4c0,0.1,0,0.3,0,0.4c0,0.1,0.1,0.2,0.1,0.2c0.1,0.1,0.2,0.1,0.3,0.1
				c0.1,0,0.2,0,0.3-0.1c0.1-0.1,0.1-0.1,0.1-0.2C17,37.2,17,37.1,17,37z"/>
			<path class="st0" d="M19.9,38.1h-0.4v-1.4c0-0.1,0-0.2-0.1-0.3c0-0.1-0.1-0.1-0.2-0.2c-0.1,0-0.1-0.1-0.2-0.1
				c-0.1,0-0.2,0-0.3,0.1c-0.1,0.1-0.1,0.2-0.1,0.4v1.4h-0.4v-2.2h0.4v0.2c0.1-0.1,0.2-0.1,0.3-0.2c0.1,0,0.2-0.1,0.3-0.1
				c0.2,0,0.4,0.1,0.5,0.2c0.1,0.1,0.2,0.4,0.2,0.6L19.9,38.1L19.9,38.1z"/>
			<path class="st0" d="M24.9,37.2c0,0.1,0,0.3-0.1,0.4c-0.1,0.1-0.1,0.2-0.2,0.3c-0.1,0.1-0.2,0.1-0.4,0.2c-0.1,0-0.3,0.1-0.4,0.1
				c-0.2,0-0.4,0-0.6-0.1c-0.2-0.1-0.3-0.2-0.5-0.3l0.3-0.3c0.1,0.1,0.1,0.1,0.2,0.2c0.1,0,0.2,0.1,0.3,0.1c0.1,0,0.2,0,0.3,0
				c0.2,0,0.4,0,0.5-0.1c0.1-0.1,0.2-0.2,0.2-0.4c0-0.1,0-0.2-0.1-0.3c0,0-0.1-0.1-0.1-0.1c0,0-0.1,0-0.2,0l-0.4-0.1
				c-0.3,0-0.5-0.1-0.6-0.3c-0.2-0.1-0.2-0.3-0.2-0.6c0-0.2,0-0.3,0.1-0.5c0.1-0.1,0.2-0.2,0.4-0.3c0.2-0.1,0.3-0.1,0.6-0.1
				c0.2,0,0.4,0,0.5,0.1c0.2,0.1,0.3,0.1,0.4,0.3l-0.3,0.3c-0.1-0.1-0.1-0.1-0.2-0.1c-0.1,0-0.1-0.1-0.2-0.1c-0.1,0-0.2,0-0.3,0
				c-0.1,0-0.2,0-0.3,0.1c-0.1,0-0.2,0.1-0.2,0.2c0,0.1-0.1,0.2-0.1,0.3c0,0.1,0,0.2,0.1,0.3c0,0,0.1,0.1,0.2,0.1
				c0.1,0,0.1,0,0.2,0.1l0.4,0.1c0.1,0,0.3,0,0.3,0.1c0.1,0,0.2,0.1,0.2,0.1C24.8,36.7,24.9,36.9,24.9,37.2z"/>
			<path class="st0" d="M27.3,35.9l-1,2.7c0,0.1-0.1,0.2-0.2,0.3C26,38.9,25.9,39,25.7,39h-0.2v-0.4h0.1c0.1,0,0.2,0,0.2-0.1
				c0,0,0.1-0.1,0.1-0.2L26,38l-0.8-2.1h0.5l0.5,1.6l0.5-1.6C26.8,35.9,27.3,35.9,27.3,35.9z"/>
			<path class="st0" d="M29.4,37.4c0,0.2,0,0.3-0.1,0.4c-0.1,0.1-0.2,0.2-0.3,0.2c-0.1,0.1-0.3,0.1-0.5,0.1c-0.1,0-0.3,0-0.4,0
				c-0.1,0-0.2-0.1-0.3-0.1c-0.1,0-0.2-0.1-0.3-0.2l0.3-0.3c0.1,0.2,0.4,0.2,0.6,0.2c0.1,0,0.2,0,0.2,0c0.1,0,0.1-0.1,0.2-0.1
				c0,0,0.1-0.1,0.1-0.2c0-0.2-0.1-0.2-0.3-0.3l-0.4,0c-0.1,0-0.3,0-0.4-0.1c-0.1,0-0.2-0.1-0.2-0.2c-0.1-0.1-0.1-0.2-0.1-0.3
				c0-0.2,0.1-0.4,0.2-0.5c0.2-0.1,0.4-0.2,0.6-0.2c0.4,0,0.6,0.1,0.8,0.3L29,36.4c-0.1-0.1-0.3-0.2-0.5-0.2c-0.1,0-0.2,0-0.3,0.1
				c-0.1,0.1-0.1,0.1-0.1,0.2c0,0.2,0.1,0.2,0.3,0.3l0.4,0c0.1,0,0.3,0,0.4,0.1c0.1,0,0.2,0.1,0.2,0.2
				C29.4,37.2,29.4,37.3,29.4,37.4z"/>
			<path class="st0" d="M31,38.1h-0.3c-0.1,0-0.2,0-0.3-0.1c-0.1-0.1-0.2-0.1-0.2-0.2c0-0.1-0.1-0.2-0.1-0.3v-1.2h-0.3v-0.3h0.3
				v-0.7h0.4v0.7H31v0.3h-0.4v1.2c0,0.2,0.1,0.3,0.2,0.3H31L31,38.1L31,38.1z"/>
			<path class="st0" d="M33.4,37.1H32c0,0.1,0,0.2,0.1,0.3c0,0.1,0.1,0.2,0.2,0.2c0.1,0.1,0.2,0.1,0.3,0.1c0.1,0,0.2,0,0.3-0.1
				c0.1,0,0.2-0.1,0.2-0.2l0.3,0.3C33.2,37.9,33.1,38,33,38c-0.1,0.1-0.3,0.1-0.5,0.1c-0.1,0-0.3,0-0.4-0.1c-0.1,0-0.2-0.1-0.3-0.2
				c-0.1-0.1-0.2-0.2-0.2-0.4c-0.1-0.1-0.1-0.3-0.1-0.5c0-0.2,0-0.4,0.1-0.6c0.1-0.2,0.2-0.3,0.3-0.4c0.1-0.1,0.3-0.1,0.5-0.1
				c0.2,0,0.4,0,0.5,0.1c0.1,0.1,0.3,0.2,0.3,0.4c0.1,0.2,0.1,0.3,0.1,0.6L33.4,37.1L33.4,37.1z M33,36.8c0-0.1,0-0.2-0.1-0.3
				c0-0.1-0.1-0.2-0.2-0.2c-0.1-0.1-0.2-0.1-0.3-0.1c-0.1,0-0.2,0-0.3,0.1c-0.1,0.1-0.1,0.1-0.2,0.2c0,0,0,0.1,0,0.1
				c0,0,0,0.1,0,0.2L33,36.8L33,36.8z"/>
			<path class="st0" d="M37.3,38.1h-0.4v-1.4c0-0.2,0-0.3-0.1-0.4c-0.1-0.1-0.2-0.1-0.3-0.1c-0.1,0-0.2,0-0.3,0.1
				c-0.1,0.1-0.1,0.2-0.1,0.3v1.4h-0.4v-1.4c0-0.1,0-0.2-0.1-0.3c0-0.1-0.1-0.1-0.2-0.2c-0.1,0-0.1-0.1-0.2-0.1
				c-0.1,0-0.2,0-0.3,0.1c-0.1,0.1-0.1,0.2-0.1,0.4v1.4h-0.4v-2.2h0.4v0.2c0.1-0.1,0.2-0.1,0.3-0.2c0.1,0,0.2-0.1,0.3-0.1
				c0.3,0,0.5,0.1,0.6,0.3c0.2-0.2,0.4-0.3,0.7-0.3c0.2,0,0.4,0.1,0.6,0.2c0.2,0.2,0.2,0.4,0.2,0.6L37.3,38.1L37.3,38.1z"/>
			<path class="st0" d="M42.3,35.4h-0.9v2.7H41v-2.7h-0.9V35h2.2V35.4z"/>
			<path class="st0" d="M44.7,37.1h-1.4c0,0.1,0,0.2,0.1,0.3c0,0.1,0.1,0.2,0.2,0.2c0.1,0.1,0.2,0.1,0.3,0.1c0.1,0,0.2,0,0.3-0.1
				c0.1,0,0.2-0.1,0.2-0.2l0.3,0.3c-0.1,0.1-0.2,0.2-0.4,0.3c-0.1,0.1-0.3,0.1-0.5,0.1c-0.1,0-0.3,0-0.4-0.1c-0.1,0-0.2-0.1-0.3-0.2
				c-0.1-0.1-0.2-0.2-0.2-0.4c-0.1-0.1-0.1-0.3-0.1-0.5c0-0.2,0-0.4,0.1-0.6c0.1-0.2,0.2-0.3,0.3-0.4c0.1-0.1,0.3-0.1,0.5-0.1
				c0.2,0,0.4,0,0.5,0.1c0.1,0.1,0.3,0.2,0.3,0.4c0.1,0.2,0.1,0.3,0.1,0.6L44.7,37.1L44.7,37.1z M44.3,36.8c0-0.1,0-0.2-0.1-0.3
				c0-0.1-0.1-0.2-0.2-0.2c-0.1-0.1-0.2-0.1-0.3-0.1c-0.1,0-0.2,0-0.3,0.1c-0.1,0.1-0.1,0.1-0.2,0.2c0,0,0,0.1,0,0.1
				c0,0,0,0.1,0,0.2L44.3,36.8L44.3,36.8z"/>
			<path class="st0" d="M47,37.8c-0.1,0.1-0.1,0.1-0.2,0.2c-0.1,0-0.2,0.1-0.2,0.1c-0.1,0-0.2,0-0.3,0c-0.2,0-0.3,0-0.5-0.1
				c-0.2-0.1-0.3-0.2-0.4-0.4c-0.1-0.2-0.1-0.4-0.1-0.6c0-0.2,0-0.4,0.1-0.5c0.1-0.1,0.1-0.3,0.2-0.4c0.1-0.1,0.2-0.2,0.3-0.2
				c0.1,0,0.2-0.1,0.4-0.1c0.2,0,0.3,0,0.4,0.1c0.1,0,0.2,0.1,0.3,0.2l-0.3,0.3c-0.1-0.1-0.1-0.1-0.2-0.2c-0.1,0-0.1,0-0.2,0
				c-0.2,0-0.3,0.1-0.4,0.2c0,0.1-0.1,0.1-0.1,0.2c0,0.1,0,0.2,0,0.3c0,0.2,0,0.4,0.1,0.5c0.1,0.1,0.2,0.2,0.4,0.2
				c0.1,0,0.2,0,0.2,0c0.1,0,0.1-0.1,0.2-0.2L47,37.8z"/>
			<path class="st0" d="M49.4,38.1H49v-1.4c0-0.2,0-0.3-0.1-0.4c-0.1-0.1-0.2-0.1-0.3-0.1c-0.1,0-0.2,0-0.3,0.1
				c-0.1,0.1-0.1,0.2-0.1,0.4v1.4h-0.4V35h0.4v1.1c0.2-0.2,0.3-0.3,0.6-0.3c0.2,0,0.3,0,0.4,0.1c0.1,0.1,0.2,0.2,0.3,0.3
				c0.1,0.1,0.1,0.3,0.1,0.4L49.4,38.1L49.4,38.1z"/>
			<path class="st0" d="M52,38.1h-0.4v-1.4c0-0.1,0-0.2-0.1-0.3c0-0.1-0.1-0.1-0.2-0.2c-0.1,0-0.1-0.1-0.2-0.1c-0.1,0-0.2,0-0.3,0.1
				c-0.1,0.1-0.1,0.2-0.1,0.4v1.4h-0.4v-2.2h0.4v0.2c0.1-0.1,0.2-0.1,0.3-0.2c0.1,0,0.2-0.1,0.3-0.1c0.2,0,0.4,0.1,0.5,0.2
				c0.2,0.1,0.2,0.4,0.2,0.6L52,38.1L52,38.1z"/>
			<path class="st0" d="M54.6,37c0,0.2,0,0.4-0.1,0.5c0,0.1-0.1,0.3-0.2,0.4c-0.2,0.2-0.4,0.3-0.7,0.3c-0.3,0-0.5-0.1-0.7-0.3
				c-0.1-0.1-0.2-0.2-0.2-0.4c0-0.1-0.1-0.3-0.1-0.5c0-0.2,0-0.4,0.1-0.5c0-0.1,0.1-0.3,0.2-0.4c0-0.1,0.1-0.1,0.2-0.1
				c0.1,0,0.1-0.1,0.2-0.1c0.1,0,0.2,0,0.3,0c0.1,0,0.3,0,0.4,0.1c0.1,0,0.2,0.1,0.3,0.2c0.1,0.1,0.2,0.2,0.2,0.4
				C54.6,36.6,54.6,36.8,54.6,37z M54.1,37c0-0.1,0-0.3,0-0.4c0-0.1-0.1-0.2-0.1-0.2c-0.1-0.1-0.2-0.1-0.3-0.1c-0.1,0-0.2,0-0.3,0.1
				c-0.1,0.1-0.1,0.1-0.1,0.2s0,0.2,0,0.4c0,0.1,0,0.3,0,0.4c0,0.1,0.1,0.2,0.1,0.2c0.1,0.1,0.2,0.1,0.3,0.1c0.1,0,0.2,0,0.3-0.1
				c0.1-0.1,0.1-0.1,0.1-0.2C54.1,37.2,54.1,37.1,54.1,37z"/>
			<path class="st0" d="M56.2,38.1h-0.3c-0.2,0-0.4-0.1-0.5-0.2c-0.1-0.1-0.2-0.3-0.2-0.4V35h0.4v2.5c0,0.1,0,0.2,0.1,0.2
				c0,0,0.1,0.1,0.2,0.1h0.2L56.2,38.1L56.2,38.1z"/>
			<path class="st0" d="M58.5,37c0,0.2,0,0.4-0.1,0.5c0,0.1-0.1,0.3-0.2,0.4c-0.2,0.2-0.4,0.3-0.7,0.3c-0.3,0-0.5-0.1-0.7-0.3
				c-0.1-0.1-0.2-0.2-0.2-0.4c0-0.1-0.1-0.3-0.1-0.5c0-0.2,0-0.4,0.1-0.5c0-0.1,0.1-0.3,0.2-0.4C57,36,57,36,57.1,36
				c0.1,0,0.1-0.1,0.2-0.1c0.1,0,0.2,0,0.3,0c0.1,0,0.3,0,0.4,0.1c0.1,0,0.2,0.1,0.3,0.2c0.1,0.1,0.2,0.2,0.2,0.4
				C58.5,36.6,58.5,36.8,58.5,37z M58.1,37c0-0.1,0-0.3,0-0.4c0-0.1-0.1-0.2-0.1-0.2c-0.1-0.1-0.2-0.1-0.3-0.1c-0.1,0-0.2,0-0.3,0.1
				c-0.1,0.1-0.1,0.1-0.1,0.2c0,0.1,0,0.2,0,0.4c0,0.1,0,0.3,0,0.4c0,0.1,0.1,0.2,0.1,0.2c0.1,0.1,0.2,0.1,0.3,0.1
				c0.1,0,0.2,0,0.3-0.1c0.1-0.1,0.1-0.1,0.1-0.2C58,37.2,58.1,37.1,58.1,37z"/>
			<path class="st0" d="M60.9,38.1c0,0.2,0,0.3-0.1,0.5c-0.1,0.1-0.2,0.3-0.3,0.3C60.3,39,60.2,39,60,39c-0.1,0-0.2,0-0.3,0
				c-0.1,0-0.2-0.1-0.2-0.1c-0.1,0-0.2-0.1-0.2-0.2l0.3-0.3c0.1,0.1,0.2,0.1,0.2,0.1c0.1,0,0.2,0,0.3,0c0.2,0,0.3-0.1,0.4-0.2
				c0.1-0.1,0.1-0.2,0.1-0.4v-0.3c-0.1,0.1-0.2,0.2-0.3,0.2S60,38,59.9,38c-0.1,0-0.2,0-0.3-0.1c-0.1,0-0.2-0.1-0.2-0.1
				c-0.1-0.1-0.2-0.2-0.2-0.4c0-0.1,0-0.3,0-0.5c0-0.2,0-0.4,0-0.5c0-0.1,0.1-0.3,0.2-0.4c0.1-0.1,0.1-0.1,0.2-0.1
				c0.1,0,0.2-0.1,0.3-0.1c0.1,0,0.2,0,0.3,0.1c0.1,0,0.2,0.1,0.3,0.2v-0.2h0.4L60.9,38.1L60.9,38.1z M60.5,36.9
				c0-0.2,0-0.4-0.1-0.5c-0.1-0.1-0.2-0.2-0.4-0.2c-0.2,0-0.3,0.1-0.4,0.2c-0.1,0.1-0.1,0.3-0.1,0.5c0,0.2,0,0.4,0.1,0.5
				c0.1,0.1,0.2,0.2,0.4,0.2c0.2,0,0.3-0.1,0.4-0.2C60.4,37.3,60.5,37.1,60.5,36.9z"/>
			<path class="st0" d="M62.2,35.4h-0.5v-0.5h0.5V35.4z M62.2,38.1h-0.4v-2.2h0.4V38.1z"/>
			<path class="st0" d="M64.8,37.1h-1.4c0,0.1,0,0.2,0.1,0.3c0,0.1,0.1,0.2,0.2,0.2c0.1,0.1,0.2,0.1,0.3,0.1c0.1,0,0.2,0,0.3-0.1
				c0.1,0,0.2-0.1,0.2-0.2l0.3,0.3c-0.1,0.1-0.2,0.2-0.4,0.3c-0.1,0.1-0.3,0.1-0.5,0.1c-0.1,0-0.3,0-0.4-0.1c-0.1,0-0.2-0.1-0.3-0.2
				c-0.1-0.1-0.2-0.2-0.2-0.4c0-0.1-0.1-0.3-0.1-0.5c0-0.2,0-0.4,0.1-0.6c0.1-0.2,0.2-0.3,0.3-0.4c0.1-0.1,0.3-0.1,0.5-0.1
				c0.2,0,0.4,0,0.5,0.1c0.1,0.1,0.3,0.2,0.3,0.4c0.1,0.2,0.1,0.3,0.1,0.6L64.8,37.1L64.8,37.1z M64.3,36.8c0-0.1,0-0.2-0.1-0.3
				c0-0.1-0.1-0.2-0.2-0.2c-0.1-0.1-0.2-0.1-0.3-0.1c-0.1,0-0.2,0-0.3,0.1c-0.1,0.1-0.1,0.1-0.2,0.2c0,0,0,0.1,0,0.1
				c0,0,0,0.1,0,0.2L64.3,36.8L64.3,36.8z"/>
			<path class="st0" d="M67.1,37.4c0,0.2,0,0.3-0.1,0.4c-0.1,0.1-0.2,0.2-0.3,0.2c-0.1,0.1-0.3,0.1-0.5,0.1c-0.1,0-0.3,0-0.4,0
				c-0.1,0-0.2-0.1-0.3-0.1c-0.1,0-0.2-0.1-0.3-0.2l0.3-0.3c0.1,0.2,0.4,0.2,0.6,0.2c0.1,0,0.2,0,0.2,0c0.1,0,0.1-0.1,0.2-0.1
				c0,0,0.1-0.1,0.1-0.2c0-0.2-0.1-0.2-0.3-0.3l-0.4,0c-0.1,0-0.3,0-0.4-0.1c-0.1,0-0.2-0.1-0.2-0.2c-0.1-0.1-0.1-0.2-0.1-0.3
				c0-0.2,0.1-0.4,0.2-0.5c0.2-0.1,0.4-0.2,0.6-0.2c0.4,0,0.6,0.1,0.8,0.3l-0.3,0.3c-0.1-0.1-0.3-0.2-0.5-0.2c-0.1,0-0.2,0-0.3,0.1
				c-0.1,0.1-0.1,0.1-0.1,0.2c0,0.2,0.1,0.2,0.3,0.3l0.4,0c0.1,0,0.3,0,0.4,0.1c0.1,0,0.2,0.1,0.2,0.2
				C67.1,37.2,67.1,37.3,67.1,37.4z"/>
			<path class="st0" d="M72.7,38.1h-0.6l-0.3-0.3c-0.1,0.1-0.2,0.2-0.4,0.2c-0.1,0.1-0.3,0.1-0.5,0.1c-0.3,0-0.6-0.1-0.7-0.2
				c-0.2-0.2-0.3-0.4-0.3-0.7c0-0.1,0-0.3,0.1-0.4c0.1-0.1,0.1-0.2,0.2-0.3c0.1-0.1,0.2-0.2,0.3-0.2c-0.1-0.1-0.2-0.2-0.2-0.3
				c-0.1-0.1-0.1-0.2-0.1-0.3c0-0.1,0-0.3,0.1-0.4c0.1-0.1,0.2-0.2,0.3-0.2c0.1-0.1,0.2-0.1,0.4-0.1c0.1,0,0.3,0,0.4,0.1
				c0.1,0.1,0.2,0.1,0.3,0.2c0.1,0.1,0.1,0.2,0.1,0.4c0,0.1,0,0.2-0.1,0.3c-0.1,0.1-0.1,0.2-0.2,0.2c0,0-0.1,0.1-0.2,0.2l0.7,0.8
				C72,37,72,37,72,36.9c0-0.1,0-0.2,0-0.4h0.4c0,0.1,0,0.3,0,0.4c0,0.1-0.1,0.2-0.1,0.3c0,0.1-0.1,0.2-0.2,0.3L72.7,38.1z
				 M71.6,37.5l-0.7-0.9c-0.1,0.1-0.2,0.1-0.2,0.2c-0.1,0.1-0.1,0.1-0.1,0.2c0,0.1-0.1,0.1-0.1,0.2c0,0.2,0.1,0.3,0.2,0.4
				c0.1,0.1,0.2,0.1,0.4,0.1c0.1,0,0.2,0,0.3-0.1C71.4,37.6,71.5,37.5,71.6,37.5z M71.4,35.6c0-0.1,0-0.2-0.1-0.2
				c-0.1-0.1-0.1-0.1-0.2-0.1c-0.1,0-0.2,0-0.2,0.1c-0.1,0.1-0.1,0.1-0.1,0.2c0,0.1,0,0.1,0.1,0.2c0,0.1,0.1,0.1,0.2,0.2
				c0,0,0,0,0.1,0c0,0,0.1,0,0.1-0.1C71.3,35.9,71.4,35.7,71.4,35.6z"/>
			<path class="st0" d="M77.9,35.9c0,0.2,0,0.3-0.1,0.5c-0.1,0.1-0.2,0.3-0.4,0.3c-0.2,0.1-0.3,0.1-0.5,0.1h-0.7v1.2h-0.5V35h1.2
				c0.1,0,0.3,0,0.4,0.1c0.1,0,0.2,0.1,0.3,0.2c0.1,0.1,0.2,0.2,0.2,0.3C77.9,35.6,77.9,35.8,77.9,35.9z M77.5,35.9
				c0-0.2-0.1-0.3-0.2-0.4c-0.1-0.1-0.2-0.1-0.4-0.1h-0.7v1h0.7c0.2,0,0.3,0,0.4-0.1C77.4,36.2,77.5,36.1,77.5,35.9z"/>
			<path class="st0" d="M80,36l-0.3,0.3c-0.1-0.1-0.1-0.1-0.1-0.1c0,0-0.1,0-0.2,0c-0.1,0-0.2,0-0.2,0.1c-0.1,0-0.1,0.1-0.2,0.2
				c0,0.1-0.1,0.2-0.1,0.3v1.3h-0.4v-2.2h0.4v0.2C79,36,79,36,79.1,35.9c0.1,0,0.2-0.1,0.3-0.1c0.1,0,0.2,0,0.3,0
				C79.9,35.9,79.9,36,80,36z"/>
			<path class="st0" d="M82.1,37c0,0.2,0,0.4-0.1,0.5c0,0.1-0.1,0.3-0.2,0.4c-0.2,0.2-0.4,0.3-0.7,0.3c-0.3,0-0.5-0.1-0.7-0.3
				c-0.1-0.1-0.2-0.2-0.2-0.4c0-0.1-0.1-0.3-0.1-0.5c0-0.2,0-0.4,0.1-0.5c0-0.1,0.1-0.3,0.2-0.4c0-0.1,0.1-0.1,0.2-0.1
				c0.1,0,0.1-0.1,0.2-0.1c0.1,0,0.2,0,0.3,0c0.1,0,0.3,0,0.4,0.1c0.1,0,0.2,0.1,0.3,0.2c0.1,0.1,0.2,0.2,0.2,0.4
				C82.1,36.6,82.1,36.8,82.1,37z M81.7,37c0-0.1,0-0.3,0-0.4c0-0.1-0.1-0.2-0.1-0.2c-0.1-0.1-0.2-0.1-0.3-0.1c-0.1,0-0.2,0-0.3,0.1
				c-0.1,0.1-0.1,0.1-0.1,0.2c0,0.1,0,0.2,0,0.4c0,0.1,0,0.3,0,0.4c0,0.1,0.1,0.2,0.1,0.2c0.1,0.1,0.2,0.1,0.3,0.1
				c0.1,0,0.2,0,0.3-0.1c0.1-0.1,0.1-0.1,0.1-0.2C81.7,37.2,81.7,37.1,81.7,37z"/>
			<path class="st0" d="M84.4,38.1H84v-0.2c-0.1,0.1-0.1,0.1-0.2,0.2c-0.1,0-0.1,0.1-0.2,0.1c-0.1,0-0.1,0-0.2,0
				c-0.1,0-0.2,0-0.3-0.1c-0.1,0-0.2-0.1-0.2-0.1c-0.1-0.1-0.1-0.2-0.2-0.3c0-0.1-0.1-0.2-0.1-0.3c0-0.1,0-0.2,0-0.4
				c0-0.1,0-0.3,0-0.4c0-0.1,0-0.2,0.1-0.3c0-0.1,0.1-0.2,0.2-0.3c0.1-0.1,0.1-0.1,0.2-0.1c0.1,0,0.2-0.1,0.3-0.1
				c0.1,0,0.2,0,0.3,0.1c0.1,0,0.2,0.1,0.3,0.2V35h0.4L84.4,38.1L84.4,38.1z M84,37c0-0.2,0-0.3,0-0.4c0-0.1-0.1-0.2-0.1-0.3
				c-0.1-0.1-0.2-0.1-0.3-0.1c-0.1,0-0.2,0-0.3,0.1c-0.1,0.1-0.1,0.1-0.1,0.3c0,0.1,0,0.2,0,0.4c0,0.2,0,0.3,0,0.4
				c0,0.1,0.1,0.2,0.1,0.3c0.1,0.1,0.2,0.1,0.3,0.1c0.2,0,0.3-0.1,0.4-0.2C84,37.4,84,37.2,84,37z"/>
			<path class="st0" d="M86.9,38.1h-0.4v-0.2c-0.1,0.1-0.2,0.1-0.3,0.2c-0.1,0-0.2,0.1-0.3,0.1c-0.2,0-0.4-0.1-0.5-0.2
				c-0.1-0.1-0.1-0.2-0.2-0.3c0-0.1-0.1-0.2-0.1-0.4v-1.4h0.4v1.4c0,0.2,0,0.3,0.1,0.4c0.1,0.1,0.2,0.1,0.3,0.1c0.1,0,0.2,0,0.3-0.1
				c0.1-0.1,0.1-0.2,0.1-0.4v-1.4h0.4L86.9,38.1L86.9,38.1z"/>
			<path class="st0" d="M89.2,37.8c-0.1,0.1-0.1,0.1-0.2,0.2c-0.1,0-0.2,0.1-0.2,0.1c-0.1,0-0.2,0-0.3,0c-0.2,0-0.3,0-0.5-0.1
				c-0.2-0.1-0.3-0.2-0.4-0.4c-0.1-0.2-0.1-0.4-0.1-0.6c0-0.2,0-0.4,0.1-0.5c0.1-0.1,0.1-0.3,0.2-0.4c0.1-0.1,0.2-0.2,0.3-0.2
				c0.1,0,0.2-0.1,0.4-0.1c0.2,0,0.3,0,0.4,0.1c0.1,0,0.2,0.1,0.3,0.2l-0.3,0.3c-0.1-0.1-0.1-0.1-0.2-0.2c-0.1,0-0.1,0-0.2,0
				c-0.2,0-0.3,0.1-0.4,0.2c0,0.1-0.1,0.1-0.1,0.2c0,0.1,0,0.2,0,0.3c0,0.2,0,0.4,0.1,0.5c0.1,0.1,0.2,0.2,0.4,0.2
				c0.1,0,0.2,0,0.2,0c0.1,0,0.1-0.1,0.2-0.2L89.2,37.8z"/>
			<path class="st0" d="M90.7,38.1h-0.3c-0.1,0-0.2,0-0.3-0.1c-0.1-0.1-0.2-0.1-0.2-0.2c0-0.1-0.1-0.2-0.1-0.3v-1.2h-0.3v-0.3h0.3
				v-0.7h0.4v0.7h0.4v0.3h-0.4v1.2c0,0.2,0.1,0.3,0.2,0.3h0.2L90.7,38.1L90.7,38.1z"/>
			<path class="st0" d="M92.9,37.4c0,0.2,0,0.3-0.1,0.4c-0.1,0.1-0.2,0.2-0.3,0.2c-0.1,0.1-0.3,0.1-0.5,0.1c-0.1,0-0.3,0-0.4,0
				c-0.1,0-0.2-0.1-0.3-0.1c-0.1,0-0.2-0.1-0.3-0.2l0.3-0.3c0.2,0.2,0.4,0.2,0.6,0.2c0.1,0,0.2,0,0.2,0c0.1,0,0.1-0.1,0.2-0.1
				c0,0,0.1-0.1,0.1-0.2c0-0.2-0.1-0.2-0.3-0.3l-0.4,0c-0.1,0-0.3,0-0.4-0.1c-0.1,0-0.2-0.1-0.2-0.2c-0.1-0.1-0.1-0.2-0.1-0.3
				c0-0.2,0.1-0.4,0.2-0.5c0.2-0.1,0.4-0.2,0.6-0.2c0.4,0,0.6,0.1,0.8,0.3l-0.3,0.3c-0.1-0.1-0.3-0.2-0.5-0.2c-0.1,0-0.2,0-0.3,0.1
				c-0.1,0.1-0.1,0.1-0.1,0.2c0,0.2,0.1,0.2,0.3,0.3l0.4,0c0.1,0,0.3,0,0.4,0.1c0.1,0,0.2,0.1,0.2,0.2
				C92.9,37.2,92.9,37.3,92.9,37.4z"/>
		</g>
		<g>
			<path class="st1" d="M11.7,15l7.2,0l-0.4,1.8c0,0-0.2,0-0.6,0c-0.3,0-0.9,0.1-1.2,0.8c-0.3,1-1.1,4.1-1.1,4.1h6.7l1-4
				c0,0,0.4-1-0.9-1c-0.4,0-0.4,0-0.6,0l0.4-1.8l7.1,0L29,16.8c0,0-0.3,0-0.5,0c-0.7,0-1,0.2-1.2,0.8c-0.4,1-3.1,11.3-3.1,11.3
				s-0.2,0.9,0.6,1c0.2,0,0.5,0,0.8,0l-0.7,1.8l-6.8,0l0.5-1.8c0,0,0.3,0,0.8,0c0.4,0,0.9-0.3,1.1-1.1c0.5-1.6,1.4-4.9,1.4-4.9h-6.9
				l-1.3,4.9c0,0-0.3,1.2,0.8,1.1c0.1,0,0.4,0,0.6,0l-0.5,1.8H7.2L7.6,30c0,0,0.4,0,1,0c0.5,0,0.9-0.4,1.1-1
				c0.8-2.4,3.1-11.3,3.1-11.3s0.2-0.8-0.9-0.8c-0.3,0-0.4,0-0.6,0L11.7,15z"/>
			<path class="st1" d="M30.5,15H38l-0.4,1.9c0,0-0.6,0-0.7,0c-0.5,0-1,0.3-1.2,0.9l-3.1,11.2c0,0-0.4,1.1,0.6,1.1
				c0.1,0,0.9,0,0.9,0l-0.5,1.8h-7.3l0.6-1.8c0,0,0.3,0,0.6,0c0.4,0,1-0.2,1.3-1.1c0.7-2.3,3.1-11.3,3.1-11.3s0.2-0.9-1-0.8
				c-0.3,0-0.6,0-0.8,0L30.5,15z"/>
			<path class="st1" d="M38.9,15l7,0l-0.6,1.9c0,0-0.5,0-0.7,0c-0.3,0-0.6,0.3-0.6,0.8l0.1,9.1l4.3-7.4c0,0,0.8-1.7-0.4-2.3
				c-0.2-0.1-0.5-0.1-0.8-0.2l0.6-1.9l6.5,0l-0.6,1.9c0,0-0.3,0-0.6,0c-0.3,0-0.7,0.2-0.6,0.8l0.2,9.4l5.2-9.4c0,0,0.5-0.9-0.9-0.8
				c-0.3,0-0.6,0-1,0l0.6-1.9l6.2,0l-0.5,1.9c0,0-0.4,0-0.7,0c-0.3,0-0.6,0.3-0.9,0.8c-0.6,0.9-8.3,14.2-8.3,14.2l-2.7,0l-0.5-9
				l-5.8,9l-2.7,0l-0.7-14.2c0,0-0.1-0.8-1-0.8c-0.3,0-0.5,0-0.7,0L38.9,15z"/>
			<path class="st1" d="M64,15h7.5l-0.4,1.8c0,0-0.4,0-0.8,0c-0.4,0-0.8,0.3-1,0.8l-3.2,11.2c0,0-0.3,0.9,0.7,1c0.2,0,0.4,0,0.9,0
				l-0.6,1.9l-7.3,0l0.6-1.8c0,0,0.4,0,0.8,0c0.4,0,0.9-0.4,1.1-1.1c0.5-1.6,3-11.2,3-11.2s0.3-0.9-0.9-0.8c-0.3,0-0.9,0-0.8,0
				L64,15z"/>
			<path class="st1" d="M72.8,15l-0.4,1.9c0,0,0.3,0,0.6,0.1c0.4,0.1,0.7,0.3,0.6,0.7c-0.2,1.2-3,11.3-3,11.3s-0.2,0.9-1.1,1
				c-0.2,0-0.4,0-0.6,0l-0.5,1.9l5.9,0l0.5-1.8c0,0-0.4,0-0.8-0.1c-0.4-0.1-0.8-0.4-0.6-1l2.6-9.7l6.4,12.6h2.7l3.9-14.1
				c0,0,0.1-0.7,1-0.8c0.2,0,0.3,0,0.5,0L91,15h-5.8l-0.5,1.9c0,0,0.4,0,0.9,0c0.5,0,1,0.2,0.9,0.8c-0.2,1.1-2.6,9.2-2.6,9.2L78,15
				L72.8,15L72.8,15z"/>
			<g>
				<path class="st1" d="M88.2,29.5c0,1.3,1,2.3,2.3,2.3s2.3-1,2.3-2.3c0-1.3-1-2.3-2.3-2.3S88.2,28.2,88.2,29.5z M88.6,29.5
					c0-1.1,0.9-1.9,1.9-1.9c1.1,0,1.9,0.9,1.9,1.9c0,1.1-0.9,1.9-1.9,1.9C89.5,31.4,88.6,30.6,88.6,29.5z"/>
				<path class="st1" d="M90.9,30.1l0.5,0.6h0.5L91.3,30c-0.1-0.2-0.2-0.3-0.2-0.3c0,0-0.1-0.1-0.2-0.1c0.2-0.1,0.4-0.2,0.6-0.3
					c0.1-0.1,0.2-0.3,0.2-0.4c0-0.2-0.1-0.4-0.2-0.5c-0.2-0.1-0.5-0.2-0.8-0.2h-1.1v2.5H90v-1.1h0.4C90.6,29.8,90.8,29.9,90.9,30.1z
					 M91,28.6c0.1,0.1,0.2,0.2,0.2,0.3c0,0.1-0.1,0.3-0.2,0.3c-0.1,0.1-0.3,0.1-0.6,0.1H90v-0.9h0.5C90.7,28.5,90.9,28.5,91,28.6z"
					/>
			</g>
		</g>
	</g>
</g>
</svg>
