<?xml version="1.0" encoding="utf-8"?>
<!-- Generator: Adobe Illustrator 26.5.0, SVG Export Plug-In . SVG Version: 6.00 Build 0)  -->
<svg version="1.1" id="Layer_1" xmlns="http://www.w3.org/2000/svg" xmlns:xlink="http://www.w3.org/1999/xlink" x="0px" y="0px"
	 viewBox="0 0 100 55" style="enable-background:new 0 0 100 55;" xml:space="preserve">
<style type="text/css">
	.st0{fill:#E30613;}
</style>
<g>
	<path class="st0" d="M10.2,13.3c1.4,0,2.5,1.1,2.5,2.5s-1.1,2.5-2.5,2.5c-1.4,0-2.5-1.1-2.5-2.5C7.8,14.4,8.9,13.3,10.2,13.3"/>
	<path class="st0" d="M91.7,16.6c-0.1,0.3-0.3,0.5-0.5,0.7c-0.2,0.2-0.4,0.3-0.7,0.5c-0.3,0.1-0.5,0.2-0.8,0.2s-0.5-0.1-0.8-0.2
		c-0.3-0.1-0.5-0.3-0.7-0.5c-0.2-0.2-0.3-0.4-0.5-0.7c-0.1-0.3-0.2-0.5-0.2-0.8c0-0.3,0.1-0.5,0.2-0.8c0.1-0.3,0.3-0.5,0.5-0.7
		c0.2-0.2,0.4-0.3,0.7-0.4c0.3-0.1,0.5-0.2,0.8-0.2s0.6,0.1,0.8,0.2c0.3,0.1,0.5,0.3,0.7,0.5c0.2,0.2,0.3,0.4,0.4,0.7
		c0.1,0.3,0.2,0.5,0.2,0.8C91.9,16.1,91.8,16.3,91.7,16.6 M92,14.8c-0.1-0.3-0.3-0.6-0.5-0.8c-0.2-0.3-0.5-0.4-0.8-0.5
		c-0.3-0.1-0.6-0.2-0.9-0.2c-0.3,0-0.6,0.1-0.9,0.2c-0.3,0.1-0.5,0.3-0.8,0.5c-0.3,0.3-0.4,0.5-0.5,0.8c-0.1,0.3-0.2,0.6-0.2,0.9
		c0,0.3,0.1,0.6,0.2,0.9c0.1,0.3,0.3,0.6,0.5,0.8c0.2,0.3,0.5,0.4,0.8,0.5s0.6,0.2,0.9,0.2c0.3,0,0.6-0.1,0.9-0.2
		c0.3-0.1,0.6-0.3,0.8-0.5c0.2-0.2,0.4-0.5,0.5-0.8c0.1-0.3,0.2-0.6,0.2-0.9C92.2,15.4,92.2,15.1,92,14.8"/>
	<path class="st0" d="M89.8,15.6h-0.4v-0.9h0.4c0.3,0,0.4,0,0.5,0.1c0.1,0.1,0.2,0.2,0.2,0.4c0,0.2-0.1,0.3-0.2,0.3
		C90.2,15.6,90,15.6,89.8,15.6 M90.8,15.6c0.1-0.1,0.2-0.3,0.2-0.5c0-0.3-0.1-0.4-0.3-0.6s-0.5-0.2-0.9-0.2h-1v2.8h0.5v-1.2h0.5
		l0.6,1.2H91l-0.6-1.3C90.6,15.8,90.7,15.7,90.8,15.6"/>
	<g>
		<path d="M62.3,28.8h9.9c-0.1-1.6-0.5-2.9-1.1-3.6c-0.9-1.3-2.2-1.9-3.7-1.9c-1.4,0-2.5,0.5-3.5,1.5C62.9,25.8,62.4,27.2,62.3,28.8
			 M72.1,34.1l3.1,0.4c-0.5,2-1.4,3.5-2.7,4.6c-1.3,1.1-3,1.6-5.1,1.6c-2.6,0-4.6-0.9-6.1-2.6s-2.3-4.2-2.3-7.3
			c0-3.3,0.8-5.8,2.3-7.6c1.5-1.8,3.5-2.7,6-2.7c2.4,0,4.3,0.9,5.8,2.6c1.5,1.8,2.3,4.2,2.3,7.4c0,0.2,0,0.5,0,0.9H62.2
			c0.1,2.1,0.7,3.8,1.6,4.9c1,1.1,2.2,1.7,3.7,1.7c1.1,0,2-0.3,2.8-0.9C71.1,36.5,71.7,35.5,72.1,34.1"/>
		<path d="M57.9,38l0.4,2.5c-0.8,0.2-1.6,0.3-2.3,0.3c-1.1,0-2-0.2-2.6-0.6c-0.6-0.4-1-1-1.3-1.7c-0.3-0.7-0.4-2.2-0.4-4.4V20.7
			h-2.3v-2.9h2.3v-3.5l3-1.8v5.3h3.1v2.9h-3.1v14.4c0,1.1,0.1,1.7,0.2,2s0.3,0.5,0.5,0.7c0.3,0.2,0.6,0.3,1,0.3
			C56.9,38.1,57.4,38.1,57.9,38"/>
		<path d="M35.2,30.7c0,2.5,0.5,4.3,1.5,5.6c1,1.2,2.2,1.9,3.7,1.9c1.5,0,2.7-0.6,3.7-1.9c1-1.2,1.5-3.1,1.5-5.7
			c0-2.4-0.5-4.2-1.5-5.4c-1-1.2-2.2-1.9-3.7-1.9c-1.5,0-2.8,0.6-3.7,1.9C35.7,26.4,35.2,28.2,35.2,30.7 M32.1,30.7
			c0-3.6,0.9-6.2,2.7-8c1.5-1.4,3.4-2.1,5.6-2.1c2.5,0,4.4,0.9,6,2.6c1.5,1.7,2.3,4.1,2.3,7.2c0,2.5-0.3,4.5-1,5.9
			c-0.7,1.4-1.7,2.5-3,3.3c-1.3,0.8-2.7,1.2-4.3,1.2c-2.5,0-4.5-0.8-6-2.6S32.1,33.9,32.1,30.7"/>
		<path d="M27.3,33.3l3,0.4c-0.3,2.2-1.2,4-2.5,5.2c-1.4,1.3-3,1.9-5,1.9c-2.5,0-4.5-0.9-5.9-2.6c-1.5-1.7-2.3-4.2-2.3-7.4
			c0-2.1,0.3-3.9,1-5.5c0.7-1.6,1.6-2.7,3-3.5c1.3-0.8,2.7-1.2,4.3-1.2c1.9,0,3.6,0.5,4.8,1.6s2,2.6,2.4,4.5l-3,0.5
			c-0.3-1.3-0.8-2.3-1.5-3c-0.7-0.7-1.6-1-2.6-1c-1.5,0-2.8,0.6-3.7,1.8c-1,1.2-1.4,3-1.4,5.6c0,2.6,0.5,4.5,1.4,5.7
			c0.9,1.2,2.1,1.8,3.6,1.8c1.2,0,2.2-0.4,3-1.2C26.5,36.2,27,34.9,27.3,33.3"/>
		<polygon points="77.5,13.5 77.5,40.1 80.5,40.1 80.5,32.5 82.6,30.3 88.5,40.1 92.2,40.1 84.7,28 91.5,20.8 87.6,20.8 80.5,28.7 
			80.5,13.5 		"/>
		<rect x="8.6" y="20.8" width="3.2" height="19.4"/>
	</g>
</g>
</svg>
