<?xml version="1.0" encoding="utf-8"?>
<!-- Generator: Adobe Illustrator 26.5.0, SVG Export Plug-In . SVG Version: 6.00 Build 0)  -->
<svg version="1.1" id="Layer_1" xmlns="http://www.w3.org/2000/svg" xmlns:xlink="http://www.w3.org/1999/xlink" x="0px" y="0px"
	 viewBox="0 0 100 55" style="enable-background:new 0 0 100 55;" xml:space="preserve">
<style type="text/css">
	.st0{fill:#3468B2;}
	.st1{fill:#FFFFFF;}
</style>
<g>
	<g>
		<path class="st0" d="M29.1,11.1c-1.7,0-3.3,0.3-4.8,0.9c-1.5,0.6-2.8,1.5-4,2.6c-1.2,1.2-2.1,2.5-2.7,4c-0.6,1.5-0.9,3.1-0.9,4.7
			c0,1.7,0.3,3.2,0.9,4.7c0.6,1.5,1.5,2.8,2.7,4c1.2,1.2,2.5,2.1,4,2.7c1.5,0.6,3.1,0.9,4.8,0.9c1.7,0,3.3-0.3,4.8-0.9
			c1.5-0.6,2.9-1.5,4.1-2.7c1.2-1.2,2.1-2.5,2.7-4c0.6-1.5,0.9-3.1,0.9-4.7c0-1.7-0.3-3.3-0.9-4.7"/>
		<path class="st0" d="M40.7,18.6c-0.6-1.5-1.5-2.8-2.7-4c-1.2-1.2-2.5-2-4-2.6c-1.5-0.6-3.1-0.9-4.8-0.9"/>
		<path class="st1" d="M39.5,27.6c-0.6,1.3-1.4,2.5-2.4,3.6c-1.1,1.1-2.3,1.9-3.7,2.4c-1.4,0.6-2.8,0.8-4.3,0.8
			c-1.5,0-2.9-0.3-4.3-0.8c-1.4-0.6-2.6-1.4-3.6-2.4c-1.1-1.1-1.9-2.3-2.4-3.6c-0.6-1.3-0.8-2.7-0.8-4.2c0-1.5,0.3-2.9,0.8-4.3
			c0.6-1.3,1.4-2.5,2.4-3.6c1-1,2.3-1.8,3.6-2.4c1.3-0.5,2.8-0.8,4.3-0.8c1.5,0,3,0.3,4.4,0.8c1.4,0.5,2.6,1.3,3.6,2.4
			c1.1,1.1,1.9,2.3,2.4,3.6c0.6,1.3,0.8,2.8,0.8,4.3C40.4,24.8,40.1,26.3,39.5,27.6z"/>
		<rect x="10" y="15.2" class="st0" width="4.9" height="16.3"/>
		<path class="st0" d="M20.7,23.4c0-1.1,0.2-2.2,0.6-3.2c0.4-1,1-1.9,1.8-2.7c0.8-0.8,1.7-1.4,2.7-1.8c1-0.4,2.1-0.7,3.2-0.7
			c1.1,0,2.2,0.2,3.2,0.6c1,0.4,1.9,1,2.7,1.9c0.8,0.8,1.4,1.7,1.8,2.8c0.4,1,0.6,2.1,0.6,3.2c0,1-0.2,1.9-0.5,2.8
			c-0.3,0.9-0.8,1.8-1.4,2.5c-0.8,1-1.7,1.7-2.9,2.3c-1.1,0.5-2.4,0.8-3.7,0.8c-1,0-1.9-0.2-2.8-0.5c-0.9-0.3-1.7-0.8-2.5-1.4
			c-1-0.8-1.7-1.8-2.3-2.9C21,25.9,20.7,24.7,20.7,23.4 M25.5,23.4c0,1,0.4,1.9,1.1,2.6c0.7,0.7,1.6,1.1,2.6,1.1
			c1,0,1.9-0.4,2.6-1.1c0.7-0.7,1.1-1.6,1.1-2.6c0-1-0.4-1.9-1.1-2.6c-0.7-0.7-1.6-1.1-2.6-1.1c-1,0-1.9,0.4-2.6,1.1
			C25.8,21.5,25.5,22.4,25.5,23.4z"/>
		<path class="st0" d="M43.8,15.2h4.9v9.6c0,0.7,0.1,1.1,0.4,1.5c0.3,0.3,0.7,0.5,1.2,0.5c0.1,0,0.2,0,0.3,0c0.1,0,0.1,0,3.6,0
			l0,4.7h-4.6c-0.9,0-1.7-0.1-2.4-0.3c-0.7-0.2-1.3-0.6-1.8-1.1c-0.6-0.6-1-1.2-1.3-2c-0.3-0.8-0.4-2-0.4-3.7L43.8,15.2"/>
		<rect x="56.4" y="15.2" class="st0" width="4.8" height="16.3"/>
		<path class="st0" d="M63.4,31.5v-9.1c0-0.9,0.1-1.7,0.2-2.3c0.1-0.6,0.3-1.2,0.5-1.7c0.4-1,1.1-1.9,2-2.5c0.9-0.6,1.9-0.9,3-0.9
			c0.9,0,1.8,0.2,2.6,0.7c0.8,0.4,1.5,1.1,2,1.9c0.4,0.6,0.7,1.3,0.9,2.1c0.2,0.8,0.3,1.9,0.3,3.3v8.7h-4.7v-9.8
			c0-0.6-0.1-1.1-0.2-1.4c-0.2-0.3-0.4-0.4-0.8-0.4c-0.3,0-0.6,0.1-0.7,0.4c-0.1,0.2-0.2,0.7-0.2,1.4v9.8L63.4,31.5"/>
		<path class="st0" d="M82,31.5h-4.8V15.2H82V31.5z M85.6,31.5l-3.5-8.8l3.8-7.4h5l-4,7.4l4,8.8C91,31.5,85.6,31.5,85.6,31.5z"/>
	</g>
	<g>
		<path d="M13.1,41.4v-5.6h1c0.5,0,0.9,0,1.2,0.1c0.3,0,0.5,0.1,0.7,0.2c0.2,0.1,0.4,0.3,0.5,0.5c0.1,0.2,0.2,0.4,0.2,0.7
			c0,0.3-0.1,0.6-0.3,0.8c-0.2,0.2-0.5,0.3-0.9,0.4c0.4,0.1,0.8,0.2,1,0.4c0.2,0.2,0.3,0.5,0.3,0.9c0,0.3-0.1,0.5-0.2,0.8
			c-0.1,0.2-0.3,0.4-0.5,0.5c-0.2,0.1-0.4,0.2-0.7,0.2c-0.3,0-0.7,0.1-1.4,0.1L13.1,41.4 M14.3,38h0.3c0.4,0,0.6-0.1,0.8-0.2
			c0.1-0.1,0.2-0.3,0.2-0.5c0-0.2-0.1-0.4-0.2-0.5c-0.1-0.1-0.4-0.2-0.8-0.2h-0.3V38z M14.3,40.5h0.5c0.3,0,0.5-0.1,0.7-0.2
			c0.2-0.1,0.2-0.3,0.2-0.6c0-0.2-0.1-0.4-0.2-0.5C15.3,39,15,39,14.8,39h-0.5C14.3,39,14.3,40.5,14.3,40.5z"/>
		<path d="M21.3,39.8h-2.8c0,0.3,0.1,0.5,0.3,0.6c0.2,0.1,0.4,0.2,0.6,0.2c0.2,0,0.4,0,0.5-0.1c0.1-0.1,0.3-0.2,0.4-0.3l0.9,0.4
			c-0.2,0.3-0.5,0.6-0.7,0.7c-0.3,0.2-0.6,0.2-1,0.2c-0.6,0-1.1-0.2-1.4-0.5c-0.4-0.4-0.5-0.8-0.5-1.5c0-0.6,0.2-1.1,0.6-1.4
			c0.4-0.4,0.8-0.6,1.4-0.6c0.6,0,1.1,0.2,1.4,0.5c0.3,0.4,0.5,0.8,0.5,1.5c0,0,0,0.1,0,0.1C21.3,39.7,21.3,39.7,21.3,39.8
			 M20.2,39.1c0-0.2-0.1-0.4-0.3-0.5c-0.1-0.1-0.3-0.2-0.6-0.2c-0.2,0-0.4,0.1-0.6,0.2c-0.1,0.1-0.2,0.3-0.3,0.5H20.2z"/>
		<path d="M21.8,40.7l0.8-0.4c0,0.1,0.1,0.3,0.2,0.3c0.1,0.1,0.3,0.1,0.5,0.1c0.2,0,0.3,0,0.4-0.1c0.1-0.1,0.2-0.2,0.2-0.3
			c0-0.2-0.2-0.3-0.5-0.5c-0.1,0-0.2-0.1-0.3-0.1c-0.4-0.2-0.7-0.3-0.9-0.5c-0.2-0.2-0.3-0.4-0.3-0.6c0-0.4,0.1-0.7,0.4-0.9
			c0.3-0.2,0.7-0.3,1.1-0.3c0.3,0,0.6,0.1,0.9,0.2c0.2,0.1,0.4,0.3,0.5,0.6l-0.8,0.4c0-0.1-0.1-0.2-0.2-0.3
			c-0.1-0.1-0.2-0.1-0.4-0.1c-0.2,0-0.3,0-0.4,0.1c-0.1,0.1-0.1,0.2-0.1,0.3c0,0.2,0.2,0.4,0.7,0.5c0.1,0,0.1,0,0.1,0
			c0.4,0.1,0.7,0.3,0.9,0.5c0.2,0.2,0.3,0.4,0.3,0.7c0,0.4-0.1,0.7-0.4,0.9c-0.3,0.2-0.7,0.3-1.2,0.3c-0.4,0-0.7-0.1-1-0.2
			C22.1,41.2,21.9,41,21.8,40.7"/>
		<polyline points="25.9,41.4 25.9,38.5 25.4,38.5 25.4,37.7 25.9,37.7 25.9,36.4 27,36.4 27,37.7 27.5,37.7 27.5,38.5 27,38.5 
			27,41.4 25.9,41.4 		"/>
		<path d="M34.6,35.8l0.8,3c0.1,0.2,0.1,0.4,0.1,0.6c0,0.2,0.1,0.5,0.1,0.7c0-0.2,0-0.5,0.1-0.7c0-0.2,0.1-0.5,0.1-0.7l0.7-3h1.2
			l-1.5,5.6h-1.1l-1-3.6c0-0.2-0.1-0.3-0.1-0.5c0-0.2,0-0.3-0.1-0.5c0,0.2,0,0.4-0.1,0.5c0,0.2-0.1,0.3-0.1,0.5l-1,3.6h-1.1
			l-1.5-5.6h1.2l0.7,3.1c0,0.2,0.1,0.4,0.1,0.6c0,0.2,0,0.4,0.1,0.7c0-0.3,0.1-0.7,0.3-1.2l0-0.1l0.8-3L34.6,35.8"/>
		<path d="M38.4,36.1c0-0.2,0.1-0.3,0.2-0.4c0.1-0.1,0.3-0.2,0.4-0.2c0.2,0,0.3,0.1,0.5,0.2c0.1,0.1,0.2,0.3,0.2,0.4
			c0,0.2-0.1,0.3-0.2,0.5c-0.1,0.1-0.3,0.2-0.5,0.2c-0.2,0-0.3-0.1-0.4-0.2C38.5,36.4,38.4,36.3,38.4,36.1 M39.6,41.4h-1.1v-3.7h1.1
			V41.4z"/>
		<path d="M41.8,38.6c0.1-0.4,0.3-0.6,0.5-0.8c0.2-0.2,0.5-0.3,0.8-0.3c0.1,0,0.2,0,0.3,0c0,0,0.1,0,0.1,0l-0.2,1.2
			c-0.1,0-0.2-0.1-0.2-0.1c-0.1,0-0.2,0-0.3,0c-0.3,0-0.6,0.1-0.7,0.3c-0.1,0.2-0.2,0.5-0.2,0.8v1.6h-1.1v-3.7h1.1L41.8,38.6"/>
		<path d="M43.9,36.1c0-0.2,0.1-0.3,0.2-0.4c0.1-0.1,0.3-0.2,0.4-0.2c0.2,0,0.3,0.1,0.5,0.2c0.1,0.1,0.2,0.3,0.2,0.4
			c0,0.2-0.1,0.3-0.2,0.5c-0.1,0.1-0.3,0.2-0.5,0.2c-0.2,0-0.3-0.1-0.4-0.2C44,36.4,43.9,36.3,43.9,36.1 M45.1,41.4H44v-3.7h1.1
			V41.4z"/>
		<path d="M46.2,41.4v-3.7h1.1v0.6c0.2-0.2,0.4-0.4,0.6-0.5c0.2-0.1,0.5-0.2,0.7-0.2c0.3,0,0.5,0,0.7,0.1c0.2,0.1,0.4,0.2,0.5,0.4
			c0.1,0.1,0.1,0.2,0.1,0.4c0,0.1,0,0.3,0,0.6v2.3h-1.1v-1.8c0-0.5-0.1-0.8-0.2-0.9c-0.1-0.1-0.3-0.2-0.5-0.2c-0.1,0-0.3,0-0.4,0.1
			c-0.1,0.1-0.2,0.2-0.3,0.3c-0.1,0.1-0.1,0.2-0.1,0.3c0,0.1,0,0.3,0,0.5v1.8L46.2,41.4"/>
		<path d="M54.8,41.3c0,0.4,0,0.7-0.1,0.8c0,0.2-0.1,0.3-0.2,0.4c-0.2,0.2-0.4,0.3-0.6,0.4c-0.3,0.1-0.6,0.1-0.9,0.1
			c-0.6,0-1.1-0.1-1.4-0.3c-0.3-0.2-0.5-0.5-0.5-0.9h1.2c0,0.1,0.1,0.3,0.2,0.3c0.1,0.1,0.3,0.1,0.5,0.1c0.3,0,0.5-0.1,0.6-0.2
			c0.1-0.2,0.2-0.4,0.2-0.8v-0.5c-0.1,0.2-0.3,0.4-0.5,0.5c-0.2,0.1-0.4,0.2-0.7,0.2c-0.5,0-0.9-0.2-1.2-0.5
			c-0.3-0.4-0.5-0.8-0.5-1.5c0-0.6,0.1-1.1,0.4-1.5c0.3-0.3,0.7-0.5,1.2-0.5c0.3,0,0.5,0.1,0.7,0.2c0.2,0.1,0.4,0.3,0.5,0.6v-0.6h1
			L54.8,41.3 M53.8,39.5c0-0.3-0.1-0.6-0.3-0.8c-0.2-0.2-0.4-0.3-0.7-0.3c-0.3,0-0.5,0.1-0.7,0.3c-0.2,0.2-0.3,0.4-0.3,0.8
			c0,0.3,0.1,0.6,0.2,0.8c0.2,0.2,0.4,0.3,0.7,0.3c0.3,0,0.5-0.1,0.7-0.3C53.7,40.1,53.8,39.9,53.8,39.5z"/>
		<path d="M58.1,40.7l0.7-0.7c0.1,0.2,0.2,0.4,0.4,0.5c0.2,0.1,0.4,0.2,0.6,0.2c0.3,0,0.5-0.1,0.7-0.2c0.2-0.1,0.2-0.3,0.2-0.5
			c0-0.3-0.3-0.5-0.8-0.8c-0.2-0.1-0.3-0.2-0.4-0.2c-0.5-0.3-0.8-0.5-1-0.7c-0.2-0.2-0.3-0.5-0.3-0.9c0-0.5,0.2-0.8,0.5-1.1
			c0.4-0.3,0.8-0.4,1.4-0.4c0.3,0,0.6,0.1,0.9,0.2c0.2,0.1,0.5,0.3,0.6,0.6l-0.7,0.7c-0.1-0.2-0.2-0.3-0.3-0.4
			c-0.1-0.1-0.3-0.1-0.5-0.1c-0.2,0-0.4,0.1-0.6,0.2c-0.1,0.1-0.2,0.3-0.2,0.5c0,0.3,0.3,0.6,0.9,0.8c0.1,0,0.2,0.1,0.3,0.1
			c0.5,0.2,0.8,0.5,1.1,0.7c0.2,0.3,0.3,0.6,0.3,0.9c0,0.5-0.2,0.9-0.5,1.3c-0.4,0.3-0.8,0.5-1.4,0.5c-0.4,0-0.8-0.1-1.1-0.2
			C58.5,41.2,58.2,41,58.1,40.7"/>
		<path d="M66.7,39.5c0,0.6-0.2,1.1-0.6,1.4c-0.4,0.4-0.9,0.6-1.5,0.6c-0.6,0-1.1-0.2-1.5-0.6c-0.4-0.4-0.6-0.9-0.6-1.4
			c0-0.6,0.2-1,0.6-1.4c0.4-0.4,0.9-0.6,1.5-0.6c0.6,0,1.1,0.2,1.5,0.6C66.5,38.5,66.7,39,66.7,39.5 M65.6,39.5
			c0-0.3-0.1-0.5-0.3-0.7c-0.2-0.2-0.4-0.3-0.7-0.3c-0.3,0-0.5,0.1-0.7,0.3c-0.2,0.2-0.3,0.4-0.3,0.7c0,0.3,0.1,0.6,0.3,0.7
			c0.2,0.2,0.4,0.3,0.7,0.3c0.3,0,0.5-0.1,0.7-0.3C65.5,40.1,65.6,39.8,65.6,39.5z"/>
		<rect x="67.6" y="35.5" width="1.1" height="5.9"/>
		<path d="M70.8,37.7v2c0,0.3,0.1,0.6,0.2,0.7c0.1,0.1,0.3,0.2,0.6,0.2c0.3,0,0.5-0.1,0.6-0.2c0.1-0.1,0.2-0.4,0.2-0.7v-2h1.1v2
			c0,0.7-0.2,1.1-0.5,1.5c-0.3,0.3-0.8,0.5-1.4,0.5c-0.7,0-1.1-0.2-1.4-0.5c-0.3-0.3-0.5-0.8-0.5-1.5v-2L70.8,37.7"/>
		<polyline points="74.8,41.4 74.8,38.5 74.3,38.5 74.3,37.7 74.8,37.7 74.8,36.4 75.9,36.4 75.9,37.7 76.4,37.7 76.4,38.5 
			75.9,38.5 75.9,41.4 74.8,41.4 		"/>
		<path d="M77,36.1c0-0.2,0.1-0.3,0.2-0.4c0.1-0.1,0.3-0.2,0.4-0.2c0.2,0,0.3,0.1,0.5,0.2c0.1,0.1,0.2,0.3,0.2,0.4
			c0,0.2-0.1,0.3-0.2,0.5c-0.1,0.1-0.3,0.2-0.5,0.2c-0.2,0-0.3-0.1-0.4-0.2C77.1,36.4,77,36.3,77,36.1 M78.2,41.4h-1.1v-3.7h1.1
			V41.4z"/>
		<path d="M83.3,39.5c0,0.6-0.2,1.1-0.6,1.4c-0.4,0.4-0.9,0.6-1.5,0.6c-0.6,0-1.1-0.2-1.5-0.6c-0.4-0.4-0.6-0.9-0.6-1.4
			c0-0.6,0.2-1,0.6-1.4c0.4-0.4,0.9-0.6,1.5-0.6c0.6,0,1.1,0.2,1.5,0.6C83.1,38.5,83.3,39,83.3,39.5 M82.2,39.5
			c0-0.3-0.1-0.5-0.3-0.7c-0.2-0.2-0.4-0.3-0.7-0.3c-0.3,0-0.5,0.1-0.7,0.3c-0.2,0.2-0.3,0.4-0.3,0.7c0,0.3,0.1,0.6,0.3,0.7
			c0.2,0.2,0.4,0.3,0.7,0.3c0.3,0,0.5-0.1,0.7-0.3C82.1,40.1,82.2,39.8,82.2,39.5z"/>
		<path d="M84.1,41.4v-3.7h1.1v0.6c0.2-0.2,0.4-0.4,0.6-0.5c0.2-0.1,0.5-0.2,0.7-0.2c0.3,0,0.5,0,0.7,0.1c0.2,0.1,0.4,0.2,0.5,0.4
			c0.1,0.1,0.1,0.2,0.1,0.4c0,0.1,0,0.3,0,0.6v2.3h-1.1v-1.8c0-0.5-0.1-0.8-0.2-0.9c-0.1-0.1-0.3-0.2-0.5-0.2c-0.1,0-0.3,0-0.4,0.1
			c-0.1,0.1-0.2,0.2-0.3,0.3c-0.1,0.1-0.1,0.2-0.1,0.3c0,0.1,0,0.3,0,0.5v1.8L84.1,41.4"/>
		<path d="M13.1,41.4v-5.6h1c0.5,0,0.9,0,1.2,0.1c0.3,0,0.5,0.1,0.7,0.2c0.2,0.1,0.4,0.3,0.5,0.5c0.1,0.2,0.2,0.4,0.2,0.7
			c0,0.3-0.1,0.6-0.3,0.8c-0.2,0.2-0.5,0.3-0.9,0.4c0.4,0.1,0.8,0.2,1,0.4c0.2,0.2,0.3,0.5,0.3,0.9c0,0.3-0.1,0.5-0.2,0.8
			c-0.1,0.2-0.3,0.4-0.5,0.5c-0.2,0.1-0.4,0.2-0.7,0.2c-0.3,0-0.7,0.1-1.4,0.1L13.1,41.4 M14.3,38h0.3c0.4,0,0.6-0.1,0.8-0.2
			c0.1-0.1,0.2-0.3,0.2-0.5c0-0.2-0.1-0.4-0.2-0.5c-0.1-0.1-0.4-0.2-0.8-0.2h-0.3V38z M14.3,40.5h0.5c0.3,0,0.5-0.1,0.7-0.2
			c0.2-0.1,0.2-0.3,0.2-0.6c0-0.2-0.1-0.4-0.2-0.5C15.3,39,15,39,14.8,39h-0.5C14.3,39,14.3,40.5,14.3,40.5z"/>
		<path d="M21.3,39.8h-2.8c0,0.3,0.1,0.5,0.3,0.6c0.2,0.1,0.4,0.2,0.6,0.2c0.2,0,0.4,0,0.5-0.1c0.1-0.1,0.3-0.2,0.4-0.3l0.9,0.4
			c-0.2,0.3-0.5,0.6-0.7,0.7c-0.3,0.2-0.6,0.2-1,0.2c-0.6,0-1.1-0.2-1.4-0.5c-0.4-0.4-0.5-0.8-0.5-1.5c0-0.6,0.2-1.1,0.6-1.4
			c0.4-0.4,0.8-0.6,1.4-0.6c0.6,0,1.1,0.2,1.4,0.5c0.3,0.4,0.5,0.8,0.5,1.5c0,0,0,0.1,0,0.1C21.3,39.7,21.3,39.7,21.3,39.8
			 M20.2,39.1c0-0.2-0.1-0.4-0.3-0.5c-0.1-0.1-0.3-0.2-0.6-0.2c-0.2,0-0.4,0.1-0.6,0.2c-0.1,0.1-0.2,0.3-0.3,0.5H20.2z"/>
		<path d="M21.8,40.7l0.8-0.4c0,0.1,0.1,0.3,0.2,0.3c0.1,0.1,0.3,0.1,0.5,0.1c0.2,0,0.3,0,0.4-0.1c0.1-0.1,0.2-0.2,0.2-0.3
			c0-0.2-0.2-0.3-0.5-0.5c-0.1,0-0.2-0.1-0.3-0.1c-0.4-0.2-0.7-0.3-0.9-0.5c-0.2-0.2-0.3-0.4-0.3-0.6c0-0.4,0.1-0.7,0.4-0.9
			c0.3-0.2,0.7-0.3,1.1-0.3c0.3,0,0.6,0.1,0.9,0.2c0.2,0.1,0.4,0.3,0.5,0.6l-0.8,0.4c0-0.1-0.1-0.2-0.2-0.3
			c-0.1-0.1-0.2-0.1-0.4-0.1c-0.2,0-0.3,0-0.4,0.1c-0.1,0.1-0.1,0.2-0.1,0.3c0,0.2,0.2,0.4,0.7,0.5c0.1,0,0.1,0,0.1,0
			c0.4,0.1,0.7,0.3,0.9,0.5c0.2,0.2,0.3,0.4,0.3,0.7c0,0.4-0.1,0.7-0.4,0.9c-0.3,0.2-0.7,0.3-1.2,0.3c-0.4,0-0.7-0.1-1-0.2
			C22.1,41.2,21.9,41,21.8,40.7"/>
		<polyline points="25.9,41.4 25.9,38.5 25.4,38.5 25.4,37.7 25.9,37.7 25.9,36.4 27,36.4 27,37.7 27.5,37.7 27.5,38.5 27,38.5 
			27,41.4 25.9,41.4 		"/>
		<path d="M34.6,35.8l0.8,3c0.1,0.2,0.1,0.4,0.1,0.6c0,0.2,0.1,0.5,0.1,0.7c0-0.2,0-0.5,0.1-0.7c0-0.2,0.1-0.5,0.1-0.7l0.7-3h1.2
			l-1.5,5.6h-1.1l-1-3.6c0-0.2-0.1-0.3-0.1-0.5c0-0.2,0-0.3-0.1-0.5c0,0.2,0,0.4-0.1,0.5c0,0.2-0.1,0.3-0.1,0.5l-1,3.6h-1.1
			l-1.5-5.6h1.2l0.7,3.1c0,0.2,0.1,0.4,0.1,0.6c0,0.2,0,0.4,0.1,0.7c0-0.3,0.1-0.7,0.3-1.2l0-0.1l0.8-3L34.6,35.8"/>
		<path d="M38.4,36.1c0-0.2,0.1-0.3,0.2-0.4c0.1-0.1,0.3-0.2,0.4-0.2c0.2,0,0.3,0.1,0.5,0.2c0.1,0.1,0.2,0.3,0.2,0.4
			c0,0.2-0.1,0.3-0.2,0.5c-0.1,0.1-0.3,0.2-0.5,0.2c-0.2,0-0.3-0.1-0.4-0.2C38.5,36.4,38.4,36.3,38.4,36.1 M39.6,41.4h-1.1v-3.7h1.1
			V41.4z"/>
		<path d="M41.8,38.6c0.1-0.4,0.3-0.6,0.5-0.8c0.2-0.2,0.5-0.3,0.8-0.3c0.1,0,0.2,0,0.3,0c0,0,0.1,0,0.1,0l-0.2,1.2
			c-0.1,0-0.2-0.1-0.2-0.1c-0.1,0-0.2,0-0.3,0c-0.3,0-0.6,0.1-0.7,0.3c-0.1,0.2-0.2,0.5-0.2,0.8v1.6h-1.1v-3.7h1.1L41.8,38.6"/>
		<path d="M43.9,36.1c0-0.2,0.1-0.3,0.2-0.4c0.1-0.1,0.3-0.2,0.4-0.2c0.2,0,0.3,0.1,0.5,0.2c0.1,0.1,0.2,0.3,0.2,0.4
			c0,0.2-0.1,0.3-0.2,0.5c-0.1,0.1-0.3,0.2-0.5,0.2c-0.2,0-0.3-0.1-0.4-0.2C44,36.4,43.9,36.3,43.9,36.1 M45.1,41.4H44v-3.7h1.1
			V41.4z"/>
		<path d="M46.2,41.4v-3.7h1.1v0.6c0.2-0.2,0.4-0.4,0.6-0.5c0.2-0.1,0.5-0.2,0.7-0.2c0.3,0,0.5,0,0.7,0.1c0.2,0.1,0.4,0.2,0.5,0.4
			c0.1,0.1,0.1,0.2,0.1,0.4c0,0.1,0,0.3,0,0.6v2.3h-1.1v-1.8c0-0.5-0.1-0.8-0.2-0.9c-0.1-0.1-0.3-0.2-0.5-0.2c-0.1,0-0.3,0-0.4,0.1
			c-0.1,0.1-0.2,0.2-0.3,0.3c-0.1,0.1-0.1,0.2-0.1,0.3c0,0.1,0,0.3,0,0.5v1.8L46.2,41.4"/>
		<path d="M54.8,41.3c0,0.4,0,0.7-0.1,0.8c0,0.2-0.1,0.3-0.2,0.4c-0.2,0.2-0.4,0.3-0.6,0.4c-0.3,0.1-0.6,0.1-0.9,0.1
			c-0.6,0-1.1-0.1-1.4-0.3c-0.3-0.2-0.5-0.5-0.5-0.9h1.2c0,0.1,0.1,0.3,0.2,0.3c0.1,0.1,0.3,0.1,0.5,0.1c0.3,0,0.5-0.1,0.6-0.2
			c0.1-0.2,0.2-0.4,0.2-0.8v-0.5c-0.1,0.2-0.3,0.4-0.5,0.5c-0.2,0.1-0.4,0.2-0.7,0.2c-0.5,0-0.9-0.2-1.2-0.5
			c-0.3-0.4-0.5-0.8-0.5-1.5c0-0.6,0.1-1.1,0.4-1.5c0.3-0.3,0.7-0.5,1.2-0.5c0.3,0,0.5,0.1,0.7,0.2c0.2,0.1,0.4,0.3,0.5,0.6v-0.6h1
			L54.8,41.3 M53.8,39.5c0-0.3-0.1-0.6-0.3-0.8c-0.2-0.2-0.4-0.3-0.7-0.3c-0.3,0-0.5,0.1-0.7,0.3c-0.2,0.2-0.3,0.4-0.3,0.8
			c0,0.3,0.1,0.6,0.2,0.8c0.2,0.2,0.4,0.3,0.7,0.3c0.3,0,0.5-0.1,0.7-0.3C53.7,40.1,53.8,39.9,53.8,39.5z"/>
		<path d="M58.1,40.7l0.7-0.7c0.1,0.2,0.2,0.4,0.4,0.5c0.2,0.1,0.4,0.2,0.6,0.2c0.3,0,0.5-0.1,0.7-0.2c0.2-0.1,0.2-0.3,0.2-0.5
			c0-0.3-0.3-0.5-0.8-0.8c-0.2-0.1-0.3-0.2-0.4-0.2c-0.5-0.3-0.8-0.5-1-0.7c-0.2-0.2-0.3-0.5-0.3-0.9c0-0.5,0.2-0.8,0.5-1.1
			c0.4-0.3,0.8-0.4,1.4-0.4c0.3,0,0.6,0.1,0.9,0.2c0.2,0.1,0.5,0.3,0.6,0.6l-0.7,0.7c-0.1-0.2-0.2-0.3-0.3-0.4
			c-0.1-0.1-0.3-0.1-0.5-0.1c-0.2,0-0.4,0.1-0.6,0.2c-0.1,0.1-0.2,0.3-0.2,0.5c0,0.3,0.3,0.6,0.9,0.8c0.1,0,0.2,0.1,0.3,0.1
			c0.5,0.2,0.8,0.5,1.1,0.7c0.2,0.3,0.3,0.6,0.3,0.9c0,0.5-0.2,0.9-0.5,1.3c-0.4,0.3-0.8,0.5-1.4,0.5c-0.4,0-0.8-0.1-1.1-0.2
			C58.5,41.2,58.2,41,58.1,40.7"/>
		<path d="M66.7,39.5c0,0.6-0.2,1.1-0.6,1.4c-0.4,0.4-0.9,0.6-1.5,0.6c-0.6,0-1.1-0.2-1.5-0.6c-0.4-0.4-0.6-0.9-0.6-1.4
			c0-0.6,0.2-1,0.6-1.4c0.4-0.4,0.9-0.6,1.5-0.6c0.6,0,1.1,0.2,1.5,0.6C66.5,38.5,66.7,39,66.7,39.5 M65.6,39.5
			c0-0.3-0.1-0.5-0.3-0.7c-0.2-0.2-0.4-0.3-0.7-0.3c-0.3,0-0.5,0.1-0.7,0.3c-0.2,0.2-0.3,0.4-0.3,0.7c0,0.3,0.1,0.6,0.3,0.7
			c0.2,0.2,0.4,0.3,0.7,0.3c0.3,0,0.5-0.1,0.7-0.3C65.5,40.1,65.6,39.8,65.6,39.5z"/>
		<rect x="67.6" y="35.5" width="1.1" height="5.9"/>
		<path d="M70.8,37.7v2c0,0.3,0.1,0.6,0.2,0.7c0.1,0.1,0.3,0.2,0.6,0.2c0.3,0,0.5-0.1,0.6-0.2c0.1-0.1,0.2-0.4,0.2-0.7v-2h1.1v2
			c0,0.7-0.2,1.1-0.5,1.5c-0.3,0.3-0.8,0.5-1.4,0.5c-0.7,0-1.1-0.2-1.4-0.5c-0.3-0.3-0.5-0.8-0.5-1.5v-2L70.8,37.7"/>
		<polyline points="74.8,41.4 74.8,38.5 74.3,38.5 74.3,37.7 74.8,37.7 74.8,36.4 75.9,36.4 75.9,37.7 76.4,37.7 76.4,38.5 
			75.9,38.5 75.9,41.4 74.8,41.4 		"/>
		<path d="M77,36.1c0-0.2,0.1-0.3,0.2-0.4c0.1-0.1,0.3-0.2,0.4-0.2c0.2,0,0.3,0.1,0.5,0.2c0.1,0.1,0.2,0.3,0.2,0.4
			c0,0.2-0.1,0.3-0.2,0.5c-0.1,0.1-0.3,0.2-0.5,0.2c-0.2,0-0.3-0.1-0.4-0.2C77.1,36.4,77,36.3,77,36.1 M78.2,41.4h-1.1v-3.7h1.1
			V41.4z"/>
		<path d="M83.3,39.5c0,0.6-0.2,1.1-0.6,1.4c-0.4,0.4-0.9,0.6-1.5,0.6c-0.6,0-1.1-0.2-1.5-0.6c-0.4-0.4-0.6-0.9-0.6-1.4
			c0-0.6,0.2-1,0.6-1.4c0.4-0.4,0.9-0.6,1.5-0.6c0.6,0,1.1,0.2,1.5,0.6C83.1,38.5,83.3,39,83.3,39.5 M82.2,39.5
			c0-0.3-0.1-0.5-0.3-0.7c-0.2-0.2-0.4-0.3-0.7-0.3c-0.3,0-0.5,0.1-0.7,0.3c-0.2,0.2-0.3,0.4-0.3,0.7c0,0.3,0.1,0.6,0.3,0.7
			c0.2,0.2,0.4,0.3,0.7,0.3c0.3,0,0.5-0.1,0.7-0.3C82.1,40.1,82.2,39.8,82.2,39.5z"/>
		<path d="M84.1,41.4v-3.7h1.1v0.6c0.2-0.2,0.4-0.4,0.6-0.5c0.2-0.1,0.5-0.2,0.7-0.2c0.3,0,0.5,0,0.7,0.1c0.2,0.1,0.4,0.2,0.5,0.4
			c0.1,0.1,0.1,0.2,0.1,0.4c0,0.1,0,0.3,0,0.6v2.3h-1.1v-1.8c0-0.5-0.1-0.8-0.2-0.9c-0.1-0.1-0.3-0.2-0.5-0.2c-0.1,0-0.3,0-0.4,0.1
			c-0.1,0.1-0.2,0.2-0.3,0.3c-0.1,0.1-0.1,0.2-0.1,0.3c0,0.1,0,0.3,0,0.5v1.8L84.1,41.4"/>
	</g>
</g>
</svg>
