<?xml version="1.0" encoding="utf-8"?>
<!-- Generator: Adobe Illustrator 26.5.0, SVG Export Plug-In . SVG Version: 6.00 Build 0)  -->
<svg version="1.1" id="Layer_1" xmlns="http://www.w3.org/2000/svg" xmlns:xlink="http://www.w3.org/1999/xlink" x="0px" y="0px"
	 viewBox="0 0 100 55" style="enable-background:new 0 0 100 55;" xml:space="preserve">
<style type="text/css">
	.st0{fill-rule:evenodd;clip-rule:evenodd;fill:#4D4D4D;}
</style>
<path class="st0" d="M15.4,36.3h6v-2.2h-6v-2.7h6.8v-2.2h-6.8h-2.6v2.2v8.2v2.2h2.6h7v-2.2h-7V36.3L15.4,36.3z M9.2,14.7l2.7,9.4H12
	h2.2h0.1l2.7-9.4V24h2.3V11.4h-1.3H17h-1.3l-2.6,8.9l-2.6-8.9H9.3H8.1H6.8V24h2.4V14.7L9.2,14.7z M67.5,11.4H65V24h2.6V11.4
	L67.5,11.4z M75.6,29.2h-2.6v12.7h2.6V29.2L75.6,29.2z M92.8,11.4h-2.6V24h2.6V11.4L92.8,11.4z M23,11.4h-2.6V24H23V11.4L23,11.4z
	 M86.7,16.3h-5.1v-5h-2.6V24h2.6v-5.5h5.1V24h2.5V11.4h-2.5V16.3L86.7,16.3z M26.8,24h2.6V13.6h3.1v-2.2h-3.1h-2.6h-3.1v2.2h3.1V24
	L26.8,24z M56.1,41.9h2.6V31.4h3.1v-2.2h-3.1h-2.6H53v2.2h3.1V41.9L56.1,41.9z M48.3,24.4c3.2,0,5.1-1.5,5.1-4.3v-8.7h-2.6v9
	c0,1.1-0.9,2-2.5,2c-1.9,0-2.5-1.1-2.5-2v-9h-2.5v8.7C43.3,23.2,45.3,24.4,48.3,24.4L48.3,24.4z M35,36.3h6v-2.2h-6v-2.7h6.8v-2.2
	H35h-2.6v2.2v8.2v2.2H35h7v-2.2h-7V36.3L35,36.3z M56.9,24h3.6c2.3,0,3.8-1.4,3.8-3.4c0-1.6-1.2-3-2.5-3.3c1.1-0.3,2-1.4,2-2.8
	c0-1.9-1.4-3.1-3.9-3.1h-3.1h-2.7V24H56.9L56.9,24z M59.8,22.1h-3v-3.7h3c1,0,1.9,0.6,1.9,1.8C61.7,21.3,61,22.1,59.8,22.1
	L59.8,22.1z M60,13.4c0.7,0,1.5,0.6,1.5,1.5c0,0.7-0.5,1.6-1.6,1.6h-3v-3.1H60L60,13.4z M70,35.8c1.1-0.3,2.3-1.3,2.3-3.1
	c0-2.2-1.6-3.5-4.1-3.5H65h-2.6v12.7H65v-5h2.2c1.3,0,2,0.7,2.2,1.6c0.2,1,0.2,2.4,0.4,3.4h2.6c-0.3-0.9-0.4-2.3-0.5-3.3
	C71.9,36.8,71,36.1,70,35.8L70,35.8z M65,34.8v-3.5h3.1c1,0,1.7,0.7,1.7,1.8c0,0.7-0.6,1.7-1.6,1.7H65L65,34.8z M25.8,29.2h-2.6
	v10.4v2.2h2.6h5.9v-2.2h-5.9V29.2L25.8,29.2z M36.8,18.7c2,0.3,3.2,0.7,3.2,1.9c0,0.8-0.8,1.6-2.5,1.6c-1.7,0-2.6-0.9-2.6-2.1h-2.4
	c0,2.2,1.5,4.2,5.2,4.2c3.5,0,5.1-1.9,5.1-4c0-2-1.3-3.2-3.6-3.7c-2.3-0.4-3.8-0.5-3.8-2c0-0.9,0.9-1.5,2.3-1.5
	c1.5,0,2.3,0.7,2.3,1.9h2.5c0-2-1.5-4.1-4.9-4.1c-2.3,0-4.7,1.4-4.7,3.9C32.7,17,34.2,18.3,36.8,18.7L36.8,18.7z M72.5,18.7
	c2.1,0.3,3.2,0.7,3.2,1.9c0,0.8-0.8,1.6-2.5,1.6c-1.7,0-2.6-0.9-2.6-2.1h-2.4c0,2.2,1.4,4.2,5.2,4.2c3.5,0,5-1.9,5-4
	c0-2-1.3-3.2-3.6-3.7c-2.2-0.4-3.8-0.5-3.8-2c0-0.9,0.9-1.5,2.2-1.5c1.5,0,2.3,0.7,2.3,1.9H78c0-2-1.5-4.1-4.9-4.1
	c-2.3,0-4.7,1.4-4.7,3.9C68.4,17,69.9,18.3,72.5,18.7L72.5,18.7z M47.8,39.9c-2.1,0-3.3-2-3.3-4.4c0-2.4,1.2-4.4,3.3-4.4
	c1.6,0,2.4,1,2.7,2.2h2.7c-0.4-2.5-2.4-4.3-5.4-4.3c-3.9,0-5.9,3-5.9,6.6c0,3.7,2,6.6,5.9,6.6c3,0,5.1-1.8,5.4-4.5h-2.7
	C50.2,38.9,49.4,39.9,47.8,39.9L47.8,39.9z M82.1,39.9c-2,0-3.2-2-3.2-4.4c0-2.4,1.2-4.4,3.2-4.4c1.6,0,2.4,1,2.7,2.2h2.7
	c-0.4-2.5-2.4-4.3-5.4-4.3c-3.9,0-5.9,3-5.9,6.6c0,3.7,2,6.6,5.9,6.6c3,0,5.1-1.8,5.5-4.5h-2.7C84.5,38.9,83.7,39.9,82.1,39.9
	L82.1,39.9z"/>
</svg>
