<?xml version="1.0" encoding="utf-8"?>
<!-- Generator: Adobe Illustrator 26.5.0, SVG Export Plug-In . SVG Version: 6.00 Build 0)  -->
<svg version="1.1" id="Layer_1" xmlns="http://www.w3.org/2000/svg" xmlns:xlink="http://www.w3.org/1999/xlink" x="0px" y="0px"
	 viewBox="0 0 100 55" style="enable-background:new 0 0 100 55;" xml:space="preserve">
<style type="text/css">
	.st0{display:none;}
	.st1{display:inline;fill-rule:evenodd;clip-rule:evenodd;fill:#0066B0;}
	.st2{display:inline;fill-rule:evenodd;clip-rule:evenodd;fill:#E13A3E;}
	.st3{display:inline;fill-rule:evenodd;clip-rule:evenodd;fill:#231F20;}
	.st4{display:inline;}
	.st5{fill:#00ADEE;}
	.st6{fill:#231F20;}
	.st7{fill:#00A752;}
	.st8{display:inline;fill:#FF0000;}
	.st9{display:inline;fill-rule:evenodd;clip-rule:evenodd;fill:#FF0000;}
	.st10{display:inline;fill:#999999;}
	.st11{display:inline;fill:#666666;}
	.st12{fill:url(#SVGID_1_);}
	.st13{fill:#009B46;}
	.st14{fill:#231916;}
	.st15{fill:url(#SVGID_00000157290704384044345770000017547177700734699398_);}
	.st16{fill:#009C46;}
</style>
<g id="Layer_1_00000147218489075949193170000012261270417499119519_">
	<g id="Panasonic" class="st0">
		<path class="st1" d="M26.4,25.4h3.3l0.1,1.1c0.3-0.9,1.9-1.5,2.9-1.5c2.4,0,3.3,1.5,3.3,4v5.5h-3.7v-4.9c0-1-0.2-1.7-1.2-1.7
			c-0.9,0-1.4,1-1.4,1.7v4.9h-3.5V25.4L26.4,25.4z"/>
		<path class="st1" d="M5,34.5V21.6h6.1c3.7,0,5.3,1.8,5.3,4.4c0,2.8-1.5,4.6-5.3,4.6H9.1v3.8L5,34.5L5,34.5z M10.7,27.5
			c1,0,2-0.2,2-1.3c0-1.2-1.1-1.4-2-1.4H9.1v2.8H10.7L10.7,27.5z"/>
		<path class="st1" d="M66.8,25.4h3.3l0.1,1.1c0.3-0.9,2-1.5,3-1.5c2.3,0,3.3,1.5,3.3,4v5.5h-3.7v-4.9c0-1-0.2-1.7-1.2-1.7
			c-0.9,0-1.3,1-1.3,1.7v5h-3.5V25.4L66.8,25.4z"/>
		<path class="st1" d="M49.9,31.2c0,0.4,0.2,0.9,0.4,1.1c0.3,0.2,0.6,0.4,1,0.4c0.7,0,1.2-0.2,1.2-0.8c0-1.5-5.5-0.2-5.5-3.8
			c0-2.5,2-3.1,4-3.1c2,0,4.8,0.4,4.7,3.2h-3.1c0-0.3-0.1-0.4-0.3-0.7c-0.2-0.3-0.5-0.4-0.9-0.4c-0.6,0-1.2,0.1-1.2,0.5
			c0,1.4,5.7,0.5,5.7,3.8c0,2.3-1.6,3.4-4.8,3.4c-2,0-4.5-1.1-4.5-3.6H49.9L49.9,31.2z"/>
		<path class="st1" d="M87.5,28.9c0-0.2,0-0.5-0.3-0.9c-0.1-0.2-0.5-0.6-1-0.6c-1.4,0-1.7,1.3-1.7,2.4c0,1.3,0.6,2.3,1.7,2.3
			c0.9,0,1.4-0.9,1.4-1.6h3.2c0.1,1.9-1.2,4.1-4.8,4.1c-2.9,0-4.9-2-4.9-4.9c0-3.5,2.6-4.9,4.9-4.9c3.1,0,4.8,1.9,4.8,3.9L87.5,28.9
			L87.5,28.9z"/>
		<path class="st1" d="M22.5,34.5l-0.4-0.8c-0.7,0.6-1.4,0.9-2.6,0.9c-1.1,0-3.3-0.2-3.3-2.6c0-4,6-2.2,6-4.1c0-0.7-0.7-0.6-1.1-0.6
			c-0.7,0-1.2,0.1-1.3,1.2h-3.1c0-1.9,0.6-3.5,4.6-3.5c3.9,0,4.3,2,4.3,4v4.1c0,0.5,0,0.8,0.4,1.2v0.1L22.5,34.5L22.5,34.5z
			 M22.2,30.3c-1.2,0.6-2.8,0.5-2.8,1.5c0,0.6,0.3,0.9,1.1,0.9C21.7,32.6,22.3,31.4,22.2,30.3L22.2,30.3z M43,34.5l-0.4-0.8
			c-0.7,0.6-1.5,0.9-2.6,0.9c-1.2,0-3.4-0.2-3.4-2.6c0-4,6-2.2,6-4.1c0-0.7-0.8-0.6-1.1-0.6c-0.8,0-1.2,0.1-1.3,1.2h-3
			c0-1.9,0.5-3.5,4.6-3.5c3.8,0,4.2,2,4.2,4v4.1c0,0.5,0,0.8,0.4,1.2v0.1L43,34.5L43,34.5z M42.7,30.3c-1.2,0.6-2.8,0.5-2.8,1.5
			c0,0.6,0.3,0.9,1.1,0.9C42.1,32.6,42.8,31.4,42.7,30.3L42.7,30.3z"/>
		<path class="st1" d="M80.6,34.5v-9.1h-3.4v9.1L80.6,34.5L80.6,34.5z M77.2,24.2h3.4v-2.6h-3.4V24.2L77.2,24.2z"/>
		<path class="st1" d="M61.3,25c3,0,4.9,2.1,4.9,4.9c0,2.8-1.9,4.9-4.9,4.9c-3,0-4.9-2.1-4.9-4.9C56.4,27.1,58.3,25,61.3,25L61.3,25
			z M59.8,29.9c0,1.1,0.4,2.5,1.6,2.5c1.2,0,1.6-1.4,1.6-2.5c0-1.1-0.3-2.5-1.6-2.5C60.1,27.4,59.8,28.8,59.8,29.9L59.8,29.9z"/>
		<path class="st1" d="M92.9,32.7c0.2,0,0.5,0,0.5-0.3c0-0.3-0.2-0.3-0.4-0.3h-0.4v0.5H92.9L92.9,32.7z M93.7,33.6h-0.2L93,32.9
			h-0.4v0.7h-0.2V32h0.7c0.3,0,0.6,0.1,0.6,0.4c0,0.3-0.2,0.4-0.5,0.4L93.7,33.6L93.7,33.6z M94.2,32.8c0-0.7-0.5-1.2-1.2-1.2
			c-0.7,0-1.2,0.5-1.2,1.2c0,0.7,0.5,1.2,1.2,1.2C93.6,34,94.2,33.5,94.2,32.8L94.2,32.8z M91.6,32.8c0-0.8,0.6-1.4,1.4-1.4
			c0.8,0,1.4,0.6,1.4,1.4c0,0.8-0.6,1.4-1.4,1.4C92.2,34.2,91.6,33.6,91.6,32.8L91.6,32.8z"/>
	</g>
	<g id="mitsu" class="st0">
		<polygon class="st2" points="17.6,37.9 8.5,37.9 13.1,30 22.2,30 		"/>
		<polygon class="st2" points="26.7,37.9 35.9,37.9 31.3,30 22.2,30 		"/>
		<polygon class="st2" points="26.7,22.1 22.2,14.2 17.6,22.1 22.2,30 		"/>
		<polygon class="st3" points="39.9,34.5 43.6,34.5 43.6,33.2 39.9,33.2 39.9,31.6 44.1,31.6 44.1,30.2 39.9,30.2 38.4,30.2 
			38.4,31.6 38.4,36.5 38.4,37.9 39.9,37.9 44.2,37.9 44.2,36.5 39.9,36.5 		"/>
		<polygon class="st3" points="39.8,23.3 41.5,29 41.5,29 42.9,29 42.9,29 44.6,23.3 44.6,29 46,29 46,21.3 45.2,21.3 44.5,21.3 
			43.8,21.3 42.2,26.7 40.6,21.3 39.9,21.3 39.2,21.3 38.4,21.3 38.4,29 39.8,29 		"/>
		<polygon class="st3" points="75,21.3 73.4,21.3 73.4,29 75,29 		"/>
		<polygon class="st3" points="76.2,30.2 74.7,30.2 74.7,37.9 76.2,37.9 		"/>
		<polygon class="st3" points="90.2,21.3 88.6,21.3 88.6,29 90.2,29 		"/>
		<polygon class="st3" points="48.2,21.3 46.6,21.3 46.6,29 48.2,29 		"/>
		<polygon class="st3" points="86.5,24.3 83.4,24.3 83.4,21.3 81.9,21.3 81.9,29 83.4,29 83.4,25.6 86.5,25.6 86.5,29 88,29 
			88,21.3 86.5,21.3 		"/>
		<polygon class="st3" points="50.4,29 52,29 52,22.7 53.9,22.7 53.9,21.3 52,21.3 50.4,21.3 48.6,21.3 48.6,22.7 50.4,22.7 		"/>
		<polygon class="st3" points="64.5,37.9 66,37.9 66,31.6 67.9,31.6 67.9,30.2 66,30.2 64.5,30.2 62.6,30.2 62.6,31.6 64.5,31.6 		
			"/>
		<path class="st3" d="M63.4,29.2c2,0,3-0.9,3-2.6v-5.2h-1.5v5.4c0,0.7-0.6,1.2-1.5,1.2c-1.2,0-1.5-0.6-1.5-1.2v-5.4h-1.5v5.2
			C60.4,28.4,61.5,29.2,63.4,29.2L63.4,29.2z"/>
		<polygon class="st3" points="51.8,34.5 55.4,34.5 55.4,33.2 51.8,33.2 51.8,31.6 55.9,31.6 55.9,30.2 51.8,30.2 50.2,30.2 
			50.2,31.6 50.2,36.5 50.2,37.9 51.8,37.9 56,37.9 56,36.5 51.8,36.5 		"/>
		<path class="st3" d="M68.6,29h2.2c1.4,0,2.3-0.9,2.3-2.1c0-1-0.7-1.8-1.5-2c0.7-0.2,1.2-0.9,1.2-1.7c0-1.1-0.8-1.9-2.4-1.9h-1.9
			H67h0V29h0H68.6L68.6,29z M70.3,27.8h-1.8v-2.2h1.8c0.6,0,1.2,0.4,1.2,1.1C71.5,27.3,71,27.8,70.3,27.8L70.3,27.8z M70.4,22.5
			c0.4,0,0.9,0.4,0.9,0.9c0,0.5-0.3,1-1,1h-1.8v-1.9H70.4L70.4,22.5z"/>
		<path class="st3" d="M72.9,34.2c0.7-0.2,1.4-0.8,1.4-1.8c0-1.4-0.9-2.1-2.5-2.1h-1.9h-1.5h0v7.6h1.5v-3h1.3c0.8,0,1.2,0.4,1.4,1
			c0.1,0.6,0.1,1.5,0.3,2.1h1.6c-0.2-0.6-0.2-1.4-0.3-2C74,34.8,73.4,34.4,72.9,34.2L72.9,34.2z M69.8,33.6v-2.1h1.9
			c0.6,0,1,0.4,1,1c0,0.4-0.4,1-1,1H69.8L69.8,33.6z"/>
		<polygon class="st3" points="46.2,30.2 44.7,30.2 44.7,36.5 44.7,37.9 46.2,37.9 49.8,37.9 49.8,36.5 46.2,36.5 		"/>
		<path class="st3" d="M56.4,25.7c1.2,0.2,1.9,0.4,1.9,1.2c0,0.5-0.5,1-1.5,1c-1,0-1.6-0.6-1.6-1.3h-1.5c0,1.3,0.9,2.5,3.1,2.5
			c2.1,0,3.1-1.1,3.1-2.4c0-1.2-0.8-2-2.2-2.2c-1.4-0.3-2.3-0.3-2.3-1.2c0-0.6,0.5-0.9,1.4-0.9c0.9,0,1.4,0.4,1.4,1.2h1.5
			c0-1.2-0.9-2.4-2.9-2.4c-1.4,0-2.9,0.8-2.9,2.3C54,24.7,54.9,25.5,56.4,25.7L56.4,25.7z"/>
		<path class="st3" d="M78,25.7c1.2,0.2,1.9,0.4,1.9,1.2c0,0.5-0.5,1-1.5,1c-1,0-1.6-0.6-1.6-1.3h-1.5c0,1.3,0.9,2.5,3.1,2.5
			c2.1,0,3.1-1.1,3.1-2.4c0-1.2-0.8-2-2.2-2.2C78,24.2,77,24.2,77,23.3c0-0.6,0.5-0.9,1.4-0.9c0.9,0,1.4,0.4,1.4,1.2h1.5
			c0-1.2-0.9-2.4-2.9-2.4c-1.4,0-2.9,0.8-2.9,2.3C75.5,24.7,76.4,25.5,78,25.7L78,25.7z"/>
		<path class="st3" d="M59.5,36.7c-1.2,0-2-1.2-2-2.7c0-1.5,0.7-2.7,2-2.7c0.9,0,1.4,0.6,1.6,1.3h1.6c-0.3-1.5-1.4-2.6-3.3-2.6
			c-2.3,0-3.5,1.8-3.5,4c0,2.2,1.2,4,3.5,4c1.8,0,3.1-1.1,3.3-2.7h-1.6C60.9,36.1,60.4,36.7,59.5,36.7L59.5,36.7z"/>
		<path class="st3" d="M80.2,36.7c-1.2,0-2-1.2-2-2.7c0-1.5,0.7-2.7,2-2.7c0.9,0,1.4,0.6,1.6,1.3h1.6c-0.3-1.5-1.4-2.6-3.3-2.6
			c-2.3,0-3.5,1.8-3.5,4c0,2.2,1.2,4,3.5,4c1.8,0,3.1-1.1,3.3-2.7h-1.6C81.6,36.1,81.1,36.7,80.2,36.7L80.2,36.7z"/>
	</g>
	<g id="Nidec" class="st0">
		<g class="st4">
			<path class="st5" d="M22.3,23.9c0.1-1-0.6-1.4-1.9-1.4c-1.1,0-1.4,0.2-1.5,0.6c0,0.6,2.3,0.9,4.5,1.4c2,0.5,4,0.9,4,2.9
				c0,2.5-2.8,3.1-7,3.1c-5.7,0-6.8-1.7-6.8-3.7h5.1c0,0.9,0.3,1.7,2,1.7c1.3,0,1.7-0.2,1.7-0.7c0-0.9-3.6-1.1-5.7-1.8
				c-1.5-0.5-2.8-1.1-2.8-2.5c0-2.4,2.3-3,6.8-3c5.2,0,6.1,1.1,6.5,3.5L22.3,23.9L22.3,23.9z"/>
			<path class="st5" d="M38.5,30.5h-3.8v-0.7c-0.8,0.6-1.8,0.8-3.1,0.8c-1.3,0-3.2-0.3-3.2-2.2c0-2.8,6.4-1.9,6.4-3.3
				c0-0.5-0.7-0.6-1.1-0.7c-0.8,0-1.2,0.1-1.2,1.4l-4,0c0-2.3,1.7-2.8,5.4-2.8c4.3,0,4.8,1.6,4.8,3.3L38.5,30.5z M34.7,26.9
				c0-0.1-0.5,0.1-1.1,0.3c-0.5,0.1-1.3,0.2-1.3,0.9c0,0.5,0.7,0.7,0.9,0.7c0.4,0.1,1.1,0,1.4-0.5c0.1-0.1,0.1-0.2,0.1-0.3
				L34.7,26.9z"/>
			<path class="st5" d="M39.8,23.6h3.8l0,0.6c0.8-0.6,1.3-0.9,2.8-0.9c2.6,0,3.3,1.7,3.3,2.9v4.4H46v-4.1c0-0.8-0.1-1.5-1.1-1.5
				c-1.1,0-1.1,0.6-1.1,1.6v4h-4L39.8,23.6L39.8,23.6z"/>
			<path class="st5" d="M69.7,25.8l1.4-2.6h4l-3.8,6.5c-1.5,2.4-2.2,3.2-4.8,3.2c-0.8,0-1.8,0-2.1-0.1l0-1.6c0.3,0,1.3-0.1,1.6-0.1
				c0.6,0,0.8-0.1,1.6-1.6l-4.8-6.3h5.1L69.7,25.8z"/>
			<path class="st5" d="M80.3,23.1c3.6,0,5.4,1.2,5.4,3.8c0,2.5-1.9,3.8-5.4,3.8c-3.6,0-5.4-1.3-5.4-3.7
				C74.9,24.3,76.7,23.1,80.3,23.1 M79,26.9c0,1.6,0,2.4,1.3,2.4c1.1,0,1.3-1,1.3-2.3c0-1.9-0.1-2.4-1.3-2.4
				C79.2,24.5,79,25.5,79,26.9"/>
			<polygon class="st5" points="63.3,30.5 58.7,26 62.2,23.2 57.8,23.2 55,25.7 55,20.8 50.9,20.8 50.9,30.5 55,30.5 55,27.6 
				57.8,30.5 			"/>
			<path class="st6" d="M74.1,40c0.1,0.1,0.1,0.2,0.2,0.3c0.2,0.2,0.6,0.4,1.1,0.4c0.1,0,0.3,0,0.4-0.1c0.5-0.2,0.5-0.5,0.5-0.6
				c0-0.1,0-0.1,0-0.2c-0.1-0.3-0.4-0.4-1-0.5c-0.2,0-0.4-0.1-0.6-0.2c-0.2-0.1-0.8-0.3-0.8-1.1c0-0.7,0.6-1.5,1.8-1.5
				c0.6,0,1,0.2,1.3,0.5c0.3,0.3,0.3,0.5,0.3,0.7l-0.3,0.1c-0.1-0.2-0.3-0.6-1.1-0.6c-0.6,0-0.9,0.3-0.9,0.6c0,0.4,0.4,0.5,0.8,0.6
				c0.2,0,0.3,0.1,0.5,0.1c0.2,0.1,0.6,0.2,0.8,0.4c0.2,0.2,0.3,0.5,0.3,0.9c0,0.8-0.6,1.5-1.8,1.5c-0.8,0-1.3-0.3-1.5-0.5
				c-0.3-0.3-0.3-0.6-0.4-0.8L74.1,40z"/>
			<path class="st6" d="M36.2,36.9c0-0.4,0-0.8,0.1-1c0.2-0.5,0.7-0.8,1.3-0.8c0.6,0,0.8,0.2,1,0.4l-0.2,0.3c-0.1,0-0.2-0.1-0.4-0.1
				c-0.2,0-0.4,0.1-0.6,0.4c-0.1,0.2-0.1,0.4-0.1,0.9h1v0.7h-1v3.6h-1.1v-3.6h-0.7v-0.7L36.2,36.9L36.2,36.9z"/>
			<path class="st6" d="M43.1,39c0,1.2-0.7,2.4-2.3,2.4c-1.3,0-2.2-0.9-2.2-2.3c0-1.7,1.2-2.3,2.2-2.3C42,36.7,43.1,37.4,43.1,39
				 M39.8,39c0,1,0.3,1.7,1,1.7c0.7,0,1-0.7,1-1.6c0-1-0.3-1.7-1-1.7C40.2,37.4,39.8,38.1,39.8,39"/>
			<path class="st6" d="M45,37.4c0.2-0.2,0.5-0.7,1.3-0.7c0.1,0,0.2,0,0.3,0v1c-0.2-0.1-0.4-0.2-0.7-0.2c-0.4,0-0.7,0.2-0.9,0.3v3.3
				h-1.1v-4.3H45V37.4z"/>
			<path class="st6" d="M51.7,35.2h1.1v6h-1.1v-0.4c-0.2,0.2-0.6,0.6-1.3,0.6c-1,0-1.8-0.8-1.8-2.3c0-1.3,0.7-2.4,1.9-2.4
				c0.7,0,1.1,0.4,1.3,0.6V35.2z M51.7,37.9c-0.2-0.4-0.5-0.6-0.9-0.6c-0.3,0-0.5,0.1-0.7,0.3c-0.4,0.4-0.4,1.1-0.4,1.3
				c0,1.1,0.4,1.7,1.1,1.7c0.5,0,0.7-0.3,0.9-0.5V37.9z"/>
			<path class="st6" d="M55,37.4c0.2-0.2,0.5-0.7,1.3-0.7c0.1,0,0.2,0,0.3,0v1c-0.2-0.1-0.4-0.2-0.7-0.2c-0.4,0-0.7,0.2-0.9,0.3v3.3
				h-1.1v-4.3H55V37.4z"/>
			<path class="st6" d="M61.2,40c-0.2,0.5-0.5,1.4-2,1.4c-1.6,0-2.4-1.1-2.4-2.4c0-1.3,0.8-2.3,2.3-2.3c0.4,0,1,0.1,1.6,0.6
				c0.6,0.6,0.6,1.4,0.6,1.9H58c0,0.3,0.2,1.5,1.5,1.5c0.8,0,1.1-0.4,1.4-0.8L61.2,40z M60.1,38.5c-0.1-0.4-0.1-1.1-1-1.1
				c-0.8,0-1,0.7-1.1,1.1H60.1z"/>
			<path class="st6" d="M65.8,41.2h-1.1v-0.5c-0.2,0.2-0.6,0.6-1.4,0.6c-0.9,0-1.4-0.6-1.4-1.4c0-1,0.8-1.6,1.8-1.6
				c0.4,0,0.7,0.1,1,0.2c0-0.2,0-0.4-0.1-0.7c-0.2-0.5-0.7-0.6-1-0.6c-0.7,0-1,0.4-1.2,0.6l-0.3-0.1c0.2-0.4,0.5-1.2,1.8-1.2
				c0.7,0,1.2,0.2,1.5,0.5c0.4,0.4,0.4,1,0.4,1.4L65.8,41.2L65.8,41.2z M64.7,39.2C64.5,39.1,64.3,39,64,39c-0.5,0-0.9,0.3-0.9,0.8
				c0,0.4,0.2,0.8,0.8,0.8c0.4,0,0.7-0.2,0.9-0.3V39.2z"/>
			<path class="st6" d="M67.9,37.4c0.2-0.2,0.5-0.7,1.4-0.7c0.2,0,0.5,0,0.8,0.2c0.3,0.2,0.4,0.4,0.4,0.6c0.1-0.2,0.2-0.3,0.5-0.5
				c0.3-0.2,0.7-0.3,0.9-0.3c0.4,0,0.8,0.2,1,0.4c0.3,0.3,0.3,0.7,0.3,1.1v3h-1.1v-3c0-0.2,0-0.4-0.2-0.6c-0.1-0.1-0.3-0.2-0.5-0.2
				c-0.2,0-0.5,0.1-0.6,0.3c-0.1,0.1-0.2,0.2-0.2,0.3v3.1h-1.1v-3c0-0.1,0-0.4-0.2-0.6c-0.1-0.1-0.3-0.2-0.5-0.2
				c-0.1,0-0.3,0-0.6,0.3C68,37.8,68,37.9,67.9,38v3.1h-1.1v-4.3h1.1L67.9,37.4L67.9,37.4z"/>
			<rect x="29.3" y="35.2" class="st6" width="1.1" height="5.9"/>
			<rect x="31.6" y="35.2" class="st6" width="1.1" height="5.9"/>
			<path class="st6" d="M23.6,39.3l-0.9,1.8h1l0.8-1.7C24.2,39.4,23.9,39.4,23.6,39.3"/>
			<path class="st6" d="M25.9,35.2h-0.4l-1.6,3.4c0.3,0.1,0.6,0.2,0.9,0.2l0.8-1.8l1.8,4h1.3L25.9,35.2z"/>
			<path class="st6" d="M18.2,40c1.1-0.2,2.6-0.2,3.8-0.2c1.4,0,2.9,0.1,4.1,0.3c0.1,0,0.2,0,0.1-0.1c-1-0.5-2.5-0.9-4.1-0.9
				c-1.6,0-3,0.3-3.9,0.8C18,39.9,18,40,18.2,40"/>
			<path class="st6" d="M43.1,17v-0.7h1.8V18c-0.2,0.2-0.4,0.3-0.8,0.4c-0.3,0.1-0.7,0.2-1,0.2c-0.4,0-0.8-0.1-1.1-0.3
				c-0.3-0.2-0.6-0.4-0.7-0.8c-0.2-0.3-0.2-0.7-0.2-1.1c0-0.4,0.1-0.8,0.3-1.1c0.2-0.3,0.4-0.6,0.8-0.8c0.3-0.1,0.6-0.2,1-0.2
				c0.5,0,0.9,0.1,1.2,0.3c0.3,0.2,0.5,0.5,0.6,0.9L44,15.7c-0.1-0.2-0.2-0.4-0.3-0.5c-0.2-0.1-0.4-0.2-0.6-0.2
				c-0.4,0-0.6,0.1-0.9,0.3c-0.2,0.2-0.3,0.6-0.3,1c0,0.5,0.1,0.9,0.3,1.1c0.2,0.2,0.5,0.4,0.9,0.4c0.2,0,0.3,0,0.5-0.1
				c0.2-0.1,0.3-0.2,0.5-0.3V17L43.1,17L43.1,17z"/>
			<path class="st6" d="M46.4,18.5h-0.8v-3h0.7V16c0.1-0.2,0.2-0.3,0.3-0.4c0.1-0.1,0.2-0.1,0.3-0.1c0.2,0,0.4,0.1,0.5,0.1l-0.2,0.7
				c-0.1-0.1-0.3-0.1-0.4-0.1c-0.1,0-0.2,0-0.3,0.1c-0.1,0.1-0.1,0.2-0.2,0.3c0,0.2-0.1,0.5-0.1,1L46.4,18.5L46.4,18.5z"/>
			<path class="st6" d="M47.7,17c0-0.3,0.1-0.5,0.2-0.8c0.1-0.2,0.3-0.4,0.5-0.6c0.2-0.1,0.5-0.2,0.8-0.2c0.5,0,0.8,0.1,1.1,0.4
				c0.3,0.3,0.4,0.7,0.4,1.1c0,0.5-0.1,0.8-0.4,1.1c-0.3,0.3-0.7,0.4-1.1,0.4c-0.3,0-0.5-0.1-0.8-0.2c-0.2-0.1-0.4-0.3-0.6-0.5
				C47.7,17.6,47.7,17.3,47.7,17 M48.5,17c0,0.3,0.1,0.5,0.2,0.7c0.1,0.2,0.3,0.2,0.5,0.2c0.2,0,0.4-0.1,0.5-0.2
				c0.1-0.2,0.2-0.4,0.2-0.7c0-0.3-0.1-0.5-0.2-0.7c-0.1-0.2-0.3-0.2-0.5-0.2c-0.2,0-0.4,0.1-0.5,0.2C48.6,16.5,48.5,16.7,48.5,17"
				/>
			<path class="st6" d="M53.4,18.5v-0.4c-0.1,0.2-0.3,0.3-0.4,0.4c-0.2,0.1-0.4,0.1-0.6,0.1c-0.2,0-0.4,0-0.5-0.1
				c-0.2-0.1-0.3-0.2-0.3-0.4s-0.1-0.4-0.1-0.7v-1.9h0.8v1.4c0,0.4,0,0.7,0,0.8c0,0.1,0.1,0.2,0.2,0.2c0.1,0.1,0.2,0.1,0.3,0.1
				c0.1,0,0.3,0,0.4-0.1c0.1-0.1,0.2-0.2,0.2-0.3c0-0.1,0.1-0.4,0.1-0.8v-1.3h0.8v3C54.1,18.5,53.4,18.5,53.4,18.5z"/>
			<path class="st6" d="M54.9,15.5h0.7V16c0.1-0.2,0.2-0.3,0.4-0.4c0.2-0.1,0.3-0.1,0.5-0.1c0.3,0,0.6,0.1,0.9,0.4
				c0.2,0.3,0.4,0.7,0.4,1.1c0,0.5-0.1,0.9-0.4,1.2c-0.2,0.3-0.5,0.4-0.9,0.4c-0.2,0-0.3,0-0.4-0.1c-0.1-0.1-0.3-0.2-0.4-0.3v1.5
				h-0.8L54.9,15.5L54.9,15.5z M55.7,17c0,0.3,0.1,0.6,0.2,0.7c0.1,0.2,0.3,0.2,0.5,0.2c0.2,0,0.3-0.1,0.5-0.2
				c0.1-0.1,0.2-0.4,0.2-0.7c0-0.3-0.1-0.5-0.2-0.7c-0.1-0.2-0.3-0.2-0.5-0.2c-0.2,0-0.3,0.1-0.5,0.2C55.7,16.5,55.7,16.7,55.7,17"
				/>
			<path class="st6" d="M62.6,17l0.8,0.2c-0.1,0.5-0.3,0.8-0.6,1c-0.3,0.2-0.7,0.3-1.1,0.3c-0.5,0-1-0.2-1.4-0.6
				c-0.4-0.4-0.5-0.9-0.5-1.5c0-0.7,0.2-1.2,0.5-1.6c0.4-0.4,0.8-0.6,1.4-0.6c0.5,0,0.9,0.1,1.2,0.4c0.2,0.2,0.3,0.4,0.4,0.8
				l-0.8,0.2c0-0.2-0.2-0.4-0.3-0.5c-0.2-0.1-0.3-0.2-0.6-0.2c-0.3,0-0.6,0.1-0.7,0.3c-0.2,0.2-0.3,0.6-0.3,1.1
				c0,0.5,0.1,0.9,0.3,1.1c0.2,0.2,0.4,0.3,0.7,0.3c0.2,0,0.4-0.1,0.6-0.2C62.5,17.5,62.6,17.3,62.6,17"/>
			<path class="st6" d="M64,17c0-0.3,0.1-0.5,0.2-0.8c0.1-0.2,0.3-0.4,0.5-0.6c0.2-0.1,0.5-0.2,0.8-0.2c0.5,0,0.8,0.1,1.1,0.4
				c0.3,0.3,0.4,0.7,0.4,1.1c0,0.5-0.1,0.8-0.4,1.1c-0.3,0.3-0.7,0.4-1.1,0.4c-0.3,0-0.5-0.1-0.8-0.2c-0.2-0.1-0.4-0.3-0.6-0.5
				C64,17.6,64,17.3,64,17 M64.8,17c0,0.3,0.1,0.5,0.2,0.7c0.1,0.2,0.3,0.2,0.5,0.2c0.2,0,0.4-0.1,0.5-0.2c0.1-0.2,0.2-0.4,0.2-0.7
				c0-0.3-0.1-0.5-0.2-0.7c-0.1-0.2-0.3-0.2-0.5-0.2c-0.2,0-0.4,0.1-0.5,0.2C64.8,16.5,64.8,16.7,64.8,17"/>
			<path class="st6" d="M67.6,15.5h0.7V16c0.3-0.3,0.6-0.5,0.9-0.5c0.2,0,0.4,0,0.5,0.1c0.1,0.1,0.3,0.2,0.3,0.4
				c0.1-0.2,0.3-0.3,0.4-0.4c0.2-0.1,0.3-0.1,0.5-0.1c0.2,0,0.4,0,0.6,0.1c0.2,0.1,0.3,0.2,0.3,0.4c0.1,0.1,0.1,0.3,0.1,0.6v1.9
				h-0.8v-1.7c0-0.3,0-0.5-0.1-0.6c-0.1-0.1-0.2-0.2-0.3-0.2c-0.1,0-0.2,0-0.3,0.1c-0.1,0.1-0.2,0.2-0.2,0.3c0,0.1-0.1,0.3-0.1,0.6
				v1.4h-0.8v-1.6c0-0.3,0-0.5,0-0.6c0-0.1-0.1-0.1-0.1-0.2c-0.1,0-0.1-0.1-0.2-0.1c-0.1,0-0.2,0-0.3,0.1c-0.1,0.1-0.2,0.2-0.2,0.3
				c0,0.1-0.1,0.3-0.1,0.6v1.5h-0.8L67.6,15.5L67.6,15.5z"/>
			<path class="st6" d="M72.8,15.5h0.7V16c0.1-0.2,0.2-0.3,0.4-0.4c0.2-0.1,0.3-0.1,0.5-0.1c0.3,0,0.6,0.1,0.9,0.4
				c0.2,0.3,0.4,0.7,0.4,1.1c0,0.5-0.1,0.9-0.4,1.2c-0.2,0.3-0.5,0.4-0.9,0.4c-0.2,0-0.3,0-0.4-0.1c-0.1-0.1-0.3-0.2-0.4-0.3v1.5
				h-0.8L72.8,15.5L72.8,15.5z M73.5,17c0,0.3,0.1,0.6,0.2,0.7c0.1,0.2,0.3,0.2,0.5,0.2c0.2,0,0.3-0.1,0.5-0.2
				c0.1-0.1,0.2-0.4,0.2-0.7c0-0.3-0.1-0.5-0.2-0.7c-0.1-0.2-0.3-0.2-0.5-0.2c-0.2,0-0.3,0.1-0.5,0.2C73.6,16.5,73.5,16.7,73.5,17"
				/>
			<path class="st6" d="M76.9,16.5l-0.7-0.1c0.1-0.3,0.2-0.5,0.4-0.6c0.2-0.1,0.5-0.2,0.9-0.2c0.4,0,0.6,0,0.8,0.1
				c0.2,0.1,0.3,0.2,0.4,0.3c0.1,0.1,0.1,0.4,0.1,0.7l0,0.9c0,0.3,0,0.5,0,0.6c0,0.1,0.1,0.3,0.1,0.4h-0.8c0-0.1,0-0.1-0.1-0.2
				c0,0,0-0.1,0-0.1c-0.1,0.1-0.3,0.2-0.4,0.3c-0.2,0.1-0.3,0.1-0.5,0.1c-0.3,0-0.5-0.1-0.7-0.3c-0.2-0.2-0.3-0.4-0.3-0.6
				c0-0.2,0-0.3,0.1-0.5c0.1-0.1,0.2-0.2,0.3-0.3c0.1-0.1,0.4-0.1,0.6-0.2c0.4-0.1,0.6-0.1,0.8-0.2v-0.1c0-0.2,0-0.3-0.1-0.3
				c-0.1-0.1-0.2-0.1-0.4-0.1c-0.1,0-0.3,0-0.3,0.1C77,16.2,76.9,16.3,76.9,16.5 M77.9,17.1c-0.1,0-0.3,0.1-0.5,0.1
				c-0.2,0-0.4,0.1-0.4,0.1c-0.1,0.1-0.2,0.2-0.2,0.3c0,0.1,0,0.2,0.1,0.3c0.1,0.1,0.2,0.1,0.3,0.1c0.1,0,0.3,0,0.4-0.1
				c0.1-0.1,0.2-0.2,0.2-0.3c0-0.1,0-0.2,0-0.4L77.9,17.1L77.9,17.1z"/>
			<path class="st6" d="M82.2,18.5h-0.8V17c0-0.3,0-0.5-0.1-0.6c0-0.1-0.1-0.2-0.2-0.2c-0.1-0.1-0.2-0.1-0.3-0.1
				c-0.1,0-0.3,0-0.4,0.1c-0.1,0.1-0.2,0.2-0.2,0.3c0,0.1-0.1,0.4-0.1,0.7v1.4h-0.8v-3h0.7V16c0.3-0.3,0.6-0.5,1-0.5
				c0.2,0,0.3,0,0.5,0.1c0.1,0.1,0.3,0.1,0.3,0.2c0.1,0.1,0.1,0.2,0.2,0.3c0,0.1,0,0.3,0,0.5L82.2,18.5L82.2,18.5z"/>
			<path class="st6" d="M82.6,15.5h0.8l0.7,2.1l0.7-2.1h0.8l-1.1,2.9l-0.2,0.5c-0.1,0.2-0.1,0.3-0.2,0.4c-0.1,0.1-0.1,0.2-0.2,0.2
				c-0.1,0.1-0.2,0.1-0.3,0.1c-0.1,0-0.3,0-0.4,0c-0.2,0-0.3,0-0.4,0l-0.1-0.6c0.1,0,0.2,0,0.3,0c0.2,0,0.3-0.1,0.4-0.2
				c0.1-0.1,0.2-0.2,0.2-0.4L82.6,15.5z"/>
			<path class="st6" d="M17.7,18.5h-0.9l-0.4-0.9h-1.6l-0.3,0.9h-0.9l1.6-4.1h0.9L17.7,18.5z M16.2,16.9l-0.6-1.5l-0.6,1.5H16.2z"/>
			<polygon class="st7" points="25.9,18.6 24.3,18.6 25.1,15.9 26.8,15.9 			"/>
			<path class="st7" d="M27,15.1c-0.1,0.2-0.3,0.4-0.5,0.4h-0.9c-0.2,0-0.3-0.2-0.3-0.4l0.1-0.4c0.1-0.2,0.3-0.4,0.5-0.4h0.9
				c0.2,0,0.3,0.2,0.3,0.4L27,15.1z"/>
			<path class="st7" d="M28.5,18.2c0,0.1-0.1,0.2-0.2,0.2h0c-0.1,0-0.2-0.1-0.1-0.2l0.6-2c0-0.1,0.1-0.2,0.2-0.2h0
				c0.1,0,0.2,0.1,0.1,0.2L28.5,18.2z M29.7,14.3l-0.6,1.7c0-0.1,0-0.2-0.1-0.2h-1.5c-0.2,0-0.4,0.2-0.5,0.4l-0.6,1.9
				c-0.1,0.2,0.1,0.4,0.3,0.4H30l1.4-4.3H29.7z"/>
			<path class="st7" d="M32.8,16.3c0-0.1,0.1-0.2,0.2-0.2h0c0.1,0,0.2,0.1,0.1,0.2l-0.3,0.9h-0.4L32.8,16.3z M34.5,17.3l0.3-1.1
				c0.1-0.2-0.1-0.4-0.3-0.4h-2.9c-0.2,0-0.4,0.2-0.5,0.4l-0.6,1.9c-0.1,0.2,0.1,0.4,0.3,0.4h3.3l0.1-0.2h-1.6
				c-0.2,0-0.3-0.2-0.3-0.4l0.2-0.7H34.5z"/>
			<path class="st7" d="M37.3,16.1h1.6l0.1-0.2h-3.3c-0.2,0-0.4,0.2-0.5,0.4l-0.6,1.9c-0.1,0.2,0.1,0.4,0.3,0.4h3.3l0.1-0.2h-1.6
				c-0.2,0-0.3-0.2-0.3-0.4l0.5-1.6C36.8,16.3,37.1,16.1,37.3,16.1"/>
			<polygon class="st7" points="25,14.3 24.2,17.1 22.5,14.3 21.2,14.3 19.8,18.6 20,18.6 20.9,15.9 22.5,18.6 23.9,18.6 25.2,14.3 
							"/>
		</g>
	</g>
	<g id="toshiba" class="st0">
		<path class="st8" d="M71,23.2l1-3.4h0l1,3.4H71z M74.2,27.3h2.9l-3-10h-4.2l-3,10h2.9l0.5-1.8h3.3L74.2,27.3z"/>
		<path class="st8" d="M22,22.3c0-0.5,0-0.9,0-1.1c0.1-1.5,0.7-1.7,1.9-1.7c1.2,0,1.8,0.2,1.9,1.7c0,0.2,0,0.6,0,1.1
			c0,0.6,0,0.9,0,1.1c-0.1,1.5-0.7,1.7-1.9,1.7c-1.2,0-1.8-0.2-1.9-1.7C22,23.2,22,22.8,22,22.3 M23.9,27.5c3,0,4.5-0.5,4.7-3.2
			c0.1-0.6,0.1-1.3,0.1-1.9c0-0.6,0-1.3-0.1-1.9c-0.2-2.7-1.7-3.2-4.7-3.2c-3,0-4.5,0.5-4.7,3.2c0,0.6-0.1,1.3-0.1,1.9
			c0,0.6,0,1.3,0.1,1.9C19.4,26.9,20.9,27.5,23.9,27.5"/>
		<polygon class="st9" points="9.3,17.3 9.3,19.8 12.2,19.8 12.2,27.3 15.2,27.3 15.2,19.8 18.2,19.8 18.2,17.3 		"/>
		<rect x="52.2" y="17.3" class="st9" width="2.8" height="10"/>
		<polygon class="st9" points="43.6,21 43.6,17.3 40.8,17.3 40.8,27.3 43.6,27.3 43.6,23.4 46.9,23.4 46.9,27.3 49.7,27.3 
			49.7,17.3 46.9,17.3 46.9,21 		"/>
		<path class="st8" d="M60.4,19.6h2c0.5,0,0.8,0.2,0.8,0.8c0,0.5-0.3,0.8-0.8,0.8h-2V19.6z M60.4,23.2h2c0.8,0,1,0.3,1,0.9
			c0,0.6-0.3,0.9-1,0.9h-2V23.2z M64.3,22.1c1.3-0.3,1.6-1.1,1.6-2.2c0-2.2-1.4-2.6-3.3-2.6h-5.1v10h5.3c2.5,0,3.3-1.1,3.3-2.7
			C66.2,23.5,65.9,22.5,64.3,22.1"/>
		<path class="st8" d="M30.3,24h2.7c0,0.5,0.1,0.8,0.3,1c0.3,0.2,0.5,0.3,1.3,0.3c0.8,0,1.6,0,1.6-0.9c0-0.7-0.5-0.9-1.3-1
			c-2.1-0.1-2.9-0.2-3.7-0.8c-0.5-0.4-0.8-1.2-0.8-2.2c0-1.8,0.6-2.4,1.5-2.9c0.9-0.5,4.6-0.5,5.6,0c1.2,0.6,1.3,1.8,1.3,3H36
			c0-0.6-0.1-0.8-0.2-0.9c-0.3-0.2-0.7-0.3-1.2-0.3c-0.7,0-1.5,0-1.5,0.9c0,0.6,0.3,0.9,1,1c1,0.1,3,0.1,3.7,0.5
			c1,0.6,1.2,1.4,1.2,2.7c0,1.9-0.7,2.4-1.6,2.8c-1.1,0.5-4.6,0.5-5.8,0C30.3,26.5,30.3,25.4,30.3,24"/>
		<polygon class="st10" points="79.6,32.3 81.5,32.3 84.3,34.9 81.5,37.6 79.6,37.6 82.4,34.9 		"/>
		<polygon class="st11" points="83.4,32.3 85.3,32.3 88.1,34.9 85.3,37.6 83.4,37.6 86.2,34.9 		"/>
		<polygon class="st4" points="87.3,32.3 89.1,32.3 92,34.9 89.1,37.6 87.3,37.6 90.1,34.9 		"/>
		<polygon class="st4" points="9.5,32.3 10.7,32.3 10.7,36.6 12.8,36.6 12.8,37.6 9.5,37.6 		"/>
		<path class="st4" d="M15.8,35.2c0-0.3-0.1-0.8-0.7-0.8c-0.5,0-0.7,0.5-0.7,0.8H15.8z M14.4,36.1c0,0.5,0.5,0.7,1.1,0.7
			c0.4,0,0.7-0.1,1.1-0.2l0.2,0.8c-0.4,0.2-0.9,0.2-1.4,0.2c-1.3,0-2.1-0.8-2.1-2c0-1,0.6-2.1,1.9-2.1c1.2,0,1.7,1,1.7,1.9
			c0,0.2,0,0.4,0,0.5L14.4,36.1z"/>
		<path class="st4" d="M19.7,35.8c-0.6,0-1.1,0.1-1.1,0.6c0,0.3,0.2,0.5,0.5,0.5c0.3,0,0.5-0.2,0.6-0.4c0-0.1,0-0.1,0-0.2
			C19.7,36.2,19.7,35.8,19.7,35.8z M20.9,36.7c0,0.4,0,0.7,0.1,0.9h-1.1l-0.1-0.4h0c-0.3,0.3-0.6,0.5-1.1,0.5
			c-0.8,0-1.2-0.6-1.2-1.2c0-1,0.9-1.5,2.3-1.5v0c0-0.2-0.1-0.5-0.7-0.5c-0.4,0-0.8,0.1-1.1,0.3L17.7,34c0.3-0.1,0.8-0.3,1.5-0.3
			c1.3,0,1.7,0.8,1.7,1.7L20.9,36.7L20.9,36.7z"/>
		<path class="st4" d="M24.4,35.4c0-0.1,0-0.2,0-0.2c-0.1-0.3-0.3-0.6-0.7-0.6c-0.6,0-0.8,0.5-0.8,1.1c0,0.6,0.3,1.1,0.8,1.1
			c0.3,0,0.6-0.2,0.7-0.6c0-0.1,0-0.2,0-0.3V35.4z M25.6,32v4.4c0,0.4,0,0.9,0,1.2h-1.1l0-0.6h0c-0.2,0.4-0.7,0.6-1.2,0.6
			c-0.9,0-1.6-0.8-1.6-2c0-1.3,0.8-2,1.7-2c0.5,0,0.8,0.2,1,0.4h0V32H25.6z"/>
		<path class="st4" d="M26.5,33.7h1.2v3.9h-1.2V33.7z M27.1,33.2c-0.4,0-0.7-0.3-0.7-0.6c0-0.4,0.3-0.6,0.7-0.6
			c0.4,0,0.7,0.3,0.7,0.6C27.8,33,27.6,33.2,27.1,33.2L27.1,33.2z"/>
		<path class="st4" d="M28.7,35c0-0.5,0-0.9,0-1.2h1l0.1,0.5h0c0.2-0.3,0.5-0.6,1.2-0.6c0.8,0,1.4,0.5,1.4,1.7v2.3h-1.2v-2.1
			c0-0.5-0.2-0.8-0.6-0.8c-0.3,0-0.5,0.2-0.6,0.4c0,0.1,0,0.2,0,0.3v2.2h-1.2L28.7,35L28.7,35z"/>
		<path class="st4" d="M35.8,35.3c0-0.1,0-0.2,0-0.2c-0.1-0.3-0.3-0.5-0.6-0.5c-0.4,0-0.8,0.4-0.8,1.1c0,0.6,0.3,1,0.8,1
			c0.3,0,0.6-0.2,0.6-0.5c0-0.1,0-0.2,0-0.3L35.8,35.3L35.8,35.3z M37,37c0,0.7-0.1,1.3-0.6,1.7c-0.4,0.4-1,0.5-1.6,0.5
			c-0.5,0-1-0.1-1.4-0.3l0.2-0.9c0.2,0.1,0.7,0.3,1.1,0.3c0.6,0,1-0.3,1-1v-0.2h0c-0.2,0.3-0.6,0.5-1,0.5c-1,0-1.6-0.8-1.6-1.9
			c0-1.2,0.8-2,1.8-2c0.5,0,0.9,0.2,1.1,0.5h0l0-0.5h1c0,0.3,0,0.6,0,1.2L37,37L37,37z"/>
		<rect x="39.6" y="32.3" class="st4" width="1.2" height="5.3"/>
		<path class="st4" d="M41.8,35c0-0.5,0-0.9,0-1.2h1l0.1,0.5h0c0.2-0.3,0.5-0.6,1.2-0.6c0.8,0,1.4,0.5,1.4,1.7v2.3h-1.2v-2.1
			c0-0.5-0.2-0.8-0.6-0.8c-0.3,0-0.5,0.2-0.6,0.4c0,0.1,0,0.2,0,0.3v2.2h-1.2V35z"/>
		<path class="st4" d="M46.4,35c0-0.5,0-0.9,0-1.2h1l0.1,0.5h0c0.2-0.3,0.5-0.6,1.2-0.6c0.8,0,1.4,0.5,1.4,1.7v2.3h-1.2v-2.1
			c0-0.5-0.2-0.8-0.6-0.8c-0.3,0-0.5,0.2-0.6,0.4c0,0.1,0,0.2,0,0.3v2.2h-1.2L46.4,35L46.4,35z"/>
		<path class="st4" d="M52.9,36.8c0.5,0,0.8-0.5,0.8-1.2c0-0.6-0.2-1.2-0.8-1.2c-0.6,0-0.8,0.6-0.8,1.2
			C52.1,36.3,52.3,36.8,52.9,36.8L52.9,36.8z M52.8,37.7c-1.1,0-2-0.7-2-2c0-1.2,0.8-2,2.1-2c1.2,0,2,0.8,2,2
			C54.9,37,53.9,37.7,52.8,37.7L52.8,37.7z"/>
		<path class="st4" d="M56.5,33.7l0.5,1.8c0.1,0.3,0.2,0.6,0.2,0.9h0c0.1-0.3,0.1-0.6,0.2-0.9l0.5-1.8h1.3l-1.4,3.9h-1.2l-1.4-3.9
			H56.5z"/>
		<path class="st4" d="M61.8,35.8c-0.6,0-1.1,0.1-1.1,0.6c0,0.3,0.2,0.5,0.5,0.5c0.3,0,0.5-0.2,0.6-0.4c0-0.1,0-0.1,0-0.2V35.8z
			 M63,36.7c0,0.4,0,0.7,0.1,0.9H62l-0.1-0.4h0c-0.3,0.3-0.6,0.5-1.1,0.5c-0.8,0-1.2-0.6-1.2-1.2c0-1,0.9-1.5,2.3-1.5v0
			c0-0.2-0.1-0.5-0.7-0.5c-0.4,0-0.8,0.1-1.1,0.3L59.8,34c0.3-0.1,0.8-0.3,1.5-0.3c1.3,0,1.7,0.8,1.7,1.7V36.7z"/>
		<path class="st4" d="M65.3,32.7v1h0.9v0.9h-0.9V36c0,0.5,0.1,0.7,0.5,0.7c0.2,0,0.2,0,0.4,0l0,0.9c-0.1,0.1-0.4,0.1-0.8,0.1
			c-0.4,0-0.7-0.1-0.9-0.3c-0.2-0.2-0.3-0.6-0.3-1.1v-1.6h-0.5v-0.9h0.5V33L65.3,32.7z"/>
		<path class="st4" d="M66.8,33.7H68v3.9h-1.2V33.7z M67.4,33.2c-0.4,0-0.7-0.3-0.7-0.6c0-0.4,0.3-0.6,0.7-0.6
			c0.4,0,0.7,0.3,0.7,0.6C68.1,33,67.9,33.2,67.4,33.2L67.4,33.2z"/>
		<path class="st4" d="M70.8,36.8c0.5,0,0.8-0.5,0.8-1.2c0-0.6-0.2-1.2-0.8-1.2c-0.6,0-0.8,0.6-0.8,1.2C70,36.3,70.3,36.8,70.8,36.8
			L70.8,36.8z M70.8,37.7c-1.1,0-2-0.7-2-2c0-1.2,0.8-2,2.1-2c1.2,0,2,0.8,2,2C72.8,37,71.8,37.7,70.8,37.7L70.8,37.7z"/>
		<path class="st4" d="M73.4,35c0-0.5,0-0.9,0-1.2h1l0.1,0.5h0c0.2-0.3,0.5-0.6,1.2-0.6c0.8,0,1.4,0.5,1.4,1.7v2.3h-1.2v-2.1
			c0-0.5-0.2-0.8-0.6-0.8c-0.3,0-0.5,0.2-0.6,0.4c0,0.1,0,0.2,0,0.3v2.2h-1.2L73.4,35L73.4,35z"/>
	</g>
	<g id="muscle" class="st0">
		<g class="st4">
			<g>
				<g>
					
						<linearGradient id="SVGID_1_" gradientUnits="userSpaceOnUse" x1="-526.5112" y1="310.627" x2="-526.5112" y2="331.0169" gradientTransform="matrix(1 0 0 -1 575.9707 346.3545)">
						<stop  offset="0.2965" style="stop-color:#009B46"/>
						<stop  offset="0.3639" style="stop-color:#008E3F"/>
						<stop  offset="0.4899" style="stop-color:#006A2D"/>
						<stop  offset="0.6593" style="stop-color:#003110"/>
						<stop  offset="0.7455" style="stop-color:#001200"/>
						<stop  offset="1" style="stop-color:#001200"/>
					</linearGradient>
					<path class="st12" d="M65.4,19c0-3.9-3.7-7-8.2-7c-1.3,0-2.6,0.3-3.7,0.7c-1.2,0.5-2.6,0.8-4.1,0.8c-1.5,0-2.8-0.3-4.1-0.8
						C44.3,12.3,43,12,41.7,12c-4.6,0-8.2,3.1-8.2,7v11.9H40V19.7h6.2v11.2h6.6V19.7h6.2v11.2h6.6V19L65.4,19z"/>
					<path class="st13" d="M57.2,12c-1.3,0-2.6,0.3-3.7,0.7c-1.2,0.5-2.6,0.8-4.1,0.8c-1.5,0-2.8-0.3-4.1-0.8
						C44.3,12.3,43,12,41.7,12c-4.6,0-8.2,3.1-8.2,7c0-2.5,2.8-4.5,6.4-4.5c3.5,0,6.3,2,6.3,4.5v11.9h6.6V19c0-2.5,2.8-4.5,6.3-4.5
						c3.5,0,6.4,2,6.4,4.5C65.4,15.1,61.7,12,57.2,12z"/>
				</g>
			</g>
		</g>
		<g class="st4">
			<g>
				<polygon class="st14" points="37.1,33.9 36.1,37.6 35.1,33.9 33.5,33.9 33.5,39.7 34.5,39.7 34.5,34.9 34.5,34.9 35.7,39.7 
					36.5,39.7 37.7,34.9 37.7,34.9 37.7,39.7 38.7,39.7 38.7,33.9 				"/>
				<path class="st14" d="M42.5,39.9c1.1,0,2-0.7,2-1.9v-4.1h-1.3V38c0,0.5-0.3,0.8-0.7,0.8c-0.5,0-0.7-0.4-0.7-0.8v-4.1h-1.3V38
					C40.5,39.2,41.3,39.9,42.5,39.9z"/>
				<polygon class="st14" points="58.1,38.7 58.1,33.9 56.8,33.9 56.8,39.7 60.5,39.7 60.5,38.7 				"/>
				<path class="st14" d="M51.2,36.8c0,1.7,1.3,3,3,3c0.3,0,0.5,0,0.8-0.1v-1.2c-0.2,0.1-0.5,0.2-0.8,0.2c-1,0-1.7-0.9-1.7-1.9
					c0-1,0.8-1.9,1.7-1.9c0.3,0,0.5,0.1,0.8,0.2v-1.2c-0.2-0.1-0.5-0.1-0.8-0.1C52.5,33.8,51.2,35.2,51.2,36.8z"/>
				<polygon class="st14" points="65.4,34.9 65.4,33.9 61.7,33.9 61.7,39.7 65.4,39.7 65.4,38.7 63,38.7 63,37.2 65.4,37.2 
					65.4,36.2 63,36.2 63,34.9 				"/>
				<path class="st14" d="M47.8,33.9h-1.3v1.8c0,0.3,0.1,0.7,0.3,1c0.5,0.7,1.1,0.8,1.5,0.9c0.3,0.1,0.5,0.3,0.4,0.7
					c-0.1,0.4-0.4,0.6-0.8,0.6h-0.2c-0.5,0-0.8-0.2-0.8-0.8h-1.3c0,1.4,1,1.9,2.1,1.9H48c1.1,0,2.1-0.5,2.1-1.9
					c0-0.8-0.6-1.4-1.5-1.7c-0.9-0.3-0.8-0.7-0.8-1L47.8,33.9L47.8,33.9z"/>
			</g>
		</g>
	</g>
	<g>
		<g>
			<g>
				<g>
					
						<linearGradient id="SVGID_00000052818546366726095480000001056260095582543277_" gradientUnits="userSpaceOnUse" x1="-453.3429" y1="-787.0334" x2="-453.3429" y2="-802.7707" gradientTransform="matrix(1.2308 0 0 1.2308 607.7663 1004.2242)">
						<stop  offset="0.2965" style="stop-color:#009C46"/>
						<stop  offset="0.3417" style="stop-color:#009643"/>
						<stop  offset="0.4261" style="stop-color:#00863A"/>
						<stop  offset="0.5406" style="stop-color:#006629"/>
						<stop  offset="0.6793" style="stop-color:#003303"/>
						<stop  offset="0.7455" style="stop-color:#000000"/>
						<stop  offset="1" style="stop-color:#000000"/>
					</linearGradient>
					<path style="fill:url(#SVGID_00000052818546366726095480000001056260095582543277_);" d="M65,19.6c0-3.7-3.5-6.6-7.8-6.6
						c-1.3,0-2.5,0.2-3.5,0.7c-1.2,0.5-2.5,0.8-3.8,0.8c-1.4,0-2.7-0.3-3.9-0.8c-1.1-0.4-2.2-0.7-3.5-0.7c-4.3,0-7.8,3-7.8,6.6v11.3
						h6.2V20.3h5.8v10.6h6.2V20.3h5.8v10.6H65L65,19.6L65,19.6z"/>
					<path class="st16" d="M57.1,13c-1.3,0-2.5,0.2-3.5,0.7c-1.2,0.5-2.5,0.8-3.8,0.8c-1.4,0-2.7-0.3-3.9-0.8
						c-1.1-0.4-2.2-0.7-3.5-0.7c-4.3,0-7.8,3-7.8,6.6c0-2.4,2.7-4.3,6-4.3c3.3,0,6,1.9,6,4.3v11.3h6.2V19.6c0-2.4,2.7-4.3,6-4.3
						c3.3,0,6,1.9,6,4.3C65,16,61.5,13,57.1,13z"/>
				</g>
			</g>
		</g>
		<g>
			<g>
				<g>
					<polygon points="11.5,33.1 10.6,36.6 9.7,33.1 8.2,33.1 8.2,38.5 9.2,38.5 9.1,34.1 9.2,34.1 10.3,38.5 11,38.5 12.1,34.1 
						12.1,34.1 12.1,38.5 13,38.5 13,33.1 					"/>
					<path d="M16.5,38.6c1,0,1.8-0.6,1.8-1.7v-3.7h-1.1v3.7c0,0.4-0.3,0.8-0.7,0.8c-0.4,0-0.7-0.3-0.7-0.8v-3.7h-1.2v3.7
						C14.6,38,15.4,38.6,16.5,38.6z"/>
					<polygon points="30.8,37.5 30.8,33.1 29.6,33.1 29.6,38.5 33,38.5 33,37.5 					"/>
					<path d="M24.5,35.8c0,1.5,1.2,2.8,2.8,2.8c0.2,0,0.5,0,0.7-0.1v-1.1c-0.2,0.1-0.5,0.2-0.7,0.2c-0.9,0-1.6-0.8-1.6-1.7
						c0-0.9,0.7-1.7,1.6-1.7c0.3,0,0.5,0.1,0.7,0.2v-1.1c-0.2-0.1-0.5-0.1-0.7-0.1C25.7,33.1,24.5,34.3,24.5,35.8z"/>
					<polygon points="37.5,34.1 37.5,33.1 34.1,33.1 34.1,38.5 37.5,38.5 37.5,37.5 35.3,37.5 35.3,36.2 37.5,36.2 37.5,35.2 
						35.3,35.2 35.3,34.1 					"/>
					<path d="M21.4,33.1h-1.2v1.6c0,0.3,0.1,0.6,0.3,0.9c0.5,0.6,1,0.7,1.4,0.8c0.3,0.1,0.5,0.3,0.4,0.6c-0.1,0.4-0.4,0.5-0.7,0.5
						h-0.2c-0.4,0-0.8-0.2-0.8-0.8h-1.1c0,1.3,0.9,1.7,1.9,1.7h0.2c1,0,1.9-0.4,1.9-1.7c0-0.8-0.6-1.3-1.4-1.5
						c-0.8-0.3-0.7-0.6-0.7-0.9V33.1L21.4,33.1z"/>
				</g>
				<g>
					<path d="M41.9,35.9c0,1.5,1.2,2.8,2.8,2.8c0.2,0,0.5,0,0.7-0.1v-1.1c-0.2,0.1-0.5,0.2-0.7,0.2c-0.9,0-1.6-0.8-1.6-1.7
						c0-0.9,0.7-1.7,1.6-1.7c0.3,0,0.5,0.1,0.7,0.2v-1.1c-0.2-0.1-0.5-0.1-0.7-0.1C43.1,33.1,41.9,34.3,41.9,35.9z"/>
					<path d="M48.5,33.1c-1,0-1.8,0.6-1.8,1.7v2.1c0,1.1,0.8,1.7,1.8,1.7c1,0,1.8-0.6,1.8-1.7v-2.1C50.3,33.7,49.5,33.1,48.5,33.1z
						 M48.5,37.7c-0.4,0-0.7-0.3-0.7-0.8v-2.1l0,0c0-0.4,0.3-0.8,0.7-0.8c0.4,0,0.7,0.3,0.7,0.8v2.1h0
						C49.2,37.3,48.9,37.7,48.5,37.7z"/>
					<path d="M63.1,33.1c-1,0-1.8,0.6-1.8,1.7v2.1c0,1.1,0.8,1.7,1.8,1.7c1,0,1.8-0.6,1.8-1.7v-2.1C64.9,33.7,64.1,33.1,63.1,33.1z
						 M63.1,37.7c-0.4,0-0.7-0.3-0.7-0.8v-2.1l0,0c0-0.4,0.3-0.8,0.7-0.8c0.4,0,0.7,0.3,0.7,0.8v2.1h0
						C63.7,37.3,63.5,37.7,63.1,37.7z"/>
					<path d="M84.3,33.1c-1,0-1.8,0.6-1.8,1.7v2.1c0,1.1,0.8,1.7,1.8,1.7c1,0,1.8-0.6,1.8-1.7v-2.1C86.1,33.7,85.4,33.1,84.3,33.1z
						 M84.3,37.7c-0.4,0-0.7-0.3-0.7-0.8v-2.1l0,0c0-0.4,0.3-0.8,0.7-0.8c0.4,0,0.7,0.3,0.7,0.8v2.1h0C85,37.3,84.7,37.7,84.3,37.7z
						"/>
					<path d="M58.3,33.1h-1.6v1h1.6c0.4,0,0.7,0.3,0.7,0.8l0,0c0,0.4-0.3,0.8-0.7,0.8h-0.5v0h-1.1v2.8h1.1v-1.9h0.5
						c1,0,1.8-0.6,1.8-1.7C60.1,33.7,59.4,33.1,58.3,33.1z"/>
					<path d="M55.2,37.3c0-0.5-0.2-1-0.5-1.2c0.3-0.3,0.5-0.7,0.5-1.2c0-1.1-0.8-1.7-1.8-1.7h-1.6v5.3h1.1v-4.4h0.5
						c0.4,0,0.7,0.3,0.7,0.8h0c0,0.4-0.3,0.8-0.7,0.8v1c0.4,0,0.7,0.3,0.7,0.8h0v1.1h1.1V37.3L55.2,37.3z"/>
					<path d="M69.7,37.3c0-0.5-0.2-1-0.5-1.2c0.3-0.3,0.5-0.7,0.5-1.2c0-1.1-0.8-1.7-1.8-1.7h-1.6v5.3h1.1v-4.4h0.5
						c0.4,0,0.7,0.3,0.7,0.8h0c0,0.4-0.3,0.8-0.7,0.8v1c0.4,0,0.7,0.3,0.7,0.8h0v1.1h1.1L69.7,37.3L69.7,37.3z"/>
					<path d="M73.5,33.1H73l0,0c-1,0-1.8,0.6-1.8,1.7v3.6h1.1l0-0.2v-3.4c0-0.4,0.3-0.8,0.7-0.8h0.5v1.5h-0.6v1h0.6v1.9h1.1v-4.4v-1
						H73.5z"/>
					<polygon points="77.8,33.1 76.6,33.1 76.6,34.1 76.6,38.5 77.8,38.5 77.8,34.1 78.9,34.1 78.9,33.1 					"/>
					<polygon points="90.1,33.1 90.1,36.4 88.3,33.1 87.4,33.1 87.4,38.5 88.3,38.5 88.3,35.2 90.1,38.5 91,38.5 91,33.1 					"/>
					<rect x="80" y="33.1" width="1.1" height="5.3"/>
				</g>
			</g>
		</g>
	</g>
</g>
</svg>
