<?xml version="1.0" encoding="utf-8"?>
<!-- Generator: Adobe Illustrator 26.5.0, SVG Export Plug-In . SVG Version: 6.00 Build 0)  -->
<svg version="1.1" id="Layer_1" xmlns="http://www.w3.org/2000/svg" xmlns:xlink="http://www.w3.org/1999/xlink" x="0px" y="0px"
	 viewBox="0 0 100 55" style="enable-background:new 0 0 100 55;" xml:space="preserve">
<style type="text/css">
	.st0{fill:#1386C8;}
</style>
<g id="Layer_1_00000145047153598191685880000016914891043416494473_">
	<path id="Nabtesco" class="st0" d="M16.5,29.8L11.9,20H8.2L7.1,33.6H10l0.8-10.3l4.9,10.3H19L20.2,20h-2.9L16.5,29.8z M31.6,27.3
		l-0.5,6.2h-7c-1.9,0-3-1.1-2.8-2.9c0.2-2.6,2.1-3.1,4.3-3.1h3.5c0.1-1.4-0.4-1.9-2.2-1.9h-4.4l0.2-2.1h5.4
		C30.6,23.6,31.8,24.8,31.6,27.3 M28.7,29.5h-3.1c-0.7,0-1.6,0.1-1.7,1c-0.1,0.9,0.4,1,1.3,1h3.3L28.7,29.5z M43.7,28.9
		c-0.3,2-1.5,4.7-5.3,4.7h-5L34.5,20h2.6l-0.3,3.6h2.3C42.2,23.6,44,25.1,43.7,28.9 M38.3,25.8h-1.6l-0.5,5.6c0.1,0,0.3,0,0.8,0
		c2.3,0.1,3.5-0.2,3.9-2.2C41.4,26.4,40.3,25.8,38.3,25.8 M48.5,20h-2.6L45,30.5c-0.2,1.9,0.8,3.1,2.8,3.1h2.4l0.2-2h-0.3
		c-2,0-2.5-0.3-2.4-2l0.4-4h2.8l0.2-2h-2.8L48.5,20z M51.5,28.6c-0.2,2.2,0.4,5,4.6,5h3.8l0.2-2.1h-3.5c-2,0-2.3-0.4-2.3-1.9h5.9
		l0.2-2.1h-5.9c0.2-1.7,1.1-1.9,2.6-1.9h3.5l0.2-2.1h-3.8C53.1,23.6,51.7,26.1,51.5,28.6 M66.4,25.7H71l0.2-2.1h-5.6
		c-2.3,0-3.6,1.1-3.8,3.2c-0.2,2.6,1.2,2.8,3.2,2.8h2.3c0.9,0,1.4,0.3,1.3,1c-0.1,0.7-0.5,1-1.5,1h-5.5l-0.2,2.1h6.7
		c1.7,0,2.9-1.4,3-3.3c0.1-2.2-1.3-2.8-3.1-2.8h-2.4c-0.8,0-1.2-0.3-1.2-0.8C64.6,25.8,65.2,25.7,66.4,25.7 M72.5,28.6
		c-0.3,3,1.3,4.9,4.8,4.9h3.5l0.2-2.1h-2.8c-2.9,0-3.1-1.5-3-2.8c0.2-2.6,1.7-2.8,3.5-2.8h2.8l0.2-2.2h-3.5
		C73.6,23.6,72.7,26.6,72.5,28.6 M92.9,28.6c-0.3,2.9-2.3,5.2-5.7,5.2c-4.1,0-5-3-4.8-5.2c0.2-2.4,1.9-5.2,5.7-5.2
		C90.7,23.4,93.2,25,92.9,28.6 M87.9,25.6c-1.5,0-2.7,1.1-2.8,3c-0.2,1.8,0.8,3,2.3,3c1,0,2.6-0.6,2.8-3
		C90.3,26.6,89.3,25.6,87.9,25.6"/>
</g>
</svg>
