<?xml version="1.0" encoding="utf-8"?>
<!-- Generator: Adobe Illustrator 26.5.0, SVG Export Plug-In . SVG Version: 6.00 Build 0)  -->
<svg version="1.1" id="Layer_1" xmlns="http://www.w3.org/2000/svg" xmlns:xlink="http://www.w3.org/1999/xlink" x="0px" y="0px"
	 viewBox="0 0 100 55" style="enable-background:new 0 0 100 55;" xml:space="preserve">
<style type="text/css">
	.st0{fill:#009E3A;}
	.st1{fill:#1A171B;}
</style>
<g id="Layer_1_00000106136257541512592650000013955300698433025686_">
	<g>
		<path class="st0" d="M40.2,14.3C39.9,15.3,38.9,16,38,16h-3.8c-0.9,0-1.4-0.8-1.1-1.7l0.5-1.7c0.3-0.9,1.3-1.7,2.2-1.7h3.8
			c0.9,0,1.4,0.8,1.1,1.7L40.2,14.3z"/>
		<g>
			<path class="st0" d="M40.2,14.3C39.9,15.3,38.9,16,38,16h-3.8c-0.9,0-1.4-0.8-1.1-1.7l0.5-1.7c0.3-0.9,1.3-1.7,2.2-1.7h3.8
				c0.9,0,1.4,0.8,1.1,1.7L40.2,14.3z"/>
			<g>
				<polygon class="st0" points="35.4,29.4 28.3,29.4 32,17.7 39.1,17.7 				"/>
				<path class="st0" d="M46.4,27.8c-0.1,0.4-0.6,0.8-1.1,0.8h-0.1c-0.4,0-0.7-0.4-0.5-0.8l2.7-8.5c0.1-0.4,0.6-0.8,1.1-0.8h0.1
					c0.4,0,0.7,0.4,0.5,0.8L46.4,27.8z M51.7,11l-2.4,7.5c0.1-0.4-0.1-0.8-0.5-0.8h-6.3c-0.9,0-1.9,0.8-2.2,1.7l-2.7,8.4
					c-0.3,0.9,0.2,1.7,1.1,1.7h14.2L58.8,11L51.7,11"/>
				<path class="st0" d="M64.9,19.3c0.1-0.4,0.6-0.8,1.1-0.8h0.1c0.4,0,0.7,0.4,0.5,0.8l-1.2,3.8h-1.7L64.9,19.3z M72.3,24l1.5-4.6
					c0.3-0.9-0.2-1.7-1.1-1.7H60c-0.9,0-1.9,0.8-2.2,1.7l-2.7,8.4c-0.3,0.9,0.2,1.7,1.1,1.7h14.2l0.3-0.8h-7.1
					c-0.9,0-1.4-0.8-1.1-1.7l0.9-2.9H72.3"/>
				<path class="st0" d="M84.5,18.5h7.1l0.3-0.8H77.6c-0.9,0-1.9,0.8-2.2,1.7l-2.7,8.4c-0.3,0.9,0.2,1.7,1.1,1.7h14.2l0.3-0.8h-7.1
					c-0.9,0-1.4-0.8-1.1-1.7l2.1-6.7C82.5,19.3,83.5,18.5,84.5,18.5"/>
				<polygon class="st0" points="31.6,11 27.9,22.7 20.7,11 14.9,11 9,29.4 9.8,29.4 13.6,17.7 20.7,29.4 26.6,29.4 32.4,11 				"/>
				<path class="st1" d="M80.6,40.6c0.1,0.1,0.1,0.3,0.3,0.4c0.3,0.3,0.8,0.5,1.3,0.5c0.2,0,0.3,0,0.5-0.1c0.6-0.2,0.6-0.6,0.6-0.7
					c0-0.1,0-0.2,0-0.3C83,40.1,82.7,40,82,39.9c-0.2,0-0.5-0.1-0.7-0.2c-0.2-0.1-1-0.4-1-1.3c0-0.8,0.7-1.7,2.1-1.7
					c0.7,0,1.2,0.2,1.5,0.6c0.3,0.3,0.4,0.6,0.4,0.8l-0.4,0.1c-0.1-0.2-0.3-0.7-1.3-0.7c-0.7,0-1,0.4-1,0.7c0,0.5,0.5,0.6,0.9,0.7
					c0.2,0,0.4,0.1,0.6,0.1c0.3,0.1,0.7,0.2,1,0.5c0.2,0.2,0.4,0.6,0.4,1.1c0,0.9-0.7,1.7-2.2,1.7c-1,0-1.5-0.4-1.7-0.6
					c-0.3-0.3-0.4-0.7-0.4-1L80.6,40.6z"/>
				<path class="st1" d="M35.6,36.9c0-0.5,0-0.9,0.1-1.2c0.2-0.7,0.9-0.9,1.5-0.9c0.7,0,1,0.2,1.2,0.4l-0.2,0.3
					c-0.1,0-0.3-0.1-0.5-0.1c-0.2,0-0.5,0.1-0.7,0.4C37,36.1,37,36.3,37,36.9h1.2v0.8H37V42h-1.3v-4.3h-0.8v-0.8L35.6,36.9
					L35.6,36.9z"/>
				<path class="st1" d="M39.9,39.4c0,1.2,0.4,2,1.2,2c0.8,0,1.2-0.9,1.2-1.9c0-1.1-0.4-2-1.2-2C40.3,37.5,39.9,38.3,39.9,39.4
					 M43.8,39.4c0,1.4-0.8,2.8-2.7,2.8c-1.6,0-2.6-1.1-2.6-2.7c0-2,1.5-2.8,2.6-2.8C42.5,36.7,43.8,37.6,43.8,39.4"/>
				<path class="st1" d="M46.1,37.5c0.2-0.3,0.6-0.8,1.5-0.8c0.1,0,0.3,0,0.4,0v1.2c-0.3-0.1-0.5-0.2-0.9-0.2c-0.5,0-0.8,0.2-1,0.3
					v4h-1.3v-5.1h1.3L46.1,37.5L46.1,37.5z"/>
				<path class="st1" d="M54,38.2c-0.2-0.4-0.6-0.7-1.1-0.7c-0.4,0-0.6,0.2-0.8,0.3c-0.5,0.5-0.5,1.3-0.5,1.6c0,1.2,0.5,2,1.3,2
					c0.6,0,0.8-0.3,1.1-0.6L54,38.2L54,38.2z M54,34.9h1.3V42H54v-0.5c-0.3,0.3-0.7,0.7-1.6,0.7c-1.2,0-2.2-0.9-2.2-2.7
					c0-1.5,0.8-2.8,2.2-2.8c0.9,0,1.3,0.5,1.5,0.8V34.9"/>
				<path class="st1" d="M57.8,37.5c0.2-0.3,0.6-0.8,1.5-0.8c0.1,0,0.3,0,0.4,0v1.2c-0.3-0.1-0.5-0.2-0.9-0.2c-0.5,0-0.8,0.2-1,0.3
					v4h-1.3v-5.1h1.3L57.8,37.5L57.8,37.5z"/>
				<path class="st1" d="M63.9,38.8c-0.1-0.5-0.2-1.3-1.2-1.3c-1,0-1.2,0.8-1.3,1.3H63.9z M65.2,40.6c-0.2,0.6-0.6,1.6-2.4,1.6
					c-1.8,0-2.8-1.3-2.8-2.8c0-1.5,1-2.7,2.8-2.7c0.4,0,1.2,0.1,1.9,0.7c0.7,0.7,0.7,1.7,0.7,2.2h-3.9c0,0.4,0.2,1.8,1.8,1.8
					c0.9,0,1.3-0.5,1.6-0.9L65.2,40.6"/>
				<path class="st1" d="M69.5,39.7c-0.3-0.1-0.5-0.2-0.9-0.2c-0.6,0-1.1,0.3-1.1,1c0,0.4,0.3,0.9,0.9,0.9c0.5,0,0.8-0.2,1.1-0.4
					V39.7z M70.7,42h-1.3v-0.6c-0.2,0.2-0.7,0.7-1.7,0.7c-1,0-1.7-0.7-1.7-1.6c0-1.2,1-1.8,2.2-1.8c0.5,0,0.8,0.1,1.2,0.2
					c0-0.3,0-0.5-0.1-0.8c-0.2-0.5-0.8-0.7-1.2-0.7c-0.8,0-1.2,0.5-1.4,0.8L66.4,38c0.2-0.5,0.6-1.4,2.1-1.4c0.9,0,1.4,0.3,1.7,0.6
					c0.5,0.5,0.5,1.2,0.5,1.7L70.7,42"/>
				<path class="st1" d="M73.2,37.5c0.2-0.3,0.6-0.8,1.6-0.8c0.3,0,0.6,0,0.9,0.2c0.3,0.2,0.4,0.5,0.5,0.7c0.2-0.2,0.3-0.4,0.6-0.6
					c0.4-0.3,0.8-0.3,1.1-0.3c0.5,0,0.9,0.2,1.2,0.4c0.4,0.4,0.4,0.9,0.4,1.3V42h-1.3v-3.6c0-0.2,0-0.5-0.2-0.7
					c-0.1-0.1-0.3-0.2-0.5-0.2c-0.3,0-0.6,0.1-0.8,0.3c-0.1,0.1-0.2,0.3-0.3,0.4V42H75v-3.5c0-0.1,0-0.5-0.2-0.7
					c-0.1-0.1-0.3-0.2-0.6-0.2c-0.1,0-0.4,0-0.7,0.3c-0.2,0.1-0.2,0.3-0.3,0.4V42h-1.3v-5.1h1.3L73.2,37.5L73.2,37.5z"/>
				<rect x="27.4" y="34.9" class="st1" width="1.3" height="7.1"/>
				<rect x="30.1" y="34.9" class="st1" width="1.3" height="7.1"/>
				<path class="st1" d="M20.6,39.8l-1,2.2h1.2l0.9-2C21.4,39.9,21,39.9,20.6,39.8"/>
				<path class="st1" d="M23.4,34.9h-0.5L21,39c0.4,0.1,0.7,0.2,1,0.3l0.9-2.1l2.2,4.8h1.5L23.4,34.9z"/>
				<path class="st1" d="M14.2,40.6c1.3-0.2,3.1-0.3,4.6-0.3c1.6,0,3.4,0.1,4.9,0.4c0.1,0,0.2,0,0.1-0.1c-1.2-0.6-2.9-1.1-4.9-1.1
					c-1.8,0-3.5,0.4-4.7,0.9C14,40.5,14.1,40.6,14.2,40.6"/>
				<polygon class="st0" points="35.4,29.4 28.3,29.4 32,17.7 39.1,17.7 				"/>
				<path class="st0" d="M46.4,27.8c-0.1,0.4-0.6,0.8-1.1,0.8h-0.1c-0.4,0-0.7-0.4-0.5-0.8l2.7-8.5c0.1-0.4,0.6-0.8,1.1-0.8h0.1
					c0.4,0,0.7,0.4,0.5,0.8L46.4,27.8z M51.7,11l-2.4,7.5c0.1-0.4-0.1-0.8-0.5-0.8h-6.3c-0.9,0-1.9,0.8-2.2,1.7l-2.7,8.4
					c-0.3,0.9,0.2,1.7,1.1,1.7h14.2L58.8,11L51.7,11"/>
				<path class="st0" d="M64.9,19.3c0.1-0.4,0.6-0.8,1.1-0.8h0.1c0.4,0,0.7,0.4,0.5,0.8l-1.2,3.8h-1.7L64.9,19.3z M72.3,24l1.5-4.6
					c0.3-0.9-0.2-1.7-1.1-1.7H60c-0.9,0-1.9,0.8-2.2,1.7l-2.7,8.4c-0.3,0.9,0.2,1.7,1.1,1.7h14.2l0.3-0.8h-7.1
					c-0.9,0-1.4-0.8-1.1-1.7l0.9-2.9H72.3"/>
				<path class="st0" d="M84.5,18.5h7.1l0.3-0.8H77.6c-0.9,0-1.9,0.8-2.2,1.7l-2.7,8.4c-0.3,0.9,0.2,1.7,1.1,1.7h14.2l0.3-0.8h-7.1
					c-0.9,0-1.4-0.8-1.1-1.7l2.1-6.7C82.5,19.3,83.5,18.5,84.5,18.5"/>
				<polygon class="st0" points="31.6,11 27.9,22.7 20.7,11 14.9,11 9,29.4 9.8,29.4 13.6,17.7 20.7,29.4 26.6,29.4 32.4,11 				"/>
				<path class="st1" d="M80.6,40.6c0.1,0.1,0.1,0.3,0.3,0.4c0.3,0.3,0.8,0.5,1.3,0.5c0.2,0,0.3,0,0.5-0.1c0.6-0.2,0.6-0.6,0.6-0.7
					c0-0.1,0-0.2-0.1-0.3C83,40.1,82.7,40,82,39.9c-0.2,0-0.5-0.1-0.7-0.2c-0.2-0.1-1-0.4-1-1.3c0-0.8,0.7-1.7,2.1-1.7
					c0.7,0,1.2,0.2,1.5,0.6c0.3,0.3,0.4,0.6,0.4,0.8l-0.3,0.1c-0.1-0.2-0.3-0.7-1.4-0.7c-0.7,0-1,0.4-1,0.7c0,0.5,0.5,0.6,0.9,0.7
					c0.2,0,0.4,0.1,0.6,0.1c0.3,0.1,0.7,0.2,1,0.5c0.2,0.2,0.4,0.6,0.4,1.1c0,0.9-0.7,1.7-2.2,1.7c-1,0-1.5-0.4-1.7-0.6
					c-0.3-0.3-0.4-0.7-0.4-1L80.6,40.6z"/>
				<path class="st1" d="M35.6,36.9c0-0.5,0-0.9,0.1-1.2c0.2-0.7,0.9-0.9,1.5-0.9c0.7,0,1,0.2,1.2,0.4l-0.2,0.3
					c-0.1,0-0.3-0.1-0.5-0.1c-0.2,0-0.5,0.1-0.7,0.4C37,36.1,37,36.3,37,36.9h1.2v0.8H37V42h-1.3v-4.3h-0.8v-0.8L35.6,36.9
					L35.6,36.9z"/>
				<path class="st1" d="M39.9,39.4c0,1.2,0.4,2,1.2,2c0.8,0,1.2-0.9,1.2-1.9c0-1.1-0.4-2-1.2-2C40.3,37.5,39.9,38.3,39.9,39.4
					 M43.8,39.4c0,1.4-0.8,2.8-2.7,2.8c-1.6,0-2.6-1.1-2.6-2.7c0-2,1.5-2.8,2.6-2.8C42.5,36.7,43.8,37.6,43.8,39.4"/>
				<path class="st1" d="M46.1,37.5c0.2-0.3,0.6-0.8,1.5-0.8c0.1,0,0.3,0,0.4,0v1.2c-0.3-0.1-0.5-0.2-0.9-0.2c-0.5,0-0.8,0.2-1,0.3
					v4h-1.3v-5.1h1.3L46.1,37.5L46.1,37.5z"/>
				<path class="st1" d="M54,38.2c-0.3-0.4-0.6-0.7-1.1-0.7c-0.4,0-0.6,0.2-0.8,0.3c-0.5,0.5-0.5,1.3-0.5,1.6c0,1.2,0.5,2,1.3,2
					c0.6,0,0.9-0.3,1.1-0.6L54,38.2L54,38.2z M54,34.9h1.3V42H54v-0.5c-0.3,0.3-0.7,0.7-1.6,0.7c-1.2,0-2.2-0.9-2.2-2.7
					c0-1.5,0.8-2.8,2.2-2.8c0.9,0,1.2,0.5,1.5,0.8L54,34.9"/>
				<path class="st1" d="M57.8,37.5c0.2-0.3,0.6-0.8,1.5-0.8c0.1,0,0.3,0,0.4,0v1.2c-0.3-0.1-0.5-0.2-0.9-0.2c-0.5,0-0.8,0.2-1,0.3
					v4h-1.3v-5.1h1.3L57.8,37.5L57.8,37.5z"/>
				<path class="st1" d="M63.9,38.8c-0.1-0.5-0.2-1.3-1.2-1.3c-1,0-1.2,0.8-1.3,1.3H63.9z M65.2,40.6c-0.2,0.6-0.6,1.6-2.4,1.6
					c-1.8,0-2.8-1.3-2.8-2.8c0-1.5,1-2.7,2.8-2.7c0.4,0,1.2,0.1,1.9,0.7c0.7,0.7,0.7,1.7,0.7,2.2h-3.9c0.1,0.4,0.2,1.8,1.8,1.8
					c0.9,0,1.3-0.5,1.6-0.9L65.2,40.6"/>
				<path class="st1" d="M69.5,39.7c-0.3-0.1-0.5-0.2-0.9-0.2c-0.6,0-1.1,0.3-1.1,1c0,0.4,0.2,0.9,0.9,0.9c0.5,0,0.8-0.2,1-0.4
					L69.5,39.7L69.5,39.7z M70.7,42h-1.3v-0.6c-0.2,0.2-0.7,0.7-1.7,0.7c-1,0-1.7-0.7-1.7-1.6c0-1.2,1-1.8,2.2-1.8
					c0.5,0,0.8,0.1,1.2,0.2c0-0.3,0-0.5-0.1-0.8c-0.2-0.5-0.8-0.7-1.2-0.7c-0.9,0-1.2,0.5-1.4,0.8L66.4,38c0.2-0.5,0.6-1.4,2.1-1.4
					c0.9,0,1.4,0.3,1.7,0.6c0.5,0.5,0.5,1.2,0.5,1.7V42"/>
				<path class="st1" d="M73.2,37.5c0.2-0.3,0.6-0.8,1.6-0.8c0.3,0,0.6,0,0.9,0.2c0.3,0.2,0.4,0.5,0.5,0.7c0.2-0.2,0.3-0.4,0.6-0.6
					c0.4-0.3,0.8-0.3,1.1-0.3c0.5,0,0.9,0.2,1.2,0.4c0.4,0.4,0.4,0.9,0.4,1.3V42h-1.3v-3.6c0-0.2,0-0.5-0.2-0.7
					c-0.1-0.1-0.3-0.2-0.5-0.2c-0.3,0-0.6,0.1-0.8,0.3c-0.1,0.1-0.2,0.3-0.3,0.4V42H75v-3.5c0-0.1,0-0.5-0.2-0.7
					c-0.1-0.1-0.3-0.2-0.6-0.2c-0.1,0-0.4,0-0.7,0.3c-0.2,0.1-0.2,0.3-0.3,0.4V42h-1.3v-5.1h1.3L73.2,37.5L73.2,37.5z"/>
				<rect x="27.4" y="34.9" class="st1" width="1.3" height="7.1"/>
				<rect x="30.1" y="34.9" class="st1" width="1.3" height="7.1"/>
				<path class="st1" d="M20.6,39.8l-1,2.2h1.2l0.9-2C21.4,39.9,21,39.9,20.6,39.8"/>
				<path class="st1" d="M23.4,34.9h-0.5L21,39c0.4,0.1,0.7,0.2,1,0.3l0.9-2.1l2.2,4.8h1.5L23.4,34.9z"/>
				<path class="st1" d="M14.2,40.6c1.3-0.2,3.1-0.3,4.6-0.3c1.6,0,3.4,0.1,4.9,0.4c0.1,0,0.2,0,0.1-0.1c-1.2-0.6-2.9-1.1-4.9-1.1
					c-1.8,0-3.5,0.4-4.7,0.9C14,40.5,14.1,40.6,14.2,40.6"/>
			</g>
		</g>
	</g>
</g>
</svg>
