<?xml version="1.0" encoding="utf-8"?>
<!-- Generator: Adobe Illustrator 26.5.0, SVG Export Plug-In . SVG Version: 6.00 Build 0)  -->
<svg version="1.1" id="Layer_1" xmlns="http://www.w3.org/2000/svg" xmlns:xlink="http://www.w3.org/1999/xlink" x="0px" y="0px"
	 viewBox="0 0 100 55" style="enable-background:new 0 0 100 55;" xml:space="preserve">
<style type="text/css">
	.st0{fill-rule:evenodd;clip-rule:evenodd;fill:#0066B0;}
</style>
<g id="Layer_1_00000132796812759240786720000015900071200664526764_">
	<g id="Panasonic">
		<path class="st0" d="M28,24.5h3.1l0.1,1c0.2-0.8,1.8-1.4,2.8-1.4c2.2,0,3.1,1.4,3.1,3.7V33h-3.4v-4.6c0-0.9-0.2-1.6-1.1-1.6
			c-0.8,0-1.3,0.9-1.3,1.6V33H28V24.5L28,24.5z"/>
		<path class="st0" d="M8,33.1V21h5.7c3.4,0,5,1.7,5,4.1c0,2.6-1.4,4.3-5,4.3h-1.9v3.6L8,33.1L8,33.1z M13.3,26.5
			c0.9,0,1.9-0.2,1.9-1.3c0-1.1-1.1-1.3-1.9-1.3h-1.5v2.6H13.3L13.3,26.5z"/>
		<path class="st0" d="M65.8,24.5h3.1l0.1,1c0.3-0.8,1.8-1.4,2.8-1.4c2.2,0,3.1,1.4,3.1,3.7v5.2h-3.4v-4.6c0-0.9-0.2-1.6-1.1-1.6
			c-0.8,0-1.3,0.9-1.3,1.6v4.7h-3.3V24.5L65.8,24.5z"/>
		<path class="st0" d="M50,30c0,0.3,0.2,0.8,0.4,1c0.2,0.2,0.5,0.3,0.9,0.3c0.6,0,1.1-0.2,1.1-0.7c0-1.4-5.2-0.2-5.2-3.6
			c0-2.4,1.8-2.9,3.7-2.9c1.9,0,4.5,0.4,4.4,3h-2.9c0-0.2-0.1-0.4-0.2-0.6c-0.2-0.2-0.4-0.3-0.9-0.4c-0.6,0-1.1,0.1-1.1,0.5
			c0,1.3,5.4,0.4,5.4,3.6c0,2.2-1.5,3.2-4.5,3.2c-1.9,0-4.2-1-4.2-3.3H50L50,30z"/>
		<path class="st0" d="M85.2,27.8c0-0.2,0-0.5-0.3-0.8c-0.1-0.2-0.4-0.5-0.9-0.5c-1.3,0-1.6,1.3-1.6,2.3c0,1.2,0.5,2.2,1.6,2.2
			c0.9,0,1.3-0.8,1.3-1.5h3c0.1,1.8-1.2,3.9-4.5,3.9c-2.7,0-4.6-1.9-4.6-4.6c0-3.3,2.4-4.6,4.6-4.6c2.9,0,4.5,1.7,4.5,3.7L85.2,27.8
			L85.2,27.8z"/>
		<path class="st0" d="M24.4,33.1L24,32.4c-0.6,0.5-1.3,0.8-2.4,0.8c-1.1,0-3.1-0.2-3.1-2.4c0-3.7,5.6-2,5.6-3.9
			c0-0.6-0.7-0.6-1.1-0.6c-0.7,0-1.1,0.1-1.2,1.2h-2.9c0-1.8,0.5-3.3,4.3-3.3c3.6,0,4,1.9,4,3.8v3.9c0,0.5,0,0.7,0.4,1.1V33
			L24.4,33.1L24.4,33.1z M24.1,29.2c-1.2,0.5-2.6,0.5-2.7,1.4c0,0.5,0.3,0.8,1,0.8C23.6,31.3,24.2,30.2,24.1,29.2L24.1,29.2z
			 M43.5,33.1l-0.3-0.7c-0.6,0.5-1.4,0.8-2.4,0.8c-1.1,0-3.2-0.2-3.2-2.4c0-3.7,5.6-2,5.6-3.9c0-0.6-0.7-0.6-1.1-0.6
			c-0.7,0-1.1,0.1-1.2,1.2h-2.9c0-1.8,0.5-3.3,4.3-3.3c3.6,0,4,1.9,4,3.8v3.9c0,0.5,0,0.7,0.4,1.1V33L43.5,33.1L43.5,33.1z
			 M43.3,29.2c-1.2,0.5-2.7,0.5-2.7,1.4c0,0.5,0.3,0.8,1,0.8C42.7,31.3,43.3,30.2,43.3,29.2L43.3,29.2z"/>
		<path class="st0" d="M78.7,33.1v-8.5h-3.2v8.5L78.7,33.1L78.7,33.1z M75.5,23.4h3.2V21h-3.2V23.4L75.5,23.4z"/>
		<path class="st0" d="M60.7,24.2c2.8,0,4.6,2,4.6,4.6c0,2.6-1.7,4.6-4.6,4.6c-2.8,0-4.6-1.9-4.6-4.6C56.1,26.2,57.9,24.2,60.7,24.2
			L60.7,24.2z M59.2,28.8c0,1.1,0.3,2.3,1.5,2.4c1.2,0,1.5-1.3,1.5-2.4c0-1-0.3-2.3-1.5-2.3C59.6,26.4,59.2,27.8,59.2,28.8
			L59.2,28.8z"/>
		<path class="st0" d="M90.3,31.4c0.2,0,0.5,0,0.5-0.2c0-0.2-0.2-0.3-0.4-0.3H90v0.5H90.3L90.3,31.4z M91,32.2h-0.2l-0.4-0.7H90v0.7
			h-0.2v-1.5h0.6c0.3,0,0.5,0.1,0.5,0.4c0,0.3-0.2,0.4-0.4,0.4L91,32.2L91,32.2z M91.5,31.5c0-0.6-0.5-1.2-1.1-1.2
			c-0.6,0-1.2,0.5-1.2,1.2c0,0.6,0.5,1.1,1.2,1.1C90.9,32.6,91.5,32.1,91.5,31.5L91.5,31.5z M89,31.5c0-0.7,0.6-1.3,1.3-1.3
			c0.7,0,1.3,0.6,1.3,1.3c0,0.7-0.6,1.3-1.3,1.3C89.6,32.8,89,32.2,89,31.5L89,31.5z"/>
	</g>
</g>
</svg>
