<?xml version="1.0" encoding="utf-8"?>
<!-- Generator: Adobe Illustrator 26.5.0, SVG Export Plug-In . SVG Version: 6.00 Build 0)  -->
<svg version="1.1" id="Layer_1" xmlns="http://www.w3.org/2000/svg" xmlns:xlink="http://www.w3.org/1999/xlink" x="0px" y="0px"
	 viewBox="0 0 100 55" style="enable-background:new 0 0 100 55;" xml:space="preserve">
<style type="text/css">
	.st0{fill:#B6C930;}
</style>
<g id="Layer_1_00000094593578025689722290000001739013525112090301_">
	<g transform="translate(0.011)">
		<path class="st0" d="M41.8,27.3c0-2,1-3.8,2.7-4.9c0.4-0.2,0.9-0.1,1.2,0.3c0.2,0.4,0.1,0.9-0.3,1.1c-1.9,1.2-2.5,3.7-1.3,5.6
			c1.2,1.9,3.7,2.5,5.6,1.3c1.9-1.2,2.5-3.7,1.3-5.6c-0.3-0.5-0.8-1-1.3-1.3l0,0c-0.4-0.3-0.5-0.8-0.2-1.2c0.2-0.4,0.8-0.5,1.1-0.3
			c2.7,1.7,3.5,5.2,1.9,7.9c-1.7,2.7-5.2,3.5-7.9,1.9C42.8,31.2,41.8,29.3,41.8,27.3"/>
		<path d="M37.6,33.1c-3.2,0-5.8-2.6-5.8-5.7c0-3.2,2.6-5.8,5.7-5.8c1.2,0,2.4,0.4,3.4,1.1c0.4,0.3,0.5,0.8,0.2,1.2
			c-0.3,0.4-0.8,0.5-1.2,0.2l0,0c-1.8-1.3-4.3-0.9-5.7,0.9c-1.3,1.8-0.9,4.3,0.9,5.7c1.4,1.1,3.4,1,4.8,0c0.4-0.3,0.9-0.2,1.2,0.2
			c0.3,0.4,0.2,0.9-0.2,1.1C40.1,32.7,38.9,33.1,37.6,33.1L37.6,33.1z"/>
		<path d="M91.1,21.5c-0.5,0-0.8,0.4-0.8,0.8l0,0v0.8c-2.2-2.2-5.9-2.2-8.1,0c-2.2,2.3-2.2,5.9,0,8.1c2.2,2.2,5.9,2.2,8.1,0v0.8
			c0,0.5,0.4,0.9,0.8,0.9c0.5,0,0.9-0.4,0.9-0.8c0,0,0,0,0,0v-9.8C91.9,21.9,91.6,21.6,91.1,21.5 M89.1,30.2c-1.6,1.6-4.2,1.6-5.7,0
			c-1.6-1.6-1.6-4.2,0-5.7c1.6-1.6,4.2-1.6,5.7,0c0.8,0.8,1.2,1.8,1.2,2.9C90.2,28.4,89.8,29.4,89.1,30.2"/>
		<path d="M66.9,25.1c0-1.9-1.6-3.5-3.5-3.5c-1,0-2,0.5-2.7,1.2c-1.3-1.5-3.5-1.7-5-0.4c-0.8,0.7-1.2,1.6-1.2,2.7v7.1
			c0,0.5,0.4,0.8,0.9,0.8c0.5,0,0.8-0.4,0.8-0.8l0,0v-7.1c0-1,0.8-1.8,1.8-1.9c1,0,1.8,0.8,1.9,1.8c0,0,0,0,0,0.1v7.1
			c0,0.5,0.4,0.8,0.9,0.8c0.5,0,0.8-0.4,0.8-0.8l0,0v-7.1c0-1,0.8-1.8,1.8-1.9c1,0,1.8,0.8,1.9,1.8c0,0,0,0,0,0.1v7.1
			c0,0.5,0.4,0.8,0.9,0.8c0.5,0,0.8-0.4,0.8-0.8L66.9,25.1z"/>
		<path d="M46.7,27v-7.1c0-0.5,0.4-0.9,0.9-0.9c0.5,0,0.9,0.4,0.9,0.9V27c0,0.5-0.4,0.9-0.9,0.9C47.1,27.9,46.7,27.5,46.7,27"/>
		<path d="M31,27.3c0-3.2-2.6-5.7-5.8-5.7c-3.2,0-5.7,2.6-5.7,5.8c0,3.2,2.6,5.7,5.8,5.7l0,0c1.2,0,2.5-0.4,3.5-1.2
			c0.4-0.3,0.5-0.8,0.2-1.2c-0.3-0.4-0.8-0.5-1.2-0.2c0,0,0,0,0,0l0,0c-1.8,1.3-4.3,1-5.7-0.8c-1.3-1.8-1-4.3,0.8-5.7
			c1.8-1.3,4.3-1,5.7,0.8c0.3,0.5,0.6,1,0.7,1.6h-5.7c-0.5,0-0.8,0.4-0.8,0.9c0,0.5,0.4,0.8,0.8,0.8h6.7
			C30.6,28.1,30.9,27.8,31,27.3"/>
		<path d="M79.5,27.3c0-3.2-2.6-5.7-5.8-5.7c-3.2,0-5.7,2.6-5.7,5.8c0,3.2,2.6,5.7,5.8,5.7l0,0c1.2,0,2.4-0.4,3.4-1.2
			c0.4-0.3,0.5-0.8,0.2-1.2c-0.3-0.4-0.8-0.4-1.2-0.2l0,0c-1.8,1.3-4.3,1-5.7-0.8c-1.3-1.8-1-4.3,0.8-5.7c1.8-1.3,4.3-1,5.7,0.8
			c0.3,0.5,0.6,1,0.7,1.6h-5.6c-0.5,0-0.8,0.4-0.8,0.9c0,0.5,0.4,0.8,0.8,0.8h6.7C79.2,28.1,79.5,27.8,79.5,27.3"/>
		<path d="M13.7,26.5c-0.7,0-1.4,0-2.1-0.1c-0.2,0-0.4-0.1-0.6-0.1c-0.6-0.1-1-0.6-0.9-1.2c0-0.3,0.1-0.5,0.2-0.7
			c0.3-0.4,0.7-0.6,1.1-0.8c0.7-0.2,1.5-0.3,2.2-0.3c0.9,0,1.8,0.1,2.6,0.4c0.2,0.1,0.4,0.2,0.7,0.3c0.1,0,0.1,0.1,0.2,0.1l0,0
			c0.4,0.3,0.9,0.2,1.2-0.2c0.3-0.4,0.2-0.9-0.2-1.2c0,0,0,0,0,0c-0.1-0.1-1.7-1.1-4.4-1.1c-1.2,0-2.5,0.2-3.6,0.8
			c-0.5,0.2-0.9,0.6-1.2,1c-0.3,0.4-0.5,0.9-0.5,1.4c0,0.1,0,0.3,0,0.4c0,0.5,0.1,0.9,0.3,1.4c0.2,0.3,0.4,0.6,0.7,0.8
			c0.5,0.3,1.1,0.5,1.7,0.6c0.8,0.1,1.7,0.2,2.5,0.1c0.5,0,1,0,1.5,0.1c0.2,0,0.4,0.1,0.6,0.1c0.6,0.1,1,0.6,0.9,1.2
			c0,0.3-0.1,0.5-0.2,0.7c-0.3,0.4-0.7,0.6-1.1,0.8c-0.7,0.2-1.5,0.3-2.2,0.3c-0.9,0-1.8-0.1-2.6-0.4c-0.2-0.1-0.4-0.2-0.7-0.3
			c-0.1,0-0.1-0.1-0.2-0.1c0,0,0,0,0,0c-0.4-0.3-0.9-0.2-1.2,0.2c-0.3,0.4-0.2,0.9,0.2,1.2c0,0,0,0,0.1,0c0.1,0.1,1.7,1.1,4.4,1.1
			c1.2,0,2.5-0.2,3.6-0.8c0.5-0.2,0.9-0.6,1.2-1c0.3-0.4,0.5-0.9,0.5-1.4c0-0.1,0-0.3,0-0.4c0-0.5-0.1-0.9-0.3-1.4
			c-0.2-0.3-0.4-0.6-0.7-0.8c-0.5-0.3-1.1-0.5-1.7-0.6C15,26.5,14.4,26.5,13.7,26.5"/>
	</g>
</g>
</svg>
