<?xml version="1.0" encoding="utf-8"?>
<!-- Generator: Adobe Illustrator 26.5.0, SVG Export Plug-In . SVG Version: 6.00 Build 0)  -->
<svg version="1.1" id="Layer_1" xmlns="http://www.w3.org/2000/svg" xmlns:xlink="http://www.w3.org/1999/xlink" x="0px" y="0px"
	 viewBox="0 0 100 55" style="enable-background:new 0 0 100 55;" xml:space="preserve">
<style type="text/css">
	.st0{fill:#FFFFFF;}
	.st1{fill:#004F9C;}
</style>
<g id="Layer_1_00000076578729826132409080000006198146111835586983_">
	<g id="Shibaura">
		<path class="st0" d="M11.1,27.4V27c0-9.6,4.7-13.7,4.9-13.9L16,13H83l0.1,0.1c0.2,0.2,4.9,4.3,4.9,13.9v0.4l-0.4,0L11.1,27.4
			L11.1,27.4z"/>
		<path class="st1" d="M85.3,12H13.7c-3,3.1-5,8.7-5,15c0,6.3,2,11.9,5,15h71.7c3-3.1,5-8.7,5-15C90.3,20.7,88.3,15.1,85.3,12
			 M11.4,27C11.4,27,11.4,27,11.4,27c0-9.5,4.6-13.5,4.7-13.6h66.7c0.2,0.1,4.7,4.2,4.7,13.6c0,0,0,0,0,0H11.4z"/>
		<path class="st0" d="M72.5,31.8l-4.1,0c-1,0-1.4,0.8-1.4,1.6v3.2c0,0.8,0.6,1.4,1.4,1.4h0h0h4.9l0.4-1.3h-4.2
			c-0.4,0-0.6-0.2-0.6-0.6l0-0.5h4.3c0.3,0,0.7,0,0.7-0.4v-1.9C73.9,32.6,73.5,31.8,72.5,31.8 M71.8,34.4h-2.9v-0.6
			c0-0.5,0.1-0.6,0.6-0.6h1.9c0.4,0,0.6,0.1,0.6,0.5l0,0.6C72,34.3,72,34.4,71.8,34.4"/>
		<path class="st0" d="M40.4,31.8h-4L36,33.2h3.2c0.5,0,0.7,0.1,0.7,0.6l0,0.5H36c-0.6,0-0.9,0.1-0.9,0.7c0,0,0,1.6,0,1.6
			c0,0.8,0.6,1.4,1.4,1.4h0h0h5.2l0-4.7C41.8,32.6,41.3,31.8,40.4,31.8 M37.2,35.5h2.7v1.2h-2.3c-0.4,0-0.6-0.2-0.6-0.6v-0.4
			C37,35.6,37,35.5,37.2,35.5"/>
		<rect x="56.9" y="31.8" class="st0" width="1.9" height="6.2"/>
		<polygon class="st0" points="56.9,31 58.8,31 58.8,29.4 56.9,29.9 		"/>
		<polygon class="st0" points="29.7,35.6 28,30 25.1,30 25.1,38 27,38 26.9,31.5 28.9,38 30.6,38 32.7,31.5 32.6,38 34.5,38 
			34.5,30 31.6,30 		"/>
		<path class="st0" d="M44.4,36.1v-2.4c0-0.5,0.2-0.6,0.7-0.6h3.7v-1.4h-4.8c-1,0-1.4,0.8-1.4,1.6v3.1c0,0.8,0.4,1.6,1.4,1.6h4.8
			v-1.4h-3.7C44.6,36.7,44.4,36.6,44.4,36.1"/>
		<path class="st0" d="M54.8,31.8h-3.4v-2.3L49.5,30V38h1.9v-4.9h2.3c0.5,0,0.7,0.1,0.7,0.6V38h1.9v-4.7
			C56.2,32.6,55.7,31.8,54.8,31.8"/>
		<path class="st0" d="M65,31.8h-5.5V38h1.9v-4.5c0-0.1,0-0.4,0-0.4h2.5c0.5,0,0.7,0.1,0.7,0.6V38h1.9v-4.7
			C66.4,32.6,66,31.8,65,31.8"/>
		<path class="st1" d="M55.2,18.2h-4l-0.4,1.4h3.2c0.5,0,0.7,0.1,0.7,0.6v0.5h-3.9c-0.6,0-0.9,0.1-0.9,0.7c0,0,0,1.6,0,1.6
			c0,0.8,0.6,1.4,1.4,1.4h0h0h5.2l0-4.7C56.7,19,56.2,18.2,55.2,18.2 M52,21.9h2.7v1.2h-2.3c-0.4,0-0.6-0.2-0.6-0.6v-0.4
			C51.9,22,51.9,21.9,52,21.9"/>
		<path class="st1" d="M73.9,18.2h-4l-0.4,1.4h3.2c0.5,0,0.7,0.1,0.7,0.6l0,0.5h-3.9c-0.6,0-0.9,0.1-0.9,0.7c0,0,0,1.6,0,1.6
			c0,0.8,0.6,1.4,1.4,1.4h0h0h5.2v-4.7C75.3,19,74.9,18.2,73.9,18.2 M70.7,21.9h2.7v1.2h-2.3c-0.4,0-0.6-0.2-0.6-0.6v-0.4
			C70.5,22,70.6,21.9,70.7,21.9"/>
		<path class="st1" d="M48,18.2h-2.5l-0.4,1.4h1.7c0.5,0,0.7,0.1,0.7,0.6v2.4c0,0.4-0.2,0.6-0.7,0.6h-2.3v-7.2l-1.9,0.5v8.1h5.3
			c0.8,0,1.4-0.6,1.4-1.4v-3.2C49.4,19,48.9,18.2,48,18.2"/>
		<path class="st1" d="M30.4,16.4h-5.3c-0.8,0-1.4,0.6-1.4,1.4l0,2.1c0,0.7,0.4,1,1.2,1.1c0.5,0,3.9,0.2,4.6,0.2
			c0.5,0,0.6,0,0.6,0.5v0.7c0,0.6-0.5,0.6-0.9,0.6h-3c-0.2,0-0.5,0-0.5-0.3c0-0.3,0-0.7,0-0.7l-1.8,0.5v0.6c0,0.8,0.6,1.4,1.4,1.4
			h5.4c0.8,0,1.4-0.6,1.4-1.4l0-1.9c0-0.8-0.5-1.2-1.3-1.2c-0.9,0-3.8-0.2-4.5-0.2c-0.4,0-0.4-0.1-0.4-0.4v-0.9
			c0-0.4,0.1-0.5,0.4-0.5h3.4c0.4,0,0.5,0,0.6,0.5c0,0.5,0,0.6,0,0.6l1.9-0.5v-0.5C31.9,17,31.2,16.4,30.4,16.4"/>
		<rect x="40" y="18.2" class="st1" width="1.9" height="6.2"/>
		<polygon class="st1" points="40,17.4 41.9,17.4 41.9,15.9 40,16.4 		"/>
		<path class="st1" d="M64.8,19.8c0-0.8,0.4-1.6,1.4-1.6h2.9l-0.4,1.4h-1.3c-0.5,0-0.7,0.1-0.7,0.6v4.3h-1.9L64.8,19.8L64.8,19.8z"
			/>
		<path class="st1" d="M37.9,18.2h-3.4v-2.3l-1.9,0.5v8.1h1.9v-4.9h2.3c0.5,0,0.7,0.1,0.7,0.6v4.3h1.9v-4.7
			C39.3,19,38.9,18.2,37.9,18.2"/>
		<path class="st1" d="M58.8,24.5h3.9c1,0,1.4-0.8,1.4-1.6v-4.7h-1.9v4.3c0,0.5-0.2,0.6-0.7,0.6h-1.6c-0.5,0-0.7-0.1-0.7-0.6v-4.3
			h-1.9v4.7C57.4,23.7,57.8,24.5,58.8,24.5"/>
	</g>
</g>
</svg>
