<?xml version="1.0" encoding="utf-8"?>
<!-- Generator: Adobe Illustrator 26.5.0, SVG Export Plug-In . SVG Version: 6.00 Build 0)  -->
<svg version="1.1" id="Layer_1" xmlns="http://www.w3.org/2000/svg" xmlns:xlink="http://www.w3.org/1999/xlink" x="0px" y="0px"
	 viewBox="0 0 100 55" style="enable-background:new 0 0 100 55;" xml:space="preserve">
<style type="text/css">
	.st0{clip-path:url(#SVGID_00000052808136102177830700000004385419346919175850_);fill:#00698F;}
	.st1{clip-path:url(#SVGID_00000000193458106334423800000018072284029266537653_);fill:#77BC1F;}
	.st2{clip-path:url(#SVGID_00000021109892814467723380000016752500891815519421_);fill:#231916;}
	.st3{clip-path:url(#SVGID_00000003804819075096185230000002632039092208000189_);fill:#231916;}
	.st4{clip-path:url(#SVGID_00000114778033856995244220000008353124112983935160_);fill:#231916;}
	.st5{clip-path:url(#SVGID_00000029755336856494949690000000633343325250363570_);fill:#231916;}
	.st6{clip-path:url(#SVGID_00000158025511077996336860000016410838358498280071_);fill:#231916;}
</style>
<g id="Layer_1_00000061470995803032488870000002931159898411257995_">
	<g id="TM">
		<g>
			<defs>
				<rect id="SVGID_1_" x="27" y="9" width="45.5" height="36.5"/>
			</defs>
			<clipPath id="SVGID_00000035509390132834567050000009845582441904392342_">
				<use xlink:href="#SVGID_1_"  style="overflow:visible;"/>
			</clipPath>
			<path style="clip-path:url(#SVGID_00000035509390132834567050000009845582441904392342_);fill:#00698F;" d="M62.6,9l-5.3,17.1
				L50.8,9L48,15.8c0,0,5.7,21.5,5.7,21.5h7.8L61.5,37l0.1,0.3l4.7-12.2l0.2,12.2h6V9H62.6z"/>
		</g>
		<g>
			<defs>
				<rect id="SVGID_00000002357499682426699590000016862061837993357498_" x="27" y="9" width="45.5" height="36.5"/>
			</defs>
			<clipPath id="SVGID_00000172399231599539281860000001711869368497019827_">
				<use xlink:href="#SVGID_00000002357499682426699590000016862061837993357498_"  style="overflow:visible;"/>
			</clipPath>
			<polygon style="clip-path:url(#SVGID_00000172399231599539281860000001711869368497019827_);fill:#77BC1F;" points="50.8,9 27,9 
				29.3,15.8 39.8,15.8 37.9,37.3 44.8,37.3 48,15.8 			"/>
		</g>
		<g>
			<defs>
				<rect id="SVGID_00000049222939167857459130000017438363017372511140_" x="27" y="9" width="45.5" height="36.5"/>
			</defs>
			<clipPath id="SVGID_00000003813682251896644280000008342323324331576767_">
				<use xlink:href="#SVGID_00000049222939167857459130000017438363017372511140_"  style="overflow:visible;"/>
			</clipPath>
			<path style="clip-path:url(#SVGID_00000003813682251896644280000008342323324331576767_);fill:#231916;" d="M64.8,42.2
				c-0.1-0.3-0.3-0.5-0.5-0.8c-0.2-0.2-0.5-0.4-0.8-0.5c-0.3-0.1-0.6-0.2-1-0.2h0c-0.4,0-0.7,0.1-1,0.2c-0.3,0.1-0.6,0.3-0.8,0.5
				c-0.2,0.2-0.4,0.5-0.5,0.8c-0.1,0.3-0.2,0.6-0.2,1c0,0.3,0.1,0.7,0.2,1c0.1,0.3,0.3,0.5,0.5,0.8c0.2,0.2,0.5,0.4,0.8,0.5
				c0.3,0.1,0.6,0.2,1,0.2c0.4,0,0.7-0.1,1-0.2c0.3-0.1,0.6-0.3,0.8-0.5c0.2-0.2,0.4-0.5,0.5-0.8c0.1-0.3,0.2-0.6,0.2-1
				C65,42.8,64.9,42.4,64.8,42.2 M64.1,43.9c-0.1,0.2-0.2,0.4-0.4,0.6c-0.2,0.2-0.3,0.3-0.5,0.4C63,45,62.8,45,62.5,45h0
				c-0.2,0-0.5,0-0.7-0.1c-0.2-0.1-0.4-0.2-0.5-0.4c-0.2-0.2-0.3-0.4-0.4-0.6c-0.1-0.2-0.1-0.5-0.1-0.8c0-0.3,0-0.6,0.1-0.8
				c0.1-0.2,0.2-0.4,0.4-0.6c0.2-0.2,0.3-0.3,0.6-0.4c0.2-0.1,0.4-0.1,0.7-0.1c0.2,0,0.5,0,0.7,0.1c0.2,0.1,0.4,0.2,0.6,0.4
				c0.2,0.2,0.3,0.4,0.4,0.6c0.1,0.2,0.1,0.5,0.1,0.8C64.3,43.4,64.2,43.7,64.1,43.9"/>
		</g>
		<g>
			<defs>
				<rect id="SVGID_00000142138025930978663240000007895970108159488396_" x="27" y="9" width="45.5" height="36.5"/>
			</defs>
			<clipPath id="SVGID_00000061453715279136046260000002768464055550612913_">
				<use xlink:href="#SVGID_00000142138025930978663240000007895970108159488396_"  style="overflow:visible;"/>
			</clipPath>
			<polygon style="clip-path:url(#SVGID_00000061453715279136046260000002768464055550612913_);fill:#231916;" points="72.5,40.7 
				70.4,40.7 69.7,40.7 67.7,40.7 67.7,41.2 69.7,41.2 69.7,45.5 70.4,45.5 70.4,41.2 72.5,41.2 			"/>
		</g>
		<g>
			<defs>
				<rect id="SVGID_00000039122963870221832760000016871590818861439126_" x="27" y="9" width="45.5" height="36.5"/>
			</defs>
			<clipPath id="SVGID_00000026880110461274992830000014593642276142811033_">
				<use xlink:href="#SVGID_00000039122963870221832760000016871590818861439126_"  style="overflow:visible;"/>
			</clipPath>
			<path style="clip-path:url(#SVGID_00000026880110461274992830000014593642276142811033_);fill:#231916;" d="M49.7,42.2
				c-0.1-0.3-0.3-0.5-0.5-0.8c-0.2-0.2-0.5-0.4-0.8-0.5c-0.3-0.1-0.6-0.2-1-0.2h0c-0.4,0-0.7,0.1-1,0.2c-0.3,0.1-0.6,0.3-0.8,0.5
				c-0.2,0.2-0.4,0.5-0.5,0.8c-0.1,0.3-0.2,0.6-0.2,1c0,0.3,0.1,0.7,0.2,1c0.1,0.3,0.3,0.5,0.5,0.8c0.2,0.2,0.5,0.4,0.8,0.5
				c0.3,0.1,0.6,0.2,1,0.2c0.4,0,0.7-0.1,1-0.2c0.3-0.1,0.6-0.3,0.8-0.5c0.2-0.2,0.4-0.5,0.5-0.8c0.1-0.3,0.2-0.6,0.2-1
				C49.8,42.8,49.8,42.4,49.7,42.2 M49,43.9c-0.1,0.2-0.2,0.4-0.4,0.6c-0.2,0.2-0.3,0.3-0.5,0.4C47.9,45,47.7,45,47.4,45h0
				c-0.2,0-0.5,0-0.7-0.1c-0.2-0.1-0.4-0.2-0.5-0.4c-0.2-0.2-0.3-0.4-0.4-0.6c-0.1-0.2-0.1-0.5-0.1-0.8c0-0.3,0-0.6,0.1-0.8
				c0.1-0.2,0.2-0.4,0.4-0.6c0.2-0.2,0.3-0.3,0.6-0.4c0.2-0.1,0.4-0.1,0.7-0.1c0.2,0,0.5,0,0.7,0.1c0.2,0.1,0.4,0.2,0.6,0.4
				c0.2,0.2,0.3,0.4,0.4,0.6c0.1,0.2,0.1,0.5,0.1,0.8C49.1,43.4,49.1,43.7,49,43.9"/>
		</g>
		<g>
			<defs>
				<rect id="SVGID_00000098906435505000409230000015765197685838471851_" x="27" y="9" width="45.5" height="36.5"/>
			</defs>
			<clipPath id="SVGID_00000048499311640920240440000000167437075120582039_">
				<use xlink:href="#SVGID_00000098906435505000409230000015765197685838471851_"  style="overflow:visible;"/>
			</clipPath>
			<path style="clip-path:url(#SVGID_00000048499311640920240440000000167437075120582039_);fill:#231916;" d="M56.7,44.2
				c0-0.5-0.3-1-0.8-1.2c0.3-0.2,0.5-0.6,0.5-1c0-0.7-0.6-1.3-1.4-1.3v0h-1.1h-0.7v2.1v0.5v2.1h0.7h1.4v0
				C56.1,45.5,56.7,44.9,56.7,44.2 M53.9,41.2L53.9,41.2h1l0,0h0c0.5,0,0.8,0.4,0.8,0.8c0,0.5-0.4,0.8-0.8,0.8h0h-1h0v0L53.9,41.2
				L53.9,41.2L53.9,41.2z M55.2,45L55.2,45h-1h-0.3v-1.7h0.3H55c0,0,0,0,0,0c0,0,0,0,0,0h0.2h0c0.5,0,0.8,0.4,0.8,0.8
				C56,44.6,55.7,45,55.2,45"/>
		</g>
		<g>
			<defs>
				<rect id="SVGID_00000011745512403769756150000014148271272709092790_" x="27" y="9" width="45.5" height="36.5"/>
			</defs>
			<clipPath id="SVGID_00000143598543045870977290000007707328170857418927_">
				<use xlink:href="#SVGID_00000011745512403769756150000014148271272709092790_"  style="overflow:visible;"/>
			</clipPath>
			<path style="clip-path:url(#SVGID_00000143598543045870977290000007707328170857418927_);fill:#231916;" d="M41.8,45.5L40,43.4h0
				v0c0.8,0,1.4-0.6,1.4-1.3c0-0.7-0.6-1.3-1.4-1.3v0h-1.4h-0.7v0.5v4.3h0.7v-2.1h0.6l1.8,2.1L41.8,45.5L41.8,45.5z M38.6,42.9v-1.7
				h0.3h1h0c0.5,0,0.8,0.4,0.8,0.8s-0.4,0.8-0.8,0.8h0h-1H38.6z"/>
		</g>
	</g>
</g>
</svg>
