<?xml version="1.0" encoding="utf-8"?>
<!-- Generator: Adobe Illustrator 26.5.0, SVG Export Plug-In . SVG Version: 6.00 Build 0)  -->
<svg version="1.1" id="Layer_1" xmlns="http://www.w3.org/2000/svg" xmlns:xlink="http://www.w3.org/1999/xlink" x="0px" y="0px"
	 viewBox="0 0 100 55" style="enable-background:new 0 0 100 55;" xml:space="preserve">
<style type="text/css">
	.st0{fill:#FF0000;}
	.st1{fill-rule:evenodd;clip-rule:evenodd;fill:#FF0000;}
	.st2{fill:#999999;}
	.st3{fill:#666666;}
</style>
<g id="Layer_1_00000116220019748487237390000003100382929224355994_">
	<g id="toshiba">
		<path class="st0" d="M71.2,21.3l1-3.6h0l1,3.6H71.2z M74.5,25.6h3l-3.1-10.4h-4.3l-3.1,10.4h3l0.6-1.9h3.4L74.5,25.6z"/>
		<path class="st0" d="M20.2,20.4c0-0.6,0-0.9,0-1.2c0.1-1.6,0.7-1.8,1.9-1.8c1.2,0,1.9,0.2,1.9,1.8c0,0.3,0,0.6,0,1.2
			c0,0.6,0,0.9,0,1.2c-0.1,1.6-0.7,1.8-1.9,1.8c-1.2,0-1.9-0.2-1.9-1.8C20.3,21.3,20.2,20.9,20.2,20.4 M22.2,25.7
			c3.1,0,4.6-0.5,4.9-3.4c0.1-0.7,0.1-1.4,0.1-2c0-0.6,0-1.3-0.1-2c-0.2-2.8-1.7-3.4-4.9-3.4c-3.1,0-4.6,0.6-4.9,3.4
			c-0.1,0.7-0.1,1.4-0.1,2c0,0.6,0,1.3,0.1,2C17.6,25.2,19.1,25.7,22.2,25.7"/>
		<polygon class="st1" points="7,15.2 7,17.8 10.1,17.8 10.1,25.6 13.2,25.6 13.2,17.8 16.3,17.8 16.3,15.2 		"/>
		<rect x="51.7" y="15.2" class="st1" width="2.9" height="10.4"/>
		<polygon class="st1" points="42.8,19 42.8,15.2 39.8,15.2 39.8,25.6 42.8,25.6 42.8,21.6 46.2,21.6 46.2,25.6 49.1,25.6 
			49.1,15.2 46.2,15.2 46.2,19 		"/>
		<path class="st0" d="M60.1,17.6h2c0.5,0,0.9,0.3,0.9,0.9c0,0.5-0.3,0.8-0.9,0.8h-2V17.6z M60.1,21.3h2c0.8,0,1,0.4,1,0.9
			c0,0.6-0.3,0.9-1,0.9h-2V21.3z M64.3,20.1c1.3-0.3,1.7-1.1,1.7-2.2c0-2.3-1.4-2.7-3.5-2.7h-5.3v10.4h5.5c2.6,0,3.4-1.1,3.4-2.8
			C66.2,21.6,65.9,20.5,64.3,20.1"/>
		<path class="st0" d="M28.8,22.2h2.8c0,0.5,0.1,0.8,0.3,1c0.3,0.2,0.5,0.3,1.4,0.3c0.8,0,1.7,0,1.7-1c0-0.8-0.5-0.9-1.4-1
			c-2.2-0.1-3-0.2-3.9-0.8c-0.6-0.4-0.9-1.2-0.9-2.3c0-1.9,0.7-2.5,1.6-3c1-0.5,4.8-0.5,5.8,0c1.3,0.6,1.3,1.9,1.3,3.1h-2.8
			c0-0.6-0.1-0.8-0.3-0.9c-0.3-0.3-0.7-0.3-1.3-0.3c-0.7,0-1.6,0-1.6,0.9c0,0.7,0.3,0.9,1,1c1,0.1,3.1,0.1,3.8,0.6
			c1,0.6,1.3,1.4,1.3,2.8c0,1.9-0.7,2.5-1.6,2.9c-1.1,0.5-4.8,0.5-6,0C28.9,24.8,28.8,23.6,28.8,22.2"/>
		<polygon class="st2" points="80.1,30.7 82.1,30.7 85,33.5 82.1,36.3 80.1,36.3 83.1,33.5 		"/>
		<polygon class="st3" points="84.1,30.7 86.1,30.7 89,33.5 86.1,36.3 84.1,36.3 87.1,33.5 		"/>
		<polygon points="88.1,30.7 90.1,30.7 93,33.5 90.1,36.3 88.1,36.3 91.1,33.5 		"/>
		<polygon points="7.3,30.8 8.5,30.8 8.5,35.2 10.7,35.2 10.7,36.3 7.3,36.3 		"/>
		<path d="M13.9,33.8c0-0.3-0.1-0.8-0.7-0.8c-0.5,0-0.7,0.5-0.8,0.8H13.9z M12.4,34.7c0,0.5,0.5,0.8,1.1,0.8c0.4,0,0.8-0.1,1.1-0.2
			l0.2,0.8c-0.4,0.2-0.9,0.3-1.5,0.3c-1.4,0-2.1-0.8-2.1-2c0-1,0.6-2.1,2-2.1c1.3,0,1.8,1,1.8,2c0,0.2,0,0.4,0,0.5L12.4,34.7z"/>
		<path d="M17.9,34.4c-0.7,0-1.2,0.2-1.2,0.6c0,0.3,0.2,0.5,0.5,0.5c0.3,0,0.6-0.2,0.6-0.5c0-0.1,0-0.1,0-0.2
			C17.9,34.8,17.9,34.4,17.9,34.4z M19.1,35.3c0,0.4,0,0.7,0.1,1H18L18,35.9h0c-0.3,0.3-0.7,0.5-1.1,0.5c-0.8,0-1.3-0.6-1.3-1.2
			c0-1,0.9-1.5,2.4-1.5v0c0-0.2-0.1-0.5-0.7-0.5c-0.4,0-0.8,0.1-1.1,0.3l-0.2-0.8c0.3-0.2,0.8-0.4,1.6-0.4c1.3,0,1.8,0.8,1.8,1.7
			L19.1,35.3L19.1,35.3z"/>
		<path d="M22.7,34c0-0.1,0-0.2,0-0.2c-0.1-0.3-0.3-0.6-0.7-0.6c-0.6,0-0.9,0.5-0.9,1.1c0,0.7,0.3,1.1,0.9,1.1
			c0.4,0,0.7-0.2,0.7-0.6c0-0.1,0-0.2,0-0.3V34z M24,30.5v4.6c0,0.5,0,0.9,0,1.2h-1.1l0-0.6h0c-0.2,0.4-0.7,0.7-1.3,0.7
			c-1,0-1.7-0.8-1.7-2.1c0-1.3,0.8-2.1,1.8-2.1c0.5,0,0.9,0.2,1.1,0.5h0v-2.2H24z"/>
		<path d="M25,32.3h1.2v4H25V32.3z M25.6,31.8c-0.4,0-0.7-0.3-0.7-0.7c0-0.4,0.3-0.7,0.7-0.7c0.4,0,0.7,0.3,0.7,0.7
			C26.3,31.5,26,31.8,25.6,31.8L25.6,31.8z"/>
		<path d="M27.2,33.6c0-0.5,0-0.9,0-1.3h1.1l0.1,0.6h0c0.2-0.3,0.6-0.6,1.2-0.6c0.8,0,1.4,0.5,1.4,1.7v2.4h-1.2v-2.2
			c0-0.5-0.2-0.9-0.6-0.9c-0.3,0-0.5,0.2-0.6,0.5c0,0.1,0,0.2,0,0.3v2.3h-1.2L27.2,33.6L27.2,33.6z"/>
		<path d="M34.6,33.9c0-0.1,0-0.2,0-0.2c-0.1-0.3-0.3-0.6-0.7-0.6c-0.5,0-0.8,0.4-0.8,1.1c0,0.6,0.3,1.1,0.8,1.1
			c0.3,0,0.6-0.2,0.7-0.5c0-0.1,0-0.2,0-0.3L34.6,33.9L34.6,33.9z M35.8,35.7c0,0.8-0.2,1.4-0.6,1.8c-0.4,0.4-1,0.5-1.6,0.5
			c-0.5,0-1.1-0.1-1.4-0.3l0.2-1c0.3,0.1,0.7,0.3,1.2,0.3c0.6,0,1-0.3,1-1.1v-0.3h0c-0.2,0.3-0.6,0.5-1.1,0.5c-1,0-1.7-0.8-1.7-2
			c0-1.3,0.8-2.1,1.8-2.1c0.5,0,0.9,0.2,1.1,0.6h0l0-0.5h1.1c0,0.3,0,0.6,0,1.2L35.8,35.7L35.8,35.7z"/>
		<rect x="38.6" y="30.8" width="1.2" height="5.5"/>
		<path d="M40.9,33.6c0-0.5,0-0.9,0-1.3h1.1l0.1,0.6h0c0.2-0.3,0.6-0.6,1.2-0.6c0.8,0,1.4,0.5,1.4,1.7v2.4h-1.2v-2.2
			c0-0.5-0.2-0.9-0.6-0.9c-0.3,0-0.5,0.2-0.6,0.5c0,0.1,0,0.2,0,0.3v2.3h-1.2V33.6z"/>
		<path d="M45.7,33.6c0-0.5,0-0.9,0-1.3h1.1l0.1,0.6h0c0.2-0.3,0.6-0.6,1.2-0.6c0.8,0,1.4,0.5,1.4,1.7v2.4h-1.2v-2.2
			c0-0.5-0.2-0.9-0.6-0.9c-0.3,0-0.5,0.2-0.6,0.5c0,0.1,0,0.2,0,0.3v2.3h-1.2L45.7,33.6L45.7,33.6z"/>
		<path d="M52.3,35.5c0.5,0,0.8-0.5,0.8-1.2c0-0.6-0.2-1.2-0.8-1.2c-0.6,0-0.8,0.6-0.8,1.2C51.5,35,51.8,35.5,52.3,35.5L52.3,35.5z
			 M52.3,36.4c-1.2,0-2.1-0.8-2.1-2.1c0-1.3,0.9-2.1,2.1-2.1c1.2,0,2,0.8,2,2.1C54.4,35.7,53.4,36.4,52.3,36.4L52.3,36.4z"/>
		<path d="M56.1,32.3l0.5,1.9c0.1,0.3,0.2,0.7,0.2,1h0c0.1-0.3,0.1-0.6,0.2-1l0.5-1.9H59l-1.5,4h-1.2l-1.5-4H56.1z"/>
		<path d="M61.7,34.4c-0.7,0-1.2,0.2-1.2,0.6c0,0.3,0.2,0.5,0.5,0.5c0.3,0,0.6-0.2,0.6-0.5c0-0.1,0-0.1,0-0.2V34.4z M62.9,35.3
			c0,0.4,0,0.7,0.1,1h-1.1l-0.1-0.4h0c-0.3,0.3-0.7,0.5-1.1,0.5c-0.8,0-1.3-0.6-1.3-1.2c0-1,0.9-1.5,2.4-1.5v0
			c0-0.2-0.1-0.5-0.7-0.5c-0.4,0-0.8,0.1-1.1,0.3l-0.2-0.8c0.3-0.2,0.8-0.4,1.6-0.4c1.3,0,1.8,0.8,1.8,1.7V35.3z"/>
		<path d="M65.3,31.2v1.1h0.9v0.9h-0.9v1.5c0,0.5,0.1,0.7,0.5,0.7c0.2,0,0.3,0,0.4,0l0,0.9c-0.2,0.1-0.5,0.1-0.8,0.1
			c-0.4,0-0.7-0.1-0.9-0.3c-0.2-0.2-0.3-0.6-0.3-1.2v-1.6h-0.5v-0.9H64v-0.8L65.3,31.2z"/>
		<path d="M66.9,32.3h1.2v4h-1.2V32.3z M67.5,31.8c-0.4,0-0.7-0.3-0.7-0.7c0-0.4,0.3-0.7,0.7-0.7c0.4,0,0.7,0.3,0.7,0.7
			C68.2,31.5,67.9,31.8,67.5,31.8L67.5,31.8z"/>
		<path d="M71,35.5c0.5,0,0.8-0.5,0.8-1.2c0-0.6-0.2-1.2-0.8-1.2c-0.6,0-0.8,0.6-0.8,1.2C70.2,35,70.5,35.5,71,35.5L71,35.5z
			 M71,36.4c-1.2,0-2.1-0.8-2.1-2.1c0-1.3,0.9-2.1,2.1-2.1c1.2,0,2,0.8,2,2.1C73.1,35.7,72,36.4,71,36.4L71,36.4z"/>
		<path d="M73.7,33.6c0-0.5,0-0.9,0-1.3h1.1l0.1,0.6h0c0.2-0.3,0.6-0.6,1.2-0.6c0.8,0,1.4,0.5,1.4,1.7v2.4h-1.2v-2.2
			c0-0.5-0.2-0.9-0.6-0.9c-0.3,0-0.5,0.2-0.6,0.5c0,0.1,0,0.2,0,0.3v2.3h-1.2L73.7,33.6L73.7,33.6z"/>
	</g>
</g>
</svg>
