<?xml version="1.0" encoding="utf-8"?>
<!-- Generator: Adobe Illustrator 26.5.0, SVG Export Plug-In . SVG Version: 6.00 Build 0)  -->
<svg version="1.1" id="Layer_1" xmlns="http://www.w3.org/2000/svg" xmlns:xlink="http://www.w3.org/1999/xlink" x="0px" y="0px"
	 viewBox="0 0 100 55" style="enable-background:new 0 0 100 55;" xml:space="preserve">
<style type="text/css">
	.st0{fill:#005095;}
	.st1{fill:#0095DB;}
</style>
<g id="Layer_1_00000145760199127706274640000011483326835510614144_">
	<g>
		<path class="st0" d="M88.7,28.9c0.7,0,1.3-0.6,1.3-1.3c0-0.7-0.6-1.3-1.3-1.3c-0.7,0-1.4,0.6-1.4,1.3C87.3,28.3,88,28.9,88.7,28.9
			L88.7,28.9z M87.6,27.6c0-0.6,0.5-1.1,1-1.1c0.6,0,1.1,0.5,1.1,1.1c0,0.6-0.5,1-1.1,1.1C88.1,28.7,87.6,28.2,87.6,27.6L87.6,27.6z
			 M88.4,27.7h0.2l0.4,0.7h0.2l-0.4-0.7c0.2,0,0.4-0.1,0.4-0.4c0-0.3-0.2-0.4-0.6-0.4h-0.6v1.5h0.2L88.4,27.7L88.4,27.7z M88.4,27.5
			V27h0.3c0.2,0,0.3,0.1,0.3,0.2c0,0.2-0.2,0.2-0.4,0.2L88.4,27.5L88.4,27.5z"/>
		<polygon class="st0" points="19.2,24.9 24.3,24.9 25.1,22.8 9.9,22.8 8.9,24.9 14.1,24.9 10.5,32 15.5,32 		"/>
		<polygon class="st0" points="89.9,22.8 84.9,22.8 81.4,25.1 79.4,22.8 73.9,22.8 77.6,27.5 70.7,32 76.1,32 79.4,29.8 81.1,32 
			86.7,32 83.1,27.4 		"/>
		<polygon class="st1" points="9,13.2 90,13.2 90,18.4 9,18.4 		"/>
		<polygon class="st1" points="9,35.9 90,35.9 90,41 9,41 		"/>
		<path class="st0" d="M46.9,32.2c4.6-0.1,8,0.6,9.5-3.5l1.2-2.7c1.2-2.9-1.1-3.3-7.3-3.3c-4.7,0-6.5-0.4-8.6,3.5l-1.2,2.5
			C39,32.5,42.2,32.2,46.9,32.2L46.9,32.2z M47.6,30.2c-2.3,0-2.6-0.2-2.1-1.7l1.2-2.2c0.6-1.4,1.4-1.6,3.7-1.6c2.3,0,2.5,0.4,2,1.9
			l-0.8,2C51,29.9,49.9,30.2,47.6,30.2L47.6,30.2z"/>
		<path class="st0" d="M29.5,26.9l1-2H34c1.5-0.1,1.9,0.2,1.6,1c-0.3,0.8-0.8,1-2.5,1L29.5,26.9L29.5,26.9z M21.7,32h4.9l1.5-3.1h4
			c2-0.1,1.8,0.4,1.3,1.3L32.6,32H38l0.7-1.9c0.1-0.3,0.2-0.6,0.2-0.8c-0.2-0.5-0.4-0.4-0.7-0.8c-0.2-0.1-0.1-0.4,0.2-0.5
			c1.8-0.5,2.1-1.4,2.5-2.7c0.6-2.2-1.6-2.5-5.6-2.5h-9.4L21.7,32L21.7,32z"/>
		<path class="st0" d="M67.5,30.4l0.2,1.6h5l-1.9-9.2h-6.2L55.1,32h4.3l1.5-1.6L67.5,30.4L67.5,30.4z M67.2,28.2h-4l3.5-3.5
			L67.2,28.2L67.2,28.2z"/>
	</g>
</g>
</svg>
