<?xml version="1.0" encoding="utf-8"?>
<!-- Generator: Adobe Illustrator 26.5.0, SVG Export Plug-In . SVG Version: 6.00 Build 0)  -->
<svg version="1.1" id="Layer_1" xmlns="http://www.w3.org/2000/svg" xmlns:xlink="http://www.w3.org/1999/xlink" x="0px" y="0px"
	 viewBox="0 0 100 55" style="enable-background:new 0 0 100 55;" xml:space="preserve">
<style type="text/css">
	.st0{fill:#204479;}
	.st1{fill:#929497;}
</style>
<g id="Layer_1_00000116228656050373687120000012753110659386430133_">
	<g id="Weintek">
		<path class="st0" d="M7.5,18l14.6,0c0,0,0.7,0,0.7,0.7c0.1,0.7,0.1,7.6,0.1,7.6l-1.4,0.6l0-7c0,0-0.1-0.5-0.4-0.5
			c-0.3,0-12.5,0-12.5,0s-0.4,0.1-0.4,0.6c0,0.5,0,11.8,0,11.8s0,0.5,0.5,0.5c0.5,0.1,7,0,7,0l0.6,1.3l-8.7,0c0,0-0.7,0-0.7-0.7
			c0-0.7,0-14.1,0-14.1S6.8,18,7.5,18"/>
		<polygon class="st1" points="13.7,24.7 15.6,23.8 17.4,27.9 19.8,27 20.4,28.4 22.9,27.3 23.4,28.5 25.6,27.5 27.5,31.9 
			18.7,35.6 		"/>
		<polygon class="st0" points="30,25.1 32.2,25.1 34.2,31.2 36.1,25.1 38.3,25.1 40.2,31 41.9,25.1 44.2,25.1 41.7,33.4 38.9,33.4 
			37.2,28.2 35.5,33.4 32.7,33.4 		"/>
		<path class="st0" d="M52.4,25.1h-6.6c0,0-1.1,0.4-1.1,1.1c0,0.7,0.1,6.2,0.1,6.2s0.4,0.9,1,0.9h6.6v-0.6l-5.2,0l0-3.4l4.5-0.1
			l0-0.4l-4.5,0l0.1-3.2l5.2,0L52.4,25.1L52.4,25.1z"/>
		<polygon class="st1" points="53.7,31.6 54.2,31.5 54.6,32.5 55.2,32.3 55.3,32.7 55.9,32.4 56,32.8 56.6,32.6 57,33.7 54.7,34.5 
					"/>
		<rect x="54.1" y="25.1" class="st1" width="2.2" height="5.6"/>
		<polygon class="st0" points="58.7,33.4 58.7,25.1 61.2,25.1 65.8,31.4 65.8,25.1 68,25.1 68.1,33.4 65.5,33.3 60.9,27.1 
			60.9,33.4 		"/>
		<polygon class="st0" points="69,25.1 76.8,25.1 76.8,26.6 74,26.6 74,33.4 71.8,33.3 71.8,26.6 69,26.6 		"/>
		<polygon class="st0" points="77.9,25.1 84.8,25.1 84.8,26.6 79.9,26.6 80,28.3 84.5,28.3 84.5,29.7 79.9,29.7 79.9,31.7 
			84.9,31.7 84.9,33.3 77.9,33.3 		"/>
		<polygon class="st0" points="86.3,25.1 88.4,25.1 88.4,28.6 91.5,25.1 93.8,25.1 91.3,27.9 95,33.4 92.9,33.3 90.1,29.3 
			88.4,31.1 88.4,33.3 86.3,33.3 		"/>
	</g>
</g>
</svg>
