<?xml version="1.0" encoding="utf-8"?>
<!-- Generator: Adobe Illustrator 26.5.0, SVG Export Plug-In . SVG Version: 6.00 Build 0)  -->
<svg version="1.1" id="Layer_1" xmlns="http://www.w3.org/2000/svg" xmlns:xlink="http://www.w3.org/1999/xlink" x="0px" y="0px"
	 viewBox="0 0 100 55" style="enable-background:new 0 0 100 55;" xml:space="preserve">
<style type="text/css">
	.st0{fill:#EC1C24;}
	.st1{fill:url(#SVGID_1_);}
	.st2{fill:#56262B;}
	.st3{fill:url(#SVGID_00000060018015785357280970000010671846965718081965_);}
	.st4{fill:#230000;}
	.st5{fill:url(#SVGID_00000025432024736721637290000013969905390137665714_);}
	.st6{fill:url(#SVGID_00000165931149765699744830000017895691081069378196_);}
	.st7{fill:url(#SVGID_00000174601413127968749030000002728206230288976515_);}
	.st8{fill:#EBEBEB;}
	.st9{fill:url(#SVGID_00000016788481290767963010000015106167348159092122_);}
	.st10{fill:#1A1A1A;}
	.st11{fill:#FFFFFF;}
	.st12{fill:url(#SVGID_00000118383948901978189610000007908238755913324979_);}
	.st13{fill:#808080;}
	.st14{fill:#F2F2F2;}
	.st15{fill:url(#SVGID_00000180335226946828298150000007299228683139228847_);}
	.st16{fill:url(#SVGID_00000139287715652828213230000003575308829387896509_);}
	.st17{fill:#4D4D4D;}
	.st18{fill:#B3B3B3;}
	.st19{fill:url(#SVGID_00000130614361762988198520000014015848231881581750_);}
	.st20{fill:url(#SVGID_00000088126474390223549810000003055617466899589530_);}
	.st21{fill:url(#SVGID_00000060735194805425511060000002011068329605192852_);}
	.st22{fill:#666666;}
	.st23{fill:url(#SVGID_00000007406210850814645950000009893220017919035556_);}
	.st24{fill:url(#SVGID_00000033338724949892384030000015003576750646721720_);}
	.st25{fill:url(#SVGID_00000094612191234331333030000014414269563759968902_);}
	.st26{fill:#CCCCCC;}
	.st27{fill:url(#SVGID_00000083077158364158007490000008719225248112521890_);}
	.st28{fill:url(#SVGID_00000096018782380730861540000010007337963722796447_);}
	.st29{fill:url(#SVGID_00000117649745033663878640000012961223794199402165_);}
	.st30{fill:url(#SVGID_00000137835194750479737350000016293619448356673441_);}
	.st31{fill:url(#SVGID_00000041282448801794612260000010950309741846688154_);}
	.st32{fill:url(#SVGID_00000014595083771431754350000002030938860320166798_);}
	.st33{fill:url(#SVGID_00000153701257873990997730000013637607755067881395_);}
	.st34{fill:url(#SVGID_00000130622464592751843090000004592289728783055254_);}
	.st35{fill:url(#SVGID_00000005983187772086621120000004037386916503258265_);}
	.st36{fill:url(#SVGID_00000067923112940284792770000000232741850103886737_);}
	.st37{fill:url(#SVGID_00000076573667971007721360000005153504542598981305_);}
	.st38{fill:url(#SVGID_00000008150450101486521610000007181474843122161314_);}
	.st39{fill:url(#SVGID_00000120522792610646726810000014340782043034430392_);}
	.st40{fill:#231F20;}
</style>
<g id="Layer_1_00000045601792289426235830000002536973174041838732_">
	<g id="Yamaha">
		<g>
			<g>
				<g>
					<polygon class="st0" points="71.4,14.3 71.4,29.1 74.5,29.1 74.5,22.9 77.1,22.9 77.1,29.1 80.1,29.1 80.1,14.3 77.1,14.3 
						77.1,20.2 74.5,20.2 74.5,14.3 					"/>
					<polygon class="st0" points="48.2,14.3 48.2,29.1 50.9,29.1 50.9,19.7 52.6,29.1 54.4,29.1 56,19.7 56,29.1 58.8,29.1 
						58.8,14.3 54.7,14.3 53.5,21.4 52.3,14.3 					"/>
					<polygon class="st0" points="30.9,14.3 32.7,20.9 34.5,14.3 37.5,14.3 34.3,24.2 34.3,29.1 31.1,29.1 31.1,24.2 27.9,14.3 
											"/>
					<path class="st0" d="M43.9,14.3h-4L37.3,29h3l0.5-3.5H43l0.5,3.5h3L43.9,14.3z M41.9,17.7l0.7,5.2h-1.5L41.9,17.7z"/>
					<path class="st0" d="M67.1,14.3h-4l-2.6,14.7h3l0.5-3.5h2.2l0.5,3.5h3L67.1,14.3z M65.1,17.7l0.7,5.2h-1.5L65.1,17.7z"/>
					<path class="st0" d="M88.4,14.3h-4L81.8,29h3l0.5-3.5h2.2L88,29h3L88.4,14.3z M86.4,17.7l0.7,5.2h-1.5L86.4,17.7z"/>
				</g>
			</g>
			<g>
				
					<radialGradient id="SVGID_1_" cx="-951.726" cy="2925.074" r="395.8021" fx="-967.6826" fy="2947.8689" gradientTransform="matrix(2.530000e-02 0 0 2.530000e-02 38.9428 -57.035)" gradientUnits="userSpaceOnUse">
					<stop  offset="0" style="stop-color:#F38284"/>
					<stop  offset="0.1393" style="stop-color:#F37D7F"/>
					<stop  offset="0.3016" style="stop-color:#F27071"/>
					<stop  offset="0.4752" style="stop-color:#F05A5A"/>
					<stop  offset="0.6558" style="stop-color:#EE3B39"/>
					<stop  offset="0.7191" style="stop-color:#ED2E2C"/>
					<stop  offset="1" style="stop-color:#EC1C24"/>
				</radialGradient>
				<path class="st1" d="M9,21.7c0-4.8,3.9-8.7,8.7-8.7s8.7,3.9,8.7,8.7s-3.9,8.7-8.7,8.7S9,26.5,9,21.7z"/>
				<g>
					<path class="st2" d="M17.7,13.7c-4.6,0-8.4,3.7-8.4,8.4s3.7,8.4,8.4,8.4c4.6,0,8.4-3.7,8.4-8.4C26.1,17.4,22.3,13.7,17.7,13.7z
						 M24.6,26.2l-1.2-0.2c-1.2,1.8-3.4,3-5.8,3c-2.4,0-4.5-1.2-5.8-3l-1.2,0.2c-0.1,0-0.1,0-0.2-0.1c0-0.1,0-0.1,0-0.2l0.8-0.9
						c-0.4-0.9-0.7-1.9-0.7-3c0-3.7,2.8-6.7,6.5-6.9l0.4-1.2c0-0.1,0.1-0.1,0.2-0.1s0.1,0,0.2,0.1l0.4,1.2c3.6,0.3,6.4,3.3,6.4,6.9
						c0,1.1-0.2,2.1-0.7,3l0.8,0.9c0,0.1,0,0.1,0,0.2C24.8,26.2,24.7,26.2,24.6,26.2z"/>
					<path class="st2" d="M24.6,26l-1.7-1.9c-0.2,0.1-0.5,0.1-0.8,0c-0.2-0.2-0.4-0.4-0.4-0.7l0,0c0-0.4-0.3-0.8-0.7-1L20.3,22
						l3.2-1.8l-0.3-0.6l-3.5,2L19,21.3v-0.7l3.5-2l-0.3-0.6L19,19.7v-0.8c0-0.4-0.2-0.8-0.5-1.1l0,0c-0.2-0.2-0.3-0.4-0.3-0.7
						c0-0.3,0.1-0.5,0.3-0.7L17.7,14c0,0,0,0,0,0c0,0,0,0,0,0l-0.7,2.5c0.2,0.2,0.3,0.4,0.3,0.7c0,0.3-0.2,0.5-0.3,0.7l0,0
						c-0.3,0.2-0.5,0.6-0.5,1.1v0.8l-3.2-1.8l-0.3,0.6l3.5,2v0.7l-0.6,0.3l-3.5-2l-0.3,0.6l3.2,1.8l-0.7,0.4c-0.4,0.2-0.6,0.6-0.7,1
						l0,0c0,0.2-0.2,0.5-0.4,0.7c-0.2,0.2-0.5,0.2-0.8,0l-1.7,1.9c0,0,0,0,0,0.1s0,0,0.1,0l2.5-0.6c0-0.2,0.2-0.5,0.4-0.7
						c0.2-0.2,0.5-0.2,0.8,0l0,0c0.4,0.2,0.8,0.2,1.2-0.1l0.7-0.4v3.6h0.7v-4.1l0.6-0.3l0.6,0.3v4H19v-3.6l0.7,0.4
						c0.4,0.2,0.8,0.2,1.2,0.1l0,0c0.2-0.1,0.5-0.1,0.8,0c0.2,0.2,0.4,0.4,0.4,0.7L24.6,26C24.7,26,24.7,26,24.6,26
						C24.6,26,24.6,26,24.6,26z M17.7,22.7l-0.6-0.3v-0.7l0.6-0.3l0.6,0.3v0.7L17.7,22.7z M17.1,18.9c0-0.3,0.3-0.6,0.6-0.6
						s0.6,0.3,0.6,0.6v1.2l-0.6,0.3l-0.6-0.3V18.9z M15.3,24.1c-0.3,0.2-0.7,0.1-0.8-0.2c-0.2-0.3-0.1-0.7,0.2-0.8l1.1-0.6l0.6,0.3
						v0.7L15.3,24.1z M20.9,23.9c-0.2,0.3-0.5,0.4-0.8,0.2L19,23.4v-0.7l0.6-0.3l1.1,0.6C21,23.2,21.1,23.6,20.9,23.9z"/>
				</g>
				<g>
					
						<linearGradient id="SVGID_00000016075991569723255660000009775049105349968541_" gradientUnits="userSpaceOnUse" x1="9.3421" y1="33.1377" x2="26.0717" y2="33.1377" gradientTransform="matrix(1 0 0 -1 0 55)">
						<stop  offset="0" style="stop-color:#797979"/>
						<stop  offset="2.072294e-02" style="stop-color:#878787"/>
						<stop  offset="8.314939e-02" style="stop-color:#ACACAC"/>
						<stop  offset="0.1487" style="stop-color:#CACACA"/>
						<stop  offset="0.2174" style="stop-color:#E1E1E1"/>
						<stop  offset="0.2905" style="stop-color:#F2F2F2"/>
						<stop  offset="0.3711" style="stop-color:#FCFCFC"/>
						<stop  offset="0.4738" style="stop-color:#FFFFFF"/>
						<stop  offset="0.5278" style="stop-color:#F9F9F9"/>
						<stop  offset="0.5971" style="stop-color:#E9E9E9"/>
						<stop  offset="0.6745" style="stop-color:#CFCFCF"/>
						<stop  offset="0.7575" style="stop-color:#ABABAB"/>
						<stop  offset="0.7734" style="stop-color:#A3A3A3"/>
						<stop  offset="0.938" style="stop-color:#E5E5E5"/>
						<stop  offset="1" style="stop-color:#FFFFFF"/>
					</linearGradient>
					<path style="fill:url(#SVGID_00000016075991569723255660000009775049105349968541_);" d="M17.7,13.5c-4.6,0-8.4,3.7-8.4,8.4
						s3.7,8.4,8.4,8.4c4.6,0,8.4-3.7,8.4-8.4C26.1,17.2,22.3,13.5,17.7,13.5z M24.6,26l-1.2-0.2c-1.2,1.8-3.4,3-5.8,3
						c-2.4,0-4.5-1.2-5.8-3L10.8,26c-0.1,0-0.1,0-0.2-0.1c0-0.1,0-0.1,0-0.2l0.8-0.9c-0.4-0.9-0.7-1.9-0.7-3c0-3.7,2.8-6.7,6.5-6.9
						l0.4-1.2c0-0.1,0.1-0.1,0.2-0.1s0.1,0,0.2,0.1l0.4,1.2c3.6,0.3,6.4,3.3,6.4,6.9c0,1.1-0.2,2.1-0.7,3l0.8,0.9c0,0.1,0,0.1,0,0.2
						C24.8,26,24.7,26.1,24.6,26z"/>
					<path class="st4" d="M24.6,25.8l-1.7-1.9c-0.2,0.1-0.5,0.1-0.8,0c-0.2-0.2-0.4-0.4-0.4-0.7l0,0c0-0.4-0.3-0.7-0.7-1l-0.7-0.4
						l3.2-1.8l-0.3-0.6l-3.5,2L19,21.1v-0.7l3.5-2l-0.3-0.6L19,19.6v-0.8c0-0.4-0.2-0.8-0.5-1.1l0,0c-0.2-0.2-0.3-0.4-0.3-0.7
						c0-0.3,0.1-0.5,0.3-0.7l-0.7-2.5c0,0,0,0,0,0c0,0,0,0,0,0l-0.7,2.5c0.2,0.2,0.3,0.4,0.3,0.7c0,0.3-0.2,0.5-0.3,0.7l0,0
						c-0.3,0.2-0.5,0.6-0.5,1.1v0.8l-3.2-1.8l-0.3,0.6l3.5,2v0.7l-0.6,0.3l-3.5-2L11.9,20l3.2,1.8l-0.7,0.4c-0.4,0.2-0.6,0.6-0.7,1
						l0,0c0,0.2-0.2,0.5-0.4,0.7s-0.5,0.2-0.8,0l-1.7,1.9c0,0,0,0,0,0.1c0,0,0,0,0.1,0l2.5-0.6c0-0.2,0.2-0.5,0.4-0.7
						c0.2-0.2,0.5-0.2,0.8-0.1l0,0c0.4,0.2,0.8,0.2,1.2-0.1l0.7-0.4v3.7h0.7v-4.1l0.6-0.3l0.6,0.3v4H19v-3.6l0.7,0.4
						c0.4,0.2,0.8,0.2,1.2,0.1l0,0c0.2-0.1,0.5-0.1,0.8,0.1c0.2,0.2,0.4,0.4,0.4,0.7L24.6,25.8C24.7,25.9,24.7,25.9,24.6,25.8
						C24.6,25.8,24.6,25.8,24.6,25.8z M17.7,22.6l-0.6-0.3v-0.7l0.6-0.3l0.6,0.3v0.7L17.7,22.6z M17.1,18.8c0-0.3,0.3-0.6,0.6-0.6
						s0.6,0.3,0.6,0.6V20l-0.6,0.3L17.1,20V18.8z M15.3,23.9c-0.3,0.2-0.7,0.1-0.8-0.2c-0.2-0.3-0.1-0.7,0.2-0.8l1.1-0.6l0.6,0.3
						v0.7L15.3,23.9z M20.9,23.7c-0.2,0.3-0.5,0.4-0.8,0.2L19,23.3v-0.7l0.6-0.3l1.1,0.6C21,23,21.1,23.4,20.9,23.7z"/>
				</g>
				
					<radialGradient id="SVGID_00000110429690257563433400000003989165545838567584_" cx="234.5307" cy="350.6512" r="67.0472" gradientTransform="matrix(0.3333 0 0 0.3333 -70.6388 -105.3516)" gradientUnits="userSpaceOnUse">
					<stop  offset="0.2089" style="stop-color:#9AA2B8"/>
					<stop  offset="0.3473" style="stop-color:#CFD3DF"/>
					<stop  offset="0.456" style="stop-color:#F5F5FA"/>
					<stop  offset="0.541" style="stop-color:#F5F5FA"/>
					<stop  offset="0.5549" style="stop-color:#F5F5FA"/>
					<stop  offset="0.6264" style="stop-color:#B6BDD0"/>
					<stop  offset="0.7429" style="stop-color:#727C94"/>
					<stop  offset="0.7687" style="stop-color:#79839A"/>
					<stop  offset="0.8069" style="stop-color:#8D95AA"/>
					<stop  offset="0.8525" style="stop-color:#AEB3C4"/>
					<stop  offset="0.8846" style="stop-color:#C9CCDA"/>
					<stop  offset="0.9214" style="stop-color:#E7E8F0"/>
					<stop  offset="0.9446" style="stop-color:#F5F5FA"/>
				</radialGradient>
				<path style="fill:url(#SVGID_00000110429690257563433400000003989165545838567584_);" d="M24.6,25.7l-1.7-1.9
					c-0.2,0.1-0.5,0.1-0.8-0.1c-0.2-0.2-0.4-0.4-0.4-0.7l0,0c0-0.4-0.3-0.7-0.7-1l-0.7-0.4l3.2-1.8l-0.3-0.6l-3.5,2L19,21v-0.7
					l3.5-2l-0.3-0.6L19,19.5v-0.8c0-0.4-0.2-0.8-0.5-1.1l0,0c-0.2-0.2-0.3-0.4-0.3-0.7s0.1-0.5,0.3-0.7l-0.7-2.5c0,0,0,0,0,0
					c0,0,0,0,0,0l-0.7,2.5c0.2,0.2,0.3,0.4,0.3,0.7c0,0.3-0.2,0.5-0.3,0.7l0,0c-0.3,0.2-0.5,0.6-0.5,1.1v0.8l-3.2-1.8l-0.3,0.6
					l3.5,2.1V21l-0.6,0.3l-3.5-2l-0.3,0.6l3.2,1.8l-0.7,0.4c-0.4,0.2-0.6,0.6-0.7,1l0,0c0,0.2-0.2,0.5-0.4,0.7
					c-0.2,0.2-0.5,0.2-0.8,0l-1.7,1.9c0,0,0,0,0,0.1s0,0,0.1,0l2.5-0.6c0-0.2,0.2-0.5,0.4-0.7c0.2-0.2,0.5-0.2,0.8-0.1l0,0
					c0.4,0.2,0.8,0.2,1.2-0.1l0.7-0.4v3.6h0.7v-4l0.6-0.3l0.6,0.3v4H19v-3.6l0.7,0.4c0.4,0.2,0.8,0.2,1.2,0.1l0,0
					c0.2-0.1,0.5-0.1,0.8,0.1s0.4,0.4,0.4,0.7L24.6,25.7C24.7,25.7,24.7,25.7,24.6,25.7C24.6,25.7,24.6,25.7,24.6,25.7z M17.7,22.4
					L17.1,22v-0.7l0.6-0.3l0.6,0.3V22L17.7,22.4z M17.1,18.6c0-0.3,0.3-0.6,0.6-0.6s0.6,0.3,0.6,0.6v1.2l-0.6,0.3l-0.6-0.3V18.6z
					 M15.3,23.8c-0.3,0.2-0.7,0.1-0.8-0.2c-0.2-0.3-0.1-0.7,0.2-0.8l1.1-0.6l0.6,0.3v0.7L15.3,23.8z M20.9,23.5
					c-0.2,0.3-0.5,0.4-0.8,0.2L19,23.1v-0.7l0.6-0.3l1.1,0.6C21,22.9,21.1,23.3,20.9,23.5z"/>
				<g>
					
						<linearGradient id="SVGID_00000083771079821387715670000003195143059551014787_" gradientUnits="userSpaceOnUse" x1="918.8281" y1="555.4454" x2="918.8281" y2="555.4454" gradientTransform="matrix(0.336 0 0 0.336 -284.085 -160.9736)">
						<stop  offset="0" style="stop-color:#FFFFFF"/>
						<stop  offset="1" style="stop-color:#231A16"/>
					</linearGradient>
					<path style="fill:url(#SVGID_00000083771079821387715670000003195143059551014787_);" d="M24.6,25.7L24.6,25.7L24.6,25.7z"/>
					<g>
						
							<linearGradient id="SVGID_00000066476406107680589300000011492788404915477692_" gradientUnits="userSpaceOnUse" x1="880.6434" y1="526.1453" x2="915.6633" y2="561.165" gradientTransform="matrix(0.336 0 0 0.336 -284.085 -160.9736)">
							<stop  offset="0" style="stop-color:#EDEDED"/>
							<stop  offset="0.6374" style="stop-color:#666666"/>
							<stop  offset="1" style="stop-color:#E6E6E6"/>
						</linearGradient>
						<path style="fill:url(#SVGID_00000066476406107680589300000011492788404915477692_);" d="M17.7,13.3c-4.6,0-8.4,3.7-8.4,8.4
							c0,4.6,3.7,8.4,8.4,8.4c4.6,0,8.4-3.7,8.4-8.4C26.1,17.1,22.3,13.3,17.7,13.3z M23.6,27.6C22.1,29.1,20,30,17.7,30
							c-2.3,0-4.4-0.9-5.9-2.4c-1.5-1.5-2.4-3.6-2.4-5.9s0.9-4.4,2.4-5.9c1.5-1.5,3.6-2.4,5.9-2.4c2.3,0,4.4,0.9,5.9,2.4
							c1.5,1.5,2.4,3.6,2.4,5.9C26,24,25.1,26.1,23.6,27.6z"/>
					</g>
					<polygon class="st8" points="17.7,20.2 17.7,20.2 17.1,19.8 17.1,19.8 					"/>
					
						<linearGradient id="SVGID_00000147912033467450248740000016082792964339355288_" gradientUnits="userSpaceOnUse" x1="900.0942" y1="535.4089" x2="896.2152" y2="535.4089" gradientTransform="matrix(0.336 0 0 0.336 -284.085 -160.9736)">
						<stop  offset="0" style="stop-color:#FFFFFF"/>
						<stop  offset="0.1814" style="stop-color:#CDCDCD"/>
						<stop  offset="0.3712" style="stop-color:#9F9F9F"/>
						<stop  offset="0.5536" style="stop-color:#7C7C7C"/>
						<stop  offset="0.7239" style="stop-color:#626262"/>
						<stop  offset="0.8776" style="stop-color:#525252"/>
						<stop  offset="1" style="stop-color:#4D4D4D"/>
					</linearGradient>
					<path style="fill:url(#SVGID_00000147912033467450248740000016082792964339355288_);" d="M17.7,18L17.7,18
						c-0.4,0-0.7,0.2-0.7,0.6v1.2l0,0l0,0l0,0v-1.2C17.1,18.3,17.4,18,17.7,18z"/>
					<g>
						<polygon class="st10" points="17.7,20.9 17.1,21.3 17.1,21.3 17.1,21.3 17.1,21.3 17.7,21 						"/>
					</g>
					<path class="st11" d="M17.7,13.7L17.7,13.7L17.7,13.7L17.7,13.7C17.7,13.7,17.7,13.7,17.7,13.7l-0.8,2.5H17L17.7,13.7z"/>
					
						<linearGradient id="SVGID_00000089564841404224608900000009164891201969227435_" gradientUnits="userSpaceOnUse" x1="895.5988" y1="527.4005" x2="895.5988" y2="536.5002" gradientTransform="matrix(0.336 0 0 0.336 -284.085 -160.9736)">
						<stop  offset="0" style="stop-color:#BCBEC0"/>
						<stop  offset="0.1082" style="stop-color:#C5C6C8"/>
						<stop  offset="0.2812" style="stop-color:#DCDDDE"/>
						<stop  offset="0.4831" style="stop-color:#FFFFFF"/>
						<stop  offset="1" style="stop-color:#E7E6E7"/>
					</linearGradient>
					<path style="fill:url(#SVGID_00000089564841404224608900000009164891201969227435_);" d="M16.4,19.5v-0.9c0-0.4,0.2-0.8,0.5-1
						l0,0c0.2-0.2,0.4-0.4,0.4-0.7c0-0.3-0.1-0.6-0.3-0.7h-0.1c0.2,0.2,0.3,0.4,0.3,0.7c0,0.3-0.2,0.5-0.3,0.7l0,0
						c-0.3,0.2-0.5,0.6-0.5,1.1v0.8L16.4,19.5z"/>
					<polygon class="st13" points="12.9,18.2 16.4,20.2 16.4,20.2 16.4,20.2 16.4,20.2 12.9,18.2 					"/>
					<polygon class="st14" points="16.4,20.9 16.4,21 16.4,21 16.4,20.2 16.4,20.2 					"/>
					<polygon class="st11" points="12.9,18.2 13.2,17.7 13.2,17.6 12.9,18.2 					"/>
					<polygon class="st8" points="16.4,19.4 13.2,17.6 13.2,17.7 16.4,19.5 					"/>
					<polygon class="st14" points="17.7,20.2 17.7,20.2 18.3,19.8 18.4,19.8 					"/>
					
						<linearGradient id="SVGID_00000129927835927292234500000007636107827409442698_" gradientUnits="userSpaceOnUse" x1="900.0854" y1="535.4089" x2="896.2225" y2="535.4089" gradientTransform="matrix(0.336 0 0 0.336 -284.085 -160.9736)">
						<stop  offset="0" style="stop-color:#F2F2F2"/>
						<stop  offset="5.520000e-02" style="stop-color:#E6E6E6"/>
						<stop  offset="0.2745" style="stop-color:#B8B8B8"/>
						<stop  offset="0.4849" style="stop-color:#959595"/>
						<stop  offset="0.6814" style="stop-color:#7B7B7B"/>
						<stop  offset="0.8587" style="stop-color:#6B6B6B"/>
						<stop  offset="1" style="stop-color:#666666"/>
					</linearGradient>
					<path style="fill:url(#SVGID_00000129927835927292234500000007636107827409442698_);" d="M17.7,18L17.7,18
						c0.4,0,0.7,0.2,0.7,0.6v1.2l0,0l0,0l0,0v-1.2C18.3,18.3,18,18,17.7,18z"/>
					<g>
						<polygon class="st13" points="17.7,20.9 18.4,21.3 18.4,21.3 18.3,21.3 18.3,21.3 17.7,21 						"/>
					</g>
					<path class="st14" d="M17.7,13.7L17.7,13.7L17.7,13.7L17.7,13.7C17.7,13.7,17.7,13.7,17.7,13.7l0.8,2.5h-0.1L17.7,13.7z"/>
					
						<linearGradient id="SVGID_00000182489236878081609380000000948893090893258914_" gradientUnits="userSpaceOnUse" x1="900.6888" y1="527.1555" x2="900.6888" y2="537.6667" gradientTransform="matrix(0.336 0 0 0.336 -284.085 -160.9736)">
						<stop  offset="0" style="stop-color:#4D4D4D"/>
						<stop  offset="6.840000e-02" style="stop-color:#525252"/>
						<stop  offset="0.1513" style="stop-color:#616161"/>
						<stop  offset="0.2419" style="stop-color:#7A7A7A"/>
						<stop  offset="0.3378" style="stop-color:#9C9C9C"/>
						<stop  offset="0.438" style="stop-color:#C8C8C8"/>
						<stop  offset="0.5404" style="stop-color:#FDFDFD"/>
						<stop  offset="0.544" style="stop-color:#FFFFFF"/>
						<stop  offset="0.6294" style="stop-color:#CACACA"/>
						<stop  offset="0.7148" style="stop-color:#9E9E9E"/>
						<stop  offset="0.7968" style="stop-color:#7B7B7B"/>
						<stop  offset="0.8737" style="stop-color:#616161"/>
						<stop  offset="0.9435" style="stop-color:#525252"/>
						<stop  offset="1" style="stop-color:#4D4D4D"/>
					</linearGradient>
					<path style="fill:url(#SVGID_00000182489236878081609380000000948893090893258914_);" d="M19,19.5v-0.9c0-0.4-0.2-0.8-0.5-1
						l0,0c-0.2-0.2-0.4-0.4-0.4-0.7c0-0.3,0.1-0.6,0.3-0.7h0.1c-0.2,0.2-0.3,0.4-0.3,0.7c0,0.3,0.1,0.5,0.3,0.7l0,0
						c0.3,0.2,0.5,0.6,0.5,1.1v0.8L19,19.5z"/>
					<polygon class="st10" points="22.5,18.2 19,20.2 19,20.2 19,20.2 19,20.2 22.5,18.2 					"/>
					<polygon class="st17" points="19,20.9 19,21 19,21 19,20.2 19,20.2 					"/>
					<polygon class="st18" points="22.5,18.2 22.2,17.7 22.2,17.6 22.5,18.2 					"/>
					<polygon class="st14" points="19,19.4 22.2,17.6 22.2,17.7 19,19.5 					"/>
					<polygon class="st14" points="16.4,22.4 16.4,22.5 16.4,23.1 16.4,23.2 					"/>
					
						<linearGradient id="SVGID_00000086663294679872384900000010742098698187190425_" gradientUnits="userSpaceOnUse" x1="891.3474" y1="548.4476" x2="891.0127" y2="547.8386" gradientTransform="matrix(0.336 0 0 0.336 -284.085 -160.9736)">
						<stop  offset="0" style="stop-color:#FFFFFF"/>
						<stop  offset="1" style="stop-color:#666666"/>
					</linearGradient>
					<path style="fill:url(#SVGID_00000086663294679872384900000010742098698187190425_);" d="M14.5,23.5L14.5,23.5
						c0.2,0.3,0.6,0.4,0.8,0.3l1.1-0.6l0,0l0,0l0,0l-1.1,0.6C15,23.9,14.7,23.8,14.5,23.5z"/>
					<g>
						<polygon class="st8" points="17.1,22.1 17.7,22.5 17.7,22.5 17.7,22.4 17.7,22.4 17.1,22 						"/>
					</g>
					
						<linearGradient id="SVGID_00000170238710630461053150000015924183519535125412_" gradientUnits="userSpaceOnUse" x1="879.942" y1="553.2673" x2="880.0964" y2="553.4274" gradientTransform="matrix(0.336 0 0 0.336 -284.085 -160.9736)">
						<stop  offset="0" style="stop-color:#FFFFFF"/>
						<stop  offset="7.750000e-02" style="stop-color:#E5E5E5"/>
						<stop  offset="0.2532" style="stop-color:#AFAFAF"/>
						<stop  offset="0.425" style="stop-color:#838383"/>
						<stop  offset="0.5892" style="stop-color:#606060"/>
						<stop  offset="0.7437" style="stop-color:#474747"/>
						<stop  offset="0.8847" style="stop-color:#383838"/>
						<stop  offset="1" style="stop-color:#333333"/>
					</linearGradient>
					<path style="fill:url(#SVGID_00000170238710630461053150000015924183519535125412_);" d="M10.8,25.7L10.8,25.7L10.8,25.7
						L10.8,25.7C10.8,25.7,10.8,25.7,10.8,25.7l2.5-0.6l-0.1,0L10.8,25.7z"/>
					
						<linearGradient id="SVGID_00000137117180970214111110000002685297510260742034_" gradientUnits="userSpaceOnUse" x1="894.1002" y1="549.5302" x2="885.7371" y2="553.3894" gradientTransform="matrix(0.336 0 0 0.336 -284.085 -160.9736)">
						<stop  offset="0" style="stop-color:#1A1A1A"/>
						<stop  offset="0.1169" style="stop-color:#1D1D1D"/>
						<stop  offset="0.225" style="stop-color:#282828"/>
						<stop  offset="0.3296" style="stop-color:#3B3B3B"/>
						<stop  offset="0.4321" style="stop-color:#555555"/>
						<stop  offset="0.5321" style="stop-color:#777777"/>
						<stop  offset="0.6264" style="stop-color:#9E9E9E"/>
						<stop  offset="0.6326" style="stop-color:#9B9B9B"/>
						<stop  offset="0.757" style="stop-color:#646464"/>
						<stop  offset="0.8641" style="stop-color:#3B3B3B"/>
						<stop  offset="0.9486" style="stop-color:#232323"/>
						<stop  offset="1" style="stop-color:#1A1A1A"/>
					</linearGradient>
					<path style="fill:url(#SVGID_00000137117180970214111110000002685297510260742034_);" d="M16.4,23.9l-0.8,0.4
						c-0.4,0.2-0.8,0.2-1.1,0.1l0,0c-0.2-0.1-0.6-0.1-0.8,0.1c-0.2,0.2-0.4,0.4-0.4,0.7l0,0c0-0.2,0.2-0.5,0.4-0.7
						c0.2-0.2,0.5-0.2,0.8,0l0,0c0.4,0.2,0.8,0.2,1.2-0.1L16.4,23.9L16.4,23.9z"/>
					<polygon class="st17" points="17.1,27.6 17.1,23.5 17.1,23.5 17.1,23.5 17.1,23.5 17.1,27.6 					"/>
					<polygon class="st10" points="17.7,23.2 17.7,23.1 17.7,23.1 17.1,23.5 17.1,23.5 					"/>
					<polygon class="st22" points="17.1,27.6 16.4,27.6 16.4,27.6 17.1,27.6 					"/>
					<polygon class="st14" points="16.4,23.9 16.4,27.6 16.4,27.6 16.4,23.9 					"/>
					<polygon class="st13" points="16.4,22.4 16.4,22.5 15.8,22.1 15.8,22 					"/>
					
						<linearGradient id="SVGID_00000165950877245025369800000006406041992508693397_" gradientUnits="userSpaceOnUse" x1="890.9932" y1="547.998" x2="890.3531" y2="546.535" gradientTransform="matrix(0.336 0 0 0.336 -284.085 -160.9736)">
						<stop  offset="0" style="stop-color:#666666"/>
						<stop  offset="1" style="stop-color:#333333"/>
					</linearGradient>
					<path style="fill:url(#SVGID_00000165950877245025369800000006406041992508693397_);" d="M14.5,23.5L14.5,23.5
						c-0.2-0.3-0.1-0.7,0.2-0.9l1.1-0.6l0,0v0.1l0,0l-1.1,0.6C14.4,22.9,14.3,23.3,14.5,23.5z"/>
					<g>
						<polygon class="st17" points="17.1,22.1 17.1,21.3 17.1,21.3 17.1,21.3 17.1,21.3 17.1,22 						"/>
					</g>
					<path class="st11" d="M10.8,25.7L10.8,25.7L10.8,25.7L10.8,25.7C10.7,25.7,10.7,25.7,10.8,25.7l1.7-1.9v0.1L10.8,25.7z"/>
					
						<linearGradient id="SVGID_00000097474257913859153030000012188687408214863773_" gradientUnits="userSpaceOnUse" x1="891.152" y1="545.0624" x2="882.5647" y2="549.5998" gradientTransform="matrix(0.336 0 0 0.336 -284.085 -160.9736)">
						<stop  offset="0" style="stop-color:#E0E0E0"/>
						<stop  offset="0.1524" style="stop-color:#D6D6D6"/>
						<stop  offset="0.4099" style="stop-color:#BCBCBC"/>
						<stop  offset="0.5879" style="stop-color:#A6A6A6"/>
						<stop  offset="0.6248" style="stop-color:#BFBFBF"/>
						<stop  offset="0.6759" style="stop-color:#DBDBDB"/>
						<stop  offset="0.7273" style="stop-color:#EFEFEF"/>
						<stop  offset="0.7785" style="stop-color:#FBFBFB"/>
						<stop  offset="0.8297" style="stop-color:#FFFFFF"/>
						<stop  offset="1" style="stop-color:#ADADAD"/>
					</linearGradient>
					<path style="fill:url(#SVGID_00000097474257913859153030000012188687408214863773_);" d="M15.2,21.7l-0.8,0.4
						c-0.3,0.2-0.6,0.6-0.6,1l0,0c0,0.3-0.2,0.5-0.4,0.7c-0.2,0.2-0.5,0.2-0.8,0.1v-0.1c0.2,0.1,0.5,0.1,0.8,0
						c0.2-0.2,0.4-0.4,0.4-0.7l0,0c0-0.4,0.3-0.7,0.7-1L15.2,21.7L15.2,21.7L15.2,21.7z"/>
					<polygon class="st8" points="12.3,19.3 15.8,21.3 15.8,21.3 15.8,21.3 15.8,21.3 12.3,19.3 					"/>
					<polygon class="st14" points="16.4,20.9 16.4,21 16.4,21 15.8,21.3 15.8,21.3 					"/>
					<polygon class="st11" points="12.3,19.3 12,19.8 11.9,19.9 12.3,19.3 					"/>
					<polygon class="st13" points="15.1,21.7 11.9,19.9 12,19.8 15.2,21.7 					"/>
					<polygon class="st10" points="19,22.4 19,22.5 19.6,22.1 19.6,22 					"/>
					
						<linearGradient id="SVGID_00000053522963278068359920000003406529827652141199_" gradientUnits="userSpaceOnUse" x1="908.3309" y1="548.4865" x2="906.8051" y2="547.4794" gradientTransform="matrix(0.336 0 0 0.336 -284.085 -160.9736)">
						<stop  offset="0" style="stop-color:#FFFFFF"/>
						<stop  offset="3.200000e-03" style="stop-color:#FEFEFE"/>
						<stop  offset="0.2537" style="stop-color:#C8C8C8"/>
						<stop  offset="0.4871" style="stop-color:#9E9E9E"/>
						<stop  offset="0.6966" style="stop-color:#7F7F7F"/>
						<stop  offset="0.8746" style="stop-color:#6D6D6D"/>
						<stop  offset="1" style="stop-color:#666666"/>
					</linearGradient>
					<path style="fill:url(#SVGID_00000053522963278068359920000003406529827652141199_);" d="M20.9,23.5L20.9,23.5
						c0.2-0.3,0.1-0.7-0.2-0.9L19.6,22l0,0v0.1l0,0l1.1,0.6C21,22.9,21.1,23.3,20.9,23.5z"/>
					<g>
						<polygon class="st14" points="18.4,22.1 18.4,21.3 18.4,21.3 18.3,21.3 18.3,21.3 18.3,22 						"/>
					</g>
					<path class="st26" d="M24.6,25.7L24.6,25.7L24.6,25.7L24.6,25.7C24.6,25.7,24.6,25.7,24.6,25.7l-1.7-1.9v0.1L24.6,25.7z"/>
					
						<linearGradient id="SVGID_00000163034940002281039980000004265944056280444607_" gradientUnits="userSpaceOnUse" x1="905.7031" y1="546.887" x2="913.5798" y2="546.887" gradientTransform="matrix(0.336 0 0 0.336 -284.085 -160.9736)">
						<stop  offset="0" style="stop-color:#E0E0E0"/>
						<stop  offset="0.1524" style="stop-color:#D6D6D6"/>
						<stop  offset="0.4099" style="stop-color:#BCBCBC"/>
						<stop  offset="0.5879" style="stop-color:#A6A6A6"/>
						<stop  offset="0.6508" style="stop-color:#BFBFBF"/>
						<stop  offset="0.7379" style="stop-color:#DBDBDB"/>
						<stop  offset="0.8255" style="stop-color:#EFEFEF"/>
						<stop  offset="0.9129" style="stop-color:#FBFBFB"/>
						<stop  offset="1" style="stop-color:#FFFFFF"/>
					</linearGradient>
					<path style="fill:url(#SVGID_00000163034940002281039980000004265944056280444607_);" d="M20.2,21.7l0.8,0.4
						c0.4,0.2,0.6,0.6,0.6,0.9l0,0c0,0.3,0.2,0.5,0.5,0.7c0.2,0.2,0.5,0.2,0.8,0.1v-0.1c-0.2,0.1-0.5,0.1-0.8-0.1
						c-0.2-0.2-0.4-0.4-0.4-0.7l0,0c0-0.4-0.3-0.7-0.7-1L20.2,21.7L20.2,21.7L20.2,21.7z"/>
					<polygon class="st14" points="23.1,19.3 19.6,21.3 19.6,21.3 19.6,21.3 19.6,21.3 23.1,19.3 					"/>
					<polygon class="st8" points="19,20.9 19,21 19.6,21.3 19.6,21.3 					"/>
					<polygon class="st18" points="23.1,19.3 23.4,19.8 23.5,19.9 23.1,19.3 					"/>
					<polygon class="st10" points="20.3,21.7 23.5,19.9 23.4,19.8 20.2,21.7 					"/>
					<polygon class="st17" points="19,22.4 19,22.5 19,23.1 19,23.2 					"/>
					
						<linearGradient id="SVGID_00000093880221232721918690000005864964440323336338_" gradientUnits="userSpaceOnUse" x1="907.1895" y1="550.2153" x2="905.6643" y2="549.2088" gradientTransform="matrix(0.336 0 0 0.336 -284.085 -160.9736)">
						<stop  offset="0" style="stop-color:#FFFFFF"/>
						<stop  offset="0.1244" style="stop-color:#F8F8F8"/>
						<stop  offset="0.3053" style="stop-color:#E5E5E5"/>
						<stop  offset="0.5206" style="stop-color:#C5C5C5"/>
						<stop  offset="0.7604" style="stop-color:#999999"/>
						<stop  offset="1" style="stop-color:#666666"/>
					</linearGradient>
					<path style="fill:url(#SVGID_00000093880221232721918690000005864964440323336338_);" d="M20.9,23.5L20.9,23.5
						c-0.2,0.3-0.6,0.4-0.9,0.3L19,23.2l0,0l0,0l0,0l1.1,0.6C20.4,23.9,20.7,23.8,20.9,23.5z"/>
					<g>
						<polygon class="st11" points="18.4,22.1 17.7,22.5 17.7,22.5 17.7,22.4 17.7,22.4 18.3,22 						"/>
					</g>
					
						<linearGradient id="SVGID_00000003105604128132764470000005055030058596945036_" gradientUnits="userSpaceOnUse" x1="917.7943" y1="553.5193" x2="917.6113" y2="553.6042" gradientTransform="matrix(0.336 0 0 0.336 -284.085 -160.9736)">
						<stop  offset="0" style="stop-color:#CCCCCC"/>
						<stop  offset="0.1185" style="stop-color:#B9B9B9"/>
						<stop  offset="0.321" style="stop-color:#A0A0A0"/>
						<stop  offset="0.5311" style="stop-color:#8E8E8E"/>
						<stop  offset="0.7517" style="stop-color:#838383"/>
						<stop  offset="1" style="stop-color:#808080"/>
					</linearGradient>
					<path style="fill:url(#SVGID_00000003105604128132764470000005055030058596945036_);" d="M24.6,25.7L24.6,25.7L24.6,25.7
						L24.6,25.7C24.6,25.7,24.6,25.7,24.6,25.7l-2.5-0.5l0,0L24.6,25.7z"/>
					
						<linearGradient id="SVGID_00000023995285794886408620000007226555987450472372_" gradientUnits="userSpaceOnUse" x1="901.9244" y1="552.0211" x2="911.3512" y2="552.0211" gradientTransform="matrix(0.336 0 0 0.336 -284.085 -160.9736)">
						<stop  offset="0" style="stop-color:#999999"/>
						<stop  offset="8.810000e-02" style="stop-color:#949494"/>
						<stop  offset="0.1892" style="stop-color:#868686"/>
						<stop  offset="0.2967" style="stop-color:#6F6F6F"/>
						<stop  offset="0.4088" style="stop-color:#4F4F4F"/>
						<stop  offset="0.5232" style="stop-color:#262626"/>
						<stop  offset="0.5549" style="stop-color:#1A1A1A"/>
						<stop  offset="0.599" style="stop-color:#202020"/>
						<stop  offset="0.6587" style="stop-color:#313131"/>
						<stop  offset="0.7275" style="stop-color:#4E4E4E"/>
						<stop  offset="0.8031" style="stop-color:#767676"/>
						<stop  offset="0.8842" style="stop-color:#A9A9A9"/>
						<stop  offset="0.9686" style="stop-color:#E6E6E6"/>
						<stop  offset="1" style="stop-color:#FFFFFF"/>
					</linearGradient>
					<path style="fill:url(#SVGID_00000023995285794886408620000007226555987450472372_);" d="M19,23.9l0.8,0.4
						c0.4,0.2,0.8,0.2,1.2,0.1l0,0c0.2-0.1,0.6-0.1,0.8,0.1c0.2,0.2,0.4,0.4,0.4,0.7l0,0c0-0.2-0.2-0.5-0.4-0.7
						c-0.2-0.2-0.5-0.2-0.8-0.1l0,0c-0.4,0.2-0.8,0.2-1.2-0.1L19,23.9L19,23.9z"/>
					<polygon class="st14" points="18.3,27.6 18.3,23.5 18.3,23.5 18.4,23.5 18.4,23.5 18.4,27.6 					"/>
					<polygon class="st13" points="17.7,23.2 17.7,23.1 17.7,23.1 18.4,23.5 18.3,23.5 					"/>
					<polygon class="st22" points="18.4,27.6 19,27.6 19,27.6 18.3,27.6 					"/>
					<polygon class="st17" points="19,23.9 19,27.6 19,27.6 19,23.9 					"/>
					
						<linearGradient id="SVGID_00000057852022548844202510000012668818436592823938_" gradientUnits="userSpaceOnUse" x1="899.7162" y1="521.064" x2="896.5663" y2="521.064" gradientTransform="matrix(0.336 0 0 0.336 -284.085 -160.9736)">
						<stop  offset="0" style="stop-color:#CCCCCC"/>
						<stop  offset="1" style="stop-color:#3D3D3D"/>
					</linearGradient>
					<path style="fill:url(#SVGID_00000057852022548844202510000012668818436592823938_);" d="M17.9,13.6l0.4,1.2l0,0L17.9,13.6
						L17.9,13.6c0-0.1-0.1-0.1-0.1-0.1v0C17.8,13.5,17.8,13.5,17.9,13.6z"/>
					
						<linearGradient id="SVGID_00000093895902680882884310000016394827969215595681_" gradientUnits="userSpaceOnUse" x1="922.5047" y1="548.4399" x2="893.14" y2="519.0753" gradientTransform="matrix(0.336 0 0 0.336 -284.085 -160.9736)">
						<stop  offset="0" style="stop-color:#FFFFFF"/>
						<stop  offset="1" style="stop-color:#231A16"/>
					</linearGradient>
					<path style="fill:url(#SVGID_00000093895902680882884310000016394827969215595681_);" d="M24.7,21.7c0-3.7-2.8-6.7-6.5-7l0,0
						C21.8,15,24.6,18,24.7,21.7c-0.1,1.1-0.3,2.1-0.7,3H24C24.5,23.8,24.7,22.8,24.7,21.7z"/>
					
						<linearGradient id="SVGID_00000129192238047829219760000014421694366538347412_" gradientUnits="userSpaceOnUse" x1="917.3128" y1="555.9477" x2="918.0339" y2="554.4503" gradientTransform="matrix(0.336 0 0 0.336 -284.085 -160.9736)">
						<stop  offset="0" style="stop-color:#FFFFFF"/>
						<stop  offset="0.1419" style="stop-color:#FAFAFA"/>
						<stop  offset="0.3069" style="stop-color:#ECECEC"/>
						<stop  offset="0.4834" style="stop-color:#D5D5D5"/>
						<stop  offset="0.668" style="stop-color:#B4B4B4"/>
						<stop  offset="0.857" style="stop-color:#8B8B8B"/>
						<stop  offset="1" style="stop-color:#666666"/>
					</linearGradient>
					<path style="fill:url(#SVGID_00000129192238047829219760000014421694366538347412_);" d="M24.8,25.6l-0.8-0.9H24L24.8,25.6
						c0,0.1,0,0.2,0,0.2l0,0c0,0,0-0.1,0-0.1C24.9,25.7,24.9,25.6,24.8,25.6z"/>
					
						<linearGradient id="SVGID_00000029043108880017078860000000187834823207094942_" gradientUnits="userSpaceOnUse" x1="917.2347" y1="555.9108" x2="917.955" y2="554.415" gradientTransform="matrix(0.336 0 0 0.336 -284.085 -160.9736)">
						<stop  offset="0" style="stop-color:#FFFFFF"/>
						<stop  offset="0.1419" style="stop-color:#FAFAFA"/>
						<stop  offset="0.3069" style="stop-color:#ECECEC"/>
						<stop  offset="0.4834" style="stop-color:#D5D5D5"/>
						<stop  offset="0.668" style="stop-color:#B4B4B4"/>
						<stop  offset="0.857" style="stop-color:#8B8B8B"/>
						<stop  offset="1" style="stop-color:#666666"/>
					</linearGradient>
					<path style="fill:url(#SVGID_00000029043108880017078860000000187834823207094942_);" d="M24.8,25.8c0,0.1-0.1,0.1-0.2,0.1
						l-1.2-0.2l0,0.1l1.1,0.2h0C24.7,25.9,24.8,25.9,24.8,25.8L24.8,25.8z"/>
					
						<linearGradient id="SVGID_00000037656888711795345980000013812513048718461089_" gradientUnits="userSpaceOnUse" x1="906.702" y1="564.2426" x2="877.3542" y2="534.8947" gradientTransform="matrix(0.336 0 0 0.336 -284.085 -160.9736)">
						<stop  offset="0" style="stop-color:#FFFFFF"/>
						<stop  offset="1" style="stop-color:#231A16"/>
					</linearGradient>
					<path style="fill:url(#SVGID_00000037656888711795345980000013812513048718461089_);" d="M23.5,25.6c-1.2,1.8-3.4,3-5.8,3
						s-4.5-1.2-5.8-3l0,0.1c1.3,1.8,3.4,3,5.8,3S22.2,27.5,23.5,25.6L23.5,25.6z"/>
					
						<linearGradient id="SVGID_00000043459168349994901270000000350595372634119569_" gradientUnits="userSpaceOnUse" x1="879.202" y1="556.0422" x2="878.3161" y2="554.1599" gradientTransform="matrix(0.336 0 0 0.336 -284.085 -160.9736)">
						<stop  offset="0" style="stop-color:#F2F2F2"/>
						<stop  offset="1" style="stop-color:#1A1A1A"/>
					</linearGradient>
					<path style="fill:url(#SVGID_00000043459168349994901270000000350595372634119569_);" d="M10.7,25.9
						C10.8,25.9,10.8,25.9,10.7,25.9L10.7,25.9l1.2-0.2l0-0.1L10.7,25.9c0,0-0.1-0.1-0.2-0.1l0,0C10.6,25.9,10.7,25.9,10.7,25.9z"/>
					
						<linearGradient id="SVGID_00000062178829565468281730000011808531158901717157_" gradientUnits="userSpaceOnUse" x1="879.0565" y1="556.1094" x2="878.1696" y2="554.2248" gradientTransform="matrix(0.336 0 0 0.336 -284.085 -160.9736)">
						<stop  offset="0" style="stop-color:#F2F2F2"/>
						<stop  offset="1" style="stop-color:#1A1A1A"/>
					</linearGradient>
					<path style="fill:url(#SVGID_00000062178829565468281730000011808531158901717157_);" d="M10.6,25.6c0,0-0.1,0.1-0.1,0.1
						s0,0.1,0,0.1l0,0C10.6,25.7,10.6,25.7,10.6,25.6l0.8-0.8h0L10.6,25.6z"/>
					<g>
						
							<linearGradient id="SVGID_00000103945056668405944410000000838851512514707120_" gradientUnits="userSpaceOnUse" x1="910.5265" y1="560.3781" x2="881.1849" y2="531.0364" gradientTransform="matrix(0.336 0 0 0.336 -284.085 -160.9736)">
							<stop  offset="0" style="stop-color:#FFFFFF"/>
							<stop  offset="1" style="stop-color:#231A16"/>
						</linearGradient>
						<path style="fill:url(#SVGID_00000103945056668405944410000000838851512514707120_);" d="M10.7,21.7c0,1.1,0.2,2.1,0.7,3h0
							C11,23.8,10.7,22.8,10.7,21.7c0-3.7,2.9-6.7,6.5-7l0,0C13.5,15,10.7,18,10.7,21.7z"/>
						
							<linearGradient id="SVGID_00000114063043820134928680000009771594963089308554_" gradientUnits="userSpaceOnUse" x1="899.725" y1="521.093" x2="896.5569" y2="521.093" gradientTransform="matrix(0.336 0 0 0.336 -284.085 -160.9736)">
							<stop  offset="0" style="stop-color:#CCCCCC"/>
							<stop  offset="1" style="stop-color:#3D3D3D"/>
						</linearGradient>
						<path style="fill:url(#SVGID_00000114063043820134928680000009771594963089308554_);" d="M17.5,13.6l-0.3,1.1l0,0L17.5,13.6
							c0.1,0,0.2-0.1,0.2-0.1v0C17.6,13.5,17.5,13.5,17.5,13.6z"/>
					</g>
				</g>
			</g>
		</g>
		<g>
			<g>
				<path class="st40" d="M85.1,32.9c0,0-0.7,0.1-1.4,0.1c0.1-0.2,0.2-0.3,0.2-0.5c0,0-1.1,0.2-1.2,0.6l0,0c-0.1,0-0.2,0-0.3,0
					c-0.5,0.1-0.9,0.6-0.9,0.6s0.4,0,1-0.1c-0.4,0.8-1,2.1-1,2.1l1-0.1c0.4-0.9,0.7-1.5,1-2.1c0.2,0,0.3,0,0.4-0.1
					C84.5,33.3,85.1,32.9,85.1,32.9"/>
				<path class="st40" d="M55.1,35.2c0.6,0,1,0.1,1.2,0.4c0.2,0.2,0.2,0.6,0,1.1c-0.3,0.5-0.5,1-1.2,1.3c-0.7,0.3-1.3,0.5-2.1,0.5
					c-0.6,0-1-0.1-1.2-0.4c-0.2-0.3-0.2-0.6,0-1.1c0.3-0.5,0.8-1.1,1.5-1.4C54.1,35.3,54.6,35.2,55.1,35.2 M54.2,35.9
					c-0.3,0.2-0.7,0.5-0.9,1c-0.5,0.9-0.1,1.2,0.2,1.2c0.5,0,0.9-0.4,1.2-0.8c0.3-0.4,0.5-0.7,0.4-1.1
					C55.2,35.9,54.9,35.5,54.2,35.9"/>
				<path class="st40" d="M43.6,34.4c0,0-0.8,0-1.2,0.4c-0.4,0.4-1.8,2.1-1.8,2.1l-0.3-2.2c0,0-0.7,0.1-1.2,0.3l0.4,3l1.1-0.1
					L43.6,34.4z"/>
				<path class="st40" d="M41.9,37.3c2.8,0.3,4.9-0.6,4.6-1.3c-0.1-0.3-0.5-0.5-1.3-0.7c-0.5-0.2,0.3-0.7,1.9-0.6l0.3-0.4
					c0,0-1.7,0-2.8,0.4c-0.8,0.3-1.3,0.8-0.7,1.1c0.7,0.2,1.1,0.3,1.3,0.6c0.3,0.5-1.3,0.8-2.9,0.6L41.9,37.3z"/>
				<path class="st40" d="M73.6,35.5c0,0-0.3,0.2-0.8,0.4c-0.3,0.1-1,0.3-1.3,0.2c-0.4-0.2-0.1-0.7-0.1-0.7s2.1-0.4,2.2-0.4
					c0.2-0.1,0.7-0.9,0-1.2c-0.7-0.2-2.5,0.2-3.1,1.6c-0.3,0.8,0,1.1,0.3,1.2c0.9,0.3,2-0.2,2.4-0.6L73.6,35.5z M73.1,34.2
					c0.4-0.1,0,0.6-0.2,0.7c-0.5,0.2-1.2,0.2-1.2,0.2S72.3,34.3,73.1,34.2"/>
				<path class="st40" d="M38.3,36.9c0,0-0.4,0.2-1.1,0.5c-0.4,0.2-1.3,0.4-1.7,0.2c-0.6-0.2-0.2-0.7-0.2-0.7s2.8-0.3,3-0.5
					c0.2-0.2,0.8-1.1-0.2-1.4c-1-0.3-3.5,0.2-4,1.8c-0.3,0.9,0.2,1.2,0.7,1.3c1.3,0.3,2.8-0.2,3.2-0.6L38.3,36.9z M37.3,35.4
					c0.6-0.1,0.2,0.7-0.1,0.8c-0.6,0.1-1.6,0.2-1.6,0.2S36.2,35.5,37.3,35.4"/>
				<path class="st40" d="M77.5,35.7c-0.5,0.2-0.8,0.2-0.6-0.4c0.2-0.4,0.9-1.7,0.9-1.7s-0.6,0.1-1.1,0.1c-1.4,0.2-2.1,0.8-2.4,1.3
					c-0.5,0.7-0.4,1.3,0.1,1.4c0.7,0.1,1.6-0.7,1.6-0.7s-0.1,0.6,0.6,0.6c0.4,0,0.7-0.2,0.7-0.2L77.5,35.7z M75.4,35.6
					c-0.3,0.1-0.2-0.4,0-0.7c0.4-0.6,0.9-0.7,1.6-0.8C76.9,34.1,76.3,35.4,75.4,35.6"/>
				<path class="st40" d="M62.5,34.7c0.9-0.1,0.9,0.2,0.9,0.2c1.1-0.6,2-0.4,2-0.4s-0.2,0.2-0.7,0.4c-0.6,0.3-1-0.2-1.6,0.6
					c-0.3,0.4-1.1,1.9-1.1,1.9l-1.2,0.2C61.5,36.6,62.5,34.7,62.5,34.7"/>
				<path class="st40" d="M78.9,33.5c0.9-0.1,0.8,0.2,0.8,0.2c1-0.7,2-0.5,2-0.5s-0.2,0.2-0.6,0.4c-0.6,0.3-1-0.2-1.6,0.7
					c-0.3,0.4-0.7,1.6-0.7,1.6l-1,0.1C78.3,34.8,78.9,33.5,78.9,33.5"/>
				<path class="st40" d="M57.8,38c-1.3,0-1.1-0.7-1-1c0.1-0.3,0.4-0.8,0.7-1.3c0,0,0.2-0.3,0.5-0.5s1-0.3,1-0.3s-0.7,1.1-0.9,1.8
					c-0.2,0.5-0.3,0.8,0.4,0.7c0.5-0.1,0.7-0.3,1.1-0.9c0.3-0.4,0.6-1,0.7-1.3c0.2-0.3,0.6-0.4,1.3-0.4c0,0-0.7,1.2-1,1.9
					C60.1,37.6,58.9,38,57.8,38"/>
				<path class="st40" d="M49.3,39.7c1.3-2.2,2.5-4.2,4.1-6c0,0-1.3,0-1.5,0.3l-1.6,2.3c0,0-0.6-1.7-0.7-2.3c0,0-0.7,0-1,0.2
					c0,0,0.7,2.2,1,3c0,0.1,0,0.2-0.1,0.3s-0.2,0.2-0.2,0.3c-1.5,0.2-12.5,1.3-14,1.4c-0.7,0-2.1,0-3.6-0.7c-1-0.5-1.5-0.9-2.2-1.3
					c0,0,0.9-0.1,2.3-0.7c2.4-0.9,4-2.8,0.7-3.3c-2.5-0.4-10.3,1.1-10.3,1.1s0.6,0.5,1.3,0.3c1-0.2,2.1-0.4,3.3-0.6
					c-0.7,1.1-3.1,4.8-4.7,7c0,0,2.2-0.1,2.5-0.6c0.2-0.2,1-1.7,1.8-3.2c1.1,0.6,3.6,2.2,4.2,2.5c0.6,0.3,1.3,0.3,2.1,0.3
					c4.2-0.3,12.9-1.5,16.1-1.7c-0.9,1.3-1.6,2.3-1.6,2.3c4.1-0.6,37.6-4.2,37.6-4.2l1.5-0.5C86.5,35.9,57.4,39.1,49.3,39.7
					 M28.4,33.9c1.3-0.1,2.5-0.2,3.1,0.1c1.7,0.5-0.2,1.7-1.6,2.3c-1.4,0.6-3.1,0.9-3.5,1C27.3,35.9,28.1,34.5,28.4,33.9"/>
				<path class="st40" d="M70.2,33c-0.2,0.4-0.5,1-0.8,1.6l-1.9,0.2c0.3-0.7,0.6-1.4,0.8-1.9c0,0-0.4,0-0.8,0.1
					c-0.4,0.1-0.6,0.2-0.6,0.2s0.2,0.1,0.3,0.2c-0.7,1.3-2,3.9-2,3.9l1.2-0.1c0.3-0.7,0.6-1.3,0.8-1.9c0.5-0.1,1.4-0.2,1.9-0.3
					c-0.5,1.1-0.9,2.1-0.9,2.1l1-0.1c0.9-2.3,1.8-3.9,2-4.3C71.3,32.6,70.4,32.6,70.2,33"/>
			</g>
		</g>
	</g>
</g>
</svg>
