<?xml version="1.0" encoding="utf-8"?>
<!-- Generator: Adobe Illustrator 26.5.0, SVG Export Plug-In . SVG Version: 6.00 Build 0)  -->
<svg version="1.1" id="Layer_1" xmlns="http://www.w3.org/2000/svg" xmlns:xlink="http://www.w3.org/1999/xlink" x="0px" y="0px"
	 viewBox="0 0 600 600" style="enable-background:new 0 0 600 600;" xml:space="preserve">
<style type="text/css">
	.st0{fill:url(#SVGID_1_);}
	.st1{clip-path:url(#SVGID_00000054226999625341368100000016003998485405777280_);fill:#ACACAC;fill-opacity:0.1;}
	.st2{fill:#FFFFFF;}
	.st3{fill:#F6C602;}
	.st4{fill:#D60002;}
	.st5{fill:url(#SVGID_00000149367941516245655140000007170358743293186434_);}
	.st6{fill:url(#SVGID_00000086656806186911556320000015648516971103538099_);}
</style>
<linearGradient id="SVGID_1_" gradientUnits="userSpaceOnUse" x1="-40.6304" y1="-63.7374" x2="356.482" y2="371.8545">
	<stop  offset="0.1663" style="stop-color:#F0F1F2"/>
	<stop  offset="0.2043" style="stop-color:#D6D9DD"/>
	<stop  offset="0.2843" style="stop-color:#A4ABB4"/>
	<stop  offset="0.3686" style="stop-color:#798391"/>
	<stop  offset="0.4555" style="stop-color:#546072"/>
	<stop  offset="0.5459" style="stop-color:#36455A"/>
	<stop  offset="0.6408" style="stop-color:#1E2F47"/>
	<stop  offset="0.7421" style="stop-color:#0E2039"/>
	<stop  offset="0.8544" style="stop-color:#041732"/>
	<stop  offset="0.9998" style="stop-color:#01142F"/>
</linearGradient>
<path class="st0" d="M433.3,46.2l-27.3-30.4H51.4C30.1,20.4,14.2,39.4,14.2,62v325.6v1L63,447.5l83.6,101l32.2,38.9h360.9
	c26.2,0,47.4-21.2,47.4-47.4V387.6V217.7L433.3,46.2z"/>
<g>
	<defs>
		<path id="SVGID_00000053521656323761832850000003847636208086562706_" d="M433.3,46.2l-27.3-30.4H51.4
			C30.1,20.4,14.2,39.4,14.2,62v325.6v1L63,447.5l83.6,101l32.2,38.9h360.9c26.2,0,47.4-21.2,47.4-47.4V387.6V217.7L433.3,46.2z"/>
	</defs>
	<clipPath id="SVGID_00000044884564421690870710000015457197019654262929_">
		<use xlink:href="#SVGID_00000053521656323761832850000003847636208086562706_"  style="overflow:visible;"/>
	</clipPath>
	<path style="clip-path:url(#SVGID_00000044884564421690870710000015457197019654262929_);fill:#ACACAC;fill-opacity:0.1;" d="
		M613,430.5H471.7l-76-76h-74.9l-28-28h-140l-27.3-27.2l1.6-1.6l26.6,26.6h140l28,28h74.9l76,76H613V430.5z M620.7,414.4H484.1
		l-79.7-79.7h-80.1l-23.4-23.4H165.1l-10.6-10.6l-1.6,1.6l11.3,11.3h135.8l23.4,23.4h80.1l79.7,79.7h137.5V414.4z M170.6,214.3h71.3
		l21.2,21.3h133.2l63-63h30L627.7,34.2l-1.6-1.6L488.3,170.3h-30l-63,63H264.1L242.9,212h-73.2l-28,28h-31l-25.8-25.8l-1.6,1.6
		l26.5,26.5h32.9L170.6,214.3z M618.1,379.4l-71.6-71.6v-45l-24.9-24.9v-39.1l30.8-30.8v-38.7l27.4-27.4h47.1v-2.3h-48l-28.8,28.8
		V167l-30.8,30.8v41l24.9,24.9v45l72.3,72.3L618.1,379.4z M533.4,329v-64.4h-2.3V328l-20.6,20.6h-57l-34.9-34.9h-54.4v2.3h53.5
		l34.9,34.9h58.9L533.4,329z M513.9,317.8h-60.3l-45.1-45.1v-23.4l43.4-43.4H478l19.5,19.5v56.8h2.3v-57.8L479,203.7h-28l-44.8,44.8
		v25.3l46.4,46.4h61.3V317.8z M487.5,247.4l-29.7-29.7l-1.6,1.6l29.7,29.7L487.5,247.4z M502.4,306.4h-40.5l-12.6-12.6v-29.9
		l19.2-19.2l-1.6-1.6L447,262.9v31.8l14,14h41.4V306.4z M48.1,390.8h31.5l34.2-34.2h118.9v-2.3H112.8l-34.2,34.2H47.2l-26.3,26.3
		h-137.1l-20.3-20.3h-26.4l-41.3-41.3h-80.5v2.3h79.6l41.3,41.3h26.4l20.3,20.3H21.9L48.1,390.8z M138.6,222.4H114l-41.3-41.3H46.3
		L26,160.8h-139l-26.3,26.3h-31.5l-34.2,34.2h-118.9v2.3h119.9l34.2-34.2h31.5l26.3-26.3H25.1l20.3,20.3h26.4l41.3,41.3h25.6V222.4z
		 M627.8,273.4l-37.9-40.6h-29L542,213.9h-13.2v2.3H541l18.9,18.9h28.9l37.2,39.9L627.8,273.4z M586.1,321.7L563.5,299v-30.3
		L526,231.2v-19.9l55.6-55.6h31.6v-2.3h-32.5l-56.9,56.9v21.8l37.5,37.5V300l23.3,23.3L586.1,321.7z M621.5,296.5l-30.6-30.6v-18.1
		l-8.5-8.5h-29.7l-11.7-11.7l-1.6,1.6l12.3,12.3h29.7l7.2,7.2v18.1l31.3,31.3L621.5,296.5z M609.2,238.4L592.8,222h-28.4l-12-12
		v-13.6l34.1-34.1l4.3,4.3v34.7l26.9,26.9l1.6-1.6l-26.2-26.2v-34.7l-6.6-6.6l-36.4,36.4v15.5l13.4,13.4h28.4l15.7,15.7L609.2,238.4
		z M414.1,303.1L380.9,270h-51l-17.6,17.6h-44.2l-64.8-64.8h-33l-43.1,43.1H84.1v2.3h44l43.1-43.1h31.1l64.8,64.8h46.1l17.6-17.6
		H380l32.5,32.5L414.1,303.1z M180.8,233.9h18.5v-2.3h-19.5L134,277.4H84.1v2.3H135L180.8,233.9z M241,289l-43.9-43.9h-16.4
		L156.8,269l1.6,1.6l23.2-23.2h14.5l43.2,43.2L241,289z M245,277.7l-33.5-33.5l-1.6,1.6l33.5,33.5L245,277.7z M320.8,263.6l-1.6-1.6
		l-15.8,15.8h-26.9v2.3h27.9L320.8,263.6z M298.3,266.3h-30.3l-39.8-39.8l-1.6,1.6l40.5,40.5h31.2V266.3z M387.2,256.6h-29.2
		l-9.5-9.5h-80.9v2.3h80l9.5,9.5h30.1V256.6z M517.6,254.7l-6.9-6.9v-54.9l26.4-26.4v-21.9h-2.3v21l-26.4,26.4v56.8l6.9,6.9v34.2
		h2.3V254.7z M505.5,180.3h-39.1v2.3h39.1V180.3z M453.3,192.6h35.3l12.9,12.9l1.6-1.6l-13.6-13.6h-37.2l-26,26l1.6,1.6L453.3,192.6
		z M593.9,294l-15.8-15.8v-24.6h-2.3v25.6l15.8,15.8v42.2h2.3V294z M576.3,369.3L552,345.1l-1.6,1.6l24.2,24.2L576.3,369.3z
		 M569.7,345.1l-20.6-20.6h-9v2.3h8l19.9,19.9L569.7,345.1z M563,397.9h-78l-70.2-70.2l-1.6,1.6l70.9,70.9h79V397.9z M616,388.7
		h-39.2l-13.4-13.4h-27.8l-10.4-10.4h-31.3l-11.5,11.5l1.6,1.6l10.8-10.8h29.5l10.4,10.4h27.8l13.4,13.4H616V388.7z M338.2,288.1
		h33.3l10.1,10.1l1.6-1.6l-10.7-10.7h-35.2l-13.5,13.5h-42v2.3h42.9L338.2,288.1z M197.8,264.6h-2.3v30.9h2.3V264.6z M189.8,264.5
		h-2.3v30.9h2.3V264.5z M181.9,264.4h-2.3v30.9h2.3V264.4z M-198.6,393.5l-1.6-1.6l-40.4,40.4l1.6,1.6L-198.6,393.5z M-207.5,384.4
		l-1.6-1.6l-40.4,40.4l1.6,1.6L-207.5,384.4z M-216.3,375.3l-1.6-1.6l-40.4,40.4l1.6,1.6L-216.3,375.3z M465.6,144.3l-1.6-1.6
		l-58.1,58.1H378l-36-36h-60.7l-22.1,22.1h-57.4l-51.2-51.2H95l-22.4-22.4H-33.9v2.3H71.7L94,138.1h55.6l51.2,51.2h59.3l22.1-22.1
		H341l36,36h29.8L465.6,144.3z M348.1,61.7h81.8l40.6-40.6l-1.6-1.6L429,59.4h-81.8l-98.4,98.4h-49l-37.5-37.5H99.6L80,100.7H-79
		v2.3H79.1l19.6,19.6h62.7l37.5,37.5h50.9L348.1,61.7z M343.2,47.4h77.7L454.3,14l-1.6-1.6L420,45.1h-77.7l-95,95h-44.2l-33-33
		h-65.2L84.8,87.1h-206.3v2.3H83.9l20.1,20.1h65.2l33,33h46.1L343.2,47.4z M-171.8,171.8V105l30.5-30.5h229l18.1,18.1h67.4l29,29h46
		L355.7,14l-1.6-1.6L247.2,119.3h-44.1l-29-29h-67.4L88.6,72.2h-230.9l-31.8,31.8v66.8l-38.3,38.3h-83.7v2.3h84.7L-171.8,171.8z
		 M-242.5,145.6v-41h-2.3v40.1l-50.8,50.8l1.6,1.6L-242.5,145.6z M-271.7,140.3V96.2l35.9-35.9h42.5V58h-43.4l-37.2,37.2v44.1
		l-21.9,21.9l1.6,1.6L-271.7,140.3z M-250.5,61V43.6L-221,14l-1.6-1.6l-30.2,30.2v17.5l-10.7,10.7h-21.1v2.3h22L-250.5,61z
		 M-266,38.3l27.4-27.4l-1.6-1.6l-28.1,28.1v20h2.3V38.3z M-162.3,109.5l18.3-18.3h10.3l11.8,11.8h22.9l12.7,12.7h36.3l15,15h97.3
		v-2.3h-96.4l-15-15h-36.3l-12.7-12.7H-121l-11.8-11.8h-12.2l-19.7,19.7v59.9h2.3V109.5z M-100.9,110.7H-121l-14.9-14.9l-1.6,1.6
		L-122,113h21V110.7z M-52.1,119.5h-74.5l-16.8-16.8l-1.6,1.6l17.5,17.5h75.4V119.5z M178.6,185.4l-29.2-29.2H81.8L66.7,141H19.1
		v2.3h46.6l15.1,15.1h67.5L177,187L178.6,185.4z M490.3,155v-11.2l20-20V98.9l21.1-21.1V15.4h-2.3v61.4L508,98v24.9l-20,20V154
		l-6.5,6.5h-16.7v2.3h17.6L490.3,155z M543.2,85.7V52.8h-2.3v31.9l-21.2,21.2l1.6,1.6L543.2,85.7z M581.6,40.5h28v-2.3h-29
		l-13.4,13.4h-15.5l-9.8-9.8l-1.6,1.6l10.5,10.4h17.4L581.6,40.5z M588.7,18.2l-1.6-1.6l-23,23h-12.9v2.3h13.8L588.7,18.2z
		 M593.7,52l-1.6-1.6L531.4,111l1.6,1.6L593.7,52z M550.6,67.2l6.2-6.2h16.1v-2.3h-17.1l-7.5,7.5v17.1h2.3V67.2z M555.3,83.8v-9.7
		l9.2-9.2l-1.6-1.6l-9.8,9.8v9.7l-19.3,19.3l1.6,1.6L555.3,83.8z M608.1,93h-17l-4.9-4.9v-5.9l25.1-25.1l-1.6-1.6l-25.8,25.8v7.8
		l6.2,6.2h17.9V93z M608.5,90.8h-13.2l-2.6-2.6v-5.5l17.8-17.8l-1.6-1.6l-18.5,18.5v7.4l4,4h14.2V90.8z M610,86.9l-9.5-9.5l-8.7,8.7
		H605v-1l3.4,3.4L610,86.9z M600.4,80.6l3.2,3.2h-6.4L600.4,80.6z M427,535.9l35.5-35.5h70.2l37.2-37.2h63.6v-2.3h-64.5l-37.2,37.2
		h-70.2l-36.8,36.8v60.2h2.3V535.9z M437.9,469.3h43.8l21.2-21.2h37.8v-2.3h-38.7l-21.2,21.2h-43.8l-28,28h-56.6l-23.9-23.9v-29.9
		l-26.1-26.1V374l-34.1-34.1H125.7l-16.3-16.3H84.1v2.3h24.3l16.3,16.3h142.5l32.8,32.8v41.1l26.1,26.1V472l25.3,25.3h58.5
		L437.9,469.3z M426.7,454.4l-1.6-1.6l-22.7,22.7h-30l-21.5-21.5v-25.1l-27-27v-26l-16.5-16.5l-1.6,1.6l15.8,15.8v26l27,27v25.1
		l22.9,22.9h31.9L426.7,454.4z M486.7,439.4H458l-70-70l-1.6,1.6l70.6,70.6h29.7V439.4z M475.6,451.1h-24.1l-25.9-25.9h-31.5
		l-19.9,19.9l1.6,1.6l19.2-19.2h29.6l25.9,25.9h25V451.1z M411.7,441.2l-1.6-1.6l-15.8,15.8h-22.5l-9.5-9.5v-19.9l-21.8-21.8v-25.3
		l-8.5-8.5l-1.6,1.6l7.8,7.8v25.3l21.8,21.8v19.9l10.8,10.8h24.4L411.7,441.2z M408.1,406.8l-35.5-35.5L371,373l35.5,35.5
		L408.1,406.8z M389.6,406.8l-35.5-35.5l-1.6,1.6l35.5,35.5L389.6,406.8z M416.4,414h-44.8l-19-19l-1.6,1.6l19.7,19.7h45.8V414z
		 M385,423.8l-1.6-1.6l-14.5,14.5l1.6,1.6L385,423.8z M376.6,419.8l-1.6-1.6l-7.4,7.4l1.6,1.6L376.6,419.8z M222.1,518.6v-57.5
		l-30.3-30.3h-73.9l-20.7,20.7H47.9l-13.2-13.2H-73.1l-18.8,18.8h-60l-10.5-10.5v-14.8l13.6-13.6l-1.6-1.6l-14.3,14.3v16.7
		l11.8,11.8H-91l18.8-18.8H33.7l13.2,13.2h51.3l20.7-20.7h72l28.9,28.9v55.6l-23.6,23.6H87.8l-17.5-17.5H8.5l-49.2-49.2h-81.7
		L-150,502h-42.8l-12.4-12.4v-36.9l48-48h11.7l23.7,23.7H26l27.9-27.9h31.6l29-29h126.7l22.7-22.7l-1.6-1.6l-22,22H113.5l-29,29
		H52.9l-27.9,27.9H-121l-23.7-23.7h-13.5l-49.3,49.3v38.8l13.7,13.7h44.7l27.5-27.5h79.9L7.5,526h61.7l17.5,17.5h110.3L222.1,518.6z
		 M209.3,464.9l-23.7-23.7h-59.8l-19.7,19.7H41.9l-12.2-12.2h-96.6v2.3h95.7L41,463.2h66.2l19.7-19.7h57.9l22.3,22.3v45.1h2.3V464.9
		z M199.8,506.3v-34.3l-13.5-13.5h-25.2l-8.2-8.2h-21.7l-21.7,21.7H40.4l-7.9-7.9H15.2L4.3,474.9h-18.8L-31.5,458h-35.4v2.3h34.5
		l16.9,16.9H5.2l10.9-10.9h15.4l7.9,7.9h71.1l21.7-21.7H152l8.2,8.2h25.2l12.1,12.1v32.4l-20.8,20.8h-47l-16.1-16.1V491l28-28H152
		l15.4,15.4h18.4v-2.3h-17.5l-15.4-15.4h-12.3l-29.3,29.3v20.8l17.5,17.5h48.9L199.8,506.3z M38.4,374.3h38.9l22.6-22.6l-1.6-1.6
		L76.3,372H37.4l-22.3,22.3H-91.6l-20.1-20.1h-25.2l-48.6-48.6h-23.1L-219,336h-88.6v2.3h89.6l10.4-10.4h21.2l48.6,48.6h25.2
		l20.1,20.1H16.1L38.4,374.3z M613.1,560.8l-1.6-1.6L584,586.5l1.6,1.6L613.1,560.8z M572.7,584.5v-9.3l12.6-12.6h9.6l13.9-13.9
		l-1.6-1.6L594,560.2h-9.6l-14,14v9.3l-16,16l1.6,1.6L572.7,584.5z M590,568.6l-1.6-1.6l-10.7,10.7l1.6,1.6L590,568.6z M454.8,570.7
		l11.1-11.1v-32.3l19.7-19.7h23.2l26.7,26.7h32.4l15.9-15.9h14.4l17.9,17.9l1.6-1.6L599.1,516h-16.3L567,531.9h-30.5l-26.7-26.7
		h-25.1l-21.1,21.1v32.3l-11.1,11.1v25.4h2.3V570.7z M551.1,568.6v-18.4l-8.4-8.4h-15l-26.1-26.1l-1.6,1.6l26.8,26.8h15l7.1,7.1
		v16.5l-22.4,22.4l1.6,1.6L551.1,568.6z M595.4,536.2l-1.6-1.6l-14.6,14.6h-17.3v2.3h18.3L595.4,536.2z M474.1,561.5v-31.9
		l10.5-10.5h7.4l16.7,16.7v21.8l8.4,8.4h15l7.7-7.7l-1.6-1.6l-7.1,7.1h-13.1l-7-7v-21.8l-18.1-18.1h-9.3l-11.8,11.8v31.9l-13.1,13.1
		l1.6,1.6L474.1,561.5z M501.4,543.7l-12.6-12.6h-8.5v2.3h7.6l11.9,11.9L501.4,543.7z M498.3,531.5l-9.4-9.4l-1.6,1.6l9.4,9.4
		L498.3,531.5z M510,567.2l-1.6-1.6l-13.7,13.7l1.6,1.6L510,567.2z M500.5,567.2l-1.6-1.6l-13.7,13.7l1.6,1.6L500.5,567.2z
		 M491,567.2l-1.6-1.6l-13.7,13.7l1.6,1.6L491,567.2z M481.5,567.2l-1.6-1.6l-13.7,13.7l1.6,1.6L481.5,567.2z M232.2-9.4l-1.6-1.6
		l-69.9,69.9H62v2.3h99.6L232.2-9.4z M19.6,48.9h71.6v-2.3H18.6L5.1,60.2h-88.5v2.3H6L19.6,48.9z M-195.9,151V94l45.9-45.9h95.8
		l31.8-31.8l-1.6-1.6l-31.2,31.2h-95.8l-47.3,47.3v57l-43.2,43.2l1.6,1.6L-195.9,151z M-227.3,81.5h-2.3v69h2.3V81.5z M-210.7,87.7
		h-2.3v47.5h2.3V87.7z M273.7,53.6l-1.6-1.6l-35.9,35.9h-39.1l-18.3-18.3l-1.6,1.6l19,19h41L273.7,53.6z M165.9,70.7h-51.3V73h51.3
		V70.7z M229.2,66.3l-21.6-21.6l-1.6,1.6l21.6,21.6L229.2,66.3z M207.2,71.9l-16.4-16.4l-1.6,1.6l16.4,16.4L207.2,71.9z M266.2,81.3
		l-1.6-1.6l-20.9,20.9h-35.8v2.3h36.7L266.2,81.3z M360.8,199l-22.6-22.6h-46.1v2.3h45.2l21.9,21.9L360.8,199z M287.4,188.3h45.8
		l7.6,7.6l1.6-1.6l-8.2-8.2h-47.7l-19.7,19.7l1.6,1.6L287.4,188.3z M352.3,213.8h41.8v-2.3h-42.7l-11.2,11.2h-55.3v2.3h56.3
		L352.3,213.8z M336.3,208.7l-15.1-15.1l-1.6,1.6l15.1,15.1L336.3,208.7z M323.9,208.7l-15.1-15.1l-1.6,1.6l15.1,15.1L323.9,208.7z
		 M311.5,208.7l-15.1-15.1l-1.6,1.6l15.1,15.1L311.5,208.7z M534.4,478.1H503v2.3h31.4V478.1z M534.3,469.3h-31.4v2.3h31.4V469.3z
		 M534.2,460.4h-31.4v2.3h31.4V460.4z M159.4,516l-22.2-22.2l-1.6,1.6l22.2,22.2L159.4,516z M165.6,509.7l-22.2-22.2l-1.6,1.6
		l22.2,22.2L165.6,509.7z M171.7,503.3l-22.2-22.2l-1.6,1.6l22.2,22.2L171.7,503.3z M403.4,137.7v-30.5l16.4-16.4h54.6v-2.3h-55.5
		l-17.7,17.7v30.5l-18.6,18.6h-22l-18.6-18.6h-37.6v2.3H341l18.6,18.6h23.9L403.4,137.7z M428.8,145v-17l15-15h30.5v-2.3h-31.4
		l-16.4,16.4v17l-30.8,30.8h-24.2v2.3h25.1L428.8,145z M434.7,98.7l-1.6-1.6l-20.1,20.1l1.6,1.6L434.7,98.7z M394.9,123.9l-1.6-1.6
		l-15.5,15.5h-22.4v2.3h23.4L394.9,123.9z M515,69.2V47.9h-2.3v20.3l-15.3,15.2l1.6,1.6L515,69.2z M338.4,93.2h40.6l19.3-19.3h74.1
		l18.9-18.9h11.1v-2.3h-12.1l-18.9,18.9h-74.1L378,90.9h-40.6L276,152.3l1.6,1.6L338.4,93.2z M179.8,574.9H74.3l-22.4-22.4H-3.7
		l-51.2-51.2h-59.3l-22.1,22.1h-58.8l-36-36h-29.8l-58.8,58.8l1.6,1.6l58.1-58.1h27.9l36,36h60.7l22.1-22.1h57.4l51.2,51.2h55.6
		l22.4,22.4h106.5V574.9z M-255.2,584.3v-30.5l18.6-18.6h22l18.6,18.6h37.6v-2.3h-36.7l-18.6-18.6h-23.9l-19.9,19.9v30.5l-16.4,16.4
		h-54.6v2.3h55.5L-255.2,584.3z M-280.6,563.5v-17l30.8-30.8h24.2v-2.3h-25.1l-32.2,32.2v17l-15,15h-30.5v2.3h31.4L-280.6,563.5z
		 M-325.5,619h74.1l19.3-19.3h40.6l61.4-61.4l-1.6-1.6l-60.7,60.7H-233l-19.3,19.3h-74.1l-18.9,18.9h-11.1v2.3h12.1L-325.5,619z
		 M379.7,114l-9.5-9.5h-30.1l-17.8,17.8l1.6,1.6l17.1-17.1h28.2l8.2,8.2v14.6h2.3V114z M365.7,126.1l-10.3-10.3h-13.7v2.3h12.8
		l9.6,9.6L365.7,126.1z M373,596.7l-85.2-85.2v-61.2l-49.2-49.2H125.9l-20,20H62.2v2.3h44.6l20-20h110.8l47.9,47.9v61.2l85.9,85.9
		L373,596.7z M287.5,388.1H184.7v2.3h102.8V388.1z M161.1,388.1h-39.1v2.3h39.1V388.1z M224,547.3l30.2-30.2v-61.7L211.8,413
		l-1.6,1.6l41.7,41.7v59.8l-30.2,30.2v71.5h2.3V547.3z M272.9,461.8h-2.3v98.2h2.3V461.8z M242.3,567.8l21.8-21.8v-17.5h-2.3v16.5
		L240,566.9v41h2.3V567.8z M346.2,600.5l-51.6-51.6l-1.6,1.6l51.6,51.6L346.2,600.5z M324.2,597L298.1,571h-40.5v2.3h39.5l25.4,25.4
		L324.2,597z M406.1,551.1v-22.9l38-38l-1.6-1.6l-38.7,38.7v22.9l-11.8,11.8h-20.6l-43.5-43.5v-19.2L311,482.3v-42.2l-33-33
		l-1.6,1.6l32.3,32.3v42.2l17.1,17.1v19.2l44.8,44.8H393L406.1,551.1z M388.3,540.1v-31.6h-2.3v30.7l-8.6,8.6l1.6,1.6L388.3,540.1z
		 M369.2,525.3l-22.4-22.4l-1.6,1.6l22.4,22.4L369.2,525.3z M578.7,483.1h62.8v-2.3h-63.7l-28.9,28.9l1.6,1.6L578.7,483.1z
		 M-86.7,558.4v-19.3l-13.9-13.9v-10.3l4.3-4.3h29l21.5,21.5v15.7l-17.4,17.4h-15.1v2.3h16.1l18.7-18.7v-17.6l-22.8-22.8h-30.9
		l-5.6,5.6v12.2l13.9,13.9v17.4l-8.8,8.8h-23.6v2.3h24.6L-86.7,558.4z M-56,542.5v-12.7l-11.9-11.9h-20.1v2.3h19.2l10.6,10.6v10.8
		l-9.4,9.4l1.6,1.6L-56,542.5z M-75.5,528.6h-2.3v15.9h2.3V528.6z M77,600l-32.2-32.2H20.4l-8.4,8.4h-46v2.3H13l8.4-8.4h22.5
		l31.5,31.5L77,600z M-29.7,554.5h10.1l8.8,8.8h42.5V561H-9.8l-8.8-8.8h-12l-51.4,51.4l1.6,1.6L-29.7,554.5z M202.4,572.1L183,552.6
		H82.4l-15.7-15.7H2.8l-51-51h-66.5v2.3h65.5l51,51h63.9l15.7,15.7H182l18.1,18.1v27.8h2.3V572.1z M-132.2,502.6l-1.6-1.6
		l-11.9,11.9h-46.1v2.3h47L-132.2,502.6z M579.4,442.4l5.3-5.3h53.9v-2.3h-54.9l-6.6,6.6v12.4h2.3V442.4z M584.7,591.9
		c2.2,0,4-1.8,4-4c0-2.2-1.8-4-4-4s-4,1.8-4,4C580.8,590.1,582.5,591.9,584.7,591.9z M612.4,563.8c2.2,0,4-1.8,4-4c0-2.2-1.8-4-4-4
		s-4,1.8-4,4C608.4,562,610.2,563.8,612.4,563.8z M607.9,551.9c2.2,0,4-1.8,4-4s-1.8-4-4-4s-4,1.8-4,4S605.7,551.9,607.9,551.9z
		 M589.4,571.8c2.2,0,4-1.8,4-4c0-2.2-1.8-4-4-4s-4,1.8-4,4C585.4,570,587.2,571.8,589.4,571.8z M578.3,582.4c2.2,0,4-1.8,4-4
		c0-2.2-1.8-4-4-4c-2.2,0-4,1.8-4,4C574.3,580.6,576.1,582.4,578.3,582.4z M555.1,604.3c2.2,0,4-1.8,4-4s-1.8-4-4-4
		c-2.2,0-4,1.8-4,4S552.9,604.3,555.1,604.3z M526.8,594.8c2.2,0,4-1.8,4-4c0-2.2-1.8-4-4-4s-4,1.8-4,4
		C522.8,593,524.6,594.8,526.8,594.8z M538.3,561.6c2.2,0,4-1.8,4-4c0-2.2-1.8-4-4-4c-2.2,0-4,1.8-4,4
		C534.3,559.8,536.1,561.6,538.3,561.6z M561.1,553.6c2.2,0,4-1.8,4-4c0-2.2-1.8-4-4-4c-2.2,0-4,1.8-4,4
		C557.1,551.9,558.9,553.6,561.1,553.6z M593.4,539.1c2.2,0,4-1.8,4-4s-1.8-4-4-4s-4,1.8-4,4S591.2,539.1,593.4,539.1z M617,539.1
		c2.2,0,4-1.8,4-4s-1.8-4-4-4c-2.2,0-4,1.8-4,4S614.8,539.1,617,539.1z M549.8,514.3c2.2,0,4-1.8,4-4s-1.8-4-4-4c-2.2,0-4,1.8-4,4
		S547.6,514.3,549.8,514.3z M508,570.2c2.2,0,4-1.8,4-4c0-2.2-1.8-4-4-4c-2.2,0-4,1.8-4,4C504,568.4,505.8,570.2,508,570.2z
		 M495.4,583.9c2.2,0,4-1.8,4-4c0-2.2-1.8-4-4-4c-2.2,0-4,1.8-4,4C491.4,582.1,493.2,583.9,495.4,583.9z M499.4,570.4
		c2.2,0,4-1.8,4-4c0-2.2-1.8-4-4-4c-2.2,0-4,1.8-4,4C495.4,568.7,497.2,570.4,499.4,570.4z M486.4,583.9c2.2,0,4-1.8,4-4
		c0-2.2-1.8-4-4-4c-2.2,0-4,1.8-4,4C482.4,582.1,484.2,583.9,486.4,583.9z M476.6,583.9c2.2,0,4-1.8,4-4c0-2.2-1.8-4-4-4s-4,1.8-4,4
		C472.6,582.1,474.4,583.9,476.6,583.9z M466.9,583.9c2.2,0,4-1.8,4-4c0-2.2-1.8-4-4-4c-2.2,0-4,1.8-4,4
		C462.9,582.1,464.7,583.9,466.9,583.9z M490.3,570.2c2.2,0,4-1.8,4-4c0-2.2-1.8-4-4-4c-2.2,0-4,1.8-4,4
		C486.4,568.4,488.1,570.2,490.3,570.2z M480.6,570.2c2.2,0,4-1.8,4-4c0-2.2-1.8-4-4-4c-2.2,0-4,1.8-4,4
		C476.6,568.4,478.4,570.2,480.6,570.2z M480.2,536.2c2.2,0,4-1.8,4-4s-1.8-4-4-4c-2.2,0-4,1.8-4,4S478,536.2,480.2,536.2z
		 M500.3,548.6c2.2,0,4-1.8,4-4s-1.8-4-4-4c-2.2,0-4,1.8-4,4S498.1,548.6,500.3,548.6z M497.4,536.6c2.2,0,4-1.8,4-4s-1.8-4-4-4
		c-2.2,0-4,1.8-4,4S495.2,536.6,497.4,536.6z M488.1,527.1c2.2,0,4-1.8,4-4s-1.8-4-4-4c-2.2,0-4,1.8-4,4S485.9,527.1,488.1,527.1z
		 M500.3,520.5c2.2,0,4-1.8,4-4c0-2.2-1.8-4-4-4c-2.2,0-4,1.8-4,4C496.3,518.7,498.1,520.5,500.3,520.5z M453.6,598.7
		c2.2,0,4-1.8,4-4c0-2.2-1.8-4-4-4c-2.2,0-4,1.8-4,4C449.7,597,451.4,598.7,453.6,598.7z M459.4,578.4c2.2,0,4-1.8,4-4
		c0-2.2-1.8-4-4-4c-2.2,0-4,1.8-4,4C455.4,576.6,457.2,578.4,459.4,578.4z M425.8,598.7c2.2,0,4-1.8,4-4c0-2.2-1.8-4-4-4
		c-2.2,0-4,1.8-4,4C421.8,597,423.6,598.7,425.8,598.7z M443.5,493.5c2.2,0,4-1.8,4-4s-1.8-4-4-4c-2.2,0-4,1.8-4,4
		S441.3,493.5,443.5,493.5z M378.7,552.5c2.2,0,4-1.8,4-4s-1.8-4-4-4c-2.2,0-4,1.8-4,4S376.5,552.5,378.7,552.5z M387.8,512.3
		c2.2,0,4-1.8,4-4c0-2.2-1.8-4-4-4c-2.2,0-4,1.8-4,4C383.8,510.5,385.6,512.3,387.8,512.3z M368.5,530.2c2.2,0,4-1.8,4-4s-1.8-4-4-4
		c-2.2,0-4,1.8-4,4S366.3,530.2,368.5,530.2z M346.6,508.3c2.2,0,4-1.8,4-4c0-2.2-1.8-4-4-4c-2.2,0-4,1.8-4,4
		C342.7,506.5,344.4,508.3,346.6,508.3z M293.8,553.6c2.2,0,4-1.8,4-4c0-2.2-1.8-4-4-4c-2.2,0-4,1.8-4,4
		C289.8,551.9,291.6,553.6,293.8,553.6z M271.7,563.8c2.2,0,4-1.8,4-4c0-2.2-1.8-4-4-4c-2.2,0-4,1.8-4,4
		C267.7,562,269.5,563.8,271.7,563.8z M257.5,576c2.2,0,4-1.8,4-4c0-2.2-1.8-4-4-4c-2.2,0-4,1.8-4,4
		C253.6,574.2,255.3,576,257.5,576z M241.2,611.8c2.2,0,4-1.8,4-4s-1.8-4-4-4s-4,1.8-4,4S239,611.8,241.2,611.8z M222.8,621.7
		c2.2,0,4-1.8,4-4s-1.8-4-4-4s-4,1.8-4,4S220.6,621.7,222.8,621.7z M201.4,603.8c2.2,0,4-1.8,4-4s-1.8-4-4-4s-4,1.8-4,4
		S199.2,603.8,201.4,603.8z M179.7,579.5c2.2,0,4-1.8,4-4c0-2.2-1.8-4-4-4s-4,1.8-4,4C175.8,577.7,177.5,579.5,179.7,579.5z
		 M158.5,520.7c2.2,0,4-1.8,4-4c0-2.2-1.8-4-4-4s-4,1.8-4,4C154.5,518.9,156.3,520.7,158.5,520.7z M164.7,514.7c2.2,0,4-1.8,4-4
		s-1.8-4-4-4s-4,1.8-4,4S162.5,514.7,164.7,514.7z M170.9,508.8c2.2,0,4-1.8,4-4c0-2.2-1.8-4-4-4c-2.2,0-4,1.8-4,4
		C166.9,507,168.7,508.8,170.9,508.8z M136.4,498.6c2.2,0,4-1.8,4-4s-1.8-4-4-4c-2.2,0-4,1.8-4,4S134.2,498.6,136.4,498.6z
		 M31.6,566.2c2.2,0,4-1.8,4-4c0-2.2-1.8-4-4-4s-4,1.8-4,4C27.6,564.5,29.4,566.2,31.6,566.2z M76.3,604.7c2.2,0,4-1.8,4-4
		s-1.8-4-4-4c-2.2,0-4,1.8-4,4S74.1,604.7,76.3,604.7z M-34,581.3c2.2,0,4-1.8,4-4c0-2.2-1.8-4-4-4s-4,1.8-4,4
		C-38,579.5-36.2,581.3-34,581.3z M-78.3,570.2c2.2,0,4-1.8,4-4c0-2.2-1.8-4-4-4c-2.2,0-4,1.8-4,4
		C-82.2,568.4-80.5,570.2-78.3,570.2z M-81.4,608.2c2.2,0,4-1.8,4-4s-1.8-4-4-4c-2.2,0-4,1.8-4,4S-83.6,608.2-81.4,608.2z
		 M-121.4,570.9c2.2,0,4-1.8,4-4c0-2.2-1.8-4-4-4c-2.2,0-4,1.8-4,4C-125.3,569.1-123.6,570.9-121.4,570.9z M-130.9,541.5
		c2.2,0,4-1.8,4-4s-1.8-4-4-4s-4,1.8-4,4S-133.1,541.5-130.9,541.5z M-159.2,556.3c2.2,0,4-1.8,4-4c0-2.2-1.8-4-4-4s-4,1.8-4,4
		C-163.1,554.5-161.4,556.3-159.2,556.3z M-225.7,518.5c2.2,0,4-1.8,4-4c0-2.2-1.8-4-4-4c-2.2,0-4,1.8-4,4
		C-229.7,516.7-227.9,518.5-225.7,518.5z M-239.9,437.1c2.2,0,4-1.8,4-4c0-2.2-1.8-4-4-4c-2.2,0-4,1.8-4,4
		C-243.8,435.4-242.1,437.1-239.9,437.1z M-248.1,428.4c2.2,0,4-1.8,4-4c0-2.2-1.8-4-4-4c-2.2,0-4,1.8-4,4
		C-252.1,426.6-250.3,428.4-248.1,428.4z M-257.4,419.3c2.2,0,4-1.8,4-4s-1.8-4-4-4c-2.2,0-4,1.8-4,4S-259.6,419.3-257.4,419.3z
		 M-200.5,397.1c2.2,0,4-1.8,4-4c0-2.2-1.8-4-4-4c-2.2,0-4,1.8-4,4C-204.5,395.3-202.7,397.1-200.5,397.1z M-208.8,388.4
		c2.2,0,4-1.8,4-4c0-2.2-1.8-4-4-4c-2.2,0-4,1.8-4,4C-212.8,386.6-211,388.4-208.8,388.4z M-218.1,379.3c2.2,0,4-1.8,4-4s-1.8-4-4-4
		s-4,1.8-4,4S-220.3,379.3-218.1,379.3z M-284.7,358.2c2.2,0,4-1.8,4-4c0-2.2-1.8-4-4-4c-2.2,0-4,1.8-4,4
		C-288.7,356.4-286.9,358.2-284.7,358.2z M-307.7,341c2.2,0,4-1.8,4-4s-1.8-4-4-4c-2.2,0-4,1.8-4,4S-309.9,341-307.7,341z
		 M-149.2,421.4c2.2,0,4-1.8,4-4s-1.8-4-4-4c-2.2,0-4,1.8-4,4S-151.4,421.4-149.2,421.4z M-114.5,491.1c2.2,0,4-1.8,4-4
		c0-2.2-1.8-4-4-4c-2.2,0-4,1.8-4,4C-118.5,489.3-116.7,491.1-114.5,491.1z M-66.8,463.9c2.2,0,4-1.8,4-4c0-2.2-1.8-4-4-4
		c-2.2,0-4,1.8-4,4C-70.7,462.1-69,463.9-66.8,463.9z M-67,453.7c2.2,0,4-1.8,4-4s-1.8-4-4-4c-2.2,0-4,1.8-4,4S-69.2,453.7-67,453.7
		z M62.3,426.1c2.2,0,4-1.8,4-4c0-2.2-1.8-4-4-4c-2.2,0-4,1.8-4,4C58.4,424.3,60.1,426.1,62.3,426.1z M121.8,393.1c2.2,0,4-1.8,4-4
		c0-2.2-1.8-4-4-4c-2.2,0-4,1.8-4,4C117.8,391.4,119.6,393.1,121.8,393.1z M161.2,393.1c2.2,0,4-1.8,4-4c0-2.2-1.8-4-4-4s-4,1.8-4,4
		C157.2,391.4,159,393.1,161.2,393.1z M184.8,393.1c2.2,0,4-1.8,4-4c0-2.2-1.8-4-4-4s-4,1.8-4,4
		C180.8,391.4,182.6,393.1,184.8,393.1z M286.7,393.4c2.2,0,4-1.8,4-4c0-2.2-1.8-4-4-4c-2.2,0-4,1.8-4,4
		C282.7,391.6,284.5,393.4,286.7,393.4z M277.2,411.9c2.2,0,4-1.8,4-4c0-2.2-1.8-4-4-4s-4,1.8-4,4
		C273.2,410.2,275,411.9,277.2,411.9z M210.9,417.9c2.2,0,4-1.8,4-4s-1.8-4-4-4c-2.2,0-4,1.8-4,4S208.7,417.9,210.9,417.9z
		 M263.1,352c2.2,0,4-1.8,4-4c0-2.2-1.8-4-4-4c-2.2,0-4,1.8-4,4C259.1,350.2,260.9,352,263.1,352z M231.9,359.1c2.2,0,4-1.8,4-4
		c0-2.2-1.8-4-4-4c-2.2,0-4,1.8-4,4C227.9,357.3,229.7,359.1,231.9,359.1z M99,355.1c2.2,0,4-1.8,4-4c0-2.2-1.8-4-4-4
		c-2.2,0-4,1.8-4,4C95.1,353.3,96.8,355.1,99,355.1z M84,328.6c2.2,0,4-1.8,4-4c0-2.2-1.8-4-4-4c-2.2,0-4,1.8-4,4
		C80,326.8,81.8,328.6,84,328.6z M126.2,301.8c2.2,0,4-1.8,4-4s-1.8-4-4-4c-2.2,0-4,1.8-4,4S124,301.8,126.2,301.8z M84,282.8
		c2.2,0,4-1.8,4-4c0-2.2-1.8-4-4-4c-2.2,0-4,1.8-4,4C80,281.1,81.8,282.8,84,282.8z M84.2,271.6c2.2,0,4-1.8,4-4c0-2.2-1.8-4-4-4
		c-2.2,0-4,1.8-4,4C80.2,269.8,82,271.6,84.2,271.6z M84.2,218.9c2.2,0,4-1.8,4-4s-1.8-4-4-4c-2.2,0-4,1.8-4,4S82,218.9,84.2,218.9z
		 M139.7,227.1c2.2,0,4-1.8,4-4c0-2.2-1.8-4-4-4s-4,1.8-4,4C135.7,225.3,137.5,227.1,139.7,227.1z M153.9,304.7c2.2,0,4-1.8,4-4
		c0-2.2-1.8-4-4-4c-2.2,0-4,1.8-4,4C149.9,302.9,151.7,304.7,153.9,304.7z M180.4,299.2c2.2,0,4-1.8,4-4s-1.8-4-4-4s-4,1.8-4,4
		S178.2,299.2,180.4,299.2z M188.6,299.2c2.2,0,4-1.8,4-4s-1.8-4-4-4c-2.2,0-4,1.8-4,4S186.4,299.2,188.6,299.2z M197,299.2
		c2.2,0,4-1.8,4-4s-1.8-4-4-4s-4,1.8-4,4S194.8,299.2,197,299.2z M180.4,268.9c2.2,0,4-1.8,4-4c0-2.2-1.8-4-4-4s-4,1.8-4,4
		C176.4,267.1,178.2,268.9,180.4,268.9z M188.6,268.9c2.2,0,4-1.8,4-4c0-2.2-1.8-4-4-4c-2.2,0-4,1.8-4,4
		C184.6,267.1,186.4,268.9,188.6,268.9z M197,268.9c2.2,0,4-1.8,4-4c0-2.2-1.8-4-4-4s-4,1.8-4,4C193,267.1,194.8,268.9,197,268.9z
		 M-191.7,518.1c2.2,0,4-1.8,4-4c0-2.2-1.8-4-4-4s-4,1.8-4,4C-195.6,516.3-193.9,518.1-191.7,518.1z M-133.5,506.3c2.2,0,4-1.8,4-4
		c0-2.2-1.8-4-4-4s-4,1.8-4,4C-137.5,504.6-135.7,506.3-133.5,506.3z M-66.8,555.6c2.2,0,4-1.8,4-4c0-2.2-1.8-4-4-4
		c-2.2,0-4,1.8-4,4C-70.7,553.9-69,555.6-66.8,555.6z M-76.7,548.3c2.2,0,4-1.8,4-4s-1.8-4-4-4c-2.2,0-4,1.8-4,4
		S-78.9,548.3-76.7,548.3z M-76.7,532.4c2.2,0,4-1.8,4-4s-1.8-4-4-4c-2.2,0-4,1.8-4,4S-78.9,532.4-76.7,532.4z M-88.2,522.9
		c2.2,0,4-1.8,4-4s-1.8-4-4-4c-2.2,0-4,1.8-4,4S-90.4,522.9-88.2,522.9z M142.6,492.6c2.2,0,4-1.8,4-4c0-2.2-1.8-4-4-4s-4,1.8-4,4
		C138.6,490.8,140.4,492.6,142.6,492.6z M148.8,486.7c2.2,0,4-1.8,4-4c0-2.2-1.8-4-4-4c-2.2,0-4,1.8-4,4
		C144.8,484.9,146.6,486.7,148.8,486.7z M208.2,514.1c2.2,0,4-1.8,4-4s-1.8-4-4-4c-2.2,0-4,1.8-4,4S206.1,514.1,208.2,514.1z
		 M185.7,481.1c2.2,0,4-1.8,4-4c0-2.2-1.8-4-4-4s-4,1.8-4,4C181.7,479.4,183.5,481.1,185.7,481.1z M323.4,601.8c2.2,0,4-1.8,4-4
		s-1.8-4-4-4s-4,1.8-4,4S321.2,601.8,323.4,601.8z M345.5,605.2c2.2,0,4-1.8,4-4s-1.8-4-4-4c-2.2,0-4,1.8-4,4
		S343.3,605.2,345.5,605.2z M372.5,601.4c2.2,0,4-1.8,4-4c0-2.2-1.8-4-4-4c-2.2,0-4,1.8-4,4C368.5,599.6,370.3,601.4,372.5,601.4z
		 M263.1,533.3c2.2,0,4-1.8,4-4s-1.8-4-4-4c-2.2,0-4,1.8-4,4S260.9,533.3,263.1,533.3z M271.7,465.4c2.2,0,4-1.8,4-4
		c0-2.2-1.8-4-4-4c-2.2,0-4,1.8-4,4C267.7,463.7,269.5,465.4,271.7,465.4z M502.9,483.1c2.2,0,4-1.8,4-4c0-2.2-1.8-4-4-4
		c-2.2,0-4,1.8-4,4C499,481.3,500.7,483.1,502.9,483.1z M502.9,474.3c2.2,0,4-1.8,4-4c0-2.2-1.8-4-4-4c-2.2,0-4,1.8-4,4
		C499,472.5,500.7,474.3,502.9,474.3z M502.7,465.4c2.2,0,4-1.8,4-4c0-2.2-1.8-4-4-4c-2.2,0-4,1.8-4,4
		C498.7,463.7,500.5,465.4,502.7,465.4z M534.3,465c2.2,0,4-1.8,4-4c0-2.2-1.8-4-4-4c-2.2,0-4,1.8-4,4
		C530.3,463.2,532.1,465,534.3,465z M540.7,451.1c2.2,0,4-1.8,4-4c0-2.2-1.8-4-4-4c-2.2,0-4,1.8-4,4
		C536.8,449.3,538.5,451.1,540.7,451.1z M578.3,457.5c2.2,0,4-1.8,4-4s-1.8-4-4-4c-2.2,0-4,1.8-4,4S576.1,457.5,578.3,457.5z
		 M486.1,444.4c2.2,0,4-1.8,4-4c0-2.2-1.8-4-4-4c-2.2,0-4,1.8-4,4C482.2,442.7,483.9,444.4,486.1,444.4z M474.9,456.2
		c2.2,0,4-1.8,4-4s-1.8-4-4-4s-4,1.8-4,4S472.7,456.2,474.9,456.2z M425.3,457.5c2.2,0,4-1.8,4-4s-1.8-4-4-4c-2.2,0-4,1.8-4,4
		S423.1,457.5,425.3,457.5z M410.1,444.4c2.2,0,4-1.8,4-4c0-2.2-1.8-4-4-4c-2.2,0-4,1.8-4,4C406.1,442.7,407.9,444.4,410.1,444.4z
		 M416.5,419c2.2,0,4-1.8,4-4s-1.8-4-4-4c-2.2,0-4,1.8-4,4S414.3,419,416.5,419z M407.2,411.5c2.2,0,4-1.8,4-4c0-2.2-1.8-4-4-4
		c-2.2,0-4,1.8-4,4C403.2,409.7,405,411.5,407.2,411.5z M387.8,411.5c2.2,0,4-1.8,4-4c0-2.2-1.8-4-4-4c-2.2,0-4,1.8-4,4
		C383.8,409.7,385.6,411.5,387.8,411.5z M353.3,376.3c2.2,0,4-1.8,4-4s-1.8-4-4-4c-2.2,0-4,1.8-4,4S351.1,376.3,353.3,376.3z
		 M372.1,376.3c2.2,0,4-1.8,4-4s-1.8-4-4-4c-2.2,0-4,1.8-4,4S369.9,376.3,372.1,376.3z M387.8,374.1c2.2,0,4-1.8,4-4
		c0-2.2-1.8-4-4-4c-2.2,0-4,1.8-4,4C383.8,372.4,385.6,374.1,387.8,374.1z M414.1,332.4c2.2,0,4-1.8,4-4c0-2.2-1.8-4-4-4
		c-2.2,0-4,1.8-4,4C410.1,330.6,411.9,332.4,414.1,332.4z M331.2,375.2c2.2,0,4-1.8,4-4s-1.8-4-4-4c-2.2,0-4,1.8-4,4
		S329,375.2,331.2,375.2z M306.6,364c2.2,0,4-1.8,4-4c0-2.2-1.8-4-4-4c-2.2,0-4,1.8-4,4C302.6,362.2,304.4,364,306.6,364z
		 M281.6,304.3c2.2,0,4-1.8,4-4c0-2.2-1.8-4-4-4s-4,1.8-4,4C277.7,302.5,279.4,304.3,281.6,304.3z M239.2,293.7c2.2,0,4-1.8,4-4
		c0-2.2-1.8-4-4-4s-4,1.8-4,4C235.2,291.9,237,293.7,239.2,293.7z M244.3,281.5c2.2,0,4-1.8,4-4c0-2.2-1.8-4-4-4s-4,1.8-4,4
		C240.3,279.7,242.1,281.5,244.3,281.5z M210.9,250.1c2.2,0,4-1.8,4-4c0-2.2-1.8-4-4-4c-2.2,0-4,1.8-4,4
		C206.9,248.3,208.7,250.1,210.9,250.1z M157.2,273.8c2.2,0,4-1.8,4-4c0-2.2-1.8-4-4-4s-4,1.8-4,4C153.2,272,155,273.8,157.2,273.8z
		 M199,236.6c2.2,0,4-1.8,4-4s-1.8-4-4-4s-4,1.8-4,4S196.8,236.6,199,236.6z M267.7,252.1c2.2,0,4-1.8,4-4c0-2.2-1.8-4-4-4
		c-2.2,0-4,1.8-4,4C263.7,250.3,265.5,252.1,267.7,252.1z M298.4,271.6c2.2,0,4-1.8,4-4c0-2.2-1.8-4-4-4c-2.2,0-4,1.8-4,4
		C294.5,269.8,296.2,271.6,298.4,271.6z M227.5,231.1c2.2,0,4-1.8,4-4c0-2.2-1.8-4-4-4c-2.2,0-4,1.8-4,4
		C223.5,229.3,225.3,231.1,227.5,231.1z M276.6,283.1c2.2,0,4-1.8,4-4c0-2.2-1.8-4-4-4s-4,1.8-4,4
		C272.6,281.3,274.4,283.1,276.6,283.1z M320.1,267.4c2.2,0,4-1.8,4-4c0-2.2-1.8-4-4-4s-4,1.8-4,4
		C316.1,265.6,317.9,267.4,320.1,267.4z M382.5,301c2.2,0,4-1.8,4-4s-1.8-4-4-4c-2.2,0-4,1.8-4,4S380.3,301,382.5,301z M414.1,308
		c2.2,0,4-1.8,4-4c0-2.2-1.8-4-4-4c-2.2,0-4,1.8-4,4C410.1,306.3,411.9,308,414.1,308z M364.1,318.2c2.2,0,4-1.8,4-4
		c0-2.2-1.8-4-4-4s-4,1.8-4,4C360.1,316.4,361.9,318.2,364.1,318.2z M502.5,311.1c2.2,0,4-1.8,4-4c0-2.2-1.8-4-4-4c-2.2,0-4,1.8-4,4
		C498.5,309.3,500.3,311.1,502.5,311.1z M514,323.1c2.2,0,4-1.8,4-4c0-2.2-1.8-4-4-4c-2.2,0-4,1.8-4,4
		C510,321.3,511.8,323.1,514,323.1z M516.4,293.7c2.2,0,4-1.8,4-4c0-2.2-1.8-4-4-4s-4,1.8-4,4C512.4,291.9,514.2,293.7,516.4,293.7z
		 M497.8,285.5c2.2,0,4-1.8,4-4c0-2.2-1.8-4-4-4c-2.2,0-4,1.8-4,4C493.9,283.7,495.7,285.5,497.8,285.5z M487.2,252.1
		c2.2,0,4-1.8,4-4c0-2.2-1.8-4-4-4c-2.2,0-4,1.8-4,4C483.3,250.3,485,252.1,487.2,252.1z M466.9,248.1c2.2,0,4-1.8,4-4
		c0-2.2-1.8-4-4-4c-2.2,0-4,1.8-4,4C462.9,246.3,464.7,248.1,466.9,248.1z M457,222.9c2.2,0,4-1.8,4-4s-1.8-4-4-4c-2.2,0-4,1.8-4,4
		S454.8,222.9,457,222.9z M427.1,220.9c2.2,0,4-1.8,4-4s-1.8-4-4-4c-2.2,0-4,1.8-4,4S424.9,220.9,427.1,220.9z M393.9,216.5
		c2.2,0,4-1.8,4-4s-1.8-4-4-4s-4,1.8-4,4S391.7,216.5,393.9,216.5z M285.6,228c2.2,0,4-1.8,4-4c0-2.2-1.8-4-4-4s-4,1.8-4,4
		C281.6,226.2,283.4,228,285.6,228z M267.5,210.3c2.2,0,4-1.8,4-4c0-2.2-1.8-4-4-4c-2.2,0-4,1.8-4,4
		C263.5,208.5,265.3,210.3,267.5,210.3z M276.8,157c2.2,0,4-1.8,4-4s-1.8-4-4-4s-4,1.8-4,4S274.6,157,276.8,157z M292.3,181.6
		c2.2,0,4-1.8,4-4s-1.8-4-4-4c-2.2,0-4,1.8-4,4S290.1,181.6,292.3,181.6z M341.8,198.4c2.2,0,4-1.8,4-4s-1.8-4-4-4c-2.2,0-4,1.8-4,4
		S339.6,198.4,341.8,198.4z M359.5,203c2.2,0,4-1.8,4-4s-1.8-4-4-4s-4,1.8-4,4S357.3,203,359.5,203z M178,190.2c2.2,0,4-1.8,4-4
		c0-2.2-1.8-4-4-4s-4,1.8-4,4C174,188.4,175.8,190.2,178,190.2z M208,105.5c2.2,0,4-1.8,4-4c0-2.2-1.8-4-4-4c-2.2,0-4,1.8-4,4
		C204,103.8,205.8,105.5,208,105.5z M265.3,84.3c2.2,0,4-1.8,4-4c0-2.2-1.8-4-4-4c-2.2,0-4,1.8-4,4
		C261.3,82.5,263.1,84.3,265.3,84.3z M272.8,56.7c2.2,0,4-1.8,4-4s-1.8-4-4-4c-2.2,0-4,1.8-4,4S270.6,56.7,272.8,56.7z M228.4,71
		c2.2,0,4-1.8,4-4c0-2.2-1.8-4-4-4c-2.2,0-4,1.8-4,4C224.4,69.3,226.2,71,228.4,71z M206.3,75.9c2.2,0,4-1.8,4-4c0-2.2-1.8-4-4-4
		s-4,1.8-4,4C202.3,74.1,204.1,75.9,206.3,75.9z M178,74.8c2.2,0,4-1.8,4-4c0-2.2-1.8-4-4-4s-4,1.8-4,4C174,73,175.8,74.8,178,74.8z
		 M165.4,75.5c2.2,0,4-1.8,4-4c0-2.2-1.8-4-4-4s-4,1.8-4,4C161.4,73.7,163.2,75.5,165.4,75.5z M115.2,75.5c2.2,0,4-1.8,4-4
		c0-2.2-1.8-4-4-4c-2.2,0-4,1.8-4,4C111.2,73.7,113,75.5,115.2,75.5z M190.1,60.2c2.2,0,4-1.8,4-4s-1.8-4-4-4c-2.2,0-4,1.8-4,4
		S187.9,60.2,190.1,60.2z M206.9,49.4c2.2,0,4-1.8,4-4c0-2.2-1.8-4-4-4s-4,1.8-4,4C202.9,47.6,204.7,49.4,206.9,49.4z M90.2,51.8
		c2.2,0,4-1.8,4-4s-1.8-4-4-4c-2.2,0-4,1.8-4,4S88,51.8,90.2,51.8z M61.9,64c2.2,0,4-1.8,4-4c0-2.2-1.8-4-4-4c-2.2,0-4,1.8-4,4
		C57.9,62.2,59.7,64,61.9,64z M62.3,133.2c2.2,0,4-1.8,4-4c0-2.2-1.8-4-4-4c-2.2,0-4,1.8-4,4C58.4,131.4,60.1,133.2,62.3,133.2z
		 M19,145.3c2.2,0,4-1.8,4-4s-1.8-4-4-4s-4,1.8-4,4S16.8,145.3,19,145.3z M-34,118.6c2.2,0,4-1.8,4-4c0-2.2-1.8-4-4-4s-4,1.8-4,4
		C-38,116.8-36.2,118.6-34,118.6z M-53.1,124.5c2.2,0,4-1.8,4-4c0-2.2-1.8-4-4-4s-4,1.8-4,4C-57,122.8-55.3,124.5-53.1,124.5z
		 M-79.1,106.2c2.2,0,4-1.8,4-4c0-2.2-1.8-4-4-4c-2.2,0-4,1.8-4,4C-83.1,104.4-81.3,106.2-79.1,106.2z M-101,115.7c2.2,0,4-1.8,4-4
		c0-2.2-1.8-4-4-4c-2.2,0-4,1.8-4,4C-105,113.9-103.2,115.7-101,115.7z M-83.1,65.7c2.2,0,4-1.8,4-4s-1.8-4-4-4c-2.2,0-4,1.8-4,4
		S-85.3,65.7-83.1,65.7z M-121.4,92.3c2.2,0,4-1.8,4-4c0-2.2-1.8-4-4-4c-2.2,0-4,1.8-4,4C-125.3,90.5-123.6,92.3-121.4,92.3z
		 M-144.1,108.9c2.2,0,4-1.8,4-4c0-2.2-1.8-4-4-4c-2.2,0-4,1.8-4,4C-148.1,107.1-146.3,108.9-144.1,108.9z M-136.6,100.5
		c2.2,0,4-1.8,4-4c0-2.2-1.8-4-4-4s-4,1.8-4,4C-140.6,98.7-138.8,100.5-136.6,100.5z M-194.3,63.1c2.2,0,4-1.8,4-4s-1.8-4-4-4
		s-4,1.8-4,4S-196.5,63.1-194.3,63.1z M-211.8,91.8c2.2,0,4-1.8,4-4c0-2.2-1.8-4-4-4s-4,1.8-4,4C-215.8,90-214,91.8-211.8,91.8z
		 M-228.6,85.4c2.2,0,4-1.8,4-4c0-2.2-1.8-4-4-4c-2.2,0-4,1.8-4,4C-232.6,83.6-230.8,85.4-228.6,85.4z M-243.6,108.9
		c2.2,0,4-1.8,4-4c0-2.2-1.8-4-4-4c-2.2,0-4,1.8-4,4C-247.6,107.1-245.8,108.9-243.6,108.9z M-295.1,166.1c2.2,0,4-1.8,4-4
		c0-2.2-1.8-4-4-4c-2.2,0-4,1.8-4,4C-299.1,164.3-297.3,166.1-295.1,166.1z M-228.6,154.4c2.2,0,4-1.8,4-4c0-2.2-1.8-4-4-4
		c-2.2,0-4,1.8-4,4C-232.6,152.6-230.8,154.4-228.6,154.4z M-211.8,139.1c2.2,0,4-1.8,4-4s-1.8-4-4-4s-4,1.8-4,4
		S-214,139.1-211.8,139.1z M-240.5,198.2c2.2,0,4-1.8,4-4s-1.8-4-4-4c-2.2,0-4,1.8-4,4S-242.7,198.2-240.5,198.2z M-163.4,172.5
		c2.2,0,4-1.8,4-4c0-2.2-1.8-4-4-4c-2.2,0-4,1.8-4,4C-167.3,170.7-165.6,172.5-163.4,172.5z M-296.2,214.3c2.2,0,4-1.8,4-4
		c0-2.2-1.8-4-4-4c-2.2,0-4,1.8-4,4C-300.2,212.5-298.4,214.3-296.2,214.3z M-294.7,200.2c2.2,0,4-1.8,4-4s-1.8-4-4-4
		c-2.2,0-4,1.8-4,4S-296.9,200.2-294.7,200.2z M-322.8,226c2.2,0,4-1.8,4-4c0-2.2-1.8-4-4-4c-2.2,0-4,1.8-4,4
		C-326.7,224.2-325,226-322.8,226z M-267.1,61.3c2.2,0,4-1.8,4-4s-1.8-4-4-4c-2.2,0-4,1.8-4,4S-269.2,61.3-267.1,61.3z M-284.7,75.9
		c2.2,0,4-1.8,4-4c0-2.2-1.8-4-4-4c-2.2,0-4,1.8-4,4C-288.7,74.1-286.9,75.9-284.7,75.9z M295.6,197.9c2.2,0,4-1.8,4-4s-1.8-4-4-4
		c-2.2,0-4,1.8-4,4S293.4,197.9,295.6,197.9z M308,197.9c2.2,0,4-1.8,4-4s-1.8-4-4-4c-2.2,0-4,1.8-4,4S305.8,197.9,308,197.9z
		 M320.3,197.1c2.2,0,4-1.8,4-4s-1.8-4-4-4s-4,1.8-4,4S318.1,197.1,320.3,197.1z M309.9,213c2.2,0,4-1.8,4-4c0-2.2-1.8-4-4-4
		c-2.2,0-4,1.8-4,4C306,211.2,307.7,213,309.9,213z M322.3,213c2.2,0,4-1.8,4-4c0-2.2-1.8-4-4-4s-4,1.8-4,4
		C318.3,211.2,320.1,213,322.3,213z M334.7,212.1c2.2,0,4-1.8,4-4c0-2.2-1.8-4-4-4c-2.2,0-4,1.8-4,4
		C330.7,210.3,332.5,212.1,334.7,212.1z M371.4,180c2.2,0,4-1.8,4-4s-1.8-4-4-4c-2.2,0-4,1.8-4,4S369.2,180,371.4,180z M466.5,185.3
		c2.2,0,4-1.8,4-4s-1.8-4-4-4c-2.2,0-4,1.8-4,4S464.3,185.3,466.5,185.3z M501.4,208.3c2.2,0,4-1.8,4-4c0-2.2-1.8-4-4-4
		c-2.2,0-4,1.8-4,4C497.4,206.6,499.2,208.3,501.4,208.3z M530.1,218.9c2.2,0,4-1.8,4-4s-1.8-4-4-4s-4,1.8-4,4
		S527.9,218.9,530.1,218.9z M540.1,232.4c2.2,0,4-1.8,4-4c0-2.2-1.8-4-4-4c-2.2,0-4,1.8-4,4C536.1,230.6,537.9,232.4,540.1,232.4z
		 M577,257.6c2.2,0,4-1.8,4-4s-1.8-4-4-4c-2.2,0-4,1.8-4,4S574.8,257.6,577,257.6z M532.1,268.7c2.2,0,4-1.8,4-4c0-2.2-1.8-4-4-4
		c-2.2,0-4,1.8-4,4C528.1,266.9,529.9,268.7,532.1,268.7z M506,185.6c2.2,0,4-1.8,4-4s-1.8-4-4-4c-2.2,0-4,1.8-4,4
		S503.8,185.6,506,185.6z M535.9,149.3c2.2,0,4-1.8,4-4c0-2.2-1.8-4-4-4c-2.2,0-4,1.8-4,4C531.9,147.5,533.7,149.3,535.9,149.3z
		 M612.4,158.6c2.2,0,4-1.8,4-4s-1.8-4-4-4s-4,1.8-4,4S610.2,158.6,612.4,158.6z M627,104.7c2.2,0,4-1.8,4-4c0-2.2-1.8-4-4-4
		c-2.2,0-4,1.8-4,4C623,102.9,624.8,104.7,627,104.7z M607.5,96.5c2.2,0,4-1.8,4-4c0-2.2-1.8-4-4-4s-4,1.8-4,4
		C603.5,94.7,605.3,96.5,607.5,96.5z M587.8,21.5c2.2,0,4-1.8,4-4s-1.8-4-4-4s-4,1.8-4,4S585.6,21.5,587.8,21.5z M608.4,42.1
		c2.2,0,4-1.8,4-4s-1.8-4-4-4s-4,1.8-4,4S606.2,42.1,608.4,42.1z M627,37.4c2.2,0,4-1.8,4-4s-1.8-4-4-4c-2.2,0-4,1.8-4,4
		S624.8,37.4,627,37.4z M469.8,24.2c2.2,0,4-1.8,4-4s-1.8-4-4-4c-2.2,0-4,1.8-4,4S467.6,24.2,469.8,24.2z M453.4,17.1
		c2.2,0,4-1.8,4-4s-1.8-4-4-4c-2.2,0-4,1.8-4,4S451.2,17.1,453.4,17.1z M464.7,165.7c2.2,0,4-1.8,4-4s-1.8-4-4-4c-2.2,0-4,1.8-4,4
		S462.5,165.7,464.7,165.7z M464.7,147.5c2.2,0,4-1.8,4-4c0-2.2-1.8-4-4-4c-2.2,0-4,1.8-4,4C460.7,145.8,462.5,147.5,464.7,147.5z
		 M474.2,115.7c2.2,0,4-1.8,4-4c0-2.2-1.8-4-4-4s-4,1.8-4,4C470.2,113.9,472,115.7,474.2,115.7z M498.3,88.3c2.2,0,4-1.8,4-4
		c0-2.2-1.8-4-4-4c-2.2,0-4,1.8-4,4C494.3,86.5,496.1,88.3,498.3,88.3z M474,93.6c2.2,0,4-1.8,4-4c0-2.2-1.8-4-4-4s-4,1.8-4,4
		C470,91.8,471.8,93.6,474,93.6z M433.7,102c2.2,0,4-1.8,4-4c0-2.2-1.8-4-4-4s-4,1.8-4,4C429.8,100.2,431.5,102,433.7,102z
		 M413.6,121.9c2.2,0,4-1.8,4-4c0-2.2-1.8-4-4-4c-2.2,0-4,1.8-4,4C409.6,120.1,411.4,121.9,413.6,121.9z M393.3,127c2.2,0,4-1.8,4-4
		c0-2.2-1.8-4-4-4s-4,1.8-4,4C389.3,125.2,391.1,127,393.3,127z M378.5,133.6c2.2,0,4-1.8,4-4c0-2.2-1.8-4-4-4c-2.2,0-4,1.8-4,4
		C374.5,131.8,376.3,133.6,378.5,133.6z M364.8,130.1c2.2,0,4-1.8,4-4c0-2.2-1.8-4-4-4s-4,1.8-4,4
		C360.8,128.3,362.6,130.1,364.8,130.1z M341.6,120.3c2.2,0,4-1.8,4-4c0-2.2-1.8-4-4-4c-2.2,0-4,1.8-4,4
		C337.6,118.6,339.4,120.3,341.6,120.3z M355.5,143.6c2.2,0,4-1.8,4-4s-1.8-4-4-4c-2.2,0-4,1.8-4,4S353.3,143.6,355.5,143.6z
		 M304.2,141.6c2.2,0,4-1.8,4-4s-1.8-4-4-4c-2.2,0-4,1.8-4,4S302,141.6,304.2,141.6z M323.2,127c2.2,0,4-1.8,4-4c0-2.2-1.8-4-4-4
		s-4,1.8-4,4C319.2,125.2,321,127,323.2,127z M502.3,57.8c2.2,0,4-1.8,4-4s-1.8-4-4-4c-2.2,0-4,1.8-4,4S500.1,57.8,502.3,57.8z
		 M520.6,110.8c2.2,0,4-1.8,4-4s-1.8-4-4-4s-4,1.8-4,4S518.4,110.8,520.6,110.8z M534.5,106.6c2.2,0,4-1.8,4-4c0-2.2-1.8-4-4-4
		c-2.2,0-4,1.8-4,4C530.6,104.9,532.3,106.6,534.5,106.6z M549.4,85c2.2,0,4-1.8,4-4c0-2.2-1.8-4-4-4c-2.2,0-4,1.8-4,4
		C545.4,83.2,547.2,85,549.4,85z M561.7,69.3c2.2,0,4-1.8,4-4c0-2.2-1.8-4-4-4c-2.2,0-4,1.8-4,4C557.8,67.5,559.5,69.3,561.7,69.3z
		 M572.1,63.8c2.2,0,4-1.8,4-4c0-2.2-1.8-4-4-4c-2.2,0-4,1.8-4,4C568.1,62,569.9,63.8,572.1,63.8z M592,55.8c2.2,0,4-1.8,4-4
		s-1.8-4-4-4s-4,1.8-4,4S589.8,55.8,592,55.8z M540.1,46.1c2.2,0,4-1.8,4-4s-1.8-4-4-4c-2.2,0-4,1.8-4,4S537.9,46.1,540.1,46.1z
		 M542.1,56.9c2.2,0,4-1.8,4-4s-1.8-4-4-4c-2.2,0-4,1.8-4,4S539.9,56.9,542.1,56.9z M551.1,44.7c2.2,0,4-1.8,4-4s-1.8-4-4-4
		c-2.2,0-4,1.8-4,4S548.9,44.7,551.1,44.7z M513.8,51.8c2.2,0,4-1.8,4-4s-1.8-4-4-4c-2.2,0-4,1.8-4,4S511.6,51.8,513.8,51.8z
		 M532.1,115.7c2.2,0,4-1.8,4-4c0-2.2-1.8-4-4-4c-2.2,0-4,1.8-4,4C528.1,113.9,529.9,115.7,532.1,115.7z M387.8,261.2
		c2.2,0,4-1.8,4-4c0-2.2-1.8-4-4-4c-2.2,0-4,1.8-4,4C383.8,259.4,385.6,261.2,387.8,261.2z M351.7,399.8c2.2,0,4-1.8,4-4
		c0-2.2-1.8-4-4-4c-2.2,0-4,1.8-4,4C347.7,398,349.5,399.8,351.7,399.8z M367.4,430.9c2.2,0,4-1.8,4-4c0-2.2-1.8-4-4-4
		c-2.2,0-4,1.8-4,4C363.4,429.2,365.2,430.9,367.4,430.9z M374.7,423.9c2.2,0,4-1.8,4-4c0-2.2-1.8-4-4-4c-2.2,0-4,1.8-4,4
		C370.7,422.1,372.5,423.9,374.7,423.9z M383.8,427c2.2,0,4-1.8,4-4c0-2.2-1.8-4-4-4c-2.2,0-4,1.8-4,4
		C379.8,425.2,381.6,427,383.8,427z M369.6,441.3c2.2,0,4-1.8,4-4c0-2.2-1.8-4-4-4c-2.2,0-4,1.8-4,4
		C365.6,439.6,367.4,441.3,369.6,441.3z M374.7,450c2.2,0,4-1.8,4-4c0-2.2-1.8-4-4-4c-2.2,0-4,1.8-4,4
		C370.7,448.2,372.5,450,374.7,450z M563.3,402.9c2.2,0,4-1.8,4-4c0-2.2-1.8-4-4-4c-2.2,0-4,1.8-4,4
		C559.3,401.1,561.1,402.9,563.3,402.9z M638.7,440c2.2,0,4-1.8,4-4c0-2.2-1.8-4-4-4c-2.2,0-4,1.8-4,4
		C634.7,438.2,636.5,440,638.7,440z M633.4,466.1c2.2,0,4-1.8,4-4c0-2.2-1.8-4-4-4c-2.2,0-4,1.8-4,4
		C629.4,464.3,631.2,466.1,633.4,466.1z M640.2,485.8c2.2,0,4-1.8,4-4c0-2.2-1.8-4-4-4c-2.2,0-4,1.8-4,4
		C636.2,484,638,485.8,640.2,485.8z M613,433.4c2.2,0,4-1.8,4-4c0-2.2-1.8-4-4-4s-4,1.8-4,4C609,431.6,610.8,433.4,613,433.4z
		 M620.8,419.5c2.2,0,4-1.8,4-4s-1.8-4-4-4c-2.2,0-4,1.8-4,4S618.6,419.5,620.8,419.5z M615.2,393.8c2.2,0,4-1.8,4-4
		c0-2.2-1.8-4-4-4c-2.2,0-4,1.8-4,4C611.3,392,613,393.8,615.2,393.8z M617,384.1c2.2,0,4-1.8,4-4c0-2.2-1.8-4-4-4c-2.2,0-4,1.8-4,4
		C613,382.3,614.8,384.1,617,384.1z M575.4,374.1c2.2,0,4-1.8,4-4c0-2.2-1.8-4-4-4c-2.2,0-4,1.8-4,4
		C571.5,372.4,573.2,374.1,575.4,374.1z M569,349.8c2.2,0,4-1.8,4-4c0-2.2-1.8-4-4-4c-2.2,0-4,1.8-4,4
		C565.1,348,566.8,349.8,569,349.8z M551.1,349.8c2.2,0,4-1.8,4-4c0-2.2-1.8-4-4-4c-2.2,0-4,1.8-4,4
		C547.1,348,548.9,349.8,551.1,349.8z M540.7,330.6c2.2,0,4-1.8,4-4c0-2.2-1.8-4-4-4c-2.2,0-4,1.8-4,4
		C536.8,328.8,538.5,330.6,540.7,330.6z M584.5,325.9c2.2,0,4-1.8,4-4c0-2.2-1.8-4-4-4s-4,1.8-4,4
		C580.5,324.2,582.3,325.9,584.5,325.9z M592.2,339.9c2.2,0,4-1.8,4-4s-1.8-4-4-4s-4,1.8-4,4S590,339.9,592.2,339.9z M483.3,380.3
		c2.2,0,4-1.8,4-4s-1.8-4-4-4c-2.2,0-4,1.8-4,4S481.1,380.3,483.3,380.3z M534.1,474.3c2.2,0,4-1.8,4-4c0-2.2-1.8-4-4-4
		c-2.2,0-4,1.8-4,4C530.1,472.5,531.9,474.3,534.1,474.3z M534.1,483.1c2.2,0,4-1.8,4-4c0-2.2-1.8-4-4-4c-2.2,0-4,1.8-4,4
		C530.1,481.3,531.9,483.1,534.1,483.1z"/>
</g>
<g>
	<path class="st2" d="M305.5,518.5H316c7.4,0,12.9,2.5,12.9,9.9c0,7.2-5.5,10.4-12.7,10.4h-4.8v11.8h-5.9V518.5z M315.7,534.2
		c5,0,7.4-1.9,7.4-5.8c0-4-2.6-5.3-7.6-5.3h-4.1v11.2H315.7z"/>
	<path class="st2" d="M345.5,518.5h11.3c7,0,12.3,2.4,12.3,9.5c0,6.9-5.4,10-12.3,10h-5.3v12.5h-5.9V518.5z M356.1,533.5
		c4.6,0,7.1-1.8,7.1-5.5c0-3.7-2.5-5-7.1-5h-4.7v10.4H356.1z M355.6,536.5l4.3-3.4l10.4,17.5h-6.7L355.6,536.5z"/>
	<path class="st2" d="M386,518.5h20.1v4.8h-14.2v8.2h12v4.8h-12v9.5h14.7v4.8H386V518.5z"/>
	<path class="st2" d="M423.7,518.5h6.7l5.9,15.7c0.7,2,1.4,4.2,2.1,6.3h0.2c0.7-2.1,1.4-4.3,2.1-6.3l5.8-15.7h6.7v32.1h-5.4v-14.7
		c0-3,0.5-7.2,0.8-10.2h-0.2l-2.7,7.5l-5.5,14.4h-3.5l-5.5-14.4l-2.7-7.5h-0.2c0.3,3,0.8,7.2,0.8,10.2v14.7h-5.3V518.5z"/>
	<path class="st2" d="M472,518.5h5.9v32.1H472V518.5z"/>
	<path class="st2" d="M496.7,518.5h20.1v4.8h-14.2v8.2h12v4.8h-12v9.5h14.7v4.8h-20.6V518.5z"/>
	<path class="st2" d="M534.4,518.5h11.3c7,0,12.3,2.4,12.3,9.5c0,6.9-5.4,10-12.3,10h-5.3v12.5h-5.9V518.5z M545.1,533.5
		c4.6,0,7.1-1.8,7.1-5.5c0-3.7-2.5-5-7.1-5h-4.7v10.4H545.1z M544.6,536.5l4.3-3.4l10.4,17.5h-6.7L544.6,536.5z"/>
</g>
<g>
	<path class="st2" d="M447.2,557.2h1.7l4,11.7h-1.6l-2-6.5c-0.4-1.3-0.8-2.6-1.2-3.9H448c-0.4,1.4-0.7,2.6-1.2,3.9l-2.1,6.5h-1.5
		L447.2,557.2z M445.3,564.1h5.4v1.2h-5.4V564.1z"/>
	<path class="st2" d="M457.7,565.7v-5.5h1.5v5.3c0,1.6,0.5,2.3,1.6,2.3c0.9,0,1.5-0.4,2.3-1.5v-6.1h1.5v8.6h-1.2l-0.1-1.4h0
		c-0.8,0.9-1.7,1.6-2.9,1.6C458.5,569.1,457.7,567.9,457.7,565.7z"/>
	<path class="st2" d="M471.3,566.2v-4.8H470v-1.1l1.4-0.1l0.2-2.4h1.2v2.4h2.3v1.2h-2.3v4.8c0,1.1,0.3,1.7,1.3,1.7
		c0.3,0,0.7-0.1,1-0.2l0.3,1.1c-0.5,0.2-1.1,0.3-1.6,0.3C471.9,569.1,471.3,567.9,471.3,566.2z"/>
	<path class="st2" d="M479.7,564.6c0-2.9,1.9-4.5,4-4.5c2.1,0,4,1.7,4,4.5c0,2.9-1.9,4.5-4,4.5C481.6,569.1,479.7,567.4,479.7,564.6
		z M486.2,564.6c0-2-1-3.3-2.5-3.3c-1.5,0-2.5,1.3-2.5,3.3s1,3.3,2.5,3.3C485.2,567.9,486.2,566.6,486.2,564.6z"/>
	<path class="st2" d="M493.5,560.2h1.2l0.1,1.3h0c0.8-0.8,1.7-1.5,2.7-1.5c1.3,0,2,0.6,2.4,1.6c0.9-1,1.8-1.6,2.9-1.6
		c1.8,0,2.6,1.2,2.6,3.4v5.5H504v-5.3c0-1.6-0.5-2.3-1.6-2.3c-0.7,0-1.4,0.4-2.2,1.3v6.3h-1.5v-5.3c0-1.6-0.5-2.3-1.6-2.3
		c-0.6,0-1.4,0.4-2.2,1.3v6.3h-1.5V560.2z"/>
	<path class="st2" d="M511.3,566.6c0-1.9,1.6-2.8,5.3-3.2c0-1.1-0.4-2.2-1.8-2.2c-1,0-1.9,0.5-2.6,0.9l-0.6-1c0.8-0.5,2-1.1,3.4-1.1
		c2.1,0,3,1.4,3,3.6v5.3h-1.2l-0.1-1h0c-0.8,0.7-1.8,1.2-2.9,1.2C512.4,569.1,511.3,568.2,511.3,566.6z M516.6,566.8v-2.4
		c-2.9,0.3-3.9,1.1-3.9,2.2c0,1,0.7,1.4,1.5,1.4C515.1,567.9,515.8,567.5,516.6,566.8z"/>
	<path class="st2" d="M524.4,566.2v-4.8h-1.3v-1.1l1.4-0.1l0.2-2.4h1.2v2.4h2.3v1.2h-2.3v4.8c0,1.1,0.3,1.7,1.3,1.7
		c0.3,0,0.7-0.1,1-0.2l0.3,1.1c-0.5,0.2-1.1,0.3-1.6,0.3C525,569.1,524.4,567.9,524.4,566.2z"/>
	<path class="st2" d="M533.4,557.5c0-0.6,0.4-0.9,1-0.9c0.6,0,1,0.4,1,0.9c0,0.6-0.4,0.9-1,0.9C533.9,558.5,533.4,558.1,533.4,557.5
		z M533.7,560.2h1.5v8.6h-1.5V560.2z"/>
	<path class="st2" d="M541,564.6c0-2.9,1.9-4.5,4-4.5c2.1,0,4,1.7,4,4.5c0,2.9-1.9,4.5-4,4.5C542.9,569.1,541,567.4,541,564.6z
		 M547.5,564.6c0-2-1-3.3-2.5-3.3c-1.5,0-2.5,1.3-2.5,3.3s1,3.3,2.5,3.3C546.5,567.9,547.5,566.6,547.5,564.6z"/>
	<path class="st2" d="M554.8,560.2h1.2l0.1,1.2h0c0.8-0.8,1.7-1.5,2.9-1.5c1.8,0,2.6,1.2,2.6,3.4v5.5h-1.5v-5.3
		c0-1.6-0.5-2.3-1.6-2.3c-0.9,0-1.5,0.5-2.4,1.3v6.3h-1.5V560.2z"/>
</g>
<path class="st3" d="M433.3,250.8c-1.8,17.6-0.4,35.3-2.6,52.8c-1.1,25.5-14.1,50.8-35.4,65.2c-8.5,6.2-17,12.5-25.5,18.8
	c-38.4,28.3-76.7,56.8-115.4,84.6c-0.2-28.2,0-56.4-0.1-84.6c0-2.7,0-5.5,0-8.3c0.7-37.6,21.2-73.9,52.4-94.8
	c22.6-15.8,45-31.8,67.7-47.5c-56.3-41-112.4-82.3-169.1-122.7c-25.8-18.9-44.7-48.1-47.9-80.2c-0.4-6.1-0.6-12.2-0.6-18.4h116.2
	c29.9,21.6,59.8,43.3,89.8,64.9c12.8,9.2,26.1,17.9,37,29.4c12.5,11.9,21.5,27.1,27.6,43.1c4.4,14.1,5.7,28.5,6,43.1
	C433.6,214.5,432.2,232.8,433.3,250.8z"/>
<path class="st4" d="M182.2,423.3c0.9,33-6.5,67.7-27.8,93.7c-10.3,13.6-24.5,23.3-38.6,32.5c-18.2,11.5-34.8,25.5-52.3,37.9
	c-2.2-20.6-1.5-41.2-1.5-61.9c0-3.5,0-7,0-10.5c0-44.8,0-89.7,0-134.6v-11.1c-0.1-8.2-0.1-16.3,0-24.5c-0.9-33,6.5-67.7,27.8-93.7
	c10.3-13.6,24.5-23.3,38.6-32.5c18.2-11.5,34.8-25.5,52.4-38c0,0,0,0.2,0,0.5c0,0.2,0,0.4,0.1,0.7c2.4,23.6,1.1,47.4,1.4,71.1
	c0,44.8,0,89.7,0,134.6v11.1C182.3,406.9,182.3,415.1,182.2,423.3z"/>
<linearGradient id="SVGID_00000096778407889148978140000009338061403398796202_" gradientUnits="userSpaceOnUse" x1="141.5963" y1="395.5641" x2="170.8815" y2="411.9639">
	<stop  offset="0" style="stop-color:#A60000"/>
	<stop  offset="0.6063" style="stop-color:#C60001"/>
	<stop  offset="0.9996" style="stop-color:#D60002"/>
</linearGradient>
<path style="fill:url(#SVGID_00000096778407889148978140000009338061403398796202_);" d="M182.2,253.1c0,44.8,0,89.7,0,134.6v11.1
	c0.1,8.2,0.1,16.4,0,24.5c0.9,33-6.5,67.7-27.8,93.7c-10.3,13.6-24.5,23.3-38.6,32.5c-18.2,11.5-34.8,25.5-52.3,37.9
	c-2.2-20.6-1.5-41.2-1.5-61.9c133.7-120.2,120.3-325.9,118.9-343.6C183.2,205.6,181.9,229.3,182.2,253.1z"/>
<linearGradient id="SVGID_00000034091844264466177860000009455151832785669555_" gradientUnits="userSpaceOnUse" x1="395.7004" y1="417.9475" x2="301.3733" y2="265.7498">
	<stop  offset="0.5264" style="stop-color:#F6C602"/>
	<stop  offset="0.8382" style="stop-color:#CD9E01"/>
	<stop  offset="0.9992" style="stop-color:#BD8E00"/>
</linearGradient>
<path style="fill:url(#SVGID_00000034091844264466177860000009455151832785669555_);" d="M433.3,250.8c-1.8,17.6-0.4,35.3-2.6,52.8
	c-1.1,25.5-14.1,50.8-35.4,65.2c-8.5,6.2-17,12.5-25.5,18.8c-38.4,28.3-76.7,56.8-115.4,84.6c-0.2-28.2,0-56.4-0.1-84.6
	c0-2.7,0-5.5,0-8.3c0.7-37.6,21.2-73.9,52.4-94.8c22.6-15.8,45-31.8,67.7-47.5l58.9-40.7C433.6,214.5,432.2,232.8,433.3,250.8z"/>
</svg>
