<?xml version="1.0" encoding="utf-8"?>
<!-- Generator: Adobe Illustrator 26.5.0, SVG Export Plug-In . SVG Version: 6.00 Build 0)  -->
<svg version="1.1" id="Layer_1" xmlns="http://www.w3.org/2000/svg" xmlns:xlink="http://www.w3.org/1999/xlink" x="0px" y="0px"
	 viewBox="0 0 1024 1024" style="enable-background:new 0 0 1024 1024;" xml:space="preserve">
<style type="text/css">
	.st0{fill:#1F366A;}
	.st1{clip-path:url(#SVGID_00000166655405464229570910000005553143218722090123_);fill:#ACACAC;fill-opacity:0.1;}
	.st2{fill:#FFFFFF;}
	.st3{fill:#F6C602;}
	.st4{fill:#D60002;}
	.st5{fill:url(#SVGID_00000137133834827981712160000013352662266148081817_);}
	.st6{fill:url(#SVGID_00000059296383796174918810000015601099711211715228_);}
</style>
<path class="st0" d="M740.2,83.9L694.7,33H101.9c-35.5,7.8-62,39.5-62,77.3v544.1v1.6l81.4,98.4L261,923.2l53.8,65h603.1
	c43.7,0,79.2-35.4,79.2-79.2V654.4v-284L740.2,83.9z"/>
<g>
	<defs>
		<path id="SVGID_1_" d="M740.2,83.9L694.7,33H101.9c-35.5,7.8-62,39.5-62,77.3v544.1v1.6l81.4,98.4L261,923.2l53.8,65h603.1
			c43.7,0,79.2-35.4,79.2-79.2V654.4v-284L740.2,83.9z"/>
	</defs>
	<clipPath id="SVGID_00000065778384212409798220000000774076796545678524_">
		<use xlink:href="#SVGID_1_"  style="overflow:visible;"/>
	</clipPath>
	<path style="clip-path:url(#SVGID_00000065778384212409798220000000774076796545678524_);fill:#ACACAC;fill-opacity:0.1;" d="
		M1040.5,726.2H804.4L677.3,599.1H552.1l-46.7-46.7h-234l-45.5-45.5l2.7-2.7l44.4,44.4h234l46.7,46.7h125.2L806,722.3h234.5V726.2z
		 M1053.2,699.2H825L691.8,566.1H557.9L518.8,527H291.9l-17.7-17.7l-2.7,2.7l18.8,18.8h226.9l39.1,39.1h133.9l133.2,133.2h229.8
		V699.2z M301.2,364.7h119.2l35.5,35.5h222.6l105.2-105.2h50.1l231.3-231.3l-2.7-2.7L832.1,291.2H782L676.8,396.4H457.4l-35.5-35.5
		H299.6l-46.7,46.7h-51.8l-43.1-43.1l-2.7,2.7l44.3,44.3h55L301.2,364.7z M1049,640.7L929.4,521v-75.2l-41.7-41.6v-65.4l51.4-51.4
		v-64.6l45.8-45.8h78.7v-3.8h-80.2l-48.1,48.1v64.6l-51.4,51.4v68.5l41.7,41.6v75.2l120.8,120.8L1049,640.7z M907.4,556.4V448.9
		h-3.8v106l-34.3,34.3H774l-58.4-58.4h-90.9v3.8h89.3l58.4,58.4h98.4L907.4,556.4z M874.8,537.8H774l-75.4-75.3v-39.1l72.6-72.6
		h43.7l32.6,32.6v95h3.8v-96.6L816.5,347h-46.8l-74.8,74.8v42.2l77.6,77.6h102.4V537.8z M830.7,420.2L781,370.5l-2.7,2.7l49.7,49.7
		L830.7,420.2z M855.6,518.7H788l-21.1-21.1v-50l32.1-32.1l-2.7-2.7L763,446v53.1l23.4,23.4h69.2V518.7z M96.5,659.7h52.6l57.1-57.1
		h198.7v-3.8H204.6l-57.1,57.1H94.9l-43.9,43.9h-229l-33.8-33.8h-44.1l-69-69h-134.6v3.8h133l69,69h44.1l33.8,33.8H52.6L96.5,659.7z
		 M247.7,378.3h-41.2l-69-69H93.4l-33.8-33.8h-232.2l-43.9,43.9h-52.6l-57.1,57.1h-198.7v3.8h200.3l57.1-57.1h52.6l43.9-43.9H58
		l33.8,33.8h44.1l69,69h42.8V378.3z M1065.2,463.6l-63.4-67.8h-48.4l-31.6-31.6h-22v3.8h20.4l31.6,31.6h48.4l62.2,66.6L1065.2,463.6
		z M995.5,544.2l-37.8-37.8v-50.7L895,393v-33.3l92.9-92.9h52.8V263h-54.4l-95.1,95.1v36.5l62.7,62.7V508l38.9,38.9L995.5,544.2z
		 M1054.6,502.2l-51.2-51.2v-30.3l-14.2-14.2h-49.7L920,387l-2.7,2.7l20.6,20.6h49.7l12,12v30.3l52.3,52.3L1054.6,502.2z
		 M1034.2,405.1l-27.4-27.4h-47.5l-20.1-20.1v-22.8l57-57l7.1,7.1v58l44.9,44.9l2.7-2.7l-43.8-43.8v-58l-11-11l-60.8,60.8v26
		l22.4,22.4h47.5l26.3,26.3L1034.2,405.1z M708.1,513.3l-55.4-55.4h-85.3l-29.5,29.5h-73.9L355.8,379h-55.1l-72,72h-72v3.8h73.6
		l72-72h51.9l108.3,108.3h77l29.5-29.5h82.1l54.3,54.3L708.1,513.3z M318.2,397.6h31v-3.8h-32.6l-76.5,76.5h-83.4v3.8h85
		L318.2,397.6z M418.8,489.6l-73.3-73.3h-27.4l-39.9,39.9l2.7,2.7l38.8-38.8h24.3l72.2,72.2L418.8,489.6z M425.5,470.8l-56-56
		l-2.7,2.7l56,56L425.5,470.8z M552.2,447.2l-2.7-2.7l-26.4,26.4h-45v3.8h46.6L552.2,447.2z M514.6,451.7h-50.6l-66.5-66.5l-2.7,2.7
		l67.6,67.6h52.1V451.7z M663.1,435.5h-48.7l-15.9-15.9H463.3v3.8H597l15.9,15.9h50.3V435.5z M881.1,432.3l-11.5-11.5V329l44.1-44.1
		v-36.6h-3.8v35l-44.1,44.1v94.9l11.5,11.5V491h3.8V432.3z M860.8,308h-65.4v3.8h65.4V308z M773.6,328.5h59l21.6,21.6l2.7-2.7
		l-22.7-22.7h-62.2l-43.4,43.4l2.7,2.7L773.6,328.5z M1008.6,497.9l-26.4-26.4v-41.1h-3.8v42.7l26.4,26.4V570h3.8V497.9z M979,623.9
		l-40.4-40.5l-2.7,2.7l40.4,40.5L979,623.9z M968.1,583.4l-34.4-34.4h-15v3.8h13.4l33.2,33.2L968.1,583.4z M956.8,671.5H826.5
		L709.2,554.3l-2.7,2.7l118.4,118.4h131.9V671.5z M1045.5,656.2H980l-22.4-22.4h-46.5l-17.5-17.5h-52.4l-19.2,19.2l2.7,2.7
		l18.1-18.1h49.2l17.5,17.5H956l22.4,22.4h67.1V656.2z M581.2,488.1h55.7l16.8,16.8l2.7-2.7l-17.9-17.9h-58.8l-22.5,22.5h-70.1v3.8
		h71.7L581.2,488.1z M346.6,448.9h-3.8v51.7h3.8V448.9z M333.3,448.7h-3.8v51.7h3.8V448.7z M320,448.5h-3.8v51.7h3.8V448.5z
		 M-315.8,664.3l-2.7-2.7L-386,729l2.7,2.7L-315.8,664.3z M-330.6,649l-2.7-2.7l-67.4,67.4l2.7,2.7L-330.6,649z M-345.4,633.8
		l-2.7-2.7l-67.4,67.4l2.7,2.7L-345.4,633.8z M794.2,247.8l-2.7-2.7l-97.2,97.1h-46.6l-60.1-60.1H486.1l-37,37h-95.9l-85.5-85.5
		h-92.9l-37.4-37.4h-178v3.8h176.4l37.4,37.4h92.9l85.5,85.5h99.1l37-37H586l60.1,60.1h49.8L794.2,247.8z M597.8,109.8h136.7
		L802.3,42l-2.7-2.7L732.9,106H596.2L431.8,270.4h-81.9l-62.6-62.6H182.6L149.8,175h-265.8v3.8h264.2l32.8,32.8h104.7l62.6,62.6
		h85.1L597.8,109.8z M589.7,86h129.8l55.8-55.8l-2.7-2.7l-54.7,54.7H588.1L429.3,240.9h-73.9l-55.1-55.1H191.5l-33.6-33.6h-344.7
		v3.8h343.1l33.6,33.6h108.9l55.1,55.1h77L589.7,86z M-271,293.8V182.2l51-51h382.6l30.3,30.3h112.7l48.4,48.4h76.9L610.6,30.2
		l-2.7-2.7L429.2,206.1h-73.8l-48.4-48.4H194.4l-30.3-30.3h-385.8l-53.2,53.2v111.6l-64.1,64.1h-139.9v3.8h141.5L-271,293.8z
		 M-389.1,250v-68.6h-3.8v67l-85,85l2.7,2.7L-389.1,250z M-437.8,241.1v-73.7l59.9-59.9h71v-3.8h-72.5l-62.2,62.2v73.7l-36.6,36.6
		l2.7,2.7L-437.8,241.1z M-402.5,108.7V79.5l49.3-49.3l-2.7-2.7l-50.4,50.4v29.2l-17.9,17.9h-35.2v3.8h36.8L-402.5,108.7z
		 M-428.4,70.6l45.8-45.8l-2.7-2.7L-432.2,69v33.5h3.8V70.6z M-255.1,189.6l30.6-30.6h17.2l19.7,19.7h38.2l21.2,21.2h60.6l25.1,25.1
		h162.6v-3.8h-161L-66,196.1h-60.6l-21.2-21.2h-38.2l-19.7-19.7h-20.3l-32.8,32.8v100.1h3.8V189.6z M-152.5,191.7h-33.6l-24.9-24.9
		l-2.7,2.7l26.1,26.1h35.1V191.7z M-70.9,206.5h-124.4l-28.1-28.1l-2.7,2.7l29.2,29.2h126V206.5z M314.6,316.4l-48.9-48.9H152.9
		l-25.3-25.3H48.1v3.8H126l25.3,25.3h112.9l47.7,47.7L314.6,316.4z M835.4,265.7v-18.7l33.3-33.3V172l35.3-35.3V32.5h-3.8v102.6
		L865,170.4V212l-33.3,33.3v18.7L820.7,275h-27.9v3.8h29.5L835.4,265.7z M923.8,149.9V95H920v53.3l-35.5,35.5l2.7,2.7L923.8,149.9z
		 M987.9,74.3h46.9v-3.8h-48.4L964,92.9H938l-16.3-16.3l-2.7,2.7l17.5,17.5h29.1L987.9,74.3z M999.9,37.2l-2.7-2.7l-38.4,38.4h-21.6
		v3.8h23.1L999.9,37.2z M1008.2,93.5l-2.7-2.7L904.1,192.2l2.7,2.7L1008.2,93.5z M936.2,119l10.3-10.3h26.9v-3.8h-28.5l-12.6,12.6
		v28.5h3.8V119z M944,146.7v-16.3l15.3-15.3l-2.7-2.7l-16.4,16.4v16.3l-32.3,32.3l2.7,2.7L944,146.7z M1032.2,162.1h-28.4l-8.1-8.1
		v-9.9l41.9-41.9l-2.7-2.7l-43,43v13l10.4,10.4h30V162.1z M1032.9,158.4h-22.1l-4.4-4.4v-9.1l29.7-29.7l-2.7-2.7l-30.9,30.9v12.3
		l6.7,6.7h23.7V158.4z M1035.4,152l-15.9-15.9l-14.6,14.6h22.2V149l5.7,5.7L1035.4,152z M1019.4,141.4l5.4,5.4h-10.7L1019.4,141.4z
		 M729.7,902.2l59.3-59.3h117.3l62.2-62.2h106.2v-3.8H966.8l-62.2,62.2H787.4l-61.5,61.5v100.5h3.8V902.2z M747.8,791h73.1
		l35.5-35.5h63.1v-3.8h-64.7l-35.5,35.5h-73.1l-46.7,46.7h-94.6l-40-40v-50l-43.5-43.5v-68.8l-57.1-57.1H226.2l-27.3-27.3h-42.2v3.8
		h40.7l27.3,27.3h238.1l54.8,54.8V702l43.5,43.5v50l42.2,42.2h97.8L747.8,791z M729.1,766l-2.7-2.7l-37.9,37.9h-50.1l-36-36v-41.9
		l-45.2-45.2v-43.5L529.7,607l-2.7,2.7l26.5,26.5v43.5l45.2,45.2v41.9l38.2,38.2h53.3L729.1,766z M829.4,741h-48L664.5,624.1
		l-2.7,2.7l118,118h49.6V741z M810.9,760.6h-40.2l-43.2-43.2h-52.6l-33.3,33.3l2.7,2.7l32.1-32.1h49.4l43.2,43.2h41.8V760.6z
		 M704,743.9l-2.7-2.7l-26.4,26.4h-37.6l-15.9-15.9v-33.2l-36.4-36.4v-42.3l-14.1-14.1l-2.7,2.7l13,13v42.3l36.4,36.4v33.2
		l18.1,18.1h40.7L704,743.9z M698.1,686.5l-59.3-59.3l-2.7,2.7l59.3,59.3L698.1,686.5z M667.1,686.5l-59.3-59.3l-2.7,2.7l59.3,59.3
		L667.1,686.5z M711.9,698.5H637l-31.8-31.8l-2.7,2.7l32.9,32.9h76.5V698.5z M659.5,714.9l-2.7-2.7l-24.2,24.2l2.7,2.7L659.5,714.9z
		 M645.5,708.2l-2.7-2.7l-12.4,12.4l2.7,2.7L645.5,708.2z M387.2,873.3v-96.1l-50.6-50.6H213.1l-34.5,34.5H96.1l-22.1-22.1H-106
		l-31.4,31.4h-100.3l-17.5-17.5v-24.8l22.8-22.8l-2.7-2.7l-23.9,23.9v28l19.8,19.8h103.5l31.4-31.4H72.5L94.6,765h85.6l34.5-34.5
		H335l48.3,48.3v92.9l-39.4,39.4H162.8l-29.3-29.3H30.3L-52,799.5h-136.6l-46,46h-71.6l-20.7-20.7v-61.6l80.1-80.1h19.5l39.5,39.5
		H59.6l46.5-46.5h52.8l48.4-48.4H419l37.9-37.9l-2.7-2.7l-36.8,36.7H205.8l-48.4,48.4h-52.8L58,718.8h-244.1l-39.5-39.5h-22.6
		l-82.4,82.4v64.8l22.9,22.9h74.7l46-46h133.4l82.3,82.3h103.2l29.3,29.3h184.3L387.2,873.3z M365.8,783.5l-39.5-39.5h-99.8
		l-32.9,32.9H86.2l-20.3-20.3H-95.6v3.8H64.3l20.3,20.3h110.6l32.9-32.9h96.7l37.3,37.3v75.3h3.8V783.5z M349.9,852.7v-57.4
		l-22.5-22.5h-42.1l-13.7-13.7h-36.3l-36.2,36.2H83.5l-13.3-13.3H41.5l-18.2,18.2H-8.2L-36.5,772h-59.2v3.8h57.6l28.3,28.3h34.6
		L43,785.9h25.7L82,799.2h118.7l36.2-36.2H270l13.7,13.7h42.1l20.3,20.3v54.2l-34.7,34.7h-78.6l-27-27v-31.7l46.7-46.7H270
		l25.8,25.8h30.8v-3.8h-29.2l-25.8-25.8H251l-49,49v34.8l29.2,29.2H313L349.9,852.7z M80.3,632.1h65l37.7-37.7l-2.7-2.7l-36.6,36.6
		h-65l-37.3,37.3H-137l-33.6-33.6h-42.1l-81.3-81.3h-38.5l-17.4,17.4h-148.1v3.8h149.7l17.4-17.4h35.4l81.3,81.3h42.1l33.6,33.6H43
		L80.3,632.1z M1040.6,943.7l-2.7-2.7L992,986.8l2.7,2.7L1040.6,943.7z M973,983.4v-15.6l21.1-21.1h16.1l23.3-23.3l-2.7-2.7
		l-22.2,22.2h-16.1l-23.4,23.4v15.6l-26.7,26.7l2.7,2.7L973,983.4z M1001.9,956.8l-2.7-2.7l-17.9,17.9l2.7,2.7L1001.9,956.8z
		 M776,960.3l18.6-18.6v-54l32.9-32.9h38.8l44.6,44.6h54.1l26.5-26.5h24.1l29.9,29.9l2.7-2.7l-31-31H990l-26.5,26.5h-51L868,850.9
		h-42l-35.2,35.2v54l-18.6,18.6v42.4h3.8V960.3z M936.9,956.8v-30.8l-14-14h-25.1l-43.6-43.6l-2.7,2.7l44.7,44.7h25.1l11.8,11.8
		v27.6l-37.5,37.5l2.7,2.7L936.9,956.8z M1011,902.7l-2.7-2.7l-24.4,24.4H955v3.8h30.5L1011,902.7z M808.3,945v-53.3l17.5-17.5H838
		l27.9,27.9v36.5l14,14h25l12.9-12.9l-2.7-2.7l-11.8,11.8h-21.9l-11.7-11.7v-36.5l-30.2-30.2h-15.5l-19.7,19.7v53.3l-21.9,21.9
		l2.7,2.7L808.3,945z M854,915.2l-21.1-21.1h-14.3v3.8h12.7l19.9,19.9L854,915.2z M848.8,894.9l-15.7-15.7l-2.7,2.7l15.7,15.7
		L848.8,894.9z M868.4,954.4l-2.7-2.7l-22.9,22.9l2.7,2.7L868.4,954.4z M852.5,954.4l-2.7-2.7l-22.9,22.9l2.7,2.7L852.5,954.4z
		 M836.6,954.4l-2.7-2.7L811,974.6l2.7,2.7L836.6,954.4z M820.8,954.4l-2.7-2.7l-22.9,22.9l2.7,2.7L820.8,954.4z M404.1-9l-2.7-2.7
		L284.6,105H119.7v3.8h166.5L404.1-9z M48.9,88.4h119.6v-3.8H47.3l-22.7,22.7h-147.9v3.8H26.1L48.9,88.4z M-311.2,259v-95.2
		l76.7-76.7h160.1l53.2-53.2l-2.7-2.7l-52.1,52.1h-160.1l-79,79v95.2l-72.3,72.3l2.7,2.7L-311.2,259z M-363.8,143h-3.8v115.3h3.8
		V143z M-336,153.3h-3.8v79.4h3.8V153.3z M473.5,96.3l-2.7-2.7l-60,60h-65.3L314.8,123l-2.7,2.7l31.8,31.8h68.4L473.5,96.3z
		 M293.4,124.8h-85.7v3.8h85.7V124.8z M399.1,117.4l-36-36l-2.7,2.7l36,36L399.1,117.4z M362.3,126.9L335,99.5l-2.7,2.7l27.3,27.3
		L362.3,126.9z M460.9,142.5l-2.7-2.7l-34.9,34.9h-59.8v3.8h61.4L460.9,142.5z M619.1,339.3l-37.7-37.7h-77.1v3.8h75.5l36.6,36.6
		L619.1,339.3z M496.4,321.3h76.5l12.6,12.6l2.7-2.7l-13.8-13.8h-79.7l-32.9,32.9l2.7,2.7L496.4,321.3z M604.8,364h69.8v-3.8h-71.3
		l-18.7,18.7h-92.5v3.8h94.1L604.8,364z M578,355.5l-25.3-25.3l-2.7,2.7l25.3,25.3L578,355.5z M557.4,355.5l-25.3-25.3l-2.7,2.7
		l25.3,25.3L557.4,355.5z M536.7,355.5l-25.3-25.3l-2.7,2.7l25.3,25.3L536.7,355.5z M909.2,805.6h-52.5v3.8h52.5V805.6z M909,790.9
		h-52.5v3.8H909V790.9z M908.8,776.1h-52.5v3.8h52.5V776.1z M282.4,868.9l-37.1-37.1l-2.7,2.7l37.1,37.1L282.4,868.9z M292.8,858.4
		l-37.1-37.1L253,824l37.1,37.1L292.8,858.4z M303.1,847.8L266,810.7l-2.7,2.7l37.1,37.1L303.1,847.8z M690.2,236.9v-51l27.3-27.3
		h91.2v-3.8h-92.8l-29.6,29.6v51l-31,31h-36.8l-31-31h-62.9v3.8h61.3l31,31h40L690.2,236.9z M732.7,249.1v-28.4l25.1-25.1h50.9v-3.8
		h-52.5L728.8,219v28.4L677.3,299h-40.4v3.8h42L732.7,249.1z M742.4,171.7l-2.7-2.7l-33.6,33.6l2.7,2.7L742.4,171.7z M675.9,213.8
		l-2.7-2.7l-25.9,25.9h-37.4v3.8h39L675.9,213.8z M876.7,122.3V86.8h-3.8v33.9l-25.5,25.5l2.7,2.7L876.7,122.3z M581.6,162.4h67.8
		l32.3-32.3h123.8L837,98.5h18.6v-3.8h-20.2l-31.6,31.6H680.1l-32.3,32.3H580L477.4,261.2l2.7,2.7L581.6,162.4z M316.6,967.4H140.2
		L102.8,930H9.9l-85.5-85.5h-99.1l-37,37h-98.2l-60.1-60.1h-49.8l-98.3,98.3l2.7,2.7l97.1-97.1h46.6l60.1,60.1h101.4l37-37h95.9
		l85.5,85.5h92.9l37.4,37.4h178V967.4z M-410.3,983.1v-51l31-31h36.8l31,31h62.9v-3.8h-61.3l-31-31h-40l-33.3,33.3v51l-27.3,27.3
		h-91.2v3.8h92.8L-410.3,983.1z M-452.8,948.3v-28.4l51.5-51.5h40.4v-3.8h-42l-53.8,53.8v28.4l-25.1,25.1h-50.9v3.8h52.5
		L-452.8,948.3z M-527.8,1041.1H-404l32.3-32.3h67.8l102.6-102.6l-2.7-2.7l-101.5,101.5h-67.8l-32.3,32.3h-123.8l-31.6,31.6h-18.6
		v3.8h20.2L-527.8,1041.1z M650.6,197.2l-15.9-15.9h-50.3l-29.7,29.7l2.7,2.7l28.6-28.6h47.2l13.7,13.7v24.3h3.8V197.2z
		 M627.2,217.4L610,200.2h-23v3.8h21.4l16.1,16.1L627.2,217.4z M639.4,1003.8L497,861.4V759.1l-82.2-82.2H226.4l-33.3,33.3h-73v3.8
		h74.6l33.3-33.3h185.2l80,80V863l143.5,143.5L639.4,1003.8z M496.5,655.3H324.8v3.8h171.8V655.3z M285.2,655.3h-65.4v3.8h65.4
		V655.3z M390.4,921.2l50.4-50.4V767.6l-70.7-70.7l-2.7,2.7l69.6,69.6v100l-50.4,50.4v119.6h3.8V921.2z M472.2,778.4h-3.8v164h3.8
		V778.4z M421.1,955.5l36.4-36.4v-29.2h-3.8v27.7L417.2,954v68.6h3.8V955.5z M594.7,1010.1l-86.3-86.3l-2.7,2.7l86.3,86.3
		L594.7,1010.1z M557.9,1004.4l-43.6-43.6h-67.7v3.8h66.1l42.5,42.5L557.9,1004.4z M694.8,927.7v-38.2l63.5-63.5l-2.7-2.7L691,887.8
		v38.2l-19.7,19.7H637l-72.6-72.6v-32l-28.5-28.5v-70.5L480.7,687l-2.7,2.7l54,54v70.5l28.5,28.5v32l74.9,74.9h37.5L694.8,927.7z
		 M665.1,909.2v-52.9h-3.8v51.3L646.8,922l2.7,2.7L665.1,909.2z M633.1,884.5L595.6,847l-2.7,2.7l37.5,37.5L633.1,884.5z
		 M983.1,813.9H1088v-3.8H981.5l-48.2,48.2l2.7,2.7L983.1,813.9z M-128.8,939.8v-32.2l-23.3-23.3v-17.3l7.2-7.2h48.5l35.9,35.9V922
		l-29,29h-25.3v3.8H-88l31.3-31.3v-29.4l-38.2-38.2h-51.6l-9.4,9.4v20.4l23.3,23.3v29.1l-14.8,14.8h-39.5v3.8h41.1L-128.8,939.8z
		 M-77.5,913.3v-21.2l-20-20h-33.7v3.8H-99l17.7,17.7v18L-97,927.4l2.7,2.7L-77.5,913.3z M-110,889.9h-3.8v26.6h3.8V889.9z
		 M144.7,1009.4L91,955.6H50.2l-14,14h-76.8v3.8h78.4l14-14h37.6l52.6,52.6L144.7,1009.4z M-33.5,933.2h16.9L-1.9,948h71v-3.8H-0.3
		L-15,929.4h-20.1l-85.9,85.9l2.7,2.7L-33.5,933.2z M354.4,962.6l-32.5-32.5H153.8l-26.2-26.2H20.8l-85.1-85.1h-111.1v3.8h109.5
		l85.1,85.1H126l26.2,26.2h168.1l30.3,30.3v46.5h3.8V962.6z M-204.7,846.6l-2.7-2.7l-19.9,19.9h-77v3.8h78.6L-204.7,846.6z
		 M984.2,745.9l8.9-8.9h90.1v-3.8h-91.7l-11.1,11.1v20.7h3.8V745.9z M993.2,995.8c3.7,0,6.6-3,6.6-6.6c0-3.7-3-6.6-6.6-6.6
		c-3.7,0-6.6,3-6.6,6.6C986.6,992.8,989.5,995.8,993.2,995.8z M1039.4,948.8c3.7,0,6.6-3,6.6-6.6c0-3.7-3-6.6-6.6-6.6
		s-6.6,3-6.6,6.6C1032.7,945.9,1035.7,948.8,1039.4,948.8z M1032,928.9c3.7,0,6.6-3,6.6-6.6s-3-6.6-6.6-6.6s-6.6,3-6.6,6.6
		S1028.3,928.9,1032,928.9z M1001,962.1c3.7,0,6.6-3,6.6-6.6s-3-6.6-6.6-6.6c-3.7,0-6.6,3-6.6,6.6S997.3,962.1,1001,962.1z
		 M982.5,979.9c3.7,0,6.6-3,6.6-6.6c0-3.7-3-6.6-6.6-6.6c-3.7,0-6.6,3-6.6,6.6C975.8,976.9,978.8,979.9,982.5,979.9z M943.7,1016.4
		c3.7,0,6.6-3,6.6-6.6c0-3.7-3-6.6-6.6-6.6c-3.7,0-6.6,3-6.6,6.6C937.1,1013.5,940,1016.4,943.7,1016.4z M896.4,1000.6
		c3.7,0,6.6-3,6.6-6.6c0-3.7-3-6.6-6.6-6.6s-6.6,3-6.6,6.6C889.8,997.6,892.7,1000.6,896.4,1000.6z M915.6,945.2
		c3.7,0,6.6-3,6.6-6.6s-3-6.6-6.6-6.6c-3.7,0-6.6,3-6.6,6.6S912,945.2,915.6,945.2z M953.7,931.9c3.7,0,6.6-3,6.6-6.6
		c0-3.7-3-6.6-6.6-6.6c-3.7,0-6.6,3-6.6,6.6C947,928.9,950,931.9,953.7,931.9z M1007.6,907.5c3.7,0,6.6-3,6.6-6.6
		c0-3.7-3-6.6-6.6-6.6c-3.7,0-6.6,3-6.6,6.6C1001,904.5,1003.9,907.5,1007.6,907.5z M1047.1,907.5c3.7,0,6.6-3,6.6-6.6
		c0-3.7-3-6.6-6.6-6.6c-3.7,0-6.6,3-6.6,6.6C1040.5,904.5,1043.5,907.5,1047.1,907.5z M934.8,866.1c3.7,0,6.6-3,6.6-6.6
		s-3-6.6-6.6-6.6c-3.7,0-6.6,3-6.6,6.6S931.2,866.1,934.8,866.1z M865,959.6c3.7,0,6.6-3,6.6-6.6s-3-6.6-6.6-6.6
		c-3.7,0-6.6,3-6.6,6.6S861.3,959.6,865,959.6z M844,982.5c3.7,0,6.6-3,6.6-6.6c0-3.7-3-6.6-6.6-6.6c-3.7,0-6.6,3-6.6,6.6
		C837.3,979.5,840.3,982.5,844,982.5z M850.6,959.9c3.7,0,6.6-3,6.6-6.6c0-3.7-3-6.6-6.6-6.6s-6.6,3-6.6,6.6
		C844,957,846.9,959.9,850.6,959.9z M828.8,982.5c3.7,0,6.6-3,6.6-6.6c0-3.7-3-6.6-6.6-6.6c-3.7,0-6.6,3-6.6,6.6
		C822.2,979.5,825.1,982.5,828.8,982.5z M812.6,982.5c3.7,0,6.6-3,6.6-6.6c0-3.7-3-6.6-6.6-6.6c-3.7,0-6.6,3-6.6,6.6
		C805.9,979.5,808.9,982.5,812.6,982.5z M796.3,982.5c3.7,0,6.6-3,6.6-6.6c0-3.7-3-6.6-6.6-6.6c-3.7,0-6.6,3-6.6,6.6
		C789.7,979.5,792.6,982.5,796.3,982.5z M835.5,959.6c3.7,0,6.6-3,6.6-6.6s-3-6.6-6.6-6.6c-3.7,0-6.6,3-6.6,6.6
		S831.8,959.6,835.5,959.6z M819.2,959.6c3.7,0,6.6-3,6.6-6.6s-3-6.6-6.6-6.6c-3.7,0-6.6,3-6.6,6.6S815.5,959.6,819.2,959.6z
		 M818.5,902.7c3.7,0,6.6-3,6.6-6.6c0-3.7-3-6.6-6.6-6.6c-3.7,0-6.6,3-6.6,6.6C811.8,899.7,814.8,902.7,818.5,902.7z M852.1,923.4
		c3.7,0,6.6-3,6.6-6.6c0-3.7-3-6.6-6.6-6.6c-3.7,0-6.6,3-6.6,6.6C845.4,920.4,848.4,923.4,852.1,923.4z M847.3,903.4
		c3.7,0,6.6-3,6.6-6.6c0-3.7-3-6.6-6.6-6.6c-3.7,0-6.6,3-6.6,6.6C840.6,900.4,843.6,903.4,847.3,903.4z M831.8,887.5
		c3.7,0,6.6-3,6.6-6.6s-3-6.6-6.6-6.6c-3.7,0-6.6,3-6.6,6.6S828.1,887.5,831.8,887.5z M852.1,876.4c3.7,0,6.6-3,6.6-6.6
		c0-3.7-3-6.6-6.6-6.6c-3.7,0-6.6,3-6.6,6.6C845.4,873.5,848.4,876.4,852.1,876.4z M774.1,1007.2c3.7,0,6.6-3,6.6-6.6
		c0-3.7-3-6.6-6.6-6.6s-6.6,3-6.6,6.6C767.5,1004.2,770.5,1007.2,774.1,1007.2z M783.8,973.2c3.7,0,6.6-3,6.6-6.6
		c0-3.7-3-6.6-6.6-6.6c-3.7,0-6.6,3-6.6,6.6C777.1,970.3,780.1,973.2,783.8,973.2z M727.6,1007.2c3.7,0,6.6-3,6.6-6.6
		c0-3.7-3-6.6-6.6-6.6c-3.7,0-6.6,3-6.6,6.6C721,1004.2,723.9,1007.2,727.6,1007.2z M757.2,831.4c3.7,0,6.6-3,6.6-6.6
		c0-3.7-3-6.6-6.6-6.6c-3.7,0-6.6,3-6.6,6.6C750.5,828.4,753.5,831.4,757.2,831.4z M648.9,930c3.7,0,6.6-3,6.6-6.6
		c0-3.7-3-6.6-6.6-6.6c-3.7,0-6.6,3-6.6,6.6C642.3,927,645.2,930,648.9,930z M664.1,862.8c3.7,0,6.6-3,6.6-6.6c0-3.7-3-6.6-6.6-6.6
		c-3.7,0-6.6,3-6.6,6.6C657.4,859.8,660.4,862.8,664.1,862.8z M631.9,892.7c3.7,0,6.6-3,6.6-6.6c0-3.7-3-6.6-6.6-6.6
		c-3.7,0-6.6,3-6.6,6.6C625.3,889.7,628.3,892.7,631.9,892.7z M595.4,856.1c3.7,0,6.6-3,6.6-6.6s-3-6.6-6.6-6.6s-6.6,3-6.6,6.6
		S591.7,856.1,595.4,856.1z M507.1,931.9c3.7,0,6.6-3,6.6-6.6c0-3.7-3-6.6-6.6-6.6c-3.7,0-6.6,3-6.6,6.6
		C500.4,928.9,503.4,931.9,507.1,931.9z M470.1,948.8c3.7,0,6.6-3,6.6-6.6c0-3.7-3-6.6-6.6-6.6s-6.6,3-6.6,6.6
		C463.5,945.9,466.4,948.8,470.1,948.8z M446.5,969.2c3.7,0,6.6-3,6.6-6.6c0-3.7-3-6.6-6.6-6.6c-3.7,0-6.6,3-6.6,6.6
		C439.8,966.2,442.8,969.2,446.5,969.2z M419.1,1029c3.7,0,6.6-3,6.6-6.6c0-3.7-3-6.6-6.6-6.6c-3.7,0-6.6,3-6.6,6.6
		C412.5,1026,415.5,1029,419.1,1029z M388.5,1045.6c3.7,0,6.6-3,6.6-6.6s-3-6.6-6.6-6.6c-3.7,0-6.6,3-6.6,6.6
		S384.8,1045.6,388.5,1045.6z M352.6,1015.7c3.7,0,6.6-3,6.6-6.6c0-3.7-3-6.6-6.6-6.6c-3.7,0-6.6,3-6.6,6.6
		C346,1012.7,349,1015.7,352.6,1015.7z M316.4,975.1c3.7,0,6.6-3,6.6-6.6c0-3.7-3-6.6-6.6-6.6s-6.6,3-6.6,6.6
		C309.8,972.1,312.8,975.1,316.4,975.1z M281,876.8c3.7,0,6.6-3,6.6-6.6s-3-6.6-6.6-6.6s-6.6,3-6.6,6.6S277.3,876.8,281,876.8z
		 M291.3,866.8c3.7,0,6.6-3,6.6-6.6s-3-6.6-6.6-6.6s-6.6,3-6.6,6.6S287.7,866.8,291.3,866.8z M301.7,856.9c3.7,0,6.6-3,6.6-6.6
		c0-3.7-3-6.6-6.6-6.6s-6.6,3-6.6,6.6C295,853.9,298,856.9,301.7,856.9z M244,839.9c3.7,0,6.6-3,6.6-6.6s-3-6.6-6.6-6.6
		c-3.7,0-6.6,3-6.6,6.6S240.4,839.9,244,839.9z M68.9,952.9c3.7,0,6.6-3,6.6-6.6c0-3.7-3-6.6-6.6-6.6s-6.6,3-6.6,6.6
		C62.3,949.9,65.3,952.9,68.9,952.9z M143.6,1017.2c3.7,0,6.6-3,6.6-6.6c0-3.7-3-6.6-6.6-6.6c-3.7,0-6.6,3-6.6,6.6
		C136.9,1014.2,139.9,1017.2,143.6,1017.2z M-40.8,978c3.7,0,6.6-3,6.6-6.6c0-3.7-3-6.6-6.6-6.6s-6.6,3-6.6,6.6
		C-47.4,975.1-44.4,978-40.8,978z M-114.7,959.6c3.7,0,6.6-3,6.6-6.6s-3-6.6-6.6-6.6s-6.6,3-6.6,6.6S-118.3,959.6-114.7,959.6z
		 M-119.8,1023.1c3.7,0,6.6-3,6.6-6.6c0-3.7-3-6.6-6.6-6.6s-6.6,3-6.6,6.6C-126.5,1020.1-123.5,1023.1-119.8,1023.1z M-186.7,960.7
		c3.7,0,6.6-3,6.6-6.6c0-3.7-3-6.6-6.6-6.6c-3.7,0-6.6,3-6.6,6.6C-193.3,957.7-190.4,960.7-186.7,960.7z M-202.6,911.5
		c3.7,0,6.6-3,6.6-6.6c0-3.7-3-6.6-6.6-6.6c-3.7,0-6.6,3-6.6,6.6C-209.2,908.6-206.2,911.5-202.6,911.5z M-249.9,936.3
		c3.7,0,6.6-3,6.6-6.6c0-3.7-3-6.6-6.6-6.6c-3.7,0-6.6,3-6.6,6.6C-256.5,933.3-253.5,936.3-249.9,936.3z M-361.1,873.1
		c3.7,0,6.6-3,6.6-6.6s-3-6.6-6.6-6.6s-6.6,3-6.6,6.6S-364.7,873.1-361.1,873.1z M-384.7,737.2c3.7,0,6.6-3,6.6-6.6
		c0-3.7-3-6.6-6.6-6.6c-3.7,0-6.6,3-6.6,6.6C-391.3,734.2-388.4,737.2-384.7,737.2z M-398.5,722.6c3.7,0,6.6-3,6.6-6.6
		c0-3.7-3-6.6-6.6-6.6c-3.7,0-6.6,3-6.6,6.6C-405.2,719.6-402.2,722.6-398.5,722.6z M-414.1,707.4c3.7,0,6.6-3,6.6-6.6
		c0-3.7-3-6.6-6.6-6.6s-6.6,3-6.6,6.6C-420.7,704.5-417.7,707.4-414.1,707.4z M-318.9,670.3c3.7,0,6.6-3,6.6-6.6
		c0-3.7-3-6.6-6.6-6.6s-6.6,3-6.6,6.6C-325.6,667.3-322.6,670.3-318.9,670.3z M-332.8,655.7c3.7,0,6.6-3,6.6-6.6s-3-6.6-6.6-6.6
		s-6.6,3-6.6,6.6S-336.5,655.7-332.8,655.7z M-348.3,640.6c3.7,0,6.6-3,6.6-6.6s-3-6.6-6.6-6.6c-3.7,0-6.6,3-6.6,6.6
		S-352,640.6-348.3,640.6z M-459.7,605.3c3.7,0,6.6-3,6.6-6.6c0-3.7-3-6.6-6.6-6.6c-3.7,0-6.6,3-6.6,6.6
		C-466.3,602.3-463.4,605.3-459.7,605.3z M-498.1,576.5c3.7,0,6.6-3,6.6-6.6c0-3.7-3-6.6-6.6-6.6s-6.6,3-6.6,6.6
		C-504.8,573.5-501.8,576.5-498.1,576.5z M-233.2,710.9c3.7,0,6.6-3,6.6-6.6c0-3.7-3-6.6-6.6-6.6c-3.7,0-6.6,3-6.6,6.6
		C-239.9,708-236.9,710.9-233.2,710.9z M-175.2,827.3c3.7,0,6.6-3,6.6-6.6s-3-6.6-6.6-6.6c-3.7,0-6.6,3-6.6,6.6
		S-178.9,827.3-175.2,827.3z M-95.4,781.9c3.7,0,6.6-3,6.6-6.6c0-3.7-3-6.6-6.6-6.6s-6.6,3-6.6,6.6
		C-102.1,778.9-99.1,781.9-95.4,781.9z M-95.8,764.9c3.7,0,6.6-3,6.6-6.6c0-3.7-3-6.6-6.6-6.6s-6.6,3-6.6,6.6
		C-102.5,761.9-99.5,764.9-95.8,764.9z M120.3,718.7c3.7,0,6.6-3,6.6-6.6s-3-6.6-6.6-6.6s-6.6,3-6.6,6.6S116.6,718.7,120.3,718.7z
		 M219.7,663.7c3.7,0,6.6-3,6.6-6.6c0-3.7-3-6.6-6.6-6.6c-3.7,0-6.6,3-6.6,6.6C213,660.7,216,663.7,219.7,663.7z M285.4,663.7
		c3.7,0,6.6-3,6.6-6.6c0-3.7-3-6.6-6.6-6.6s-6.6,3-6.6,6.6C278.8,660.7,281.7,663.7,285.4,663.7z M324.9,663.7c3.7,0,6.6-3,6.6-6.6
		c0-3.7-3-6.6-6.6-6.6s-6.6,3-6.6,6.6C318.3,660.7,321.3,663.7,324.9,663.7z M495.2,664c3.7,0,6.6-3,6.6-6.6c0-3.7-3-6.6-6.6-6.6
		s-6.6,3-6.6,6.6C488.6,661.1,491.6,664,495.2,664z M479.4,695.1c3.7,0,6.6-3,6.6-6.6c0-3.7-3-6.6-6.6-6.6c-3.7,0-6.6,3-6.6,6.6
		C472.7,692.1,475.7,695.1,479.4,695.1z M368.5,705c3.7,0,6.6-3,6.6-6.6c0-3.7-3-6.6-6.6-6.6s-6.6,3-6.6,6.6
		C361.9,702.1,364.9,705,368.5,705z M455.7,595c3.7,0,6.6-3,6.6-6.6c0-3.7-3-6.6-6.6-6.6s-6.6,3-6.6,6.6
		C449.1,592,452,595,455.7,595z M403.6,606.8c3.7,0,6.6-3,6.6-6.6c0-3.7-3-6.6-6.6-6.6s-6.6,3-6.6,6.6
		C397,603.8,400,606.8,403.6,606.8z M181.6,600.1c3.7,0,6.6-3,6.6-6.6s-3-6.6-6.6-6.6c-3.7,0-6.6,3-6.6,6.6S177.9,600.1,181.6,600.1
		z M156.5,555.8c3.7,0,6.6-3,6.6-6.6c0-3.7-3-6.6-6.6-6.6c-3.7,0-6.6,3-6.6,6.6C149.8,552.8,152.8,555.8,156.5,555.8z M227.1,511.1
		c3.7,0,6.6-3,6.6-6.6s-3-6.6-6.6-6.6c-3.7,0-6.6,3-6.6,6.6S223.4,511.1,227.1,511.1z M156.5,479.3c3.7,0,6.6-3,6.6-6.6
		c0-3.7-3-6.6-6.6-6.6c-3.7,0-6.6,3-6.6,6.6C149.8,476.3,152.8,479.3,156.5,479.3z M156.9,460.5c3.7,0,6.6-3,6.6-6.6
		c0-3.7-3-6.6-6.6-6.6c-3.7,0-6.6,3-6.6,6.6C150.2,457.5,153.2,460.5,156.9,460.5z M156.9,372.6c3.7,0,6.6-3,6.6-6.6
		c0-3.7-3-6.6-6.6-6.6c-3.7,0-6.6,3-6.6,6.6C150.2,369.6,153.2,372.6,156.9,372.6z M249.6,386.2c3.7,0,6.6-3,6.6-6.6s-3-6.6-6.6-6.6
		c-3.7,0-6.6,3-6.6,6.6S245.9,386.2,249.6,386.2z M273.2,515.9c3.7,0,6.6-3,6.6-6.6c0-3.7-3-6.6-6.6-6.6s-6.6,3-6.6,6.6
		C266.6,512.9,269.6,515.9,273.2,515.9z M317.6,506.7c3.7,0,6.6-3,6.6-6.6s-3-6.6-6.6-6.6c-3.7,0-6.6,3-6.6,6.6
		S313.9,506.7,317.6,506.7z M331.2,506.7c3.7,0,6.6-3,6.6-6.6s-3-6.6-6.6-6.6s-6.6,3-6.6,6.6S327.6,506.7,331.2,506.7z M345.3,506.7
		c3.7,0,6.6-3,6.6-6.6s-3-6.6-6.6-6.6s-6.6,3-6.6,6.6S341.6,506.7,345.3,506.7z M317.6,456.1c3.7,0,6.6-3,6.6-6.6
		c0-3.7-3-6.6-6.6-6.6c-3.7,0-6.6,3-6.6,6.6C310.9,453.1,313.9,456.1,317.6,456.1z M331.2,456.1c3.7,0,6.6-3,6.6-6.6
		c0-3.7-3-6.6-6.6-6.6s-6.6,3-6.6,6.6C324.6,453.1,327.6,456.1,331.2,456.1z M345.3,456.1c3.7,0,6.6-3,6.6-6.6c0-3.7-3-6.6-6.6-6.6
		s-6.6,3-6.6,6.6C338.6,453.1,341.6,456.1,345.3,456.1z M-304.2,872.4c3.7,0,6.6-3,6.6-6.6s-3-6.6-6.6-6.6c-3.7,0-6.6,3-6.6,6.6
		S-307.8,872.4-304.2,872.4z M-207,852.8c3.7,0,6.6-3,6.6-6.6c0-3.7-3-6.6-6.6-6.6c-3.7,0-6.6,3-6.6,6.6
		C-213.7,849.8-210.7,852.8-207,852.8z M-95.4,935.2c3.7,0,6.6-3,6.6-6.6s-3-6.6-6.6-6.6s-6.6,3-6.6,6.6S-99.1,935.2-95.4,935.2z
		 M-112.1,923c3.7,0,6.6-3,6.6-6.6c0-3.7-3-6.6-6.6-6.6s-6.6,3-6.6,6.6C-118.7,920-115.7,923-112.1,923z M-112.1,896.4
		c3.7,0,6.6-3,6.6-6.6c0-3.7-3-6.6-6.6-6.6s-6.6,3-6.6,6.6C-118.7,893.4-115.7,896.4-112.1,896.4z M-131.3,880.5
		c3.7,0,6.6-3,6.6-6.6s-3-6.6-6.6-6.6c-3.7,0-6.6,3-6.6,6.6S-134.9,880.5-131.3,880.5z M254.4,829.9c3.7,0,6.6-3,6.6-6.6
		c0-3.7-3-6.6-6.6-6.6c-3.7,0-6.6,3-6.6,6.6C247.7,826.9,250.7,829.9,254.4,829.9z M264.7,819.9c3.7,0,6.6-3,6.6-6.6
		c0-3.7-3-6.6-6.6-6.6s-6.6,3-6.6,6.6C258.1,816.9,261.1,819.9,264.7,819.9z M364.1,865.7c3.7,0,6.6-3,6.6-6.6c0-3.7-3-6.6-6.6-6.6
		s-6.6,3-6.6,6.6C357.5,862.8,360.4,865.7,364.1,865.7z M326.4,810.7c3.7,0,6.6-3,6.6-6.6c0-3.7-3-6.6-6.6-6.6c-3.7,0-6.6,3-6.6,6.6
		C319.8,807.7,322.7,810.7,326.4,810.7z M556.6,1012.4c3.7,0,6.6-3,6.6-6.6s-3-6.6-6.6-6.6c-3.7,0-6.6,3-6.6,6.6
		S552.9,1012.4,556.6,1012.4z M593.5,1017.9c3.7,0,6.6-3,6.6-6.6s-3-6.6-6.6-6.6s-6.6,3-6.6,6.6S589.8,1017.9,593.5,1017.9z
		 M638.6,1011.6c3.7,0,6.6-3,6.6-6.6s-3-6.6-6.6-6.6s-6.6,3-6.6,6.6S634.9,1011.6,638.6,1011.6z M455.7,897.9c3.7,0,6.6-3,6.6-6.6
		c0-3.7-3-6.6-6.6-6.6s-6.6,3-6.6,6.6C449.1,894.9,452,897.9,455.7,897.9z M470.1,784.5c3.7,0,6.6-3,6.6-6.6c0-3.7-3-6.6-6.6-6.6
		s-6.6,3-6.6,6.6C463.5,781.5,466.4,784.5,470.1,784.5z M856.5,814c3.7,0,6.6-3,6.6-6.6s-3-6.6-6.6-6.6c-3.7,0-6.6,3-6.6,6.6
		S852.9,814,856.5,814z M856.5,799.2c3.7,0,6.6-3,6.6-6.6c0-3.7-3-6.6-6.6-6.6c-3.7,0-6.6,3-6.6,6.6
		C849.9,796.3,852.9,799.2,856.5,799.2z M856.2,784.5c3.7,0,6.6-3,6.6-6.6c0-3.7-3-6.6-6.6-6.6c-3.7,0-6.6,3-6.6,6.6
		C849.5,781.5,852.5,784.5,856.2,784.5z M909,783.7c3.7,0,6.6-3,6.6-6.6c0-3.7-3-6.6-6.6-6.6s-6.6,3-6.6,6.6
		C902.3,780.7,905.3,783.7,909,783.7z M919.7,760.4c3.7,0,6.6-3,6.6-6.6c0-3.7-3-6.6-6.6-6.6s-6.6,3-6.6,6.6
		C913,757.5,916,760.4,919.7,760.4z M982.5,771.2c3.7,0,6.6-3,6.6-6.6c0-3.7-3-6.6-6.6-6.6c-3.7,0-6.6,3-6.6,6.6
		C975.8,768.2,978.8,771.2,982.5,771.2z M828.4,749.4c3.7,0,6.6-3,6.6-6.6c0-3.7-3-6.6-6.6-6.6c-3.7,0-6.6,3-6.6,6.6
		C821.8,746.4,824.8,749.4,828.4,749.4z M809.6,768.9c3.7,0,6.6-3,6.6-6.6s-3-6.6-6.6-6.6c-3.7,0-6.6,3-6.6,6.6
		S805.9,768.9,809.6,768.9z M726.9,771.2c3.7,0,6.6-3,6.6-6.6c0-3.7-3-6.6-6.6-6.6c-3.7,0-6.6,3-6.6,6.6
		C720.2,768.2,723.2,771.2,726.9,771.2z M701.4,749.4c3.7,0,6.6-3,6.6-6.6c0-3.7-3-6.6-6.6-6.6s-6.6,3-6.6,6.6
		C694.7,746.4,697.7,749.4,701.4,749.4z M712.1,706.9c3.7,0,6.6-3,6.6-6.6s-3-6.6-6.6-6.6s-6.6,3-6.6,6.6S708.4,706.9,712.1,706.9z
		 M696.6,694.3c3.7,0,6.6-3,6.6-6.6s-3-6.6-6.6-6.6c-3.7,0-6.6,3-6.6,6.6S692.9,694.3,696.6,694.3z M664.1,694.3
		c3.7,0,6.6-3,6.6-6.6s-3-6.6-6.6-6.6c-3.7,0-6.6,3-6.6,6.6S660.4,694.3,664.1,694.3z M606.4,635.6c3.7,0,6.6-3,6.6-6.6
		c0-3.7-3-6.6-6.6-6.6c-3.7,0-6.6,3-6.6,6.6C599.8,632.6,602.8,635.6,606.4,635.6z M637.8,635.6c3.7,0,6.6-3,6.6-6.6
		c0-3.7-3-6.6-6.6-6.6c-3.7,0-6.6,3-6.6,6.6C631.2,632.6,634.2,635.6,637.8,635.6z M664.1,631.9c3.7,0,6.6-3,6.6-6.6
		c0-3.7-3-6.6-6.6-6.6c-3.7,0-6.6,3-6.6,6.6C657.4,628.9,660.4,631.9,664.1,631.9z M708,562.1c3.7,0,6.6-3,6.6-6.6
		c0-3.7-3-6.6-6.6-6.6c-3.7,0-6.6,3-6.6,6.6C701.4,559.1,704.3,562.1,708,562.1z M569.5,633.7c3.7,0,6.6-3,6.6-6.6
		c0-3.7-3-6.6-6.6-6.6c-3.7,0-6.6,3-6.6,6.6C562.8,630.8,565.8,633.7,569.5,633.7z M528.5,614.9c3.7,0,6.6-3,6.6-6.6
		c0-3.7-3-6.6-6.6-6.6c-3.7,0-6.6,3-6.6,6.6C521.8,611.9,524.8,614.9,528.5,614.9z M486.7,515.2c3.7,0,6.6-3,6.6-6.6s-3-6.6-6.6-6.6
		s-6.6,3-6.6,6.6S483.1,515.2,486.7,515.2z M415.8,497.4c3.7,0,6.6-3,6.6-6.6c0-3.7-3-6.6-6.6-6.6c-3.7,0-6.6,3-6.6,6.6
		C409.2,494.5,412.1,497.4,415.8,497.4z M424.3,477.1c3.7,0,6.6-3,6.6-6.6c0-3.7-3-6.6-6.6-6.6s-6.6,3-6.6,6.6
		C417.7,474.1,420.6,477.1,424.3,477.1z M368.5,424.7c3.7,0,6.6-3,6.6-6.6c0-3.7-3-6.6-6.6-6.6s-6.6,3-6.6,6.6
		C361.9,421.7,364.9,424.7,368.5,424.7z M278.8,464.2c3.7,0,6.6-3,6.6-6.6c0-3.7-3-6.6-6.6-6.6s-6.6,3-6.6,6.6
		C272.1,461.2,275.1,464.2,278.8,464.2z M348.6,402.1c3.7,0,6.6-3,6.6-6.6c0-3.7-3-6.6-6.6-6.6c-3.7,0-6.6,3-6.6,6.6
		C341.9,399.1,344.9,402.1,348.6,402.1z M463.5,428c3.7,0,6.6-3,6.6-6.6s-3-6.6-6.6-6.6c-3.7,0-6.6,3-6.6,6.6S459.8,428,463.5,428z
		 M514.8,460.5c3.7,0,6.6-3,6.6-6.6c0-3.7-3-6.6-6.6-6.6c-3.7,0-6.6,3-6.6,6.6C508.2,457.5,511.1,460.5,514.8,460.5z M396.2,392.9
		c3.7,0,6.6-3,6.6-6.6s-3-6.6-6.6-6.6c-3.7,0-6.6,3-6.6,6.6S392.6,392.9,396.2,392.9z M478.2,479.7c3.7,0,6.6-3,6.6-6.6
		s-3-6.6-6.6-6.6c-3.7,0-6.6,3-6.6,6.6S474.6,479.7,478.2,479.7z M551,453.5c3.7,0,6.6-3,6.6-6.6c0-3.7-3-6.6-6.6-6.6
		c-3.7,0-6.6,3-6.6,6.6C544.4,450.5,547.4,453.5,551,453.5z M655.2,509.6c3.7,0,6.6-3,6.6-6.6c0-3.7-3-6.6-6.6-6.6
		c-3.7,0-6.6,3-6.6,6.6C648.5,506.6,651.5,509.6,655.2,509.6z M708,521.4c3.7,0,6.6-3,6.6-6.6c0-3.7-3-6.6-6.6-6.6
		c-3.7,0-6.6,3-6.6,6.6C701.4,518.5,704.3,521.4,708,521.4z M624.5,538.4c3.7,0,6.6-3,6.6-6.6c0-3.7-3-6.6-6.6-6.6
		c-3.7,0-6.6,3-6.6,6.6C617.9,535.5,620.9,538.4,624.5,538.4z M855.8,526.6c3.7,0,6.6-3,6.6-6.6c0-3.7-3-6.6-6.6-6.6
		c-3.7,0-6.6,3-6.6,6.6C849.1,523.6,852.1,526.6,855.8,526.6z M875,546.6c3.7,0,6.6-3,6.6-6.6c0-3.7-3-6.6-6.6-6.6
		c-3.7,0-6.6,3-6.6,6.6C868.3,543.6,871.3,546.6,875,546.6z M879.1,497.4c3.7,0,6.6-3,6.6-6.6c0-3.7-3-6.6-6.6-6.6
		c-3.7,0-6.6,3-6.6,6.6C872.4,494.5,875.4,497.4,879.1,497.4z M848,483.8c3.7,0,6.6-3,6.6-6.6s-3-6.6-6.6-6.6c-3.7,0-6.6,3-6.6,6.6
		S844.4,483.8,848,483.8z M830.3,428c3.7,0,6.6-3,6.6-6.6s-3-6.6-6.6-6.6c-3.7,0-6.6,3-6.6,6.6S826.6,428,830.3,428z M796.3,421.3
		c3.7,0,6.6-3,6.6-6.6s-3-6.6-6.6-6.6c-3.7,0-6.6,3-6.6,6.6S792.6,421.3,796.3,421.3z M779.7,379.2c3.7,0,6.6-3,6.6-6.6
		c0-3.7-3-6.6-6.6-6.6c-3.7,0-6.6,3-6.6,6.6C773,376.2,776,379.2,779.7,379.2z M729.8,375.9c3.7,0,6.6-3,6.6-6.6s-3-6.6-6.6-6.6
		c-3.7,0-6.6,3-6.6,6.6S726.1,375.9,729.8,375.9z M674.4,368.5c3.7,0,6.6-3,6.6-6.6c0-3.7-3-6.6-6.6-6.6s-6.6,3-6.6,6.6
		C667.8,365.5,670.7,368.5,674.4,368.5z M493.4,387.7c3.7,0,6.6-3,6.6-6.6c0-3.7-3-6.6-6.6-6.6s-6.6,3-6.6,6.6
		C486.7,384.7,489.7,387.7,493.4,387.7z M463.1,358.2c3.7,0,6.6-3,6.6-6.6c0-3.7-3-6.6-6.6-6.6c-3.7,0-6.6,3-6.6,6.6
		C456.5,355.2,459.4,358.2,463.1,358.2z M478.6,269.1c3.7,0,6.6-3,6.6-6.6c0-3.7-3-6.6-6.6-6.6s-6.6,3-6.6,6.6
		C472,266.2,474.9,269.1,478.6,269.1z M504.5,310.1c3.7,0,6.6-3,6.6-6.6c0-3.7-3-6.6-6.6-6.6c-3.7,0-6.6,3-6.6,6.6
		C497.8,307.2,500.8,310.1,504.5,310.1z M587.2,338.2c3.7,0,6.6-3,6.6-6.6s-3-6.6-6.6-6.6s-6.6,3-6.6,6.6S583.6,338.2,587.2,338.2z
		 M616.8,346c3.7,0,6.6-3,6.6-6.6c0-3.7-3-6.6-6.6-6.6c-3.7,0-6.6,3-6.6,6.6C610.1,343,613.1,346,616.8,346z M313.5,324.5
		c3.7,0,6.6-3,6.6-6.6c0-3.7-3-6.6-6.6-6.6c-3.7,0-6.6,3-6.6,6.6C306.8,321.6,309.8,324.5,313.5,324.5z M363.7,183.1
		c3.7,0,6.6-3,6.6-6.6c0-3.7-3-6.6-6.6-6.6c-3.7,0-6.6,3-6.6,6.6C357.1,180.1,360.1,183.1,363.7,183.1z M459.4,147.6
		c3.7,0,6.6-3,6.6-6.6c0-3.7-3-6.6-6.6-6.6c-3.7,0-6.6,3-6.6,6.6C452.8,144.6,455.7,147.6,459.4,147.6z M472,101.4
		c3.7,0,6.6-3,6.6-6.6s-3-6.6-6.6-6.6c-3.7,0-6.6,3-6.6,6.6S468.3,101.4,472,101.4z M397.7,125.4c3.7,0,6.6-3,6.6-6.6
		s-3-6.6-6.6-6.6s-6.6,3-6.6,6.6S394,125.4,397.7,125.4z M360.8,133.6c3.7,0,6.6-3,6.6-6.6s-3-6.6-6.6-6.6s-6.6,3-6.6,6.6
		S357.1,133.6,360.8,133.6z M313.5,131.7c3.7,0,6.6-3,6.6-6.6c0-3.7-3-6.6-6.6-6.6c-3.7,0-6.6,3-6.6,6.6
		C306.8,128.7,309.8,131.7,313.5,131.7z M292.4,132.8c3.7,0,6.6-3,6.6-6.6c0-3.7-3-6.6-6.6-6.6c-3.7,0-6.6,3-6.6,6.6
		C285.8,129.8,288.8,132.8,292.4,132.8z M208.6,132.8c3.7,0,6.6-3,6.6-6.6c0-3.7-3-6.6-6.6-6.6c-3.7,0-6.6,3-6.6,6.6
		C201.9,129.8,204.9,132.8,208.6,132.8z M333.8,107.3c3.7,0,6.6-3,6.6-6.6s-3-6.6-6.6-6.6s-6.6,3-6.6,6.6S330.1,107.3,333.8,107.3z
		 M361.9,89.2c3.7,0,6.6-3,6.6-6.6s-3-6.6-6.6-6.6s-6.6,3-6.6,6.6S358.2,89.2,361.9,89.2z M166.8,93.3c3.7,0,6.6-3,6.6-6.6
		s-3-6.6-6.6-6.6c-3.7,0-6.6,3-6.6,6.6S163.2,93.3,166.8,93.3z M119.6,113.6c3.7,0,6.6-3,6.6-6.6s-3-6.6-6.6-6.6s-6.6,3-6.6,6.6
		S115.9,113.6,119.6,113.6z M120.3,229.2c3.7,0,6.6-3,6.6-6.6c0-3.7-3-6.6-6.6-6.6s-6.6,3-6.6,6.6
		C113.6,226.3,116.6,229.2,120.3,229.2z M47.9,249.6c3.7,0,6.6-3,6.6-6.6c0-3.7-3-6.6-6.6-6.6s-6.6,3-6.6,6.6
		C41.2,246.6,44.2,249.6,47.9,249.6z M-40.8,204.9c3.7,0,6.6-3,6.6-6.6c0-3.7-3-6.6-6.6-6.6s-6.6,3-6.6,6.6
		C-47.4,201.9-44.4,204.9-40.8,204.9z M-72.5,214.8c3.7,0,6.6-3,6.6-6.6c0-3.7-3-6.6-6.6-6.6s-6.6,3-6.6,6.6
		C-79.2,211.9-76.2,214.8-72.5,214.8z M-116.1,184.2c3.7,0,6.6-3,6.6-6.6c0-3.7-3-6.6-6.6-6.6s-6.6,3-6.6,6.6
		C-122.8,181.2-119.8,184.2-116.1,184.2z M-152.7,200.1c3.7,0,6.6-3,6.6-6.6c0-3.7-3-6.6-6.6-6.6c-3.7,0-6.6,3-6.6,6.6
		C-159.4,197.1-156.4,200.1-152.7,200.1z M-122.8,116.6c3.7,0,6.6-3,6.6-6.6s-3-6.6-6.6-6.6s-6.6,3-6.6,6.6
		S-126.5,116.6-122.8,116.6z M-186.7,160.9c3.7,0,6.6-3,6.6-6.6c0-3.7-3-6.6-6.6-6.6c-3.7,0-6.6,3-6.6,6.6
		C-193.3,157.9-190.4,160.9-186.7,160.9z M-224.7,188.6c3.7,0,6.6-3,6.6-6.6c0-3.7-3-6.6-6.6-6.6c-3.7,0-6.6,3-6.6,6.6
		C-231.4,185.6-228.4,188.6-224.7,188.6z M-212.2,174.6c3.7,0,6.6-3,6.6-6.6c0-3.7-3-6.6-6.6-6.6c-3.7,0-6.6,3-6.6,6.6
		C-218.8,171.6-215.9,174.6-212.2,174.6z M-308.6,112.1c3.7,0,6.6-3,6.6-6.6s-3-6.6-6.6-6.6s-6.6,3-6.6,6.6
		S-312.3,112.1-308.6,112.1z M-337.8,160.2c3.7,0,6.6-3,6.6-6.6c0-3.7-3-6.6-6.6-6.6s-6.6,3-6.6,6.6
		C-344.4,157.2-341.4,160.2-337.8,160.2z M-365.9,149.4c3.7,0,6.6-3,6.6-6.6s-3-6.6-6.6-6.6c-3.7,0-6.6,3-6.6,6.6
		S-369.5,149.4-365.9,149.4z M-391,188.6c3.7,0,6.6-3,6.6-6.6c0-3.7-3-6.6-6.6-6.6c-3.7,0-6.6,3-6.6,6.6
		C-397.6,185.6-394.6,188.6-391,188.6z M-477,284.3c3.7,0,6.6-3,6.6-6.6s-3-6.6-6.6-6.6s-6.6,3-6.6,6.6S-480.7,284.3-477,284.3z
		 M-365.9,264.7c3.7,0,6.6-3,6.6-6.6c0-3.7-3-6.6-6.6-6.6c-3.7,0-6.6,3-6.6,6.6C-372.5,261.7-369.5,264.7-365.9,264.7z
		 M-337.8,239.2c3.7,0,6.6-3,6.6-6.6c0-3.7-3-6.6-6.6-6.6s-6.6,3-6.6,6.6C-344.4,236.2-341.4,239.2-337.8,239.2z M-385.8,337.8
		c3.7,0,6.6-3,6.6-6.6c0-3.7-3-6.6-6.6-6.6s-6.6,3-6.6,6.6C-392.5,334.9-389.5,337.8-385.8,337.8z M-256.9,295c3.7,0,6.6-3,6.6-6.6
		s-3-6.6-6.6-6.6s-6.6,3-6.6,6.6S-260.5,295-256.9,295z M-478.9,364.8c3.7,0,6.6-3,6.6-6.6c0-3.7-3-6.6-6.6-6.6s-6.6,3-6.6,6.6
		C-485.5,361.8-482.6,364.8-478.9,364.8z M-476.3,341.2c3.7,0,6.6-3,6.6-6.6s-3-6.6-6.6-6.6c-3.7,0-6.6,3-6.6,6.6
		S-480,341.2-476.3,341.2z M-523.2,384.4c3.7,0,6.6-3,6.6-6.6s-3-6.6-6.6-6.6s-6.6,3-6.6,6.6S-526.9,384.4-523.2,384.4z
		 M-430.1,109.2c3.7,0,6.6-3,6.6-6.6s-3-6.6-6.6-6.6c-3.7,0-6.6,3-6.6,6.6S-433.8,109.2-430.1,109.2z M-459.7,133.6
		c3.7,0,6.6-3,6.6-6.6s-3-6.6-6.6-6.6c-3.7,0-6.6,3-6.6,6.6S-463.4,133.6-459.7,133.6z M510,337.5c3.7,0,6.6-3,6.6-6.6
		c0-3.7-3-6.6-6.6-6.6c-3.7,0-6.6,3-6.6,6.6C503.4,334.5,506.3,337.5,510,337.5z M530.7,337.5c3.7,0,6.6-3,6.6-6.6
		c0-3.7-3-6.6-6.6-6.6s-6.6,3-6.6,6.6C524.1,334.5,527,337.5,530.7,337.5z M551.4,336c3.7,0,6.6-3,6.6-6.6s-3-6.6-6.6-6.6
		s-6.6,3-6.6,6.6S547.7,336,551.4,336z M534,362.6c3.7,0,6.6-3,6.6-6.6c0-3.7-3-6.6-6.6-6.6c-3.7,0-6.6,3-6.6,6.6
		C527.4,359.6,530.4,362.6,534,362.6z M554.7,362.6c3.7,0,6.6-3,6.6-6.6c0-3.7-3-6.6-6.6-6.6c-3.7,0-6.6,3-6.6,6.6
		C548.1,359.6,551,362.6,554.7,362.6z M575.4,361.1c3.7,0,6.6-3,6.6-6.6s-3-6.6-6.6-6.6c-3.7,0-6.6,3-6.6,6.6
		S571.7,361.1,575.4,361.1z M636.7,307.6c3.7,0,6.6-3,6.6-6.6s-3-6.6-6.6-6.6s-6.6,3-6.6,6.6S633.1,307.6,636.7,307.6z M795.6,316.4
		c3.7,0,6.6-3,6.6-6.6c0-3.7-3-6.6-6.6-6.6s-6.6,3-6.6,6.6C788.9,313.4,791.9,316.4,795.6,316.4z M853.9,354.8c3.7,0,6.6-3,6.6-6.6
		s-3-6.6-6.6-6.6c-3.7,0-6.6,3-6.6,6.6S850.3,354.8,853.9,354.8z M902,372.6c3.7,0,6.6-3,6.6-6.6c0-3.7-3-6.6-6.6-6.6
		c-3.7,0-6.6,3-6.6,6.6C895.3,369.6,898.3,372.6,902,372.6z M918.6,395.1c3.7,0,6.6-3,6.6-6.6s-3-6.6-6.6-6.6c-3.7,0-6.6,3-6.6,6.6
		S914.9,395.1,918.6,395.1z M980.3,437.2c3.7,0,6.6-3,6.6-6.6c0-3.7-3-6.6-6.6-6.6c-3.7,0-6.6,3-6.6,6.6
		C973.6,434.2,976.6,437.2,980.3,437.2z M905.3,455.7c3.7,0,6.6-3,6.6-6.6c0-3.7-3-6.6-6.6-6.6s-6.6,3-6.6,6.6
		C898.6,452.7,901.6,455.7,905.3,455.7z M861.7,316.8c3.7,0,6.6-3,6.6-6.6c0-3.7-3-6.6-6.6-6.6c-3.7,0-6.6,3-6.6,6.6
		C855,313.8,858,316.8,861.7,316.8z M911.6,256.2c3.7,0,6.6-3,6.6-6.6c0-3.7-3-6.6-6.6-6.6s-6.6,3-6.6,6.6
		C904.9,253.2,907.9,256.2,911.6,256.2z M1039.4,271.7c3.7,0,6.6-3,6.6-6.6s-3-6.6-6.6-6.6s-6.6,3-6.6,6.6
		S1035.7,271.7,1039.4,271.7z M1063.8,181.6c3.7,0,6.6-3,6.6-6.6c0-3.7-3-6.6-6.6-6.6c-3.7,0-6.6,3-6.6,6.6
		C1057.1,178.6,1060.1,181.6,1063.8,181.6z M1031.3,167.9c3.7,0,6.6-3,6.6-6.6c0-3.7-3-6.6-6.6-6.6c-3.7,0-6.6,3-6.6,6.6
		C1024.6,164.9,1027.6,167.9,1031.3,167.9z M998.4,42.7c3.7,0,6.6-3,6.6-6.6s-3-6.6-6.6-6.6c-3.7,0-6.6,3-6.6,6.6
		S994.7,42.7,998.4,42.7z M1032.7,77c3.7,0,6.6-3,6.6-6.6s-3-6.6-6.6-6.6c-3.7,0-6.6,3-6.6,6.6S1029.1,77,1032.7,77z M1063.8,69.3
		c3.7,0,6.6-3,6.6-6.6c0-3.7-3-6.6-6.6-6.6c-3.7,0-6.6,3-6.6,6.6C1057.1,66.3,1060.1,69.3,1063.8,69.3z M801.1,47.1
		c3.7,0,6.6-3,6.6-6.6s-3-6.6-6.6-6.6s-6.6,3-6.6,6.6S797.4,47.1,801.1,47.1z M773.8,35.3c3.7,0,6.6-3,6.6-6.6s-3-6.6-6.6-6.6
		c-3.7,0-6.6,3-6.6,6.6S770.1,35.3,773.8,35.3z M792.6,283.5c3.7,0,6.6-3,6.6-6.6c0-3.7-3-6.6-6.6-6.6c-3.7,0-6.6,3-6.6,6.6
		C786,280.6,788.9,283.5,792.6,283.5z M792.6,253.2c3.7,0,6.6-3,6.6-6.6c0-3.7-3-6.6-6.6-6.6c-3.7,0-6.6,3-6.6,6.6
		C786,250.3,788.9,253.2,792.6,253.2z M808.5,200.1c3.7,0,6.6-3,6.6-6.6c0-3.7-3-6.6-6.6-6.6c-3.7,0-6.6,3-6.6,6.6
		C801.9,197.1,804.8,200.1,808.5,200.1z M848.8,154.2c3.7,0,6.6-3,6.6-6.6c0-3.7-3-6.6-6.6-6.6s-6.6,3-6.6,6.6
		C842.1,151.3,845.1,154.2,848.8,154.2z M808.1,163.1c3.7,0,6.6-3,6.6-6.6c0-3.7-3-6.6-6.6-6.6c-3.7,0-6.6,3-6.6,6.6
		C801.5,160.1,804.5,163.1,808.1,163.1z M740.9,177.1c3.7,0,6.6-3,6.6-6.6c0-3.7-3-6.6-6.6-6.6s-6.6,3-6.6,6.6
		C734.3,174.2,737.2,177.1,740.9,177.1z M707.3,210.4c3.7,0,6.6-3,6.6-6.6c0-3.7-3-6.6-6.6-6.6c-3.7,0-6.6,3-6.6,6.6
		C700.6,207.4,703.6,210.4,707.3,210.4z M673.3,218.9c3.7,0,6.6-3,6.6-6.6c0-3.7-3-6.6-6.6-6.6c-3.7,0-6.6,3-6.6,6.6
		C666.6,215.9,669.6,218.9,673.3,218.9z M648.5,230c3.7,0,6.6-3,6.6-6.6c0-3.7-3-6.6-6.6-6.6c-3.7,0-6.6,3-6.6,6.6
		C641.9,227,644.9,230,648.5,230z M625.6,224.1c3.7,0,6.6-3,6.6-6.6c0-3.7-3-6.6-6.6-6.6c-3.7,0-6.6,3-6.6,6.6
		C619,221.1,622,224.1,625.6,224.1z M586.9,207.8c3.7,0,6.6-3,6.6-6.6c0-3.7-3-6.6-6.6-6.6c-3.7,0-6.6,3-6.6,6.6
		C580.2,204.8,583.2,207.8,586.9,207.8z M610.1,246.6c3.7,0,6.6-3,6.6-6.6c0-3.7-3-6.6-6.6-6.6c-3.7,0-6.6,3-6.6,6.6
		C603.5,243.6,606.5,246.6,610.1,246.6z M524.4,243.3c3.7,0,6.6-3,6.6-6.6c0-3.7-3-6.6-6.6-6.6s-6.6,3-6.6,6.6
		C517.8,240.3,520.8,243.3,524.4,243.3z M556.2,218.9c3.7,0,6.6-3,6.6-6.6c0-3.7-3-6.6-6.6-6.6c-3.7,0-6.6,3-6.6,6.6
		C549.5,215.9,552.5,218.9,556.2,218.9z M855.4,103.3c3.7,0,6.6-3,6.6-6.6s-3-6.6-6.6-6.6c-3.7,0-6.6,3-6.6,6.6
		S851.7,103.3,855.4,103.3z M886.1,191.9c3.7,0,6.6-3,6.6-6.6c0-3.7-3-6.6-6.6-6.6c-3.7,0-6.6,3-6.6,6.6
		C879.4,188.9,882.4,191.9,886.1,191.9z M909.4,184.9c3.7,0,6.6-3,6.6-6.6c0-3.7-3-6.6-6.6-6.6c-3.7,0-6.6,3-6.6,6.6
		C902.7,181.9,905.7,184.9,909.4,184.9z M934.1,148.7c3.7,0,6.6-3,6.6-6.6c0-3.7-3-6.6-6.6-6.6s-6.6,3-6.6,6.6
		C927.5,145.7,930.4,148.7,934.1,148.7z M954.8,122.5c3.7,0,6.6-3,6.6-6.6s-3-6.6-6.6-6.6s-6.6,3-6.6,6.6S951.1,122.5,954.8,122.5z
		 M972.1,113.2c3.7,0,6.6-3,6.6-6.6s-3-6.6-6.6-6.6c-3.7,0-6.6,3-6.6,6.6S968.5,113.2,972.1,113.2z M1005.4,99.9
		c3.7,0,6.6-3,6.6-6.6s-3-6.6-6.6-6.6c-3.7,0-6.6,3-6.6,6.6S1001.7,99.9,1005.4,99.9z M918.6,83.7c3.7,0,6.6-3,6.6-6.6
		s-3-6.6-6.6-6.6c-3.7,0-6.6,3-6.6,6.6S914.9,83.7,918.6,83.7z M921.9,101.8c3.7,0,6.6-3,6.6-6.6s-3-6.6-6.6-6.6
		c-3.7,0-6.6,3-6.6,6.6S918.2,101.8,921.9,101.8z M937.1,81.5c3.7,0,6.6-3,6.6-6.6s-3-6.6-6.6-6.6c-3.7,0-6.6,3-6.6,6.6
		S933.4,81.5,937.1,81.5z M874.6,93.3c3.7,0,6.6-3,6.6-6.6s-3-6.6-6.6-6.6c-3.7,0-6.6,3-6.6,6.6S871,93.3,874.6,93.3z M905.3,200.1
		c3.7,0,6.6-3,6.6-6.6c0-3.7-3-6.6-6.6-6.6s-6.6,3-6.6,6.6C898.6,197.1,901.6,200.1,905.3,200.1z M664.1,443.1c3.7,0,6.6-3,6.6-6.6
		c0-3.7-3-6.6-6.6-6.6c-3.7,0-6.6,3-6.6,6.6C657.4,440.1,660.4,443.1,664.1,443.1z M603.8,674.7c3.7,0,6.6-3,6.6-6.6s-3-6.6-6.6-6.6
		c-3.7,0-6.6,3-6.6,6.6S600.2,674.7,603.8,674.7z M630.1,726.8c3.7,0,6.6-3,6.6-6.6s-3-6.6-6.6-6.6c-3.7,0-6.6,3-6.6,6.6
		S626.4,726.8,630.1,726.8z M642.3,715c3.7,0,6.6-3,6.6-6.6s-3-6.6-6.6-6.6c-3.7,0-6.6,3-6.6,6.6S638.6,715,642.3,715z M657.4,720.2
		c3.7,0,6.6-3,6.6-6.6c0-3.7-3-6.6-6.6-6.6s-6.6,3-6.6,6.6C650.8,717.2,653.7,720.2,657.4,720.2z M633.8,744.2c3.7,0,6.6-3,6.6-6.6
		c0-3.7-3-6.6-6.6-6.6c-3.7,0-6.6,3-6.6,6.6C627.1,741.2,630.1,744.2,633.8,744.2z M642.3,758.6c3.7,0,6.6-3,6.6-6.6
		c0-3.7-3-6.6-6.6-6.6c-3.7,0-6.6,3-6.6,6.6C635.6,755.6,638.6,758.6,642.3,758.6z M957.4,679.9c3.7,0,6.6-3,6.6-6.6s-3-6.6-6.6-6.6
		s-6.6,3-6.6,6.6S953.7,679.9,957.4,679.9z M1083.3,742c3.7,0,6.6-3,6.6-6.6s-3-6.6-6.6-6.6c-3.7,0-6.6,3-6.6,6.6
		S1079.7,742,1083.3,742z M1074.5,785.6c3.7,0,6.6-3,6.6-6.6c0-3.7-3-6.6-6.6-6.6c-3.7,0-6.6,3-6.6,6.6
		C1067.8,782.6,1070.8,785.6,1074.5,785.6z M1085.9,818.4c3.7,0,6.6-3,6.6-6.6s-3-6.6-6.6-6.6s-6.6,3-6.6,6.6
		S1082.3,818.4,1085.9,818.4z M1040.5,730.9c3.7,0,6.6-3,6.6-6.6c0-3.7-3-6.6-6.6-6.6c-3.7,0-6.6,3-6.6,6.6
		C1033.8,727.9,1036.8,730.9,1040.5,730.9z M1053.4,707.6c3.7,0,6.6-3,6.6-6.6c0-3.7-3-6.6-6.6-6.6s-6.6,3-6.6,6.6
		C1046.8,704.6,1049.7,707.6,1053.4,707.6z M1044.2,664.8c3.7,0,6.6-3,6.6-6.6s-3-6.6-6.6-6.6s-6.6,3-6.6,6.6
		S1040.5,664.8,1044.2,664.8z M1047.1,648.5c3.7,0,6.6-3,6.6-6.6s-3-6.6-6.6-6.6c-3.7,0-6.6,3-6.6,6.6S1043.5,648.5,1047.1,648.5z
		 M977.7,631.9c3.7,0,6.6-3,6.6-6.6c0-3.7-3-6.6-6.6-6.6c-3.7,0-6.6,3-6.6,6.6C971,628.9,974,631.9,977.7,631.9z M967,591.3
		c3.7,0,6.6-3,6.6-6.6c0-3.7-3-6.6-6.6-6.6c-3.7,0-6.6,3-6.6,6.6C960.3,588.3,963.3,591.3,967,591.3z M937.1,591.3
		c3.7,0,6.6-3,6.6-6.6c0-3.7-3-6.6-6.6-6.6c-3.7,0-6.6,3-6.6,6.6C930.4,588.3,933.4,591.3,937.1,591.3z M919.7,559.1
		c3.7,0,6.6-3,6.6-6.6c0-3.7-3-6.6-6.6-6.6s-6.6,3-6.6,6.6C913,556.1,916,559.1,919.7,559.1z M992.8,551.4c3.7,0,6.6-3,6.6-6.6
		c0-3.7-3-6.6-6.6-6.6c-3.7,0-6.6,3-6.6,6.6C986.2,548.4,989.2,551.4,992.8,551.4z M1005.8,574.6c3.7,0,6.6-3,6.6-6.6
		c0-3.7-3-6.6-6.6-6.6c-3.7,0-6.6,3-6.6,6.6C999.1,571.7,1002.1,574.6,1005.8,574.6z M823.6,642.2c3.7,0,6.6-3,6.6-6.6
		s-3-6.6-6.6-6.6s-6.6,3-6.6,6.6S820,642.2,823.6,642.2z M908.6,799.2c3.7,0,6.6-3,6.6-6.6c0-3.7-3-6.6-6.6-6.6
		c-3.7,0-6.6,3-6.6,6.6C902,796.3,904.9,799.2,908.6,799.2z M908.6,814c3.7,0,6.6-3,6.6-6.6s-3-6.6-6.6-6.6c-3.7,0-6.6,3-6.6,6.6
		S904.9,814,908.6,814z"/>
</g>
<g>
	<path class="st2" d="M526.6,873.1h17.6c12.4,0,21.6,4.1,21.6,16.5c0,11.9-9.2,17.4-21.3,17.4h-8v19.7h-9.9V873.1z M543.7,899.4
		c8.3,0,12.3-3.2,12.3-9.8c0-6.7-4.3-8.9-12.6-8.9h-6.9v18.7H543.7z"/>
	<path class="st2" d="M593.4,873.1h18.8c11.6,0,20.6,3.9,20.6,15.9c0,11.5-9,16.8-20.6,16.8h-8.9v20.9h-9.9V873.1z M611.2,898.2
		c7.7,0,11.8-3.1,11.8-9.1c0-6.2-4.2-8.3-11.8-8.3h-7.9v17.4H611.2z M610.4,903.2l7.2-5.7l17.4,29.2h-11.1L610.4,903.2z"/>
	<path class="st2" d="M661.1,873.1h33.6v8H671v13.7h20.1v8H671v15.9h24.6v8h-34.5V873.1z"/>
	<path class="st2" d="M724.1,873.1h11.2l9.9,26.2c1.2,3.4,2.4,7,3.6,10.5h0.3c1.2-3.5,2.3-7.1,3.5-10.5l9.7-26.2h11.2v53.6h-9.1
		v-24.5c0-4.9,0.8-12.1,1.3-17h-0.3l-4.5,12.5l-9.2,24.1h-5.9l-9.2-24.1l-4.4-12.5h-0.3c0.5,5,1.3,12.1,1.3,17v24.5h-8.9V873.1z"/>
	<path class="st2" d="M804.9,873.1h9.9v53.6h-9.9V873.1z"/>
	<path class="st2" d="M846.1,873.1h33.6v8H856v13.7h20.1v8H856v15.9h24.6v8h-34.5V873.1z"/>
	<path class="st2" d="M909.1,873.1h18.8c11.6,0,20.6,3.9,20.6,15.9c0,11.5-9,16.8-20.6,16.8H919v20.9h-9.9V873.1z M926.9,898.2
		c7.7,0,11.8-3.1,11.8-9.1c0-6.2-4.2-8.3-11.8-8.3H919v17.4H926.9z M926.1,903.2l7.2-5.7l17.4,29.2h-11.1L926.1,903.2z"/>
</g>
<g>
	<path class="st2" d="M763.4,937.8h2.8l6.6,19.5h-2.6l-3.4-10.9c-0.7-2.2-1.3-4.3-2-6.6h-0.1c-0.6,2.3-1.2,4.4-1.9,6.6l-3.4,10.9
		h-2.5L763.4,937.8z M760.3,949.4h9v2h-9V949.4z"/>
	<path class="st2" d="M780.9,952v-9.2h2.4v8.8c0,2.7,0.8,3.8,2.7,3.8c1.5,0,2.5-0.7,3.9-2.4v-10.3h2.4v14.5h-2l-0.2-2.3h-0.1
		c-1.3,1.6-2.8,2.6-4.8,2.6C782.3,957.7,780.9,955.7,780.9,952z"/>
	<path class="st2" d="M803.6,952.9v-8h-2.2V943l2.3-0.1l0.3-4.1h2v4.1h3.9v2h-3.9v8c0,1.8,0.6,2.8,2.2,2.8c0.5,0,1.2-0.2,1.6-0.4
		l0.5,1.8c-0.8,0.3-1.8,0.5-2.7,0.5C804.7,957.7,803.6,955.7,803.6,952.9z"/>
	<path class="st2" d="M817.7,950.1c0-4.8,3.2-7.6,6.7-7.6c3.5,0,6.7,2.8,6.7,7.6c0,4.8-3.2,7.6-6.7,7.6
		C820.9,957.7,817.7,954.9,817.7,950.1z M828.6,950.1c0-3.3-1.7-5.6-4.2-5.6c-2.5,0-4.2,2.3-4.2,5.6s1.7,5.5,4.2,5.5
		C826.9,955.6,828.6,953.4,828.6,950.1z"/>
	<path class="st2" d="M840.8,942.9h2l0.2,2.1h0.1c1.3-1.4,2.8-2.5,4.5-2.5c2.2,0,3.4,1.1,4,2.8c1.5-1.6,3-2.8,4.8-2.8
		c3,0,4.4,2,4.4,5.7v9.2h-2.4v-8.8c0-2.7-0.9-3.8-2.7-3.8c-1.1,0-2.3,0.7-3.6,2.2v10.5h-2.4v-8.8c0-2.7-0.9-3.8-2.7-3.8
		c-1.1,0-2.3,0.7-3.6,2.2v10.5h-2.4V942.9z"/>
	<path class="st2" d="M870.5,953.6c0-3.1,2.7-4.7,8.9-5.4c0-1.9-0.6-3.7-3-3.7c-1.7,0-3.2,0.8-4.3,1.5l-1-1.7
		c1.3-0.9,3.4-1.9,5.7-1.9c3.5,0,5,2.3,5,5.9v8.9h-2l-0.2-1.7h-0.1c-1.4,1.1-3,2.1-4.8,2.1C872.4,957.7,870.5,956.2,870.5,953.6z
		 M879.4,953.8v-4c-4.8,0.6-6.5,1.8-6.5,3.6c0,1.6,1.1,2.3,2.5,2.3C876.9,955.7,878,955,879.4,953.8z"/>
	<path class="st2" d="M892.4,952.9v-8h-2.2V943l2.3-0.1l0.3-4.1h2v4.1h3.9v2h-3.9v8c0,1.8,0.6,2.8,2.2,2.8c0.5,0,1.2-0.2,1.6-0.4
		l0.5,1.8c-0.8,0.3-1.8,0.5-2.7,0.5C893.4,957.7,892.4,955.7,892.4,952.9z"/>
	<path class="st2" d="M907.5,938.3c0-1,0.7-1.6,1.7-1.6c1,0,1.7,0.6,1.7,1.6c0,0.9-0.7,1.6-1.7,1.6
		C908.2,939.9,907.5,939.2,907.5,938.3z M907.9,942.9h2.4v14.5h-2.4V942.9z"/>
	<path class="st2" d="M920.1,950.1c0-4.8,3.2-7.6,6.7-7.6c3.5,0,6.7,2.8,6.7,7.6c0,4.8-3.2,7.6-6.7,7.6
		C923.3,957.7,920.1,954.9,920.1,950.1z M931,950.1c0-3.3-1.7-5.6-4.2-5.6c-2.5,0-4.2,2.3-4.2,5.6s1.7,5.5,4.2,5.5
		C929.3,955.6,931,953.4,931,950.1z"/>
	<path class="st2" d="M943.3,942.9h2l0.2,2.1h0.1c1.4-1.4,2.9-2.4,4.8-2.4c3,0,4.4,2,4.4,5.7v9.2h-2.4v-8.8c0-2.7-0.8-3.8-2.7-3.8
		c-1.5,0-2.5,0.8-4,2.2v10.5h-2.4V942.9z"/>
</g>
<path class="st3" d="M740.1,425.8c-2.9,29.3-0.6,58.9-4.3,88.2c-1.8,42.7-23.6,84.8-59.2,109c-14.2,10.4-28.5,20.9-42.7,31.4
	c-64.1,47.3-128.1,94.9-192.8,141.4c-0.4-47.1-0.1-94.3-0.2-141.4c0-4.6,0-9.3,0-13.9c1.1-62.8,35.4-123.6,87.5-158.4
	c37.8-26.4,75.2-53.1,113.2-79.4c-94-68.6-187.8-137.5-282.6-205c-43-31.6-74.7-80.3-80-134c-0.7-10.2-1-20.5-1-30.7h194.2
	c50,36.1,99.9,72.4,150,108.5c21.3,15.3,43.7,29.9,61.9,49.2c20.8,19.8,36,45.2,46.1,72.1c7.4,23.5,9.6,47.6,10,72
	C740.6,365.1,738.4,395.7,740.1,425.8z"/>
<path class="st4" d="M320.5,714c1.6,55.1-10.9,113.2-46.5,156.5c-17.1,22.7-40.9,39-64.5,54.3c-30.4,19.2-58.1,42.5-87.4,63.4
	c-3.6-34.4-2.6-68.9-2.4-103.4c0-5.8,0-11.7-0.1-17.5c0-74.9,0-149.9,0-224.8v-18.6c-0.2-13.7-0.2-27.3,0-41
	c-1.6-55.1,10.9-113.2,46.5-156.5c17.1-22.7,40.9-39,64.5-54.2c30.5-19.2,58.1-42.6,87.5-63.4c0,0,0,0.3,0.1,0.9
	c0.1,0.4,0.1,0.7,0.1,1.1c4,39.5,1.9,79.2,2.3,118.9c0,74.9,0,149.9,0,224.8V673C320.7,686.7,320.8,700.4,320.5,714z"/>
<linearGradient id="SVGID_00000034774810185057682660000014197308257714036653_" gradientUnits="userSpaceOnUse" x1="252.7249" y1="667.7024" x2="301.6609" y2="695.1065">
	<stop  offset="0" style="stop-color:#A60000"/>
	<stop  offset="0.6063" style="stop-color:#C60001"/>
	<stop  offset="0.9996" style="stop-color:#D60002"/>
</linearGradient>
<path style="fill:url(#SVGID_00000034774810185057682660000014197308257714036653_);" d="M320.5,429.6c0,74.9,0,149.9,0,224.8V673
	c0.2,13.7,0.2,27.4,0,41c1.6,55.1-10.9,113.2-46.5,156.5c-17.1,22.7-40.9,39-64.5,54.3c-30.4,19.2-58.1,42.5-87.4,63.4
	c-3.6-34.4-2.6-68.9-2.4-103.4c223.5-200.9,201-544.6,198.6-574.1C322.2,350.2,320.1,389.9,320.5,429.6z"/>
<linearGradient id="SVGID_00000104685093447100626220000004225077993363922099_" gradientUnits="userSpaceOnUse" x1="677.336" y1="705.1053" x2="519.7142" y2="450.7809">
	<stop  offset="0.5264" style="stop-color:#F6C602"/>
	<stop  offset="0.8382" style="stop-color:#CD9E01"/>
	<stop  offset="0.9992" style="stop-color:#BD8E00"/>
</linearGradient>
<path style="fill:url(#SVGID_00000104685093447100626220000004225077993363922099_);" d="M740.1,425.8c-2.9,29.3-0.6,58.9-4.3,88.2
	c-1.8,42.7-23.6,84.8-59.2,109c-14.2,10.4-28.5,20.9-42.7,31.4c-64.1,47.3-128.1,94.9-192.8,141.4c-0.4-47.1-0.1-94.3-0.2-141.4
	c0-4.6,0-9.3,0-13.9c1.1-62.8,35.4-123.6,87.5-158.4c37.8-26.4,75.2-53.1,113.2-79.4l98.5-68C740.6,365.1,738.4,395.7,740.1,425.8z"
	/>
</svg>
