<?xml version="1.0" encoding="utf-8"?>
<!-- Generator: Adobe Illustrator 26.5.0, SVG Export Plug-In . SVG Version: 6.00 Build 0)  -->
<svg version="1.1" id="Layer_1" xmlns="http://www.w3.org/2000/svg" xmlns:xlink="http://www.w3.org/1999/xlink" x="0px" y="0px"
	 viewBox="0 0 100 55" style="enable-background:new 0 0 100 55;" xml:space="preserve">
<style type="text/css">
	.st0{fill:#C4CCE3;}
	.st1{fill:#FFFFFF;}
	
		.st2{clip-path:url(#SVGID_00000026157008750517260820000013996172108766222500_);fill:#FFFFFF;stroke:#FFFFFF;stroke-width:2;stroke-linecap:round;stroke-linejoin:round;stroke-miterlimit:10;}
</style>
<g>
	<g>
		<g>
			<path class="st0" d="M50.3,3.5c-5.5,0-10.5,1.8-14.6,4.9c-1.8,1.4-3.4,2.9-4.7,4.7c-3.1,4.1-4.9,9.1-4.9,14.6
				c0,13.4,10.8,24.2,24.2,24.2c5.5,0,10.5-1.8,14.6-4.9c1.8-1.4,3.4-3,4.7-4.7c3.1-4.1,4.9-9.1,4.9-14.6
				C74.5,14.4,63.7,3.5,50.3,3.5z M67.3,39.2c-0.2,0.2-0.3,0.5-0.5,0.7c-0.1,0.1-0.2,0.2-0.3,0.4c-0.1,0.2-0.3,0.3-0.4,0.5
				c-0.6,0.7-1.2,1.4-1.9,2c-0.3,0.3-0.6,0.5-0.9,0.8c-0.1,0.1-0.2,0.2-0.4,0.3c-0.3,0.3-0.7,0.5-1.1,0.8c-3.3,2.2-7.3,3.6-11.5,3.6
				C39,48.2,29.8,39,29.8,27.7c0-4.3,1.3-8.2,3.6-11.5c0.2-0.4,0.5-0.7,0.8-1c0.1-0.1,0.2-0.2,0.3-0.4c0.3-0.3,0.5-0.6,0.8-0.9
				c0.6-0.7,1.3-1.3,2-1.9c0.2-0.1,0.3-0.3,0.5-0.4c0.1-0.1,0.2-0.2,0.4-0.3c0.2-0.2,0.5-0.4,0.7-0.5c3.3-2.2,7.2-3.5,11.5-3.5
				c11.3,0,20.5,9.2,20.5,20.5C70.8,32,69.5,36,67.3,39.2z"/>
			<g id="XMLID_10_">
				<path id="XMLID_2_" class="st1" d="M61.2,39.7H39.4c-1.7,0-3-1.3-3-3V18.8c0-1.7,1.3-3,3-3h21.8c1.7,0,3,1.3,3,3v17.8
					C64.2,38.3,62.9,39.7,61.2,39.7z"/>
				<path id="XMLID_15_" class="st0" d="M37.8,35.7V19.8c0-1.4,1.1-2.5,2.5-2.5h20.1c1.4,0,2.5,1.1,2.5,2.5v15.9
					c0,1.4-1.1,2.5-2.5,2.5H40.3C38.9,38.2,37.8,37.1,37.8,35.7z"/>
				<g id="XMLID_98_">
					<path id="XMLID_112_" class="st1" d="M55.8,26.9c-0.4-0.5-1.2-0.5-1.6,0l-1,1.2c-0.4,0.5-1.2,0.5-1.6,0l-3.4-4.3
						c-0.4-0.5-1.2-0.5-1.6,0l-9.4,11.8v3.1h7H60h3.3v-3.1L55.8,26.9z"/>
					<circle id="XMLID_116_" class="st1" cx="57.1" cy="22.5" r="2.6"/>
				</g>
			</g>
			<g>
				<defs>
					<path id="SVGID_1_" d="M70.8,27.7c0,4.3-1.3,8.2-3.5,11.5c-0.2,0.2-0.3,0.5-0.5,0.7c-0.1,0.1-0.2,0.2-0.3,0.4
						c-0.1,0.2-0.3,0.3-0.4,0.5c-0.6,0.7-1.2,1.4-1.9,2c-0.3,0.3-0.6,0.5-0.9,0.8c-0.1,0.1-0.2,0.2-0.4,0.3
						c-0.3,0.3-0.7,0.5-1.1,0.8c-3.3,2.2-7.3,3.6-11.5,3.6C39,48.2,29.8,39,29.8,27.7c0-4.3,1.3-8.2,3.6-11.5c0.2-0.4,0.5-0.7,0.8-1
						c0.1-0.1,0.2-0.2,0.3-0.4c0.3-0.3,0.5-0.6,0.8-0.9c0.6-0.7,1.3-1.3,2-1.9c0.2-0.1,0.3-0.3,0.5-0.4c0.1-0.1,0.2-0.2,0.4-0.3
						c0.2-0.2,0.5-0.4,0.7-0.5c3.3-2.2,7.2-3.5,11.5-3.5C61.6,7.2,70.8,16.4,70.8,27.7z"/>
				</defs>
				<clipPath id="SVGID_00000123399327311877769400000009046381654509891006_">
					<use xlink:href="#SVGID_1_"  style="overflow:visible;"/>
				</clipPath>
				
					<path style="clip-path:url(#SVGID_00000123399327311877769400000009046381654509891006_);fill:#FFFFFF;stroke:#FFFFFF;stroke-width:2;stroke-linecap:round;stroke-linejoin:round;stroke-miterlimit:10;" d="
					M66.5,40.8c-1.1,1.4-2.3,2.7-3.8,3.8l-29.8-30c1.1-1.4,2.3-2.7,3.8-3.8L66.5,40.8z"/>
			</g>
		</g>
	</g>
	<path class="st0" d="M66.5,40.8c-1.1,1.4-2.3,2.7-3.8,3.8l-29.8-30c1.1-1.4,2.3-2.7,3.8-3.8L66.5,40.8z"/>
</g>
</svg>
