<?xml version="1.0" encoding="utf-8"?>
<!-- Generator: Adobe Illustrator 26.5.0, SVG Export Plug-In . SVG Version: 6.00 Build 0)  -->
<svg version="1.1" id="Layer_1" xmlns="http://www.w3.org/2000/svg" xmlns:xlink="http://www.w3.org/1999/xlink" x="0px" y="0px"
	 viewBox="0 0 100 55" style="enable-background:new 0 0 100 55;" xml:space="preserve">
<style type="text/css">
	.st0{fill:#FFFFFF;}
	.st1{fill:#C4CCE3;}
</style>
<g>
	<g>
		<g>
			<g id="XMLID_10_">
				<g id="XMLID_2_">
					<path class="st0" d="M29.8,50.6c-3.7,0-6.5-2.9-6.5-6.5V11.2c0-3.7,2.9-6.5,6.5-6.5h40.1c3.7,0,6.5,2.9,6.5,6.5v32.7
						c0,3.8-2.9,6.7-6.5,6.7H29.8z"/>
					<path class="st1" d="M69.9,5.7c3.1,0,5.5,2.4,5.5,5.5v32.7c0,3.1-2.4,5.7-5.5,5.7H29.8c-3.1,0-5.5-2.4-5.5-5.5V11.2
						c0-3.1,2.4-5.5,5.5-5.5H69.9 M69.9,3.7H29.8c-4.2,0-7.5,3.3-7.5,7.5v32.9c0,4.2,3.3,7.5,7.5,7.5h40.1c4.2,0,7.5-3.4,7.5-7.7
						V11.2C77.4,7,74.1,3.7,69.9,3.7L69.9,3.7z"/>
				</g>
				<path id="XMLID_15_" class="st1" d="M26.8,42.3V13c0-2.6,2-4.6,4.6-4.6h37c2.6,0,4.6,2,4.6,4.6v29.3c0,2.6-2,4.6-4.6,4.6h-37
					C28.8,46.9,26.8,44.9,26.8,42.3z"/>
				<g id="XMLID_98_">
					<path id="XMLID_112_" class="st0" d="M59.7,27.7c-0.7-0.8-2.1-0.8-2.8,0l-1.8,2c-0.7,0.8-2.1,0.8-2.8,0l-6-7
						c-0.7-0.8-2.1-0.8-2.8,0L26.8,41.8v5h12.4h28H73v-5L59.7,27.7z"/>
					<circle id="XMLID_116_" class="st0" cx="62.3" cy="18" r="4.8"/>
				</g>
			</g>
		</g>
	</g>
</g>
</svg>
