<?xml version="1.0" encoding="utf-8"?>
<!-- Generator: Adobe Illustrator 26.5.0, SVG Export Plug-In . SVG Version: 6.00 Build 0)  -->
<svg version="1.1" id="Layer_1" xmlns="http://www.w3.org/2000/svg" xmlns:xlink="http://www.w3.org/1999/xlink" x="0px" y="0px"
	 viewBox="0 0 50 50" style="enable-background:new 0 0 50 50;" xml:space="preserve">
<style type="text/css">
	.st0{fill:none;stroke:#000000;stroke-width:2;stroke-linecap:round;stroke-linejoin:round;stroke-miterlimit:10;}
</style>
<g>
	<g>
		<path d="M41.7,8l-9.9-0.5c-1.3-0.1-2.6,0.4-3.6,1.2L5,27.3c-2.3,1.9-2.7,5.2-0.9,7.6l8.6,10.8c1.9,2.3,5.2,2.7,7.6,0.9l23.1-18.4
			c1.1-0.9,1.8-2.1,2-3.5l1.3-10.5C47.2,11,44.9,8.2,41.7,8z M25.2,37.5c-5.7,0-10.2-4.6-10.2-10.2C15,21.6,19.6,17,25.2,17
			s10.2,4.6,10.2,10.2C35.5,32.9,30.9,37.5,25.2,37.5z M42.2,16.9c-1.4,1.1-3.5,0.9-4.6-0.5s-0.9-3.5,0.5-4.6
			c1.4-1.1,3.5-0.9,4.6,0.5S43.6,15.7,42.2,16.9z"/>
		<path d="M27.5,19.6c-0.2-0.2-0.4-0.3-0.5-0.4c-0.2,0-0.4,0.1-0.6,0.2L18,26.2c-0.2,0.2-0.3,0.3-0.3,0.5c0,0.2,0.1,0.4,0.2,0.6
			l3.3,4.1c0.6,0.7,1.2,1.3,1.9,1.6c0.7,0.3,1.3,0.4,1.9,0.3c0.6-0.1,1.2-0.4,1.8-0.8c1.1-0.9,1.4-1.9,0.9-3.2
			c0.4,0.2,0.9,0.3,1.4,0.3c0.5-0.1,1-0.3,1.4-0.6c0.8-0.7,1.3-1.5,1.3-2.4c0.1-0.9-0.3-1.9-1.2-2.9L27.5,19.6z M25,30.2
			c-0.4,0.3-0.7,0.4-1.1,0.4c-0.4,0-0.7-0.2-1.1-0.7L21,27.7l2.4-2l1.7,2.2c0.3,0.4,0.5,0.8,0.5,1.2C25.6,29.5,25.4,29.9,25,30.2z
			 M28.7,26.8c-0.4,0.3-0.7,0.4-1.1,0.4c-0.4-0.1-0.7-0.3-1-0.6l-1.7-2l2.2-1.8l1.7,2c0.3,0.4,0.5,0.8,0.5,1.1
			C29.3,26.1,29.1,26.4,28.7,26.8z"/>
	</g>
	<line class="st0" x1="40.5" y1="14.7" x2="40.5" y2="3"/>
</g>
</svg>
