<?xml version="1.0" encoding="utf-8"?>
<!-- Generator: Adobe Illustrator 26.5.0, SVG Export Plug-In . SVG Version: 6.00 Build 0)  -->
<svg version="1.1" id="Layer_1" xmlns="http://www.w3.org/2000/svg" xmlns:xlink="http://www.w3.org/1999/xlink" x="0px" y="0px"
	 viewBox="0 0 50 50" style="enable-background:new 0 0 50 50;" xml:space="preserve">
<style type="text/css">
	.st0{fill:#333333;}
	.st1{fill:#1A1A1A;}
	.st2{fill:none;stroke:#000000;stroke-width:2;stroke-linecap:round;stroke-linejoin:round;stroke-miterlimit:10;}
</style>
<g>
	<g>
		<path class="st0" d="M44.2,29.4L32.8,16.3c-0.5-0.6-1.3-1-2.1-1.1l-6.2-0.5c-1.8-0.2-3.4,1.3-3.4,3.1l0,5.8c0,0.8,0.3,1.5,0.8,2.1
			l11.5,13.2c1.1,1.3,3.1,1.5,4.5,0.3l6.2-5.3C45.2,32.7,45.4,30.7,44.2,29.4z M26.1,20.1c-0.8,0.7-2,0.6-2.7-0.2s-0.6-2,0.2-2.7
			c0.8-0.7,2-0.6,2.7,0.2C27,18.1,26.9,19.4,26.1,20.1z M31.7,29.7c-0.1,0-0.2-0.1-0.2-0.1L31,29.1c-0.1-0.1-0.1-0.2-0.1-0.3
			c0-0.1,0-0.2,0.1-0.2l1.6-1.4c0.2-0.1,0.2-0.3,0.2-0.4c0-0.1-0.1-0.3-0.2-0.4c-0.2-0.2-0.3-0.3-0.5-0.3c-0.2,0-0.4,0-0.5,0.1
			l-1.5,1.4c-0.1,0.1-0.2,0.1-0.2,0.1c-0.1,0-0.2,0-0.3-0.1l-0.4-0.4c-0.1-0.1-0.1-0.2-0.1-0.3c0-0.1,0-0.2,0.1-0.2l2.4-2.2
			c0.1-0.1,0.1-0.1,0.2-0.1c0,0,0.1,0,0.2,0.1l0.4,0.5c0,0,0.1,0.1,0.1,0.1c0,0,0,0.1,0,0.1l-0.2,0.2c0.2,0,0.5,0.1,0.7,0.2
			c0.2,0.1,0.5,0.3,0.7,0.5c0.3,0.3,0.4,0.7,0.5,1s-0.2,0.7-0.5,1l-1.6,1.5C31.8,29.7,31.8,29.7,31.7,29.7z M35.3,33.2
			c-0.3-0.1-0.6-0.2-0.9-0.4c-0.3-0.2-0.6-0.4-0.9-0.7c-1.1-1.1-1.1-2.2-0.1-3.1c0.3-0.3,0.6-0.5,0.9-0.6s0.7-0.1,1,0
			s0.6,0.3,0.9,0.6c0.2,0.2,0.3,0.3,0.4,0.5c0.1,0.2,0.1,0.3,0.1,0.5l1-1c0.1-0.1,0.2-0.1,0.3-0.1c0.1,0,0.2,0,0.3,0.1l0.4,0.4
			c0.1,0.1,0.1,0.2,0.1,0.3c0,0.1,0,0.2-0.1,0.2L35.3,33.2z M40.5,34.3c0,0-0.1,0-0.1,0l-0.5,0.1c-0.1,0-0.1,0-0.1,0
			c0,0,0-0.1,0-0.1c0-0.1-0.1-0.3-0.2-0.5c-0.1-0.2-0.2-0.3-0.3-0.4c-0.2-0.2-0.3-0.3-0.4-0.3s-0.2,0-0.3,0.1
			c-0.1,0.1-0.1,0.2-0.1,0.3s0.1,0.3,0.3,0.6l0.2,0.4c0.1,0.3,0.2,0.5,0.2,0.7c0,0.2,0,0.3,0,0.5c0,0.1-0.1,0.3-0.3,0.4
			c-0.2,0.2-0.6,0.3-0.9,0.2c-0.4-0.1-0.8-0.3-1.2-0.8c-0.2-0.2-0.4-0.5-0.6-0.8c-0.2-0.3-0.3-0.5-0.3-0.8c0-0.1,0-0.2,0-0.2
			c0,0,0.1,0,0.1,0l0.6-0.1c0.1,0,0.1,0,0.1,0c0,0,0,0.1,0.1,0.1c0,0.2,0.1,0.4,0.2,0.6s0.2,0.4,0.4,0.5c0.2,0.2,0.3,0.3,0.4,0.3
			c0.1,0,0.2,0,0.3-0.1c0.1-0.1,0.1-0.1,0.1-0.2c0-0.1,0-0.2-0.1-0.3c-0.1-0.1-0.1-0.3-0.3-0.6c-0.2-0.4-0.3-0.8-0.3-1
			c0-0.3,0.1-0.5,0.3-0.7c0.3-0.3,0.6-0.3,1-0.2s0.7,0.3,1.1,0.7c0.4,0.5,0.7,0.9,0.8,1.4C40.5,34.2,40.5,34.2,40.5,34.3z"/>
		<path class="st0" d="M35.2,29.5c-0.2,0-0.5,0.2-0.8,0.4c-0.3,0.3-0.4,0.5-0.5,0.8c0,0.2,0.1,0.5,0.3,0.8c0.2,0.2,0.4,0.3,0.5,0.4
			l1.1-1c0.2-0.1,0.2-0.3,0.2-0.5c0-0.2-0.1-0.3-0.3-0.5C35.6,29.6,35.4,29.5,35.2,29.5z"/>
	</g>
	<g>
		<path class="st1" d="M13.6,32.4c-0.2,0-0.3,0.1-0.5,0.3l-0.8,0.9l1,0.9l0.9-1c0.2-0.2,0.2-0.3,0.2-0.5c0-0.2-0.1-0.3-0.3-0.5
			C13.9,32.4,13.8,32.4,13.6,32.4z"/>
		<path class="st1" d="M18.7,25.5c-0.2,0.1-0.3,0.2-0.5,0.4c-0.2,0.3-0.3,0.5-0.3,0.9c0,0.3,0.2,0.6,0.5,0.9
			c0.2,0.2,0.5,0.3,0.7,0.3c0.2,0,0.4-0.1,0.6-0.3c0.2-0.2,0.2-0.4,0.3-0.6c0-0.2-0.1-0.4-0.2-0.6L18.7,25.5z"/>
		<path class="st1" d="M12.6,31.7c0-0.2-0.1-0.3-0.2-0.4C12.2,31.1,12,31,11.9,31c-0.1,0-0.3,0.1-0.4,0.3l-0.8,0.9l0.9,0.8l0.8-0.9
			C12.5,32,12.6,31.8,12.6,31.7z"/>
		<path class="st1" d="M28.6,17.8c-0.1-1.8-1.7-3.2-3.5-3l-5.8,0.7c-0.8,0.1-1.5,0.5-2,1l-11.6,13c-1.2,1.3-1.1,3.3,0.3,4.5l6.1,5.4
			c1.3,1.2,3.3,1.1,4.5-0.3l11.6-13c0.5-0.6,0.8-1.4,0.8-2.2L28.6,17.8z M15.5,33.2c-0.1,0.3-0.3,0.6-0.5,0.9l-1.6,1.8
			C13.3,36,13.2,36,13.1,36c-0.1,0-0.2,0-0.2-0.1l-3.5-3.2c-0.1-0.1-0.1-0.2-0.1-0.2c0-0.1,0-0.2,0.1-0.3l1.6-1.7
			c0.4-0.4,0.8-0.7,1.2-0.7c0.4,0,0.8,0.1,1.1,0.4c0.2,0.2,0.3,0.4,0.4,0.6s0.1,0.4,0,0.6c0.5-0.3,1-0.2,1.5,0.2
			c0.2,0.2,0.4,0.4,0.5,0.7C15.6,32.6,15.6,32.9,15.5,33.2z M17.3,31.5l-0.4,0.4c-0.1,0.1-0.2,0.2-0.3,0.2c-0.1,0-0.2,0-0.2-0.1
			L14,29.8c-0.1-0.1-0.1-0.1-0.1-0.2c0,0,0-0.1,0.1-0.2l0.4-0.5c0,0,0.1-0.1,0.1-0.1s0.1,0,0.1,0l0.2,0.1c0-0.5,0.1-0.9,0.4-1.2
			c0.1-0.1,0.2-0.2,0.3-0.3c0.1-0.1,0.2-0.1,0.3-0.1c0.1,0,0.1,0,0.1,0c0,0,0,0,0,0.1l0.3,0.5c0,0.1,0,0.1,0,0.1c0,0,0,0-0.1,0
			c-0.1,0.1-0.3,0.2-0.4,0.3c-0.2,0.2-0.2,0.4-0.2,0.6c0,0.2,0.1,0.4,0.2,0.5l1.5,1.3c0.1,0.1,0.1,0.2,0.1,0.2
			C17.4,31.3,17.4,31.4,17.3,31.5z M21.6,26.7l-0.4,0.5c0,0-0.1,0.1-0.1,0.1c0,0-0.1,0-0.1,0l-0.3-0.1c0,0.2,0,0.5-0.1,0.7
			c-0.1,0.2-0.2,0.5-0.5,0.7c-0.3,0.4-0.7,0.6-1.2,0.6c-0.4,0-0.9-0.2-1.3-0.6c-0.3-0.3-0.6-0.6-0.7-1c-0.1-0.4-0.1-0.8,0-1.2
			c0.1-0.4,0.3-0.8,0.7-1.2c0.3-0.3,0.5-0.5,0.8-0.7c0.3-0.2,0.5-0.3,0.8-0.3l2.4,2.2c0.1,0.1,0.1,0.1,0.1,0.2
			C21.7,26.6,21.6,26.6,21.6,26.7z M26.1,19.8c-0.7,0.8-1.9,0.9-2.7,0.2c-0.8-0.7-0.9-1.9-0.2-2.7c0.7-0.8,1.9-0.9,2.7-0.2
			C26.8,17.8,26.9,19,26.1,19.8z"/>
	</g>
	<line class="st2" x1="24.8" y1="18.7" x2="24.8" y2="8.7"/>
</g>
</svg>
